<svg id="Layer_11" data-name="Layer 11" xmlns="http://www.w3.org/2000/svg" xmlns:xlink="http://www.w3.org/1999/xlink" viewBox="0 0 40 40"><defs><style>.cls-1{fill:url(#linear-gradient);}.cls-2,.cls-3,.cls-4,.cls-5,.cls-6,.cls-7,.cls-8{fill:#1a1a1a;}.cls-2{opacity:0;}.cls-3{opacity:0.04;}.cls-4{opacity:0.08;}.cls-5{opacity:0.13;}.cls-6{opacity:0.17;}.cls-7{opacity:0.21;}.cls-8{opacity:0.25;}.cls-9{fill:url(#linear-gradient-2);}.cls-10{fill:url(#linear-gradient-3);}.cls-11{fill:#808285;}</style><linearGradient id="linear-gradient" x1="5.86" y1="34.14" x2="34.14" y2="5.86" gradientUnits="userSpaceOnUse"><stop offset="0.09" stop-color="#fff"/><stop offset="1" stop-color="#d9d9d9"/></linearGradient><linearGradient id="linear-gradient-2" x1="8.87" y1="8.87" x2="31.12" y2="31.12" gradientUnits="userSpaceOnUse"><stop offset="0" stop-color="#fff"/><stop offset="1" stop-color="#ababab"/></linearGradient><linearGradient id="linear-gradient-3" x1="9.25" y1="9.25" x2="30.75" y2="30.75" xlink:href="#linear-gradient"/></defs><title>40 px off</title><path class="cls-1" d="M40,20A20,20,0,1,1,20,0,20,20,0,0,1,40,20Z"/><circle class="cls-2" cx="22.67" cy="22.67" r="15.47" transform="translate(-8.62 15.67) rotate(-32.39)"/><circle class="cls-3" cx="22.22" cy="22.22" r="15.51" transform="translate(-8.46 29.01) rotate(-57.48)"/><circle class="cls-4" cx="21.78" cy="21.78" r="15.56" transform="translate(-8.97 23.53) rotate(-48.26)"/><path class="cls-5" d="M36.93,21.33a15.6,15.6,0,1,1-15.6-15.6A15.59,15.59,0,0,1,36.93,21.33Z"/><path class="cls-6" d="M36.53,20.89A15.65,15.65,0,1,1,20.89,5.24,15.64,15.64,0,0,1,36.53,20.89Z"/><path class="cls-7" d="M36.13,20.44A15.69,15.69,0,1,1,20.44,4.76,15.68,15.68,0,0,1,36.13,20.44Z"/><path class="cls-8" d="M35.73,20A15.73,15.73,0,1,1,20,4.27,15.73,15.73,0,0,1,35.73,20Z"/><path class="cls-9" d="M35.73,20A15.73,15.73,0,1,1,20,4.27,15.73,15.73,0,0,1,35.73,20Z"/><path class="cls-10" d="M35.2,20A15.2,15.2,0,1,1,20,4.8,15.21,15.21,0,0,1,35.2,20Z"/><path class="cls-11" d="M27.3,20l1.33-1.33a.43.43,0,0,0,0-.61.44.44,0,0,0-.62,0l-1.33,1.32-1.32-1.32a.44.44,0,0,0-.62,0,.43.43,0,0,0,0,.61L26.07,20l-1.33,1.33a.43.43,0,1,0,.62.61l1.32-1.32L28,21.94a.43.43,0,0,0,.62-.61Zm0,0"/><path class="cls-11" d="M22,13.34a1.14,1.14,0,0,0-1.18.06L15.9,16.69H14a.91.91,0,0,0-.91.84h-.26a1.61,1.61,0,0,0-1.61,1.61v1.72a1.61,1.61,0,0,0,1.61,1.61h.26a.91.91,0,0,0,.91.84H15.9l4.94,3.29a1.13,1.13,0,0,0,.64.2,1.17,1.17,0,0,0,.54-.14,1.15,1.15,0,0,0,.6-1V14.35a1.15,1.15,0,0,0-.6-1Zm-8.9,8.22h-.26a.7.7,0,0,1-.7-.7V19.14a.7.7,0,0,1,.7-.7h.26Zm2.47.84H14V17.6h1.56Zm6.12,3.25a.22.22,0,0,1-.12.21.25.25,0,0,1-.25,0L16.5,22.61V17.39l4.84-3.24a.25.25,0,0,1,.25,0,.22.22,0,0,1,.12.21Zm0,0"/></svg>