<svg id="Layer_11" data-name="Layer 11" xmlns="http://www.w3.org/2000/svg" xmlns:xlink="http://www.w3.org/1999/xlink" viewBox="0 0 48 48"><defs><style>.cls-1{fill:url(#linear-gradient);}.cls-2,.cls-3,.cls-4,.cls-5,.cls-6,.cls-7,.cls-8{fill:#1a1a1a;}.cls-2{opacity:0;}.cls-3{opacity:0.04;}.cls-4{opacity:0.08;}.cls-5{opacity:0.13;}.cls-6{opacity:0.17;}.cls-7{opacity:0.21;}.cls-8{opacity:0.25;}.cls-9{fill:url(#linear-gradient-2);}.cls-10{fill:url(#linear-gradient-3);}.cls-11{fill:#808285;}</style><linearGradient id="linear-gradient" x1="7.03" y1="40.97" x2="40.97" y2="7.03" gradientUnits="userSpaceOnUse"><stop offset="0.09" stop-color="#fff"/><stop offset="1" stop-color="#d9d9d9"/></linearGradient><linearGradient id="linear-gradient-2" x1="10.65" y1="10.65" x2="37.35" y2="37.35" gradientUnits="userSpaceOnUse"><stop offset="0" stop-color="#fff"/><stop offset="1" stop-color="#ababab"/></linearGradient><linearGradient id="linear-gradient-3" x1="11.1" y1="11.1" x2="36.9" y2="36.9" xlink:href="#linear-gradient"/></defs><title>48 px cc </title><path class="cls-1" d="M48,24A24,24,0,1,1,24,0,24,24,0,0,1,48,24Z"/><circle class="cls-2" cx="27.2" cy="27.2" r="18.56" transform="translate(-10.34 18.8) rotate(-32.39)"/><circle class="cls-3" cx="26.67" cy="26.67" r="18.61" transform="translate(-10.15 34.82) rotate(-57.48)"/><circle class="cls-4" cx="26.13" cy="26.13" r="18.67" transform="translate(-10.77 28.24) rotate(-48.26)"/><path class="cls-5" d="M44.32,25.6A18.72,18.72,0,1,1,25.6,6.88,18.72,18.72,0,0,1,44.32,25.6Z"/><path class="cls-6" d="M43.84,25.07A18.78,18.78,0,1,1,25.07,6.29,18.78,18.78,0,0,1,43.84,25.07Z"/><path class="cls-7" d="M43.36,24.53A18.83,18.83,0,1,1,24.53,5.71,18.83,18.83,0,0,1,43.36,24.53Z"/><path class="cls-8" d="M42.88,24A18.88,18.88,0,1,1,24,5.12,18.88,18.88,0,0,1,42.88,24Z"/><path class="cls-9" d="M42.88,24A18.88,18.88,0,1,1,24,5.12,18.88,18.88,0,0,1,42.88,24Z"/><path class="cls-10" d="M42.24,24A18.24,18.24,0,1,1,24,5.76,18.24,18.24,0,0,1,42.24,24Z"/><path class="cls-11" d="M15.07,29.7a6.08,6.08,0,0,1-2.27-2.34,6.68,6.68,0,0,1-.82-3.3,7,7,0,0,1,.77-3.31,5.82,5.82,0,0,1,2.13-2.32A5.7,5.7,0,0,1,18,17.58a6.26,6.26,0,0,1,2.72.58,6.06,6.06,0,0,1,2.14,1.72.71.71,0,0,1,.16.39.78.78,0,0,1-.7.66.66.66,0,0,1-.53-.28A4.72,4.72,0,0,0,18,18.88a4.3,4.3,0,0,0-4,2.51,6.08,6.08,0,0,0-.57,2.67A5.55,5.55,0,0,0,14,26.71a4.73,4.73,0,0,0,1.74,1.86,4.87,4.87,0,0,0,2.56.68,4.64,4.64,0,0,0,3.28-1.14.67.67,0,0,1,.49-.21.53.53,0,0,1,.41.16.65.65,0,0,1,.24.51.55.55,0,0,1-.19.42,5.67,5.67,0,0,1-1.91,1.15,6.58,6.58,0,0,1-2.32.41A6.21,6.21,0,0,1,15.07,29.7Z"/><path class="cls-11" d="M28.27,29.7A6.08,6.08,0,0,1,26,27.36a6.68,6.68,0,0,1-.82-3.3A7.11,7.11,0,0,1,26,20.75a5.82,5.82,0,0,1,2.13-2.32,5.7,5.7,0,0,1,3.07-.85,6.26,6.26,0,0,1,2.72.58A6,6,0,0,1,36,19.88a.71.71,0,0,1,.16.39.59.59,0,0,1-.32.52.57.57,0,0,1-.37.14.66.66,0,0,1-.54-.28,4.72,4.72,0,0,0-3.79-1.77,4.3,4.3,0,0,0-4,2.51,6.08,6.08,0,0,0-.57,2.67,5.55,5.55,0,0,0,.63,2.65,4.73,4.73,0,0,0,1.74,1.86,4.87,4.87,0,0,0,2.56.68,4.64,4.64,0,0,0,3.28-1.14.67.67,0,0,1,.49-.21.53.53,0,0,1,.41.16.65.65,0,0,1,.24.51.52.52,0,0,1-.19.42,5.72,5.72,0,0,1-1.9,1.15,6.68,6.68,0,0,1-2.33.41A6.21,6.21,0,0,1,28.27,29.7Z"/></svg>