<svg id="Layer_11" data-name="Layer 11" xmlns="http://www.w3.org/2000/svg" xmlns:xlink="http://www.w3.org/1999/xlink" viewBox="0 0 48 48"><defs><style>.cls-1{fill:url(#linear-gradient);}.cls-2,.cls-3,.cls-4,.cls-5,.cls-6,.cls-7,.cls-8{fill:#1a1a1a;}.cls-2{opacity:0;}.cls-3{opacity:0.04;}.cls-4{opacity:0.08;}.cls-5{opacity:0.13;}.cls-6{opacity:0.17;}.cls-7{opacity:0.21;}.cls-8{opacity:0.25;}.cls-9{fill:url(#linear-gradient-2);}.cls-10{fill:url(#linear-gradient-3);}.cls-11{fill:#808285;}</style><linearGradient id="linear-gradient" x1="7.03" y1="40.97" x2="40.97" y2="7.03" gradientUnits="userSpaceOnUse"><stop offset="0.09" stop-color="#fff"/><stop offset="1" stop-color="#d9d9d9"/></linearGradient><linearGradient id="linear-gradient-2" x1="10.65" y1="10.65" x2="37.35" y2="37.35" gradientUnits="userSpaceOnUse"><stop offset="0" stop-color="#fff"/><stop offset="1" stop-color="#ababab"/></linearGradient><linearGradient id="linear-gradient-3" x1="11.1" y1="11.1" x2="36.9" y2="36.9" xlink:href="#linear-gradient"/></defs><title>48 px on</title><path class="cls-1" d="M48,24A24,24,0,1,1,24,0,24,24,0,0,1,48,24Z"/><circle class="cls-2" cx="27.2" cy="27.2" r="18.56" transform="translate(-10.34 18.8) rotate(-32.39)"/><circle class="cls-3" cx="26.67" cy="26.67" r="18.61" transform="translate(-10.15 34.82) rotate(-57.48)"/><circle class="cls-4" cx="26.13" cy="26.13" r="18.67" transform="translate(-10.77 28.24) rotate(-48.26)"/><path class="cls-5" d="M44.32,25.6A18.72,18.72,0,1,1,25.6,6.88,18.72,18.72,0,0,1,44.32,25.6Z"/><path class="cls-6" d="M43.84,25.07A18.78,18.78,0,1,1,25.07,6.29,18.78,18.78,0,0,1,43.84,25.07Z"/><path class="cls-7" d="M43.36,24.53A18.83,18.83,0,1,1,24.53,5.71,18.83,18.83,0,0,1,43.36,24.53Z"/><path class="cls-8" d="M42.88,24A18.88,18.88,0,1,1,24,5.12,18.88,18.88,0,0,1,42.88,24Z"/><path class="cls-9" d="M42.88,24A18.88,18.88,0,1,1,24,5.12,18.88,18.88,0,0,1,42.88,24Z"/><path class="cls-10" d="M42.24,24A18.24,18.24,0,1,1,24,5.76,18.24,18.24,0,0,1,42.24,24Z"/><path class="cls-11" d="M25.88,16a1.37,1.37,0,0,0-1.42.07L18.54,20H16.29a1.11,1.11,0,0,0-1.09,1h-.32A1.94,1.94,0,0,0,13,23V25A1.94,1.94,0,0,0,14.88,27h.32a1.11,1.11,0,0,0,1.09,1h2.25l5.92,3.94a1.35,1.35,0,0,0,.77.24,1.4,1.4,0,0,0,.65-.17,1.36,1.36,0,0,0,.72-1.21V17.22A1.36,1.36,0,0,0,25.88,16ZM15.19,25.87h-.31A.84.84,0,0,1,14,25V23a.84.84,0,0,1,.84-.83h.31Zm3,1H16.29V21.13h1.87Zm7.35,3.9a.28.28,0,0,1-.15.25.28.28,0,0,1-.29,0l-5.82-3.87V20.86L25.07,17a.28.28,0,0,1,.29,0,.28.28,0,0,1,.15.25Zm0,0"/><path class="cls-11" d="M32.19,17.07a.49.49,0,0,0-.7.7,8.81,8.81,0,0,1,0,12.46.5.5,0,0,0,0,.7.47.47,0,0,0,.35.14.45.45,0,0,0,.34-.14,9.81,9.81,0,0,0,0-13.86Zm0,0"/><path class="cls-11" d="M29.48,19.77a.49.49,0,0,0-.69,0,.48.48,0,0,0,0,.7,5,5,0,0,1,0,7.06.48.48,0,0,0,0,.7.49.49,0,0,0,.34.14.5.5,0,0,0,.35-.14,6,6,0,0,0,0-8.46Zm0,0"/></svg>