<svg id="Layer_11" data-name="Layer 11" xmlns="http://www.w3.org/2000/svg" xmlns:xlink="http://www.w3.org/1999/xlink" viewBox="0 0 64 64"><defs><style>.cls-1{fill:url(#linear-gradient);}.cls-2,.cls-3,.cls-4,.cls-5,.cls-6,.cls-7,.cls-8{fill:#1a1a1a;}.cls-2{opacity:0;}.cls-3{opacity:0.04;}.cls-4{opacity:0.08;}.cls-5{opacity:0.13;}.cls-6{opacity:0.17;}.cls-7{opacity:0.21;}.cls-8{opacity:0.25;}.cls-9{fill:url(#linear-gradient-2);}.cls-10{fill:url(#linear-gradient-3);}.cls-11{fill:#808285;}</style><linearGradient id="linear-gradient" x1="9.37" y1="54.63" x2="54.63" y2="9.37" gradientUnits="userSpaceOnUse"><stop offset="0.09" stop-color="#fff"/><stop offset="1" stop-color="#d9d9d9"/></linearGradient><linearGradient id="linear-gradient-2" x1="14.2" y1="14.2" x2="49.8" y2="49.8" gradientUnits="userSpaceOnUse"><stop offset="0" stop-color="#fff"/><stop offset="1" stop-color="#ababab"/></linearGradient><linearGradient id="linear-gradient-3" x1="14.8" y1="14.8" x2="49.2" y2="49.2" xlink:href="#linear-gradient"/></defs><title>64 px logo</title><path class="cls-1" d="M64,32A32,32,0,1,1,32,0,32,32,0,0,1,64,32Z"/><circle class="cls-2" cx="36.27" cy="36.27" r="24.75" transform="translate(-13.79 25.07) rotate(-32.39)"/><circle class="cls-3" cx="35.55" cy="35.56" r="24.82" transform="translate(-13.54 46.42) rotate(-57.48)"/><circle class="cls-4" cx="34.84" cy="34.84" r="24.89" transform="translate(-14.35 37.65) rotate(-48.26)"/><path class="cls-5" d="M59.09,34.13a25,25,0,1,1-25-25A25,25,0,0,1,59.09,34.13Z"/><path class="cls-6" d="M58.45,33.42a25,25,0,1,1-25-25A25,25,0,0,1,58.45,33.42Z"/><path class="cls-7" d="M57.81,32.71a25.1,25.1,0,1,1-25.1-25.1A25.1,25.1,0,0,1,57.81,32.71Z"/><path class="cls-8" d="M57.17,32A25.17,25.17,0,1,1,32,6.83,25.17,25.17,0,0,1,57.17,32Z"/><path class="cls-9" d="M57.17,32A25.17,25.17,0,1,1,32,6.83,25.17,25.17,0,0,1,57.17,32Z"/><path class="cls-10" d="M56.32,32A24.32,24.32,0,1,1,32,7.68,24.32,24.32,0,0,1,56.32,32Z"/><polygon class="cls-11" points="28.44 47.25 29.91 45.77 29.91 44.22 28.44 45.7 28.44 47.25"/><polygon class="cls-11" points="31.05 42.49 39.96 42.49 41.34 41.02 31.05 41.02 31.05 42.49"/><path class="cls-11" d="M41.42,20.3l-.05.08-.08-.08H37.45l-1.84-1.84,0,.05H21.73l-6.89,7V32.7l2.66,2.66h3.8l1.76,1.75h2.53V40h2.85v4.15l1.47-1.49V40h8.73l-1.48-1.47H29.91V36.69h5.42l-1.46-1.47h-4v-3.9l-1.47-1.46v8.65H27.07v-10L25.59,27v8.62H23.65v0L19.1,31.09V27.27h0l4.54-4.57h3.19L40.21,36.07h4.33l1.83-1.83v-5h0l-7.44-7.43h1.88l6.89,6.86h0v6l-3.87,3.87h-3L26.13,23.85H24.66l-4.33,4.36h0v2.37l1.47,1.47V28.84h0l3.62-3.64v0L40.21,40h4.17v0l4.77-4.77V28Zm3.48,9.52v3.82l-1,1H40.82L27.43,21.23H23l-5.4,5.43v5l2.2,2.19H18.1l-1.79-1.8v-6h0l6-6.1H28L41.46,33.39h2.07l-3.94-3.93V25.84l-1.47-1.47V28l-8-8h4.95l6,6v3.44l1.47,1.47V27.44l2.39,2.38Z"/><polygon class="cls-11" points="24.4 34.62 24.4 28.11 22.93 29.59 22.93 33.2 24.4 34.62"/><polygon class="cls-11" points="32.66 21.03 36.99 25.35 36.99 23.27 34.75 21.03 32.66 21.03"/></svg>