<?xml version="1.0" encoding="utf-8"?>
<!-- Generator: Adobe Illustrator 23.0.0, SVG Export Plug-In . SVG Version: 6.00 Build 0)  -->
<svg version="1.1" id="Layer_11" xmlns="http://www.w3.org/2000/svg" xmlns:xlink="http://www.w3.org/1999/xlink" x="0px" y="0px"
	 viewBox="0 0 245 190" style="enable-background:new 0 0 245 190;" xml:space="preserve">
<style type="text/css">
	.st0{fill:#E2E2E4;}
	.st1{fill:#858789;}
	.st2{fill:none;stroke:#909295;stroke-miterlimit:10;}
	.st3{fill:none;stroke:#909295;stroke-miterlimit:10;stroke-dasharray:3.0107,3.0107;}
	.st4{fill:none;stroke:#909295;stroke-miterlimit:10;stroke-dasharray:3.0362,3.0362;}
	.st5{fill:#168C77;}
	.st6{fill:none;stroke:#909295;stroke-miterlimit:10;stroke-dasharray:3.0068,3.0068;}
	.st7{fill:#F5F6F6;}
	.st8{fill:none;stroke:#221E1F;stroke-width:0.5;stroke-miterlimit:10;}
	.st9{fill:none;stroke:#221E1F;stroke-width:0.5;stroke-miterlimit:10;stroke-dasharray:0.9999,0.9999;}
	.st10{fill:none;stroke:#221E1F;stroke-width:0.5;stroke-miterlimit:10;stroke-dasharray:1;}
	.st11{fill:#231F20;}
	.st12{fill:none;stroke:#221E1F;stroke-width:2;stroke-miterlimit:10;}
	.st13{fill:none;stroke:#221E1F;stroke-width:4;stroke-linecap:round;stroke-miterlimit:10;}
	.st14{fill:none;stroke:#221E1F;stroke-width:4;stroke-linecap:round;stroke-linejoin:round;stroke-miterlimit:10;}
	.st15{fill:none;stroke:#221E1F;stroke-width:2;stroke-linecap:round;stroke-miterlimit:10;}
	.st16{fill:none;stroke:#221E1F;stroke-width:0.5;stroke-miterlimit:10;stroke-dasharray:1,1;}
	.st17{fill:#FDCD0B;}
	.st18{fill:#253B7B;}
	.st19{fill:#DB2727;}
	.st20{fill:url(#SVGID_1_);}
	.st21{fill:url(#SVGID_2_);}
	.st22{fill:url(#SVGID_3_);}
	.st23{fill:url(#SVGID_4_);}
	.st24{fill:url(#SVGID_5_);}
	.st25{fill:url(#SVGID_6_);}
	.st26{fill:url(#SVGID_7_);}
	.st27{fill:url(#SVGID_8_);}
	.st28{fill:#221E1F;}
	.st29{fill:#9FA2A4;}
	.st30{fill:none;stroke:#525355;stroke-miterlimit:10;stroke-dasharray:1;}
	.st31{fill:url(#SVGID_9_);}
	.st32{fill:#CFD1D3;}
	.st33{fill:none;stroke:#909295;stroke-miterlimit:10;stroke-dasharray:1;}
	.st34{fill:none;stroke:#231F20;stroke-width:8;stroke-miterlimit:10;}
	.st35{fill:url(#SVGID_10_);}
	.st36{fill:#A5C6C1;}
	.st37{fill:#DADE88;}
	.st38{fill:#B9A75A;}
	.st39{fill:#D07B5A;}
	.st40{fill:#D4ECE4;}
	.st41{fill:url(#SVGID_11_);}
	.st42{fill:none;stroke:#FFFFFF;stroke-miterlimit:10;}
	.st43{fill:none;stroke:#FFFFFF;stroke-miterlimit:10;stroke-dasharray:2.6374,2.6374;}
	.st44{fill:none;stroke:#FFFFFF;stroke-miterlimit:10;stroke-dasharray:3.0362,3.0362;}
	.st45{fill:#59A3D9;}
	.st46{fill:url(#SVGID_12_);}
	.st47{fill:none;stroke:#858789;stroke-miterlimit:10;}
	.st48{fill:none;stroke:#858789;stroke-miterlimit:10;stroke-dasharray:4.1692,4.1692;}
	.st49{fill:none;stroke:#858789;stroke-miterlimit:10;stroke-dasharray:3.6888,3.6888;}
	.st50{fill:none;stroke:#858789;stroke-miterlimit:10;stroke-dasharray:4.1687,4.1687;}
	.st51{fill:none;stroke:#858789;stroke-miterlimit:10;stroke-dasharray:4.0271,4.0271;}
	.st52{fill:url(#SVGID_13_);}
	.st53{fill:#848689;}
	.st54{fill:none;stroke:#FFFFFF;stroke-width:2;stroke-linecap:round;stroke-miterlimit:10;}
	.st55{fill:none;stroke:#848689;stroke-width:4;stroke-miterlimit:10;}
	.st56{fill:#3BD9A3;}
	.st57{fill:#6AE3E9;}
	.st58{fill:none;stroke:#FFFFFF;stroke-miterlimit:10;stroke-dasharray:2.9409,2.9409;}
	.st59{fill:#61C7D9;}
	.st60{fill:#909295;}
	.st61{fill:none;stroke:#FFFFFF;stroke-miterlimit:10;stroke-dasharray:3;}
	.st62{fill:#FFFFFF;}
	.st63{opacity:0.4;fill:#FFFFFF;}
	.st64{opacity:0.35;}
	.st65{opacity:0.4;}
	.st66{fill:#9BC8E8;}
	.st67{fill:#A0DDE8;}
	.st68{fill:#A6EEF2;}
	.st69{fill:#89E8C8;}
	.st70{fill:#73BAAD;}
	.st71{fill:#BDDAF0;}
	.st72{fill:#C0E9F0;}
	.st73{fill:#C3F4F6;}
	.st74{fill:#B1F0DA;}
	.st75{fill:#A2D1C9;}
	.st76{fill:none;stroke:#FFFFFF;stroke-miterlimit:10;stroke-dasharray:3.0107,3.0107;}
	.st77{fill:#939598;}
	.st78{fill:#BCBEC0;}
</style>
<g>
	<polygon class="st5" points="0.16,73.39 122.66,0 245.16,73.39 245.16,190 0.16,190 	"/>
</g>
<g>
	<g>
		<line class="st42" x1="8.34" y1="190" x2="8.34" y2="188.5"/>
		<line class="st58" x1="8.34" y1="185.56" x2="8.34" y2="81.16"/>
		<polyline class="st42" points="8.34,79.68 8.34,78.18 9.62,77.41 		"/>
		<line class="st44" x1="12.23" y1="75.85" x2="120.32" y2="11.1"/>
		<polyline class="st42" points="121.62,10.32 122.91,9.54 124.19,10.32 		"/>
		<line class="st44" x1="126.8" y1="11.88" x2="234.89" y2="76.63"/>
		<polyline class="st42" points="236.19,77.41 237.48,78.18 237.48,79.68 		"/>
		<line class="st58" x1="237.48" y1="82.63" x2="237.48" y2="187.03"/>
		<line class="st42" x1="237.48" y1="188.5" x2="237.48" y2="190"/>
	</g>
</g>
<g>
	<rect x="80.24" y="70.34" class="st62" width="20.25" height="30.55"/>
	<rect x="78.12" y="67.23" class="st62" width="22.37" height="3.12"/>
	<rect x="145.66" y="67.23" class="st62" width="22.37" height="3.12"/>
	<rect x="145.66" y="70.34" class="st62" width="19.1" height="30.55"/>
	<rect x="77.28" y="102.94" class="st62" width="90.45" height="3.18"/>
	<rect x="72.15" y="108.09" class="st62" width="100.71" height="3.18"/>
	<g>
		<polygon class="st62" points="143.62,65.04 101.96,65.04 101.96,63.42 122.79,54.99 143.62,63.42 		"/>
		<g>
			<rect x="101.96" y="97.77" class="st62" width="41.66" height="3.12"/>
			<rect x="101.96" y="67.23" class="st62" width="41.66" height="3.12"/>
			<g>
				<g>
					
						<rect x="89.02" y="83.06" transform="matrix(-1.836970e-16 1 -1 -1.836970e-16 188.9754 -20.2389)" class="st62" width="31.17" height="2.62"/>
					<rect x="102.57" y="70.34" class="st62" width="4.05" height="1.59"/>
					<rect x="102.57" y="96.18" class="st62" width="4.05" height="1.59"/>
				</g>
				<g>
					
						<rect x="92.78" y="83.06" transform="matrix(-1.836970e-16 1 -1 -1.836970e-16 192.73 -23.9934)" class="st62" width="31.17" height="2.62"/>
					<rect x="106.32" y="70.34" class="st62" width="4.05" height="1.59"/>
					<rect x="106.32" y="96.18" class="st62" width="4.05" height="1.59"/>
				</g>
				<g>
					
						<rect x="99.9" y="83.06" transform="matrix(-1.836970e-16 1 -1 -1.836970e-16 199.8539 -31.1174)" class="st62" width="31.17" height="2.62"/>
					<rect x="113.44" y="70.34" class="st62" width="4.05" height="1.59"/>
					<rect x="113.44" y="96.18" class="st62" width="4.05" height="1.59"/>
				</g>
				<g>
					
						<rect x="103.66" y="83.06" transform="matrix(-1.836970e-16 1 -1 -1.836970e-16 203.6084 -34.8719)" class="st62" width="31.17" height="2.62"/>
					<rect x="117.2" y="70.34" class="st62" width="4.05" height="1.59"/>
					<rect x="117.2" y="96.18" class="st62" width="4.05" height="1.59"/>
				</g>
				<g>
					
						<rect x="110.78" y="83.06" transform="matrix(-1.836970e-16 1 -1 -1.836970e-16 210.7324 -41.9958)" class="st62" width="31.17" height="2.62"/>
					<rect x="124.32" y="70.34" class="st62" width="4.05" height="1.59"/>
					<rect x="124.32" y="96.18" class="st62" width="4.05" height="1.59"/>
				</g>
				<g>
					
						<rect x="114.53" y="83.06" transform="matrix(-1.836970e-16 1 -1 -1.836970e-16 214.4869 -45.7503)" class="st62" width="31.17" height="2.62"/>
					<rect x="128.08" y="70.34" class="st62" width="4.05" height="1.59"/>
					<rect x="128.08" y="96.18" class="st62" width="4.05" height="1.59"/>
				</g>
				<g>
					
						<rect x="121.66" y="83.06" transform="matrix(-1.836970e-16 1 -1 -1.836970e-16 221.6109 -52.8743)" class="st62" width="31.17" height="2.62"/>
					<rect x="135.2" y="70.34" class="st62" width="4.05" height="1.59"/>
					<rect x="135.2" y="96.18" class="st62" width="4.05" height="1.59"/>
				</g>
				<g>
					
						<rect x="125.41" y="83.06" transform="matrix(-1.836970e-16 1 -1 -1.836970e-16 225.3654 -56.6288)" class="st62" width="31.17" height="2.62"/>
					<rect x="138.96" y="70.34" class="st62" width="4.05" height="1.59"/>
					<rect x="138.96" y="96.18" class="st62" width="4.05" height="1.59"/>
				</g>
			</g>
		</g>
	</g>
</g>
</svg>
