<?xml version="1.0" encoding="utf-8"?>
<!-- Generator: Adobe Illustrator 23.0.0, SVG Export Plug-In . SVG Version: 6.00 Build 0)  -->
<svg version="1.1" id="Layer_11" xmlns="http://www.w3.org/2000/svg" xmlns:xlink="http://www.w3.org/1999/xlink" x="0px" y="0px"
	 viewBox="0 0 245 190" style="enable-background:new 0 0 245 190;" xml:space="preserve">
<style type="text/css">
	.st0{fill:#E2E2E4;}
	.st1{fill:#858789;}
	.st2{fill:none;stroke:#909295;stroke-miterlimit:10;}
	.st3{fill:none;stroke:#909295;stroke-miterlimit:10;stroke-dasharray:3.0107,3.0107;}
	.st4{fill:none;stroke:#909295;stroke-miterlimit:10;stroke-dasharray:3.0362,3.0362;}
	.st5{fill:#168C77;}
	.st6{fill:none;stroke:#909295;stroke-miterlimit:10;stroke-dasharray:3.0068,3.0068;}
	.st7{fill:#F5F6F6;}
	.st8{fill:none;stroke:#221E1F;stroke-width:0.5;stroke-miterlimit:10;}
	.st9{fill:none;stroke:#221E1F;stroke-width:0.5;stroke-miterlimit:10;stroke-dasharray:0.9999,0.9999;}
	.st10{fill:none;stroke:#221E1F;stroke-width:0.5;stroke-miterlimit:10;stroke-dasharray:1;}
	.st11{fill:#231F20;}
	.st12{fill:none;stroke:#221E1F;stroke-width:2;stroke-miterlimit:10;}
	.st13{fill:none;stroke:#221E1F;stroke-width:4;stroke-linecap:round;stroke-miterlimit:10;}
	.st14{fill:none;stroke:#221E1F;stroke-width:4;stroke-linecap:round;stroke-linejoin:round;stroke-miterlimit:10;}
	.st15{fill:none;stroke:#221E1F;stroke-width:2;stroke-linecap:round;stroke-miterlimit:10;}
	.st16{fill:none;stroke:#221E1F;stroke-width:0.5;stroke-miterlimit:10;stroke-dasharray:1,1;}
	.st17{fill:#FDCD0B;}
	.st18{fill:#253B7B;}
	.st19{fill:#DB2727;}
	.st20{fill:url(#SVGID_1_);}
	.st21{fill:url(#SVGID_2_);}
	.st22{fill:url(#SVGID_3_);}
	.st23{fill:url(#SVGID_4_);}
	.st24{fill:url(#SVGID_5_);}
	.st25{fill:url(#SVGID_6_);}
	.st26{fill:url(#SVGID_7_);}
	.st27{fill:url(#SVGID_8_);}
	.st28{fill:#221E1F;}
	.st29{fill:#9FA2A4;}
	.st30{fill:none;stroke:#525355;stroke-miterlimit:10;stroke-dasharray:1;}
	.st31{fill:url(#SVGID_9_);}
	.st32{fill:#CFD1D3;}
	.st33{fill:none;stroke:#909295;stroke-miterlimit:10;stroke-dasharray:1;}
	.st34{fill:none;stroke:#231F20;stroke-width:8;stroke-miterlimit:10;}
	.st35{fill:url(#SVGID_10_);}
	.st36{fill:#A5C6C1;}
	.st37{fill:#DADE88;}
	.st38{fill:#B9A75A;}
	.st39{fill:#D07B5A;}
	.st40{fill:#D4ECE4;}
	.st41{fill:url(#SVGID_11_);}
	.st42{fill:none;stroke:#FFFFFF;stroke-miterlimit:10;}
	.st43{fill:none;stroke:#FFFFFF;stroke-miterlimit:10;stroke-dasharray:2.6374,2.6374;}
	.st44{fill:none;stroke:#FFFFFF;stroke-miterlimit:10;stroke-dasharray:3.0362,3.0362;}
	.st45{fill:#59A3D9;}
	.st46{fill:url(#SVGID_12_);}
	.st47{fill:none;stroke:#858789;stroke-miterlimit:10;}
	.st48{fill:none;stroke:#858789;stroke-miterlimit:10;stroke-dasharray:4.1692,4.1692;}
	.st49{fill:none;stroke:#858789;stroke-miterlimit:10;stroke-dasharray:3.6888,3.6888;}
	.st50{fill:none;stroke:#858789;stroke-miterlimit:10;stroke-dasharray:4.1687,4.1687;}
	.st51{fill:none;stroke:#858789;stroke-miterlimit:10;stroke-dasharray:4.0271,4.0271;}
	.st52{fill:url(#SVGID_13_);}
	.st53{fill:#848689;}
	.st54{fill:none;stroke:#FFFFFF;stroke-width:2;stroke-linecap:round;stroke-miterlimit:10;}
	.st55{fill:none;stroke:#848689;stroke-width:4;stroke-miterlimit:10;}
	.st56{fill:#3BD9A3;}
	.st57{fill:#6AE3E9;}
	.st58{fill:none;stroke:#FFFFFF;stroke-miterlimit:10;stroke-dasharray:2.9409,2.9409;}
	.st59{fill:#61C7D9;}
	.st60{fill:#909295;}
	.st61{fill:none;stroke:#FFFFFF;stroke-miterlimit:10;stroke-dasharray:3;}
	.st62{fill:#FFFFFF;}
	.st63{opacity:0.4;fill:#FFFFFF;}
	.st64{opacity:0.35;}
	.st65{opacity:0.4;}
	.st66{fill:#9BC8E8;}
	.st67{fill:#A0DDE8;}
	.st68{fill:#A6EEF2;}
	.st69{fill:#89E8C8;}
	.st70{fill:#73BAAD;}
	.st71{fill:#BDDAF0;}
	.st72{fill:#C0E9F0;}
	.st73{fill:#C3F4F6;}
	.st74{fill:#B1F0DA;}
	.st75{fill:#A2D1C9;}
	.st76{fill:none;stroke:#FFFFFF;stroke-miterlimit:10;stroke-dasharray:3.0107,3.0107;}
	.st77{fill:#939598;}
	.st78{fill:#BCBEC0;}
</style>
<g>
	<polygon class="st56" points="0.16,73.39 122.66,0 245.16,73.39 245.16,190 0.16,190 	"/>
</g>
<g>
	<g>
		<line class="st42" x1="8.34" y1="190" x2="8.34" y2="188.5"/>
		<line class="st58" x1="8.34" y1="185.56" x2="8.34" y2="81.16"/>
		<polyline class="st42" points="8.34,79.68 8.34,78.18 9.62,77.41 		"/>
		<line class="st44" x1="12.23" y1="75.85" x2="120.32" y2="11.1"/>
		<polyline class="st42" points="121.62,10.32 122.91,9.54 124.19,10.32 		"/>
		<line class="st44" x1="126.8" y1="11.88" x2="234.89" y2="76.63"/>
		<polyline class="st42" points="236.19,77.41 237.48,78.18 237.48,79.68 		"/>
		<line class="st58" x1="237.48" y1="82.63" x2="237.48" y2="187.03"/>
		<line class="st42" x1="237.48" y1="188.5" x2="237.48" y2="190"/>
	</g>
</g>
<g>
	<g>
		<rect x="122.5" y="71.77" class="st63" width="5.63" height="2.57"/>
		<g>
			<polygon class="st62" points="128.15,74.34 122.5,74.34 122.5,89.21 128.2,89.21 			"/>
		</g>
		<path class="st62" d="M147.33,73.4c-10.55,0-19.1,8.55-19.1,19.1c0,10.55,8.55,19.1,19.1,19.1s19.1-8.55,19.1-19.1
			C166.43,81.95,157.88,73.4,147.33,73.4z M147.33,106.84c-7.92,0-14.34-6.42-14.34-14.34c0-7.92,6.42-14.34,14.34-14.34
			c7.92,0,14.34,6.42,14.34,14.34C161.67,100.42,155.25,106.84,147.33,106.84z"/>
		<circle class="st63" cx="144.21" cy="88.62" r="4.44"/>
		<path class="st62" d="M128.58,64.13c1.23-3.89,4.86-6.7,9.15-6.7c0.18,0,0.35,0.02,0.53,0.03c-0.85-1.65-2.56-2.8-4.55-2.8
			c-2.84,0-5.13,2.3-5.13,5.13c0,0.15,0.01,0.3,0.02,0.46l-0.02,0.01V64.13z"/>
		<g class="st65">
			<path class="st62" d="M163.26,81.98L163.26,81.98l-0.02-0.03C163.25,81.95,163.25,81.97,163.26,81.98z"/>
			<path class="st62" d="M128.22,92.5c0-10.55,8.55-19.1,19.1-19.1c4.98,0,9.5,1.92,12.9,5.04l-15.09-17.52
				c-0.01-0.01-0.01-0.01-0.02-0.02h0c-1.76-2.12-4.42-3.47-7.39-3.47c-5.3,0-9.6,4.3-9.6,9.6c0,0.3,0.02,0.6,0.04,0.9l-0.05,0.02
				l0.1,27.07l0.17-0.06C128.3,94.14,128.22,93.33,128.22,92.5z"/>
		</g>
	</g>
	<g>
		<rect x="116.87" y="71.77" class="st63" width="5.63" height="2.57"/>
		<g>
			<polygon class="st62" points="116.85,74.34 122.5,74.34 122.5,89.21 116.8,89.21 			"/>
		</g>
		<path class="st62" d="M78.57,92.5c0,10.55,8.55,19.1,19.1,19.1s19.1-8.55,19.1-19.1c0-10.55-8.55-19.1-19.1-19.1
			S78.57,81.95,78.57,92.5z M83.33,92.5c0-7.92,6.42-14.34,14.34-14.34c7.92,0,14.34,6.42,14.34,14.34
			c0,7.92-6.42,14.34-14.34,14.34C89.75,106.84,83.33,100.42,83.33,92.5z"/>
		<circle class="st63" cx="100.79" cy="88.62" r="4.44"/>
		<path class="st62" d="M116.42,64.13c-1.23-3.89-4.86-6.7-9.15-6.7c-0.18,0-0.35,0.02-0.53,0.03c0.85-1.65,2.56-2.8,4.55-2.8
			c2.84,0,5.13,2.3,5.13,5.13c0,0.15-0.01,0.3-0.02,0.46l0.02,0.01V64.13z"/>
		<g class="st65">
			<path class="st62" d="M81.74,81.98L81.74,81.98l0.02-0.03C81.75,81.95,81.75,81.97,81.74,81.98z"/>
			<path class="st62" d="M116.78,92.5c0-10.55-8.55-19.1-19.1-19.1c-4.98,0-9.5,1.92-12.9,5.04l15.09-17.52
				c0.01-0.01,0.01-0.01,0.02-0.02h0c1.76-2.12,4.42-3.47,7.39-3.47c5.3,0,9.6,4.3,9.6,9.6c0,0.3-0.02,0.6-0.04,0.9l0.05,0.02
				l-0.1,27.07l-0.17-0.06C116.7,94.14,116.78,93.33,116.78,92.5z"/>
		</g>
	</g>
	<circle class="st63" cx="147.33" cy="92.5" r="14.34"/>
	<circle class="st63" cx="97.67" cy="92.5" r="14.34"/>
</g>
</svg>
