<?xml version="1.0" encoding="utf-8"?>
<!-- Generator: Adobe Illustrator 23.0.0, SVG Export Plug-In . SVG Version: 6.00 Build 0)  -->
<svg version="1.1" id="Layer_11" xmlns="http://www.w3.org/2000/svg" xmlns:xlink="http://www.w3.org/1999/xlink" x="0px" y="0px"
	 viewBox="0 0 245 190" style="enable-background:new 0 0 245 190;" xml:space="preserve">
<style type="text/css">
	.st0{fill:#E2E2E4;}
	.st1{fill:#858789;}
	.st2{fill:none;stroke:#909295;stroke-miterlimit:10;}
	.st3{fill:none;stroke:#909295;stroke-miterlimit:10;stroke-dasharray:3.0107,3.0107;}
	.st4{fill:none;stroke:#909295;stroke-miterlimit:10;stroke-dasharray:3.0362,3.0362;}
	.st5{fill:#168C77;}
	.st6{fill:none;stroke:#909295;stroke-miterlimit:10;stroke-dasharray:3.0068,3.0068;}
	.st7{fill:#F5F6F6;}
	.st8{fill:none;stroke:#221E1F;stroke-width:0.5;stroke-miterlimit:10;}
	.st9{fill:none;stroke:#221E1F;stroke-width:0.5;stroke-miterlimit:10;stroke-dasharray:0.9999,0.9999;}
	.st10{fill:none;stroke:#221E1F;stroke-width:0.5;stroke-miterlimit:10;stroke-dasharray:1;}
	.st11{fill:#231F20;}
	.st12{fill:none;stroke:#221E1F;stroke-width:2;stroke-miterlimit:10;}
	.st13{fill:none;stroke:#221E1F;stroke-width:4;stroke-linecap:round;stroke-miterlimit:10;}
	.st14{fill:none;stroke:#221E1F;stroke-width:4;stroke-linecap:round;stroke-linejoin:round;stroke-miterlimit:10;}
	.st15{fill:none;stroke:#221E1F;stroke-width:2;stroke-linecap:round;stroke-miterlimit:10;}
	.st16{fill:none;stroke:#221E1F;stroke-width:0.5;stroke-miterlimit:10;stroke-dasharray:1,1;}
	.st17{fill:#FDCD0B;}
	.st18{fill:#253B7B;}
	.st19{fill:#DB2727;}
	.st20{fill:url(#SVGID_1_);}
	.st21{fill:url(#SVGID_2_);}
	.st22{fill:url(#SVGID_3_);}
	.st23{fill:url(#SVGID_4_);}
	.st24{fill:url(#SVGID_5_);}
	.st25{fill:url(#SVGID_6_);}
	.st26{fill:url(#SVGID_7_);}
	.st27{fill:url(#SVGID_8_);}
	.st28{fill:#221E1F;}
	.st29{fill:#9FA2A4;}
	.st30{fill:none;stroke:#525355;stroke-miterlimit:10;stroke-dasharray:1;}
	.st31{fill:url(#SVGID_9_);}
	.st32{fill:#CFD1D3;}
	.st33{fill:none;stroke:#909295;stroke-miterlimit:10;stroke-dasharray:1;}
	.st34{fill:none;stroke:#231F20;stroke-width:8;stroke-miterlimit:10;}
	.st35{fill:url(#SVGID_10_);}
	.st36{fill:#A5C6C1;}
	.st37{fill:#DADE88;}
	.st38{fill:#B9A75A;}
	.st39{fill:#D07B5A;}
	.st40{fill:#D4ECE4;}
	.st41{fill:url(#SVGID_11_);}
	.st42{fill:none;stroke:#FFFFFF;stroke-miterlimit:10;}
	.st43{fill:none;stroke:#FFFFFF;stroke-miterlimit:10;stroke-dasharray:2.6374,2.6374;}
	.st44{fill:none;stroke:#FFFFFF;stroke-miterlimit:10;stroke-dasharray:3.0362,3.0362;}
	.st45{fill:#59A3D9;}
	.st46{fill:url(#SVGID_12_);}
	.st47{fill:none;stroke:#858789;stroke-miterlimit:10;}
	.st48{fill:none;stroke:#858789;stroke-miterlimit:10;stroke-dasharray:4.1692,4.1692;}
	.st49{fill:none;stroke:#858789;stroke-miterlimit:10;stroke-dasharray:3.6888,3.6888;}
	.st50{fill:none;stroke:#858789;stroke-miterlimit:10;stroke-dasharray:4.1687,4.1687;}
	.st51{fill:none;stroke:#858789;stroke-miterlimit:10;stroke-dasharray:4.0271,4.0271;}
	.st52{fill:url(#SVGID_13_);}
	.st53{fill:#848689;}
	.st54{fill:none;stroke:#FFFFFF;stroke-width:2;stroke-linecap:round;stroke-miterlimit:10;}
	.st55{fill:none;stroke:#848689;stroke-width:4;stroke-miterlimit:10;}
	.st56{fill:#3BD9A3;}
	.st57{fill:#6AE3E9;}
	.st58{fill:none;stroke:#FFFFFF;stroke-miterlimit:10;stroke-dasharray:2.9409,2.9409;}
	.st59{fill:#61C7D9;}
	.st60{fill:#909295;}
	.st61{fill:none;stroke:#FFFFFF;stroke-miterlimit:10;stroke-dasharray:3;}
	.st62{fill:#FFFFFF;}
	.st63{opacity:0.4;fill:#FFFFFF;}
	.st64{opacity:0.35;}
	.st65{opacity:0.4;}
	.st66{fill:#9BC8E8;}
	.st67{fill:#A0DDE8;}
	.st68{fill:#A6EEF2;}
	.st69{fill:#89E8C8;}
	.st70{fill:#73BAAD;}
	.st71{fill:#BDDAF0;}
	.st72{fill:#C0E9F0;}
	.st73{fill:#C3F4F6;}
	.st74{fill:#B1F0DA;}
	.st75{fill:#A2D1C9;}
	.st76{fill:none;stroke:#FFFFFF;stroke-miterlimit:10;stroke-dasharray:3.0107,3.0107;}
	.st77{fill:#939598;}
	.st78{fill:#BCBEC0;}
</style>
<g>
	<polygon class="st57" points="0.16,73.39 122.66,0 245.16,73.39 245.16,190 0.16,190 	"/>
</g>
<g>
	<g>
		<line class="st42" x1="8.34" y1="190" x2="8.34" y2="188.5"/>
		<line class="st58" x1="8.34" y1="185.56" x2="8.34" y2="81.16"/>
		<polyline class="st42" points="8.34,79.68 8.34,78.18 9.62,77.41 		"/>
		<line class="st44" x1="12.23" y1="75.85" x2="120.32" y2="11.1"/>
		<polyline class="st42" points="121.62,10.32 122.91,9.54 124.19,10.32 		"/>
		<line class="st44" x1="126.8" y1="11.88" x2="234.89" y2="76.63"/>
		<polyline class="st42" points="236.19,77.41 237.48,78.18 237.48,79.68 		"/>
		<line class="st58" x1="237.48" y1="82.63" x2="237.48" y2="187.03"/>
		<line class="st42" x1="237.48" y1="188.5" x2="237.48" y2="190"/>
	</g>
</g>
<g>
	<rect x="84.66" y="94.21" class="st62" width="75.72" height="3.06"/>
	<rect x="84.66" y="64.18" class="st62" width="75.72" height="3.06"/>
	<g>
		
			<rect x="93.57" y="79.14" transform="matrix(-1.836970e-16 1 -1 -1.836970e-16 189.9221 -27.8607)" class="st62" width="30.64" height="3.79"/>
		
			<rect x="102.66" y="79.14" transform="matrix(-1.836970e-16 1 -1 -1.836970e-16 199.0085 -36.9471)" class="st62" width="30.64" height="3.79"/>
		
			<rect x="111.74" y="79.14" transform="matrix(-1.836970e-16 1 -1 -1.836970e-16 208.0949 -46.0336)" class="st62" width="30.64" height="3.79"/>
		
			<rect x="120.83" y="79.14" transform="matrix(-1.836970e-16 1 -1 -1.836970e-16 217.1813 -55.12)" class="st62" width="30.64" height="3.79"/>
	</g>
	<rect x="84.66" y="67.24" class="st62" width="17.21" height="27.68"/>
	<rect x="143.18" y="67.24" class="st62" width="17.21" height="27.68"/>
	<rect x="80.95" y="99.29" class="st62" width="83.1" height="3.12"/>
	<rect x="76.24" y="104.36" class="st62" width="92.53" height="3.12"/>
	<rect x="80.95" y="58.78" class="st62" width="83.1" height="3.12"/>
	<rect x="105.94" y="67.24" class="st62" width="5.87" height="1.56"/>
	<rect x="105.94" y="92.65" class="st62" width="5.87" height="1.56"/>
	<rect x="115.04" y="67.24" class="st62" width="5.87" height="1.56"/>
	<rect x="115.04" y="92.65" class="st62" width="5.87" height="1.56"/>
	<rect x="124.15" y="67.24" class="st62" width="5.87" height="1.56"/>
	<rect x="124.15" y="92.65" class="st62" width="5.87" height="1.56"/>
	<rect x="133.26" y="67.24" class="st62" width="5.87" height="1.56"/>
	<rect x="133.26" y="92.65" class="st62" width="5.87" height="1.56"/>
</g>
</svg>
