<?xml version="1.0" encoding="utf-8"?>
<!-- Generator: Adobe Illustrator 23.0.0, SVG Export Plug-In . SVG Version: 6.00 Build 0)  -->
<svg version="1.1" id="Layer_11" xmlns="http://www.w3.org/2000/svg" xmlns:xlink="http://www.w3.org/1999/xlink" x="0px" y="0px"
	 viewBox="0 0 245 190" style="enable-background:new 0 0 245 190;" xml:space="preserve">
<style type="text/css">
	.st0{fill:#E2E2E4;}
	.st1{fill:#858789;}
	.st2{fill:none;stroke:#909295;stroke-miterlimit:10;}
	.st3{fill:none;stroke:#909295;stroke-miterlimit:10;stroke-dasharray:3.0107,3.0107;}
	.st4{fill:none;stroke:#909295;stroke-miterlimit:10;stroke-dasharray:3.0362,3.0362;}
	.st5{fill:#168C77;}
	.st6{fill:none;stroke:#909295;stroke-miterlimit:10;stroke-dasharray:3.0068,3.0068;}
	.st7{fill:#F5F6F6;}
	.st8{fill:none;stroke:#221E1F;stroke-width:0.5;stroke-miterlimit:10;}
	.st9{fill:none;stroke:#221E1F;stroke-width:0.5;stroke-miterlimit:10;stroke-dasharray:0.9999,0.9999;}
	.st10{fill:none;stroke:#221E1F;stroke-width:0.5;stroke-miterlimit:10;stroke-dasharray:1;}
	.st11{fill:#231F20;}
	.st12{fill:none;stroke:#221E1F;stroke-width:2;stroke-miterlimit:10;}
	.st13{fill:none;stroke:#221E1F;stroke-width:4;stroke-linecap:round;stroke-miterlimit:10;}
	.st14{fill:none;stroke:#221E1F;stroke-width:4;stroke-linecap:round;stroke-linejoin:round;stroke-miterlimit:10;}
	.st15{fill:none;stroke:#221E1F;stroke-width:2;stroke-linecap:round;stroke-miterlimit:10;}
	.st16{fill:none;stroke:#221E1F;stroke-width:0.5;stroke-miterlimit:10;stroke-dasharray:1,1;}
	.st17{fill:#FDCD0B;}
	.st18{fill:#253B7B;}
	.st19{fill:#DB2727;}
	.st20{fill:url(#SVGID_1_);}
	.st21{fill:url(#SVGID_2_);}
	.st22{fill:url(#SVGID_3_);}
	.st23{fill:url(#SVGID_4_);}
	.st24{fill:url(#SVGID_5_);}
	.st25{fill:url(#SVGID_6_);}
	.st26{fill:url(#SVGID_7_);}
	.st27{fill:url(#SVGID_8_);}
	.st28{fill:#221E1F;}
	.st29{fill:#9FA2A4;}
	.st30{fill:none;stroke:#525355;stroke-miterlimit:10;stroke-dasharray:1;}
	.st31{fill:url(#SVGID_9_);}
	.st32{fill:#CFD1D3;}
	.st33{fill:none;stroke:#909295;stroke-miterlimit:10;stroke-dasharray:1;}
	.st34{fill:none;stroke:#231F20;stroke-width:8;stroke-miterlimit:10;}
	.st35{fill:url(#SVGID_10_);}
	.st36{fill:#A5C6C1;}
	.st37{fill:#DADE88;}
	.st38{fill:#B9A75A;}
	.st39{fill:#D07B5A;}
	.st40{fill:#D4ECE4;}
	.st41{fill:url(#SVGID_11_);}
	.st42{fill:none;stroke:#FFFFFF;stroke-miterlimit:10;}
	.st43{fill:none;stroke:#FFFFFF;stroke-miterlimit:10;stroke-dasharray:2.6374,2.6374;}
	.st44{fill:none;stroke:#FFFFFF;stroke-miterlimit:10;stroke-dasharray:3.0362,3.0362;}
	.st45{fill:#59A3D9;}
	.st46{fill:url(#SVGID_12_);}
	.st47{fill:none;stroke:#858789;stroke-miterlimit:10;}
	.st48{fill:none;stroke:#858789;stroke-miterlimit:10;stroke-dasharray:4.1692,4.1692;}
	.st49{fill:none;stroke:#858789;stroke-miterlimit:10;stroke-dasharray:3.6888,3.6888;}
	.st50{fill:none;stroke:#858789;stroke-miterlimit:10;stroke-dasharray:4.1687,4.1687;}
	.st51{fill:none;stroke:#858789;stroke-miterlimit:10;stroke-dasharray:4.0271,4.0271;}
	.st52{fill:url(#SVGID_13_);}
	.st53{fill:#848689;}
	.st54{fill:none;stroke:#FFFFFF;stroke-width:2;stroke-linecap:round;stroke-miterlimit:10;}
	.st55{fill:none;stroke:#848689;stroke-width:4;stroke-miterlimit:10;}
	.st56{fill:#3BD9A3;}
	.st57{fill:#6AE3E9;}
	.st58{fill:none;stroke:#FFFFFF;stroke-miterlimit:10;stroke-dasharray:2.9409,2.9409;}
	.st59{fill:#61C7D9;}
	.st60{fill:#909295;}
	.st61{fill:none;stroke:#FFFFFF;stroke-miterlimit:10;stroke-dasharray:3;}
	.st62{fill:#FFFFFF;}
	.st63{opacity:0.4;fill:#FFFFFF;}
	.st64{opacity:0.35;}
	.st65{opacity:0.4;}
	.st66{fill:#9BC8E8;}
	.st67{fill:#A0DDE8;}
	.st68{fill:#A6EEF2;}
	.st69{fill:#89E8C8;}
	.st70{fill:#73BAAD;}
	.st71{fill:#BDDAF0;}
	.st72{fill:#C0E9F0;}
	.st73{fill:#C3F4F6;}
	.st74{fill:#B1F0DA;}
	.st75{fill:#A2D1C9;}
	.st76{fill:none;stroke:#FFFFFF;stroke-miterlimit:10;stroke-dasharray:3.0107,3.0107;}
	.st77{fill:#939598;}
	.st78{fill:#BCBEC0;}
</style>
<g>
	<polygon class="st59" points="0,73.39 122.5,0 245,73.39 245,190 0,190 	"/>
</g>
<g>
	<g>
		<line class="st42" x1="7.93" y1="190" x2="7.93" y2="188.5"/>
		<line class="st58" x1="7.93" y1="185.56" x2="7.93" y2="81.16"/>
		<polyline class="st42" points="7.93,79.68 7.93,78.18 9.22,77.41 		"/>
		<line class="st44" x1="11.82" y1="75.85" x2="119.91" y2="11.1"/>
		<polyline class="st42" points="121.21,10.32 122.5,9.54 123.79,10.32 		"/>
		<line class="st44" x1="126.39" y1="11.88" x2="234.48" y2="76.63"/>
		<polyline class="st42" points="235.78,77.41 237.07,78.18 237.07,79.68 		"/>
		<line class="st58" x1="237.07" y1="82.63" x2="237.07" y2="187.03"/>
		<line class="st42" x1="237.07" y1="188.5" x2="237.07" y2="190"/>
	</g>
</g>
<g>
	<g>
		<g class="st64">
			<circle class="st62" cx="122.44" cy="76.25" r="25.31"/>
		</g>
		<g>
			<g>
				<path class="st62" d="M116.06,44.32l0.24,2.49l6.21-4.41l-6.92-3.17l0.24,2.54c-7.71,1.49-14.74,5.57-19.89,11.57
					c-5.43,6.33-8.43,14.42-8.43,22.78c0,0.7,0.57,1.27,1.27,1.27s1.27-0.57,1.27-1.27C90.05,60.54,100.91,47.35,116.06,44.32z"/>
				<path class="st62" d="M156.23,74.86c-0.7,0-1.27,0.57-1.27,1.27c0,15.59-10.87,28.78-26.01,31.81l-0.24-2.49l-6.21,4.41
					l6.92,3.17l-0.24-2.54c7.71-1.49,14.74-5.57,19.89-11.57c5.43-6.33,8.43-14.42,8.43-22.78
					C157.5,75.43,156.93,74.86,156.23,74.86z"/>
				<path class="st62" d="M149.69,76.53c0.23-15.4-12.27-27.6-26.84-27.79c-14.87-0.19-27.49,11.87-27.54,26.76
					c-0.05,15.48,11.87,27.6,27.06,27.61C137.3,103.11,149.47,91.09,149.69,76.53z M134.09,96.82c-8.32,4.59-16.77,4.31-24.7-0.9
					c-8.02-5.27-11.6-13.02-10.71-22.57c0.66-6.99,4.1-12.57,9.73-16.78c0.28-0.21,0.59-0.38,0.85-0.54
					c1.17,1.12,1.18,2.08,0.49,3.62c-0.71,1.58-1.49,2.99-2.55,4.35c-0.95,1.22-0.8,2.7-0.27,4.17c0.6,1.64,1.14,3.32,1.52,5.03
					c0.31,1.4,1.07,2.32,2.31,2.84c2.01,0.84,3.96,1.7,5.18,3.69c0.21,0.35,0.97,0.37,1.48,0.54c-0.04-0.48,0.05-1.04-0.16-1.42
					c-0.48-0.89-0.76-2.02-2.06-2.22c-0.2-0.03-0.46-0.54-0.47-0.83c-0.03-1.04-0.63-1.04-1.44-1.02c-0.56,0.02-1.46-0.07-1.61-0.39
					c-0.28-0.6-0.33-1.48-0.09-2.1c0.66-1.7,2.67-2.32,4.47-1.34c1.24,0.68,1.6,0.48,2.45-0.74c1.18-1.7,3.02-2.96,4.67-4.32
					c0.7-0.58,1.66-0.82,2.4-1.36c1.14-0.82,1.22-1.6,0.24-2.65c-0.59-0.64-1.34-1.13-2.04-1.67c-0.76-0.6-0.89-1.28-0.29-2.05
					c0.53-0.68,1.06-0.84,1.74-0.13c0.51,0.53,1.09,1.04,1.73,1.38c0.83,0.44,1.22,0,1.22-0.89c0-0.73,0.14-1.48,0.03-2.18
					c-0.08-0.53-0.38-1.09-0.74-1.51c-0.69-0.8-1.5-1.5-2.14-2.38c2.87,0.02,5.37,0.67,7.28,2.93c0.65,0.77,1.64,1.31,2.55,1.81
					c0.96,0.53,1.55,1.21,1.76,2.31c0.11,0.56,0.54,1.06,0.8,1.6c0.18,0.38,0.25,0.81,0.45,1.18c0.17,0.32,0.43,0.59,0.66,0.89
					c0.27-0.32,0.63-0.6,0.79-0.96c0.13-0.28,0.03-0.67,0.03-1.01c1.78-0.09,2.57,0.81,3.32,2.77c-0.54-0.1-1.48-0.43-1.56-0.28
					c-0.56,1.03-1.37,2.18-1.3,3.23c0.22,3.27,0.41,6.59,2.17,9.57c0.9,1.52,1.1,1.64,2.42,0.5c0.28-0.24,0.93-0.46,1.14-0.31
					c0.29,0.21,0.5,0.79,0.46,1.18C145.5,86.26,141.48,92.74,134.09,96.82z"/>
				<path class="st62" d="M134.43,84.01c-0.3-0.08-0.6-0.18-0.9-0.19c-1.94-0.05-3.54-0.79-4.98-2.11
					c-1.91-1.74-4.23-2.67-7.37-2.95c-0.47,0.32-1.5,0.72-2.11,1.47c-2.65,3.25-2.18,6.67,1.16,9.47c1.8,1.51,2,2.4,1.06,4.58
					c-0.4,0.93-0.91,1.83-1.16,2.79c-0.12,0.44,0.11,1.23,0.45,1.46c0.31,0.21,1.07,0.03,1.49-0.22c1.05-0.64,2-1.43,3.01-2.13
					c2.67-1.83,5.37-3.63,8.03-5.47c0.31-0.21,0.52-0.59,0.72-0.92c0.58-0.97,1.09-1.98,1.69-2.93
					C136.42,85.43,136.07,84.45,134.43,84.01z"/>
			</g>
		</g>
	</g>
</g>
</svg>
