<?xml version="1.0" encoding="utf-8"?>
<!-- Generator: Adobe Illustrator 23.0.0, SVG Export Plug-In . SVG Version: 6.00 Build 0)  -->
<svg version="1.1" id="Layer_11" xmlns="http://www.w3.org/2000/svg" xmlns:xlink="http://www.w3.org/1999/xlink" x="0px" y="0px"
	 viewBox="0 0 245 873" style="enable-background:new 0 0 245 873;" xml:space="preserve">
<style type="text/css">
	.st0{fill:#E2E2E4;}
	.st1{fill:#231F20;}
	.st2{fill:#858789;}
	.st3{fill:none;stroke:#909295;stroke-miterlimit:10;}
	.st4{fill:none;stroke:#909295;stroke-miterlimit:10;stroke-dasharray:3.0107,3.0107;}
	.st5{fill:none;stroke:#909295;stroke-miterlimit:10;stroke-dasharray:3.0362,3.0362;}
	.st6{fill:#168C77;}
	.st7{fill:none;stroke:#909295;stroke-miterlimit:10;stroke-dasharray:3.0068,3.0068;}
	.st8{fill:#F5F6F6;}
	.st9{fill:none;stroke:#221E1F;stroke-width:0.5;stroke-miterlimit:10;}
	.st10{fill:none;stroke:#221E1F;stroke-width:0.5;stroke-miterlimit:10;stroke-dasharray:0.9999,0.9999;}
	.st11{fill:none;stroke:#221E1F;stroke-width:0.5;stroke-miterlimit:10;stroke-dasharray:1;}
	.st12{fill:none;stroke:#221E1F;stroke-width:2;stroke-miterlimit:10;}
	.st13{fill:none;stroke:#221E1F;stroke-width:4;stroke-linecap:round;stroke-miterlimit:10;}
	.st14{fill:none;stroke:#221E1F;stroke-width:4;stroke-linecap:round;stroke-linejoin:round;stroke-miterlimit:10;}
	.st15{fill:none;stroke:#221E1F;stroke-width:2;stroke-linecap:round;stroke-miterlimit:10;}
	.st16{fill:none;stroke:#221E1F;stroke-width:0.5;stroke-miterlimit:10;stroke-dasharray:1,1;}
	.st17{fill:#FDCD0B;}
	.st18{fill:#253B7B;}
	.st19{fill:#DB2727;}
	.st20{fill:url(#SVGID_1_);}
	.st21{fill:url(#SVGID_2_);}
	.st22{fill:url(#SVGID_3_);}
	.st23{fill:url(#SVGID_4_);}
	.st24{fill:url(#SVGID_5_);}
	.st25{fill:url(#SVGID_6_);}
	.st26{fill:url(#SVGID_7_);}
	.st27{fill:url(#SVGID_8_);}
	.st28{fill:#221E1F;}
	.st29{fill:#9FA2A4;}
	.st30{fill:none;stroke:#525355;stroke-miterlimit:10;stroke-dasharray:1;}
	.st31{fill:url(#SVGID_9_);}
	.st32{fill:#CFD1D3;}
	.st33{fill:none;stroke:#909295;stroke-miterlimit:10;stroke-dasharray:1;}
	.st34{fill:none;stroke:#231F20;stroke-width:8;stroke-miterlimit:10;}
	.st35{fill:url(#SVGID_10_);}
	.st36{fill:#A5C6C1;}
	.st37{fill:#DADE88;}
	.st38{fill:#B9A75A;}
	.st39{fill:#D07B5A;}
	.st40{fill:#D4ECE4;}
	.st41{fill:url(#SVGID_11_);}
	.st42{fill:none;stroke:#FFFFFF;stroke-miterlimit:10;}
	.st43{fill:none;stroke:#FFFFFF;stroke-miterlimit:10;stroke-dasharray:2.6374,2.6374;}
	.st44{fill:none;stroke:#FFFFFF;stroke-miterlimit:10;stroke-dasharray:3.0362,3.0362;}
	.st45{fill:#59A3D9;}
	.st46{fill:url(#SVGID_12_);}
	.st47{fill:none;stroke:#858789;stroke-miterlimit:10;}
	.st48{fill:none;stroke:#858789;stroke-miterlimit:10;stroke-dasharray:4.1692,4.1692;}
	.st49{fill:none;stroke:#858789;stroke-miterlimit:10;stroke-dasharray:3.6888,3.6888;}
	.st50{fill:none;stroke:#858789;stroke-miterlimit:10;stroke-dasharray:4.1687,4.1687;}
	.st51{fill:none;stroke:#858789;stroke-miterlimit:10;stroke-dasharray:4.0271,4.0271;}
	.st52{fill:url(#SVGID_13_);}
	.st53{fill:#848689;}
	.st54{fill:none;stroke:#FFFFFF;stroke-width:2;stroke-linecap:round;stroke-miterlimit:10;}
	.st55{fill:none;stroke:#848689;stroke-width:4;stroke-miterlimit:10;}
	.st56{fill:#3BD9A3;}
	.st57{fill:#6AE3E9;}
	.st58{fill:none;stroke:#FFFFFF;stroke-miterlimit:10;stroke-dasharray:2.9965,2.9965;}
	.st59{fill:#61C7D9;}
	.st60{fill:#909295;}
	.st61{fill:none;stroke:#FFFFFF;stroke-miterlimit:10;stroke-dasharray:3;}
	.st62{fill:#FFFFFF;}
	.st63{opacity:0.4;fill:#FFFFFF;}
	.st64{opacity:0.35;}
	.st65{opacity:0.4;}
	.st66{fill:none;stroke:#FFFFFF;stroke-miterlimit:10;stroke-dasharray:3.0107,3.0107;}
	.st67{fill:#939598;}
	.st68{fill:#BCBEC0;}
</style>
<polygon class="st0" points="0,74.82 122.5,0 245,74.82 245,873 0,873 "/>
<g>
	<g>
		<line class="st3" x1="8.17" y1="873" x2="8.17" y2="871.5"/>
		<line class="st4" x1="8.17" y1="868.49" x2="8.17" y2="81.19"/>
		<polyline class="st3" points="8.17,79.69 8.17,78.19 9.46,77.41 		"/>
		<line class="st5" x1="12.07" y1="75.85" x2="120.15" y2="11.1"/>
		<polyline class="st3" points="121.46,10.32 122.74,9.54 124.03,10.32 		"/>
		<line class="st5" x1="126.64" y1="11.88" x2="234.72" y2="76.63"/>
		<polyline class="st3" points="236.03,77.41 237.31,78.19 237.31,79.69 		"/>
		<line class="st4" x1="237.31" y1="82.7" x2="237.31" y2="869.99"/>
		<line class="st3" x1="237.31" y1="871.5" x2="237.31" y2="873"/>
	</g>
</g>
<polygon class="st59" points="0.16,852.02 122.66,778.63 245.16,852.02 245.16,873 0.16,873 "/>
<g>
	<g>
		<line class="st42" x1="7.93" y1="873" x2="7.93" y2="871.5"/>
		<line class="st43" x1="7.93" y1="868.86" x2="7.93" y2="859.63"/>
		<polyline class="st42" points="7.93,858.31 7.93,856.81 9.22,856.04 		"/>
		<line class="st44" x1="11.82" y1="854.48" x2="119.91" y2="789.72"/>
		<polyline class="st42" points="121.21,788.94 122.5,788.17 123.79,788.94 		"/>
		<line class="st44" x1="126.39" y1="790.5" x2="234.48" y2="855.26"/>
		<polyline class="st42" points="235.78,856.04 237.07,856.81 237.07,858.31 		"/>
		<line class="st43" x1="237.07" y1="860.95" x2="237.07" y2="870.18"/>
		<line class="st42" x1="237.07" y1="871.5" x2="237.07" y2="873"/>
	</g>
</g>
<g>
	<g>
		<g>
			<circle class="st29" cx="128.43" cy="108.29" r="36"/>
		</g>
		<g>
			<g>
				<path class="st2" d="M119.35,62.88l0.33,3.55l8.83-6.27l-9.85-4.51l0.34,3.62c-10.96,2.12-20.96,7.93-28.29,16.46
					c-7.73,9.01-11.99,20.52-11.99,32.4c0,1,0.81,1.81,1.81,1.81s1.81-0.81,1.81-1.81C82.35,85.95,97.81,67.2,119.35,62.88z"/>
				<path class="st2" d="M176.48,106.32c-1,0-1.81,0.81-1.81,1.81c0,22.17-15.46,40.93-37,45.25l-0.33-3.55l-8.83,6.27l9.85,4.51
					l-0.34-3.62c10.96-2.12,20.96-7.92,28.29-16.46c7.73-9.01,11.99-20.52,11.99-32.4C178.29,107.13,177.48,106.32,176.48,106.32z"
					/>
				<path class="st2" d="M167.18,108.7c0.33-21.9-17.45-39.26-38.18-39.53c-21.16-0.27-39.1,16.89-39.18,38.06
					c-0.07,22.03,16.88,39.26,38.49,39.27C149.56,146.5,166.87,129.4,167.18,108.7z M145,137.56c-11.83,6.53-23.86,6.13-35.13-1.28
					c-11.41-7.5-16.5-18.53-15.23-32.11c0.93-9.94,5.83-17.88,13.84-23.86c0.4-0.3,0.84-0.53,1.22-0.77
					c1.66,1.59,1.68,2.96,0.7,5.15c-1.01,2.25-2.12,4.25-3.62,6.19c-1.35,1.74-1.14,3.84-0.39,5.92c0.85,2.34,1.63,4.72,2.17,7.15
					c0.44,1.99,1.53,3.31,3.29,4.04c2.86,1.19,5.63,2.41,7.36,5.24c0.31,0.5,1.38,0.53,2.1,0.77c-0.06-0.68,0.08-1.47-0.22-2.02
					c-0.69-1.27-1.08-2.87-2.93-3.16c-0.29-0.05-0.66-0.76-0.67-1.18c-0.05-1.47-0.9-1.49-2.04-1.45c-0.79,0.03-2.08-0.11-2.29-0.56
					c-0.39-0.85-0.47-2.11-0.13-2.98c0.94-2.41,3.8-3.3,6.35-1.91c1.76,0.96,2.28,0.68,3.49-1.06c1.68-2.42,4.3-4.22,6.64-6.14
					c0.99-0.82,2.36-1.17,3.42-1.93c1.63-1.17,1.73-2.27,0.35-3.77c-0.84-0.91-1.91-1.6-2.89-2.37c-1.08-0.85-1.27-1.82-0.41-2.92
					c0.75-0.97,1.51-1.19,2.48-0.18c0.73,0.75,1.55,1.49,2.46,1.97c1.18,0.62,1.74,0,1.73-1.27c-0.01-1.04,0.2-2.1,0.04-3.11
					c-0.12-0.76-0.54-1.56-1.05-2.14c-0.99-1.14-2.13-2.13-3.04-3.39c4.09,0.04,7.64,0.96,10.36,4.17c0.93,1.1,2.34,1.86,3.63,2.58
					c1.36,0.76,2.21,1.72,2.51,3.29c0.15,0.8,0.77,1.5,1.13,2.27c0.25,0.54,0.36,1.15,0.63,1.68c0.24,0.46,0.62,0.84,0.93,1.26
					c0.39-0.45,0.89-0.85,1.13-1.37c0.18-0.4,0.04-0.96,0.04-1.44c2.53-0.12,3.65,1.16,4.72,3.94c-0.77-0.15-2.1-0.61-2.22-0.4
					c-0.8,1.46-1.96,3.09-1.85,4.6c0.32,4.66,0.58,9.38,3.09,13.61c1.28,2.17,1.56,2.34,3.45,0.71c0.4-0.35,1.32-0.65,1.62-0.44
					c0.42,0.3,0.71,1.12,0.65,1.68C161.22,122.53,155.5,131.76,145,137.56z"/>
				<path class="st2" d="M145.47,119.34c-0.42-0.11-0.85-0.26-1.28-0.27c-2.76-0.07-5.03-1.12-7.08-2.99
					c-2.71-2.48-6.01-3.79-10.48-4.19c-0.67,0.45-2.14,1.02-3.01,2.08c-3.76,4.62-3.1,9.49,1.65,13.47
					c2.56,2.15,2.85,3.42,1.51,6.51c-0.57,1.32-1.29,2.6-1.65,3.97c-0.17,0.63,0.16,1.75,0.64,2.08c0.44,0.3,1.53,0.04,2.12-0.31
					c1.49-0.91,2.84-2.04,4.28-3.03c3.8-2.6,7.64-5.16,11.43-7.78c0.44-0.3,0.74-0.84,1.03-1.31c0.82-1.38,1.55-2.81,2.41-4.17
					C148.31,121.35,147.81,119.96,145.47,119.34z"/>
			</g>
		</g>
	</g>
</g>
<g>
	<g>
		<path class="st1" d="M83.61,197.42c0,1.74,0.53,2.39,2.48,2.39h1.02v0.59h-8.59v-0.59h0.43c1.61,0,2.08-0.34,2.08-1.8v-14.67
			c0-1.15-0.37-1.64-1.46-1.64h-1.55v-0.59c0.87-0.03,2.39-0.12,3.91-0.19s3.01-0.09,3.84-0.09c6.48,0,7.97,3.1,7.97,5.49
			c0,3.63-2.92,5.92-7.5,5.92c-0.93,0-1.71-0.06-2.64-0.25V197.42z M83.61,191.41c0.4,0.09,1.09,0.25,1.67,0.25
			c3.38,0,5.55-2.29,5.55-5.43c0-2.42-0.96-4.81-5.08-4.81c-0.71,0-1.4,0-2.14,0.12V191.41z"/>
		<path class="st1" d="M101.41,187.78c3.78,0,6.67,2.82,6.67,6.51c0,3.66-2.88,6.48-6.57,6.48c-3.84,0-6.79-2.79-6.79-6.42
			C94.71,190.08,98.18,187.78,101.41,187.78z M101.84,200.03c1.83,0,3.91-1.86,3.91-4.96c0-3.53-2.17-6.54-4.78-6.54
			c-2.05,0-3.94,2.11-3.94,4.77C97.03,197.05,99.17,200.03,101.84,200.03z"/>
		<path class="st1" d="M114.3,197.95c0,1.27,0.59,1.86,1.8,1.86h0.53v0.59h-6.98v-0.59c1.98,0,2.57-0.59,2.57-2.08v-14.98
			c0-0.87-0.09-1.15-0.96-1.24l-1.4-0.16v-0.53l3.97-1.27h0.47V197.95z"/>
		<path class="st1" d="M122.11,198.04c0,1.09,0.59,1.77,2.23,1.77v0.59h-6.88v-0.59c1.89,0,2.57-0.62,2.57-2.26v-6.23
			c0-1.21-0.16-1.36-0.96-1.52l-1.46-0.28v-0.5l4.03-1.4h0.46V198.04z M117.96,185.27l2.85-3.94c0.62-0.84,1.36-1.36,1.98-1.36
			c0.56,0,0.96,0.37,0.96,0.9c0,0.59-0.62,1.21-2.11,2.2l-3.29,2.2H117.96z"/>
		<path class="st1" d="M133.8,188.12l-0.5,1.36h-3.94v7.22c0,1.95,1.4,2.6,2.05,2.6c0.68,0,1.3-0.53,1.89-1.55l0.5,0.47
			c-0.74,1.61-1.95,2.54-3.38,2.54c-1.83,0-3.13-1.52-3.13-3.6v-7.69h-1.43v-0.5c1.21-0.59,2.26-2.02,2.98-3.94h0.53v3.07H133.8z"/>
		<path class="st1" d="M139.23,198.04c0,1.09,0.59,1.77,2.23,1.77v0.59h-6.88v-0.59c1.89,0,2.57-0.62,2.57-2.26v-6.23
			c0-1.21-0.16-1.36-0.96-1.52l-1.46-0.28v-0.5l4.03-1.4h0.46V198.04z M137.95,180.65c0.74,0,1.36,0.53,1.36,1.18
			s-0.62,1.18-1.36,1.18s-1.33-0.53-1.33-1.18S137.21,180.65,137.95,180.65z"/>
		<path class="st1" d="M154.2,197.55c-1.3,2.08-3.01,3.22-5.49,3.22c-3.72,0-5.21-3.53-5.21-5.98c0-3.88,3.19-7.01,7.13-7.01
			c1.95,0,3.47,0.78,3.47,1.77c0,0.53-0.4,0.93-0.9,0.93c-1.52,0-1.89-1.89-3.63-1.89c-2.14,0-4,2.54-4,5.52
			c0,3.1,1.86,5.4,4.37,5.4c1.49,0,2.67-0.68,3.78-2.23L154.2,197.55z"/>
		<path class="st1" d="M156.71,191.81c-0.06-0.19-0.09-0.28-0.09-0.43c0-1.09,2.57-3.6,4.59-3.6c0.93,0,2.39,0.43,3.26,1.64
			c0.46,0.65,0.46,1.05,0.46,2.67v4.15c0,2.48,0,3.04,0.81,3.04c0.34,0,0.74-0.03,1.52-0.68l0.16,0.47
			c-1.67,1.36-2.54,1.71-3.07,1.71c-1.27,0-1.4-1.4-1.43-1.89c-2.14,1.77-2.76,1.89-3.6,1.89c-1.8,0-2.88-1.02-2.88-2.54
			c0-1.89,1.67-2.54,3.66-3.04c0.65-0.16,1.67-0.53,2.76-1.18v-2.45c0-0.87,0-1.36-0.53-1.98c-0.4-0.5-1.05-0.9-1.74-0.9
			c-1.02,0-1.92,0.87-1.92,1.52c0,0.19,0.03,0.31,0.15,0.59L156.71,191.81z M162.85,194.63c-0.59,0.34-1.09,0.56-1.83,0.87
			c-1.89,0.78-2.6,1.09-2.6,2.36c0,1.12,0.9,1.83,1.83,1.83c0.5,0,0.87-0.16,2.6-1.36V194.63z"/>
		<path class="st1" d="M47.64,235.24c0,1.09,0.59,1.77,2.23,1.77v0.59h-6.88v-0.59c1.89,0,2.57-0.62,2.57-2.26v-6.23
			c0-1.21-0.16-1.36-0.96-1.52l-1.46-0.28v-0.5l4.03-1.4h0.46V235.24z M46.37,217.85c0.74,0,1.36,0.53,1.36,1.18
			s-0.62,1.18-1.36,1.18s-1.33-0.53-1.33-1.18S45.62,217.85,46.37,217.85z"/>
		<path class="st1" d="M55.45,234.9c0,1.71,0.4,2.11,2.08,2.11v0.59h-6.23v-0.59c1.36,0,2.08-0.74,2.08-1.95v-6.51
			c0-1.15-0.12-1.36-0.93-1.52l-1.05-0.22v-0.5l3.57-1.3h0.5v2.42c2.08-1.3,3.81-2.45,5.33-2.45c2.11,0,3.32,1.55,3.32,4.65
			c0,4.12-0.22,4.93-0.25,6.14c-0.03,0.84,0.46,1.24,1.74,1.24h0.68v0.59H59.6v-0.59c0.9-0.03,1.43-0.25,1.77-0.59
			c0.59-0.59,0.65-2.85,0.65-6.98c0-2.48-1.21-3.26-2.45-3.26c-0.99,0-2.51,0.87-4.12,1.98V234.9z"/>
		<path class="st1" d="M75.48,225.32l-0.5,1.36h-3.94v7.22c0,1.95,1.4,2.6,2.05,2.6c0.68,0,1.3-0.53,1.89-1.55l0.5,0.47
			c-0.74,1.61-1.95,2.54-3.38,2.54c-1.83,0-3.13-1.52-3.13-3.6v-7.69h-1.43v-0.5c1.21-0.59,2.26-2.02,2.98-3.94h0.53v3.07H75.48z"/>
		<path class="st1" d="M79.23,229.72c-0.06,0.47-0.12,0.9-0.12,1.3c0,3.22,2.26,5.4,4.71,5.4c1.55,0,2.76-0.62,3.94-2.02l0.34,0.37
			c-1.3,1.64-3.26,3.19-5.52,3.19c-3.04,0-5.4-2.76-5.4-6.36c0-3.29,2.2-6.64,5.98-6.64c4.19,0,4.09,3.01,5.12,4.03v0.71H79.23z
			 M85.67,228.92c-0.34-2.02-1.58-3.35-3.07-3.35c-1.02,0-2.57,0.47-3.29,3.35H85.67z"/>
		<path class="st1" d="M94.23,235.34c0,1.27,0.47,1.67,2.02,1.67h1.18v0.59h-7.35v-0.59c1.58-0.03,2.08-0.68,2.08-2.33v-7.16
			l-2.08-0.74v-0.53l3.53-1.24h0.62v3.29h0.06c1.55-2.54,1.92-3.13,2.95-3.13c0.37,0,0.47,0.03,1.05,0.28
			c0.31,0.12,0.87,0.25,1.61,0.47l-0.74,1.86c-0.47-0.06-1.05-0.22-1.64-0.5c-0.34-0.16-0.71-0.31-1.08-0.31
			c-0.56,0-0.9,0.37-1.21,0.81c-0.4,0.56-0.74,1.09-0.99,1.55V235.34z"/>
		<path class="st1" d="M105.79,234.9c0,1.71,0.4,2.11,2.08,2.11v0.59h-6.23v-0.59c1.36,0,2.08-0.74,2.08-1.95v-6.51
			c0-1.15-0.12-1.36-0.93-1.52l-1.05-0.22v-0.5l3.57-1.3h0.5v2.42c2.08-1.3,3.81-2.45,5.33-2.45c2.11,0,3.32,1.55,3.32,4.65
			c0,4.12-0.22,4.93-0.25,6.14c-0.03,0.84,0.46,1.24,1.74,1.24h0.68v0.59h-6.67v-0.59c0.9-0.03,1.43-0.25,1.77-0.59
			c0.59-0.59,0.65-2.85,0.65-6.98c0-2.48-1.21-3.26-2.45-3.26c-0.99,0-2.51,0.87-4.12,1.98V234.9z"/>
		<path class="st1" d="M118.38,229.01c-0.06-0.19-0.09-0.28-0.09-0.43c0-1.09,2.57-3.6,4.59-3.6c0.93,0,2.39,0.43,3.26,1.64
			c0.47,0.65,0.47,1.05,0.47,2.67v4.15c0,2.48,0,3.04,0.81,3.04c0.34,0,0.74-0.03,1.52-0.68l0.15,0.47
			c-1.67,1.36-2.54,1.71-3.07,1.71c-1.27,0-1.4-1.4-1.43-1.89c-2.14,1.77-2.76,1.89-3.6,1.89c-1.8,0-2.88-1.02-2.88-2.54
			c0-1.89,1.67-2.54,3.66-3.04c0.65-0.16,1.67-0.53,2.76-1.18v-2.45c0-0.87,0-1.36-0.53-1.98c-0.4-0.5-1.05-0.9-1.74-0.9
			c-1.02,0-1.92,0.87-1.92,1.52c0,0.19,0.03,0.31,0.16,0.59L118.38,229.01z M124.52,231.83c-0.59,0.34-1.08,0.56-1.83,0.87
			c-1.89,0.78-2.6,1.09-2.6,2.36c0,1.12,0.9,1.83,1.83,1.83c0.5,0,0.87-0.16,2.6-1.36V231.83z"/>
		<path class="st1" d="M141.38,234.75c-1.3,2.08-3.01,3.22-5.49,3.22c-3.72,0-5.21-3.53-5.21-5.98c0-3.88,3.19-7.01,7.13-7.01
			c1.95,0,3.47,0.78,3.47,1.77c0,0.53-0.4,0.93-0.9,0.93c-1.52,0-1.89-1.89-3.63-1.89c-2.14,0-4,2.54-4,5.52
			c0,3.1,1.86,5.4,4.37,5.4c1.49,0,2.67-0.68,3.78-2.23L141.38,234.75z"/>
		<path class="st1" d="M147.7,235.24c0,1.09,0.59,1.77,2.23,1.77v0.59h-6.88v-0.59c1.89,0,2.57-0.62,2.57-2.26v-6.23
			c0-1.21-0.15-1.36-0.96-1.52l-1.46-0.28v-0.5l4.03-1.4h0.47V235.24z M146.43,217.85c0.74,0,1.36,0.53,1.36,1.18
			s-0.62,1.18-1.36,1.18s-1.33-0.53-1.33-1.18S145.69,217.85,146.43,217.85z"/>
		<path class="st1" d="M158.65,224.98c3.78,0,6.67,2.82,6.67,6.51c0,3.66-2.88,6.48-6.57,6.48c-3.84,0-6.79-2.79-6.79-6.42
			C151.95,227.28,155.42,224.98,158.65,224.98z M159.08,237.23c1.83,0,3.91-1.86,3.91-4.96c0-3.53-2.17-6.54-4.78-6.54
			c-2.05,0-3.94,2.11-3.94,4.77C154.27,234.25,156.41,237.23,159.08,237.23z"/>
		<path class="st1" d="M171.67,234.9c0,1.71,0.4,2.11,2.08,2.11v0.59h-6.23v-0.59c1.36,0,2.08-0.74,2.08-1.95v-6.51
			c0-1.15-0.12-1.36-0.93-1.52l-1.05-0.22v-0.5l3.57-1.3h0.5v2.42c2.08-1.3,3.81-2.45,5.33-2.45c2.11,0,3.32,1.55,3.32,4.65
			c0,4.12-0.22,4.93-0.25,6.14c-0.03,0.84,0.46,1.24,1.74,1.24h0.68v0.59h-6.67v-0.59c0.9-0.03,1.43-0.25,1.77-0.59
			c0.59-0.59,0.65-2.85,0.65-6.98c0-2.48-1.21-3.26-2.45-3.26c-0.99,0-2.51,0.87-4.12,1.98V234.9z"/>
		<path class="st1" d="M184.25,229.01c-0.06-0.19-0.09-0.28-0.09-0.43c0-1.09,2.57-3.6,4.59-3.6c0.93,0,2.39,0.43,3.26,1.64
			c0.47,0.65,0.47,1.05,0.47,2.67v4.15c0,2.48,0,3.04,0.81,3.04c0.34,0,0.74-0.03,1.52-0.68l0.15,0.47
			c-1.67,1.36-2.54,1.71-3.07,1.71c-1.27,0-1.4-1.4-1.43-1.89c-2.14,1.77-2.76,1.89-3.6,1.89c-1.8,0-2.88-1.02-2.88-2.54
			c0-1.89,1.67-2.54,3.66-3.04c0.65-0.16,1.67-0.53,2.76-1.18v-2.45c0-0.87,0-1.36-0.53-1.98c-0.4-0.5-1.05-0.9-1.74-0.9
			c-1.02,0-1.92,0.87-1.92,1.52c0,0.19,0.03,0.31,0.16,0.59L184.25,229.01z M190.39,231.83c-0.59,0.34-1.08,0.56-1.83,0.87
			c-1.89,0.78-2.6,1.09-2.6,2.36c0,1.12,0.9,1.83,1.83,1.83c0.5,0,0.87-0.16,2.6-1.36V231.83z"/>
		<path class="st1" d="M199.97,235.15c0,1.27,0.59,1.86,1.8,1.86h0.53v0.59h-6.98v-0.59c1.98,0,2.57-0.59,2.57-2.08v-14.98
			c0-0.87-0.09-1.15-0.96-1.24l-1.4-0.16v-0.53l3.97-1.27h0.47V235.15z"/>
	</g>
</g>
</svg>
