<?xml version="1.0" encoding="utf-8"?>
<!-- Generator: Adobe Illustrator 23.0.0, SVG Export Plug-In . SVG Version: 6.00 Build 0)  -->
<svg version="1.1" id="Layer_11" xmlns="http://www.w3.org/2000/svg" xmlns:xlink="http://www.w3.org/1999/xlink" x="0px" y="0px"
	 viewBox="0 0 245 873" style="enable-background:new 0 0 245 873;" xml:space="preserve">
<style type="text/css">
	.st0{fill:#E2E2E4;}
	.st1{fill:#231F20;}
	.st2{fill:#858789;}
	.st3{fill:none;stroke:#909295;stroke-miterlimit:10;}
	.st4{fill:none;stroke:#909295;stroke-miterlimit:10;stroke-dasharray:3.0107,3.0107;}
	.st5{fill:none;stroke:#909295;stroke-miterlimit:10;stroke-dasharray:3.0362,3.0362;}
	.st6{fill:#168C77;}
	.st7{fill:none;stroke:#909295;stroke-miterlimit:10;stroke-dasharray:3.0068,3.0068;}
	.st8{fill:#F5F6F6;}
	.st9{fill:none;stroke:#221E1F;stroke-width:0.5;stroke-miterlimit:10;}
	.st10{fill:none;stroke:#221E1F;stroke-width:0.5;stroke-miterlimit:10;stroke-dasharray:0.9999,0.9999;}
	.st11{fill:none;stroke:#221E1F;stroke-width:0.5;stroke-miterlimit:10;stroke-dasharray:1;}
	.st12{fill:none;stroke:#221E1F;stroke-width:2;stroke-miterlimit:10;}
	.st13{fill:none;stroke:#221E1F;stroke-width:4;stroke-linecap:round;stroke-miterlimit:10;}
	.st14{fill:none;stroke:#221E1F;stroke-width:4;stroke-linecap:round;stroke-linejoin:round;stroke-miterlimit:10;}
	.st15{fill:none;stroke:#221E1F;stroke-width:2;stroke-linecap:round;stroke-miterlimit:10;}
	.st16{fill:none;stroke:#221E1F;stroke-width:0.5;stroke-miterlimit:10;stroke-dasharray:1,1;}
	.st17{fill:#FDCD0B;}
	.st18{fill:#253B7B;}
	.st19{fill:#DB2727;}
	.st20{fill:url(#SVGID_1_);}
	.st21{fill:url(#SVGID_2_);}
	.st22{fill:url(#SVGID_3_);}
	.st23{fill:url(#SVGID_4_);}
	.st24{fill:url(#SVGID_5_);}
	.st25{fill:url(#SVGID_6_);}
	.st26{fill:url(#SVGID_7_);}
	.st27{fill:url(#SVGID_8_);}
	.st28{fill:#221E1F;}
	.st29{fill:#9FA2A4;}
	.st30{fill:none;stroke:#525355;stroke-miterlimit:10;stroke-dasharray:1;}
	.st31{fill:url(#SVGID_9_);}
	.st32{fill:#CFD1D3;}
	.st33{fill:none;stroke:#909295;stroke-miterlimit:10;stroke-dasharray:1;}
	.st34{fill:none;stroke:#231F20;stroke-width:8;stroke-miterlimit:10;}
	.st35{fill:url(#SVGID_10_);}
	.st36{fill:#A5C6C1;}
	.st37{fill:#DADE88;}
	.st38{fill:#B9A75A;}
	.st39{fill:#D07B5A;}
	.st40{fill:#D4ECE4;}
	.st41{fill:url(#SVGID_11_);}
	.st42{fill:none;stroke:#FFFFFF;stroke-miterlimit:10;}
	.st43{fill:none;stroke:#FFFFFF;stroke-miterlimit:10;stroke-dasharray:2.6374,2.6374;}
	.st44{fill:none;stroke:#FFFFFF;stroke-miterlimit:10;stroke-dasharray:3.0362,3.0362;}
	.st45{fill:#59A3D9;}
	.st46{fill:url(#SVGID_12_);}
	.st47{fill:none;stroke:#858789;stroke-miterlimit:10;}
	.st48{fill:none;stroke:#858789;stroke-miterlimit:10;stroke-dasharray:4.1692,4.1692;}
	.st49{fill:none;stroke:#858789;stroke-miterlimit:10;stroke-dasharray:3.6888,3.6888;}
	.st50{fill:none;stroke:#858789;stroke-miterlimit:10;stroke-dasharray:4.1687,4.1687;}
	.st51{fill:none;stroke:#858789;stroke-miterlimit:10;stroke-dasharray:4.0271,4.0271;}
	.st52{fill:url(#SVGID_13_);}
	.st53{fill:#848689;}
	.st54{fill:none;stroke:#FFFFFF;stroke-width:2;stroke-linecap:round;stroke-miterlimit:10;}
	.st55{fill:none;stroke:#848689;stroke-width:4;stroke-miterlimit:10;}
	.st56{fill:#3BD9A3;}
	.st57{fill:#6AE3E9;}
	.st58{fill:none;stroke:#FFFFFF;stroke-miterlimit:10;stroke-dasharray:2.9965,2.9965;}
	.st59{fill:#61C7D9;}
	.st60{fill:#909295;}
	.st61{fill:none;stroke:#FFFFFF;stroke-miterlimit:10;stroke-dasharray:3;}
	.st62{fill:#FFFFFF;}
	.st63{opacity:0.4;fill:#FFFFFF;}
	.st64{opacity:0.35;}
	.st65{opacity:0.4;}
	.st66{fill:none;stroke:#FFFFFF;stroke-miterlimit:10;stroke-dasharray:3.0107,3.0107;}
	.st67{fill:#939598;}
	.st68{fill:#BCBEC0;}
</style>
<polygon class="st0" points="0,74.82 122.5,0 245,74.82 245,873 0,873 "/>
<g>
	<g>
		<path class="st1" d="M82.48,198.94c-3.07,1.58-7.01,1.95-8.31,1.95c-6.79,0-9.95-5.24-9.95-9.77c0-4.65,3.25-10.48,10.82-10.48
			c3.32,0,5.52,1.05,6.17,1.05c0.28,0,0.53-0.06,0.71-0.22h0.43v5.02h-0.62c-0.84-3.88-3.47-5.08-6.36-5.08
			c-5.46,0-8.25,4.53-8.25,9.52c0,6.36,4.46,9.18,8.03,9.18c1.43,0,3.01-0.31,4.74-1.18v-3.91c0-1.77-0.62-2.36-2.48-2.36h-1.15
			v-0.56h8.37v0.56c-1.55,0.09-2.17,0.62-2.17,1.95V198.94z"/>
		<path class="st1" d="M93.49,187.78c3.78,0,6.67,2.82,6.67,6.51c0,3.66-2.88,6.48-6.57,6.48c-3.85,0-6.79-2.79-6.79-6.42
			C86.79,190.08,90.26,187.78,93.49,187.78z M93.92,200.03c1.83,0,3.91-1.86,3.91-4.96c0-3.53-2.17-6.54-4.78-6.54
			c-2.05,0-3.94,2.11-3.94,4.77C89.11,197.05,91.25,200.03,93.92,200.03z"/>
		<path class="st1" d="M105.95,189.95c2.2-1.58,3.53-2.17,4.68-2.17c2.76,0,5.08,2.73,5.08,5.98c0,3.97-3.13,7.01-7.26,7.01
			c-1.39,0-2.6-0.22-4.59-0.59v-16.81c0-1.61-0.09-1.74-1.27-1.89l-0.87-0.12v-0.53l3.72-1.27h0.5V189.95z M105.95,196.62
			c0,1.55,1.02,3.26,3.38,3.26c2.54,0,4.31-2.14,4.31-5.24s-1.83-5.43-4.22-5.43c-0.96,0-2.08,0.47-3.47,1.46V196.62z"/>
		<path class="st1" d="M122.25,198.04c0,1.09,0.59,1.77,2.23,1.77v0.59h-6.88v-0.59c1.89,0,2.57-0.62,2.57-2.26v-6.23
			c0-1.21-0.16-1.36-0.96-1.52l-1.46-0.28v-0.5l4.03-1.4h0.46V198.04z M120.98,180.65c0.74,0,1.37,0.53,1.37,1.18
			s-0.62,1.18-1.37,1.18s-1.33-0.53-1.33-1.18S120.24,180.65,120.98,180.65z"/>
		<path class="st1" d="M128.64,192.52c-0.06,0.47-0.12,0.9-0.12,1.3c0,3.22,2.26,5.4,4.71,5.4c1.55,0,2.76-0.62,3.94-2.02l0.34,0.37
			c-1.3,1.64-3.26,3.19-5.52,3.19c-3.04,0-5.39-2.76-5.39-6.36c0-3.29,2.2-6.64,5.98-6.64c4.19,0,4.09,3.01,5.12,4.03v0.71H128.64z
			 M135.09,191.72c-0.34-2.02-1.58-3.35-3.07-3.35c-1.02,0-2.57,0.47-3.29,3.35H135.09z"/>
		<path class="st1" d="M143.64,198.14c0,1.27,0.47,1.67,2.01,1.67h1.18v0.59h-7.35v-0.59c1.58-0.03,2.08-0.68,2.08-2.33v-7.16
			l-2.08-0.74v-0.53l3.54-1.24h0.62v3.29h0.06c1.55-2.54,1.92-3.13,2.95-3.13c0.37,0,0.47,0.03,1.05,0.28
			c0.31,0.12,0.87,0.25,1.61,0.47l-0.74,1.86c-0.47-0.06-1.05-0.22-1.64-0.5c-0.34-0.16-0.71-0.31-1.08-0.31
			c-0.56,0-0.9,0.37-1.21,0.81c-0.4,0.56-0.74,1.09-0.99,1.55V198.14z"/>
		<path class="st1" d="M155.21,197.7c0,1.71,0.4,2.11,2.08,2.11v0.59h-6.23v-0.59c1.37,0,2.08-0.74,2.08-1.95v-6.51
			c0-1.15-0.13-1.36-0.93-1.52l-1.05-0.22v-0.5l3.57-1.3h0.5v2.42c2.08-1.3,3.81-2.45,5.33-2.45c2.11,0,3.32,1.55,3.32,4.65
			c0,4.12-0.22,4.93-0.25,6.14c-0.03,0.84,0.46,1.24,1.74,1.24h0.68v0.59h-6.67v-0.59c0.9-0.03,1.43-0.25,1.77-0.59
			c0.59-0.59,0.65-2.85,0.65-6.98c0-2.48-1.21-3.26-2.45-3.26c-0.99,0-2.51,0.87-4.12,1.98V197.7z"/>
		<path class="st1" d="M174.49,187.78c3.78,0,6.67,2.82,6.67,6.51c0,3.66-2.88,6.48-6.57,6.48c-3.85,0-6.79-2.79-6.79-6.42
			C167.79,190.08,171.26,187.78,174.49,187.78z M174.92,200.03c1.83,0,3.91-1.86,3.91-4.96c0-3.53-2.17-6.54-4.78-6.54
			c-2.05,0-3.94,2.11-3.94,4.77C170.12,197.05,172.26,200.03,174.92,200.03z"/>
	</g>
</g>
<g>
	<rect x="66.85" y="91.24" class="st2" width="26.75" height="40.34"/>
	<rect x="64.06" y="87.12" class="st2" width="29.54" height="4.12"/>
	<rect x="153.25" y="87.12" class="st2" width="29.54" height="4.12"/>
	<rect x="153.25" y="91.24" class="st2" width="25.23" height="40.34"/>
	<rect x="62.94" y="134.29" class="st2" width="119.45" height="4.2"/>
	<rect x="56.16" y="141.09" class="st2" width="133" height="4.2"/>
	<g>
		<polygon class="st2" points="150.55,84.24 95.53,84.24 95.53,82.1 123.04,70.97 150.55,82.1 		"/>
		<g>
			<rect x="95.53" y="127.46" class="st2" width="55.02" height="4.12"/>
			<rect x="95.53" y="87.12" class="st2" width="55.02" height="4.12"/>
			<g>
				<g>
					
						<rect x="78.45" y="108.04" transform="matrix(-1.836970e-16 1 -1 -1.836970e-16 208.7941 10.7307)" class="st2" width="41.16" height="3.45"/>
					<rect x="96.34" y="91.24" class="st2" width="5.35" height="2.1"/>
					<rect x="96.34" y="125.36" class="st2" width="5.35" height="2.1"/>
				</g>
				<g>
					
						<rect x="83.41" y="108.04" transform="matrix(-1.836970e-16 1 -1 -1.836970e-16 213.7525 5.7723)" class="st2" width="41.16" height="3.45"/>
					<rect x="101.29" y="91.24" class="st2" width="5.35" height="2.1"/>
					<rect x="101.29" y="125.36" class="st2" width="5.35" height="2.1"/>
				</g>
				<g>
					
						<rect x="92.82" y="108.04" transform="matrix(-1.836970e-16 1 -1 -1.836970e-16 223.1608 -3.6359)" class="st2" width="41.16" height="3.45"/>
					<rect x="110.7" y="91.24" class="st2" width="5.35" height="2.1"/>
					<rect x="110.7" y="125.36" class="st2" width="5.35" height="2.1"/>
				</g>
				<g>
					
						<rect x="97.78" y="108.04" transform="matrix(-1.836970e-16 1 -1 -1.836970e-16 228.1192 -8.5944)" class="st2" width="41.16" height="3.45"/>
					<rect x="115.66" y="91.24" class="st2" width="5.35" height="2.1"/>
					<rect x="115.66" y="125.36" class="st2" width="5.35" height="2.1"/>
				</g>
				<g>
					
						<rect x="107.18" y="108.04" transform="matrix(-1.836970e-16 1 -1 -1.836970e-16 237.5275 -18.0026)" class="st2" width="41.16" height="3.45"/>
					<rect x="125.07" y="91.24" class="st2" width="5.35" height="2.1"/>
					<rect x="125.07" y="125.36" class="st2" width="5.35" height="2.1"/>
				</g>
				<g>
					
						<rect x="112.14" y="108.04" transform="matrix(-1.836970e-16 1 -1 -1.836970e-16 242.4859 -22.961)" class="st2" width="41.16" height="3.45"/>
					<rect x="130.03" y="91.24" class="st2" width="5.35" height="2.1"/>
					<rect x="130.03" y="125.36" class="st2" width="5.35" height="2.1"/>
				</g>
				<g>
					
						<rect x="121.55" y="108.04" transform="matrix(-1.836970e-16 1 -1 -1.836970e-16 251.8942 -32.3693)" class="st2" width="41.16" height="3.45"/>
					<rect x="139.44" y="91.24" class="st2" width="5.35" height="2.1"/>
					<rect x="139.44" y="125.36" class="st2" width="5.35" height="2.1"/>
				</g>
				<g>
					
						<rect x="126.51" y="108.04" transform="matrix(-1.836970e-16 1 -1 -1.836970e-16 256.8526 -37.3277)" class="st2" width="41.16" height="3.45"/>
					<rect x="144.39" y="91.24" class="st2" width="5.35" height="2.1"/>
					<rect x="144.39" y="125.36" class="st2" width="5.35" height="2.1"/>
				</g>
			</g>
		</g>
	</g>
</g>
<g>
	<g>
		<line class="st3" x1="8.17" y1="873" x2="8.17" y2="871.5"/>
		<line class="st4" x1="8.17" y1="868.49" x2="8.17" y2="81.19"/>
		<polyline class="st3" points="8.17,79.69 8.17,78.19 9.46,77.41 		"/>
		<line class="st5" x1="12.07" y1="75.85" x2="120.15" y2="11.1"/>
		<polyline class="st3" points="121.46,10.32 122.74,9.54 124.03,10.32 		"/>
		<line class="st5" x1="126.64" y1="11.88" x2="234.72" y2="76.63"/>
		<polyline class="st3" points="236.03,77.41 237.31,78.19 237.31,79.69 		"/>
		<line class="st4" x1="237.31" y1="82.7" x2="237.31" y2="869.99"/>
		<line class="st3" x1="237.31" y1="871.5" x2="237.31" y2="873"/>
	</g>
</g>
<polygon class="st6" points="0.16,852.02 122.66,778.63 245.16,852.02 245.16,873 0.16,873 "/>
<g>
	<g>
		<line class="st42" x1="7.93" y1="873" x2="7.93" y2="871.5"/>
		<line class="st43" x1="7.93" y1="868.86" x2="7.93" y2="859.63"/>
		<polyline class="st42" points="7.93,858.31 7.93,856.81 9.22,856.04 		"/>
		<line class="st44" x1="11.82" y1="854.48" x2="119.91" y2="789.72"/>
		<polyline class="st42" points="121.21,788.94 122.5,788.17 123.79,788.94 		"/>
		<line class="st44" x1="126.39" y1="790.5" x2="234.48" y2="855.26"/>
		<polyline class="st42" points="235.78,856.04 237.07,856.81 237.07,858.31 		"/>
		<line class="st43" x1="237.07" y1="860.95" x2="237.07" y2="870.18"/>
		<line class="st42" x1="237.07" y1="871.5" x2="237.07" y2="873"/>
	</g>
</g>
</svg>
