<?xml version="1.0" encoding="utf-8"?>
<!-- Generator: Adobe Illustrator 23.0.0, SVG Export Plug-In . SVG Version: 6.00 Build 0)  -->
<svg version="1.1" id="Layer_11" xmlns="http://www.w3.org/2000/svg" xmlns:xlink="http://www.w3.org/1999/xlink" x="0px" y="0px"
	 viewBox="0 0 245 873" style="enable-background:new 0 0 245 873;" xml:space="preserve">
<style type="text/css">
	.st0{fill:#E2E2E4;}
	.st1{fill:#231F20;}
	.st2{fill:#858789;}
	.st3{fill:none;stroke:#909295;stroke-miterlimit:10;}
	.st4{fill:none;stroke:#909295;stroke-miterlimit:10;stroke-dasharray:3.0107,3.0107;}
	.st5{fill:none;stroke:#909295;stroke-miterlimit:10;stroke-dasharray:3.0362,3.0362;}
	.st6{fill:#168C77;}
	.st7{fill:none;stroke:#909295;stroke-miterlimit:10;stroke-dasharray:3.0068,3.0068;}
	.st8{fill:#F5F6F6;}
	.st9{fill:none;stroke:#221E1F;stroke-width:0.5;stroke-miterlimit:10;}
	.st10{fill:none;stroke:#221E1F;stroke-width:0.5;stroke-miterlimit:10;stroke-dasharray:0.9999,0.9999;}
	.st11{fill:none;stroke:#221E1F;stroke-width:0.5;stroke-miterlimit:10;stroke-dasharray:1;}
	.st12{fill:none;stroke:#221E1F;stroke-width:2;stroke-miterlimit:10;}
	.st13{fill:none;stroke:#221E1F;stroke-width:4;stroke-linecap:round;stroke-miterlimit:10;}
	.st14{fill:none;stroke:#221E1F;stroke-width:4;stroke-linecap:round;stroke-linejoin:round;stroke-miterlimit:10;}
	.st15{fill:none;stroke:#221E1F;stroke-width:2;stroke-linecap:round;stroke-miterlimit:10;}
	.st16{fill:none;stroke:#221E1F;stroke-width:0.5;stroke-miterlimit:10;stroke-dasharray:1,1;}
	.st17{fill:#FDCD0B;}
	.st18{fill:#253B7B;}
	.st19{fill:#DB2727;}
	.st20{fill:url(#SVGID_1_);}
	.st21{fill:url(#SVGID_2_);}
	.st22{fill:url(#SVGID_3_);}
	.st23{fill:url(#SVGID_4_);}
	.st24{fill:url(#SVGID_5_);}
	.st25{fill:url(#SVGID_6_);}
	.st26{fill:url(#SVGID_7_);}
	.st27{fill:url(#SVGID_8_);}
	.st28{fill:#221E1F;}
	.st29{fill:#9FA2A4;}
	.st30{fill:none;stroke:#525355;stroke-miterlimit:10;stroke-dasharray:1;}
	.st31{fill:url(#SVGID_9_);}
	.st32{fill:#CFD1D3;}
	.st33{fill:none;stroke:#909295;stroke-miterlimit:10;stroke-dasharray:1;}
	.st34{fill:none;stroke:#231F20;stroke-width:8;stroke-miterlimit:10;}
	.st35{fill:url(#SVGID_10_);}
	.st36{fill:#A5C6C1;}
	.st37{fill:#DADE88;}
	.st38{fill:#B9A75A;}
	.st39{fill:#D07B5A;}
	.st40{fill:#D4ECE4;}
	.st41{fill:url(#SVGID_11_);}
	.st42{fill:none;stroke:#FFFFFF;stroke-miterlimit:10;}
	.st43{fill:none;stroke:#FFFFFF;stroke-miterlimit:10;stroke-dasharray:2.6374,2.6374;}
	.st44{fill:none;stroke:#FFFFFF;stroke-miterlimit:10;stroke-dasharray:3.0362,3.0362;}
	.st45{fill:#59A3D9;}
	.st46{fill:url(#SVGID_12_);}
	.st47{fill:none;stroke:#858789;stroke-miterlimit:10;}
	.st48{fill:none;stroke:#858789;stroke-miterlimit:10;stroke-dasharray:4.1692,4.1692;}
	.st49{fill:none;stroke:#858789;stroke-miterlimit:10;stroke-dasharray:3.6888,3.6888;}
	.st50{fill:none;stroke:#858789;stroke-miterlimit:10;stroke-dasharray:4.1687,4.1687;}
	.st51{fill:none;stroke:#858789;stroke-miterlimit:10;stroke-dasharray:4.0271,4.0271;}
	.st52{fill:url(#SVGID_13_);}
	.st53{fill:#848689;}
	.st54{fill:none;stroke:#FFFFFF;stroke-width:2;stroke-linecap:round;stroke-miterlimit:10;}
	.st55{fill:none;stroke:#848689;stroke-width:4;stroke-miterlimit:10;}
	.st56{fill:#3BD9A3;}
	.st57{fill:#6AE3E9;}
	.st58{fill:none;stroke:#FFFFFF;stroke-miterlimit:10;stroke-dasharray:2.9965,2.9965;}
	.st59{fill:#61C7D9;}
	.st60{fill:#909295;}
	.st61{fill:none;stroke:#FFFFFF;stroke-miterlimit:10;stroke-dasharray:3;}
	.st62{fill:#FFFFFF;}
	.st63{opacity:0.4;fill:#FFFFFF;}
	.st64{opacity:0.35;}
	.st65{opacity:0.4;}
	.st66{fill:none;stroke:#FFFFFF;stroke-miterlimit:10;stroke-dasharray:3.0107,3.0107;}
	.st67{fill:#939598;}
	.st68{fill:#BCBEC0;}
</style>
<polygon class="st0" points="0,74.82 122.5,0 245,74.82 245,873 0,873 "/>
<g>
	<g>
		<line class="st3" x1="8.17" y1="873" x2="8.17" y2="871.5"/>
		<line class="st4" x1="8.17" y1="868.49" x2="8.17" y2="81.19"/>
		<polyline class="st3" points="8.17,79.69 8.17,78.19 9.46,77.41 		"/>
		<line class="st5" x1="12.07" y1="75.85" x2="120.15" y2="11.1"/>
		<polyline class="st3" points="121.46,10.32 122.74,9.54 124.03,10.32 		"/>
		<line class="st5" x1="126.64" y1="11.88" x2="234.72" y2="76.63"/>
		<polyline class="st3" points="236.03,77.41 237.31,78.19 237.31,79.69 		"/>
		<line class="st4" x1="237.31" y1="82.7" x2="237.31" y2="869.99"/>
		<line class="st3" x1="237.31" y1="871.5" x2="237.31" y2="873"/>
	</g>
</g>
<polygon class="st57" points="0.16,852.02 122.66,778.63 245.16,852.02 245.16,873 0.16,873 "/>
<g>
	<g>
		<line class="st42" x1="7.93" y1="873" x2="7.93" y2="871.5"/>
		<line class="st43" x1="7.93" y1="868.86" x2="7.93" y2="859.63"/>
		<polyline class="st42" points="7.93,858.31 7.93,856.81 9.22,856.04 		"/>
		<line class="st44" x1="11.82" y1="854.48" x2="119.91" y2="789.72"/>
		<polyline class="st42" points="121.21,788.94 122.5,788.17 123.79,788.94 		"/>
		<line class="st44" x1="126.39" y1="790.5" x2="234.48" y2="855.26"/>
		<polyline class="st42" points="235.78,856.04 237.07,856.81 237.07,858.31 		"/>
		<line class="st43" x1="237.07" y1="860.95" x2="237.07" y2="870.18"/>
		<line class="st42" x1="237.07" y1="871.5" x2="237.07" y2="873"/>
	</g>
</g>
<g>
	<g>
		<path class="st1" d="M55.37,192.99h-0.53c-0.06-1.8-0.71-2.36-2.2-2.36h-5.74v6.79c0,1.74,0.37,2.39,2.7,2.39v0.59h-7.53v-0.59
			c1.92-0.12,2.26-0.53,2.26-3.04v-12.15c0-1.98-0.16-2.88-2.33-2.91v-0.59H55.9v3.66h-0.53c-0.03-1.8-0.65-2.54-2.57-2.54h-5.89
			v7.29h6.14c1.15,0,1.71-0.65,1.8-1.98h0.53V192.99z"/>
		<path class="st1" d="M72.55,199.5l-4.15,1.27v-2.48c-2.33,1.67-4.03,2.48-5.27,2.48c-1.55,0-3.29-1.05-3.29-3.16v-6.88
			c0-0.74-0.19-1.09-0.84-1.27l-1.09-0.31v-0.47l4-0.87v8.68c0,1.92,1.4,2.79,2.79,2.79c1.05,0,2.42-0.65,3.69-1.71v-6.67
			c0-1.21-0.16-1.46-1.15-1.64l-1.55-0.28v-0.43l4.77-0.74v10.45c0,0.87,0.31,1.02,1.43,0.81l0.65-0.12V199.5z"/>
		<path class="st1" d="M78.25,197.7c0,1.71,0.4,2.11,2.08,2.11v0.59h-6.23v-0.59c1.36,0,2.08-0.74,2.08-1.95v-6.51
			c0-1.15-0.12-1.36-0.93-1.52l-1.05-0.22v-0.5l3.57-1.3h0.5v2.42c2.08-1.3,3.81-2.45,5.33-2.45c2.11,0,3.32,1.55,3.32,4.65
			c0,4.12-0.22,4.93-0.25,6.14c-0.03,0.84,0.47,1.24,1.74,1.24h0.68v0.59H82.4v-0.59c0.9-0.03,1.43-0.25,1.77-0.59
			c0.59-0.59,0.65-2.85,0.65-6.98c0-2.48-1.21-3.26-2.45-3.26c-0.99,0-2.51,0.87-4.12,1.98V197.7z"/>
		<path class="st1" d="M101.56,197.55c-1.3,2.08-3.01,3.22-5.49,3.22c-3.72,0-5.21-3.53-5.21-5.98c0-3.88,3.19-7.01,7.13-7.01
			c1.95,0,3.47,0.78,3.47,1.77c0,0.53-0.4,0.93-0.9,0.93c-1.52,0-1.89-1.89-3.63-1.89c-2.14,0-4,2.54-4,5.52
			c0,3.1,1.86,5.4,4.37,5.4c1.49,0,2.67-0.68,3.78-2.23L101.56,197.55z"/>
		<path class="st1" d="M107.89,198.04c0,1.09,0.59,1.77,2.23,1.77v0.59h-6.88v-0.59c1.89,0,2.57-0.62,2.57-2.26v-6.23
			c0-1.21-0.15-1.36-0.96-1.52l-1.46-0.28v-0.5l4.03-1.4h0.47V198.04z M106.61,180.65c0.74,0,1.36,0.53,1.36,1.18
			s-0.62,1.18-1.36,1.18s-1.33-0.53-1.33-1.18S105.87,180.65,106.61,180.65z"/>
		<path class="st1" d="M118.83,187.78c3.78,0,6.67,2.82,6.67,6.51c0,3.66-2.88,6.48-6.57,6.48c-3.84,0-6.79-2.79-6.79-6.42
			C112.13,190.08,115.6,187.78,118.83,187.78z M119.26,200.03c1.83,0,3.91-1.86,3.91-4.96c0-3.53-2.17-6.54-4.78-6.54
			c-2.05,0-3.94,2.11-3.94,4.77C114.46,197.05,116.6,200.03,119.26,200.03z"/>
		<path class="st1" d="M131.85,197.7c0,1.71,0.4,2.11,2.08,2.11v0.59h-6.23v-0.59c1.36,0,2.08-0.74,2.08-1.95v-6.51
			c0-1.15-0.12-1.36-0.93-1.52l-1.05-0.22v-0.5l3.57-1.3h0.5v2.42c2.08-1.3,3.81-2.45,5.33-2.45c2.11,0,3.32,1.55,3.32,4.65
			c0,4.12-0.22,4.93-0.25,6.14c-0.03,0.84,0.46,1.24,1.74,1.24h0.68v0.59H136v-0.59c0.9-0.03,1.43-0.25,1.77-0.59
			c0.59-0.59,0.65-2.85,0.65-6.98c0-2.48-1.21-3.26-2.45-3.26c-0.99,0-2.51,0.87-4.12,1.98V197.7z"/>
		<path class="st1" d="M146.57,192.52c-0.06,0.47-0.12,0.9-0.12,1.3c0,3.22,2.26,5.4,4.71,5.4c1.55,0,2.76-0.62,3.94-2.02l0.34,0.37
			c-1.3,1.64-3.26,3.19-5.52,3.19c-3.04,0-5.4-2.76-5.4-6.36c0-3.29,2.2-6.64,5.98-6.64c4.19,0,4.09,3.01,5.12,4.03v0.71H146.57z
			 M153.02,191.72c-0.34-2.02-1.58-3.35-3.07-3.35c-1.02,0-2.57,0.47-3.29,3.35H153.02z"/>
		<path class="st1" d="M158.1,197.27c0.37,1.86,1.55,2.91,2.95,2.91c1.24,0,2.2-0.93,2.2-2.05c0-0.65-0.16-1.05-0.99-1.89
			c-2.2-2.2-4.65-2.42-4.65-4.99c0-2.05,1.61-3.47,3.97-3.47c0.84,0,1.71,0.19,2.48,0.5l0.06,2.82h-0.53
			c-0.22-1.58-1.24-2.57-2.48-2.57c-1.02,0-1.89,0.71-1.89,1.74c0,2.73,5.77,3.19,5.77,6.98c0,2.02-1.67,3.53-3.84,3.53
			c-0.59,0-1.02-0.09-1.36-0.22c-0.34-0.09-0.59-0.19-0.84-0.19c-0.19,0-0.37,0.12-0.53,0.37h-0.46l-0.34-3.47H158.1z"/>
		<path class="st1" d="M178.13,192.52c-0.06,0.47-0.12,0.9-0.12,1.3c0,3.22,2.26,5.4,4.71,5.4c1.55,0,2.76-0.62,3.94-2.02l0.34,0.37
			c-1.3,1.64-3.26,3.19-5.52,3.19c-3.04,0-5.4-2.76-5.4-6.36c0-3.29,2.2-6.64,5.98-6.64c4.19,0,4.09,3.01,5.12,4.03v0.71H178.13z
			 M184.58,191.72c-0.34-2.02-1.58-3.35-3.07-3.35c-1.02,0-2.57,0.47-3.29,3.35H184.58z"/>
		<path class="st1" d="M193.13,197.7c0,1.71,0.4,2.11,2.08,2.11v0.59h-6.23v-0.59c1.36,0,2.08-0.74,2.08-1.95v-6.51
			c0-1.15-0.12-1.36-0.93-1.52l-1.05-0.22v-0.5l3.57-1.3h0.5v2.42c2.08-1.3,3.81-2.45,5.33-2.45c2.11,0,3.32,1.55,3.32,4.65
			c0,4.12-0.22,4.93-0.25,6.14c-0.03,0.84,0.47,1.24,1.74,1.24h0.68v0.59h-6.67v-0.59c0.9-0.03,1.43-0.25,1.77-0.59
			c0.59-0.59,0.65-2.85,0.65-6.98c0-2.48-1.21-3.26-2.45-3.26c-0.99,0-2.51,0.87-4.12,1.98V197.7z"/>
		<path class="st1" d="M25.22,229.01c-0.06-0.19-0.09-0.28-0.09-0.43c0-1.09,2.57-3.6,4.59-3.6c0.93,0,2.39,0.43,3.26,1.64
			c0.47,0.65,0.47,1.05,0.47,2.67v4.15c0,2.48,0,3.04,0.81,3.04c0.34,0,0.74-0.03,1.52-0.68l0.15,0.47
			c-1.67,1.36-2.54,1.71-3.07,1.71c-1.27,0-1.4-1.4-1.43-1.89c-2.14,1.77-2.76,1.89-3.6,1.89c-1.8,0-2.88-1.02-2.88-2.54
			c0-1.89,1.67-2.54,3.66-3.04c0.65-0.16,1.67-0.53,2.76-1.18v-2.45c0-0.87,0-1.36-0.53-1.98c-0.4-0.5-1.05-0.9-1.74-0.9
			c-1.02,0-1.92,0.87-1.92,1.52c0,0.19,0.03,0.31,0.16,0.59L25.22,229.01z M31.36,231.83c-0.59,0.34-1.08,0.56-1.83,0.87
			c-1.89,0.78-2.6,1.09-2.6,2.36c0,1.12,0.9,1.83,1.83,1.83c0.5,0,0.87-0.16,2.6-1.36V231.83z"/>
		<path class="st1" d="M41.07,235.34c0,1.27,0.47,1.67,2.02,1.67h1.18v0.59h-7.35v-0.59c1.58-0.03,2.08-0.68,2.08-2.33v-7.16
			l-2.08-0.74v-0.53l3.53-1.24h0.62v3.29h0.06c1.55-2.54,1.92-3.13,2.95-3.13c0.37,0,0.47,0.03,1.05,0.28
			c0.31,0.12,0.87,0.25,1.61,0.47L46,227.77c-0.47-0.06-1.05-0.22-1.64-0.5c-0.34-0.16-0.71-0.31-1.08-0.31
			c-0.56,0-0.9,0.37-1.21,0.81c-0.4,0.56-0.74,1.09-0.99,1.55V235.34z"/>
		<path class="st1" d="M56.04,225.32l-0.5,1.36h-3.94v7.22c0,1.95,1.4,2.6,2.05,2.6c0.68,0,1.3-0.53,1.89-1.55l0.5,0.47
			c-0.74,1.61-1.95,2.54-3.38,2.54c-1.83,0-3.13-1.52-3.13-3.6v-7.69H48.1v-0.5c1.21-0.59,2.26-2.02,2.98-3.94h0.53v3.07H56.04z"/>
		<path class="st1" d="M61.46,235.24c0,1.09,0.59,1.77,2.23,1.77v0.59h-6.88v-0.59c1.89,0,2.57-0.62,2.57-2.26v-6.23
			c0-1.21-0.15-1.36-0.96-1.52l-1.46-0.28v-0.5l4.03-1.4h0.47V235.24z M60.19,217.85c0.74,0,1.36,0.53,1.36,1.18
			s-0.62,1.18-1.36,1.18s-1.33-0.53-1.33-1.18S59.45,217.85,60.19,217.85z"/>
		<path class="st1" d="M76.44,234.75c-1.3,2.08-3.01,3.22-5.49,3.22c-3.72,0-5.21-3.53-5.21-5.98c0-3.88,3.19-7.01,7.13-7.01
			c1.95,0,3.47,0.78,3.47,1.77c0,0.53-0.4,0.93-0.9,0.93c-1.52,0-1.89-1.89-3.63-1.89c-2.14,0-4,2.54-4,5.52
			c0,3.1,1.86,5.4,4.37,5.4c1.49,0,2.67-0.68,3.78-2.23L76.44,234.75z"/>
		<path class="st1" d="M92.96,236.7l-4.16,1.27v-2.48c-2.33,1.67-4.03,2.48-5.27,2.48c-1.55,0-3.29-1.05-3.29-3.16v-6.88
			c0-0.74-0.19-1.09-0.84-1.27l-1.08-0.31v-0.47l4-0.87v8.68c0,1.92,1.4,2.79,2.79,2.79c1.05,0,2.42-0.65,3.69-1.71v-6.67
			c0-1.21-0.15-1.46-1.15-1.64l-1.55-0.28v-0.43l4.77-0.74v10.45c0,0.87,0.31,1.02,1.43,0.81l0.65-0.12V236.7z"/>
		<path class="st1" d="M98.54,235.15c0,1.27,0.59,1.86,1.8,1.86h0.53v0.59h-6.98v-0.59c1.98,0,2.57-0.59,2.57-2.08v-14.98
			c0-0.87-0.09-1.15-0.96-1.24l-1.4-0.16v-0.53l3.97-1.27h0.47V235.15z"/>
		<path class="st1" d="M102.54,229.01c-0.06-0.19-0.09-0.28-0.09-0.43c0-1.09,2.57-3.6,4.59-3.6c0.93,0,2.39,0.43,3.26,1.64
			c0.46,0.65,0.46,1.05,0.46,2.67v4.15c0,2.48,0,3.04,0.81,3.04c0.34,0,0.74-0.03,1.52-0.68l0.16,0.47
			c-1.67,1.36-2.54,1.71-3.07,1.71c-1.27,0-1.4-1.4-1.43-1.89c-2.14,1.77-2.76,1.89-3.6,1.89c-1.8,0-2.88-1.02-2.88-2.54
			c0-1.89,1.67-2.54,3.66-3.04c0.65-0.16,1.67-0.53,2.76-1.18v-2.45c0-0.87,0-1.36-0.53-1.98c-0.4-0.5-1.05-0.9-1.74-0.9
			c-1.02,0-1.92,0.87-1.92,1.52c0,0.19,0.03,0.31,0.15,0.59L102.54,229.01z M108.68,231.83c-0.59,0.34-1.09,0.56-1.83,0.87
			c-1.89,0.78-2.6,1.09-2.6,2.36c0,1.12,0.9,1.83,1.83,1.83c0.5,0,0.87-0.16,2.6-1.36V231.83z"/>
		<path class="st1" d="M125.54,234.75c-1.3,2.08-3.01,3.22-5.49,3.22c-3.72,0-5.21-3.53-5.21-5.98c0-3.88,3.19-7.01,7.13-7.01
			c1.95,0,3.47,0.78,3.47,1.77c0,0.53-0.4,0.93-0.9,0.93c-1.52,0-1.89-1.89-3.63-1.89c-2.14,0-4,2.54-4,5.52
			c0,3.1,1.86,5.4,4.37,5.4c1.49,0,2.67-0.68,3.78-2.23L125.54,234.75z"/>
		<path class="st1" d="M131.86,235.24c0,1.09,0.59,1.77,2.23,1.77v0.59h-6.88v-0.59c1.89,0,2.57-0.62,2.57-2.26v-6.23
			c0-1.21-0.15-1.36-0.96-1.52l-1.46-0.28v-0.5l4.03-1.4h0.47V235.24z M130.59,217.85c0.74,0,1.36,0.53,1.36,1.18
			s-0.62,1.18-1.36,1.18s-1.33-0.53-1.33-1.18S129.85,217.85,130.59,217.85z"/>
		<path class="st1" d="M142.81,224.98c3.78,0,6.67,2.82,6.67,6.51c0,3.66-2.88,6.48-6.57,6.48c-3.84,0-6.79-2.79-6.79-6.42
			C136.11,227.28,139.58,224.98,142.81,224.98z M143.24,237.23c1.83,0,3.91-1.86,3.91-4.96c0-3.53-2.17-6.54-4.77-6.54
			c-2.05,0-3.94,2.11-3.94,4.77C138.43,234.25,140.57,237.23,143.24,237.23z M139.8,222.47l2.85-3.94c0.62-0.84,1.36-1.36,1.98-1.36
			c0.56,0,0.96,0.37,0.96,0.9c0,0.59-0.62,1.21-2.11,2.2l-3.29,2.2H139.8z"/>
		<path class="st1" d="M155.82,234.9c0,1.71,0.4,2.11,2.08,2.11v0.59h-6.23v-0.59c1.36,0,2.08-0.74,2.08-1.95v-6.51
			c0-1.15-0.12-1.36-0.93-1.52l-1.05-0.22v-0.5l3.57-1.3h0.5v2.42c2.08-1.3,3.81-2.45,5.33-2.45c2.11,0,3.32,1.55,3.32,4.65
			c0,4.12-0.22,4.93-0.25,6.14c-0.03,0.84,0.47,1.24,1.74,1.24h0.68v0.59h-6.67v-0.59c0.9-0.03,1.43-0.25,1.77-0.59
			c0.59-0.59,0.65-2.85,0.65-6.98c0-2.48-1.21-3.26-2.45-3.26c-0.99,0-2.51,0.87-4.12,1.98V234.9z"/>
		<path class="st1" d="M187.76,234.75c-1.3,2.08-3.01,3.22-5.49,3.22c-3.72,0-5.21-3.53-5.21-5.98c0-3.88,3.19-7.01,7.13-7.01
			c1.95,0,3.47,0.78,3.47,1.77c0,0.53-0.4,0.93-0.9,0.93c-1.52,0-1.89-1.89-3.63-1.89c-2.14,0-4,2.54-4,5.52
			c0,3.1,1.86,5.4,4.37,5.4c1.49,0,2.67-0.68,3.78-2.23L187.76,234.75z"/>
		<path class="st1" d="M196.96,224.98c3.78,0,6.67,2.82,6.67,6.51c0,3.66-2.88,6.48-6.57,6.48c-3.84,0-6.79-2.79-6.79-6.42
			C190.27,227.28,193.74,224.98,196.96,224.98z M197.4,237.23c1.83,0,3.91-1.86,3.91-4.96c0-3.53-2.17-6.54-4.78-6.54
			c-2.05,0-3.94,2.11-3.94,4.77C192.59,234.25,194.73,237.23,197.4,237.23z"/>
		<path class="st1" d="M209.98,234.9c0,1.71,0.4,2.11,2.08,2.11v0.59h-6.23v-0.59c1.36,0,2.08-0.74,2.08-1.95v-6.51
			c0-1.15-0.12-1.36-0.93-1.52l-1.05-0.22v-0.5l3.57-1.3h0.5v2.42c2.08-1.3,3.81-2.45,5.33-2.45c2.11,0,3.32,1.55,3.32,4.65
			c0,4.12-0.22,4.93-0.25,6.14c-0.03,0.84,0.46,1.24,1.74,1.24h0.68v0.59h-6.67v-0.59c0.9-0.03,1.43-0.25,1.77-0.59
			c0.59-0.59,0.65-2.85,0.65-6.98c0-2.48-1.21-3.26-2.45-3.26c-0.99,0-2.51,0.87-4.12,1.98V234.9z"/>
		<path class="st1" d="M51.64,266.92c-0.06,0.47-0.12,0.9-0.12,1.3c0,3.22,2.26,5.4,4.71,5.4c1.55,0,2.76-0.62,3.94-2.02l0.34,0.37
			c-1.3,1.64-3.26,3.19-5.52,3.19c-3.04,0-5.4-2.76-5.4-6.36c0-3.29,2.2-6.64,5.98-6.64c4.19,0,4.09,3.01,5.12,4.03v0.71H51.64z
			 M58.09,266.12c-0.34-2.02-1.58-3.35-3.07-3.35c-1.02,0-2.57,0.47-3.29,3.35H58.09z"/>
		<path class="st1" d="M66.52,272.35c0,1.27,0.59,1.86,1.8,1.86h0.53v0.59h-6.98v-0.59c1.98,0,2.57-0.59,2.57-2.08v-14.98
			c0-0.87-0.09-1.15-0.96-1.24l-1.4-0.16v-0.53l3.97-1.27h0.47V272.35z"/>
		<path class="st1" d="M97.74,260.6c-1.02-2.88-3.69-4.77-7.07-4.77c-5.18,0-8.4,3.75-8.4,8.96c0,5.61,4.03,9.74,8.74,9.74
			c2.45,0,5.46-0.84,7.57-4.59h0.59c-0.4,1.4-1.24,3.32-1.98,4.53c-1.98-0.28-3.35,0.84-7.01,0.84c-6.29,0-10.82-4.15-10.82-9.89
			c0-6.02,4.65-10.36,11.13-10.36c3.91,0,5.58,1.24,6.54,1.24c0.34,0,0.5-0.09,0.56-0.19h0.47l0.28,4.5H97.74z"/>
		<path class="st1" d="M108.43,262.18c3.78,0,6.67,2.82,6.67,6.51c0,3.66-2.88,6.48-6.57,6.48c-3.84,0-6.79-2.79-6.79-6.42
			C101.73,264.48,105.2,262.18,108.43,262.18z M108.86,274.43c1.83,0,3.91-1.86,3.91-4.96c0-3.53-2.17-6.54-4.77-6.54
			c-2.05,0-3.94,2.11-3.94,4.77C104.06,271.45,106.2,274.43,108.86,274.43z"/>
		<path class="st1" d="M121.45,272.1c0,1.71,0.4,2.11,2.08,2.11v0.59h-6.23v-0.59c1.36,0,2.08-0.74,2.08-1.95v-6.51
			c0-1.15-0.12-1.36-0.93-1.52l-1.05-0.22v-0.5l3.57-1.3h0.5v2.42c2.08-1.3,3.81-2.45,5.33-2.45c2.11,0,3.32,1.55,3.32,4.65
			c0,4.12-0.22,4.93-0.25,6.14c-0.03,0.84,0.47,1.24,1.74,1.24h0.68v0.59h-6.67v-0.59c0.9-0.03,1.43-0.25,1.77-0.59
			c0.59-0.59,0.65-2.85,0.65-6.98c0-2.48-1.21-3.26-2.45-3.26c-0.99,0-2.51,0.87-4.12,1.98V272.1z"/>
		<path class="st1" d="M147.27,265.06c-0.47-0.03-1.92-0.16-3.1-0.37c0.19,0.34,0.53,0.99,0.53,1.98c0,2.29-1.98,4.5-5.43,4.5
			c-0.59,0-0.87-0.06-1.43-0.25c-0.5,0.53-1.89,0.87-1.89,1.58c0,0.78,1.33,1.09,4.43,1.12c3.5,0.03,4.71,0.19,5.64,1.12
			c0.74,0.74,0.93,1.52,0.93,2.17c0,2.02-2.73,5.12-8.46,5.12c-3.22,0-4.77-1.43-4.77-2.95c0-1.8,1.89-2.08,3.32-3.81
			c-1.67-0.16-2.95-1.21-2.95-2.2c0-1.43,2.08-1.49,3.16-2.29c-1.89-0.74-2.98-2.08-2.98-3.84c0-2.67,2.39-4.74,5.46-4.74
			c1.43,0,2.64,0.43,3.47,1.24c1.4,0,2.7-0.16,4.06-0.31V265.06z M140.23,281.16c2.64,0,5.12-1.74,5.12-3.69
			c0-1.15-0.96-1.74-2.08-1.83c-0.81-0.09-4.71-0.12-5.61-0.25c-0.87,1.02-2.02,1.46-2.02,2.67
			C135.64,279.51,137.69,281.16,140.23,281.16z M139.36,262.77c-1.18,0-3.01,0.65-3.01,3.53c0,1.83,0.93,4.28,3.29,4.28
			c1.8,0,2.98-1.49,2.98-3.63C142.62,264.29,141.26,262.77,139.36,262.77z"/>
		<path class="st1" d="M153.07,272.54c0,1.27,0.47,1.67,2.02,1.67h1.18v0.59h-7.35v-0.59c1.58-0.03,2.08-0.68,2.08-2.33v-7.16
			l-2.08-0.74v-0.53l3.53-1.24h0.62v3.29h0.06c1.55-2.54,1.92-3.13,2.95-3.13c0.37,0,0.47,0.03,1.05,0.28
			c0.31,0.12,0.87,0.25,1.61,0.47l-0.74,1.86c-0.47-0.06-1.05-0.22-1.64-0.5c-0.34-0.16-0.71-0.31-1.08-0.31
			c-0.56,0-0.9,0.37-1.21,0.81c-0.4,0.56-0.74,1.09-0.99,1.55V272.54z"/>
		<path class="st1" d="M161.34,266.92c-0.06,0.47-0.12,0.9-0.12,1.3c0,3.22,2.26,5.4,4.71,5.4c1.55,0,2.76-0.62,3.94-2.02l0.34,0.37
			c-1.3,1.64-3.26,3.19-5.52,3.19c-3.04,0-5.4-2.76-5.4-6.36c0-3.29,2.2-6.64,5.98-6.64c4.19,0,4.09,3.01,5.12,4.03v0.71H161.34z
			 M167.79,266.12c-0.34-2.02-1.58-3.35-3.07-3.35c-1.02,0-2.57,0.47-3.29,3.35H167.79z"/>
		<path class="st1" d="M172.87,271.67c0.37,1.86,1.55,2.91,2.95,2.91c1.24,0,2.2-0.93,2.2-2.05c0-0.65-0.15-1.05-0.99-1.89
			c-2.2-2.2-4.65-2.42-4.65-4.99c0-2.05,1.61-3.47,3.97-3.47c0.84,0,1.71,0.19,2.48,0.5l0.06,2.82h-0.53
			c-0.22-1.58-1.24-2.57-2.48-2.57c-1.02,0-1.89,0.71-1.89,1.74c0,2.73,5.77,3.19,5.77,6.98c0,2.02-1.67,3.53-3.84,3.53
			c-0.59,0-1.02-0.09-1.36-0.22c-0.34-0.09-0.59-0.19-0.84-0.19c-0.19,0-0.37,0.12-0.53,0.37h-0.47l-0.34-3.47H172.87z"/>
		<path class="st1" d="M188.84,262.18c3.78,0,6.67,2.82,6.67,6.51c0,3.66-2.88,6.48-6.57,6.48c-3.84,0-6.79-2.79-6.79-6.42
			C182.14,264.48,185.62,262.18,188.84,262.18z M189.28,274.43c1.83,0,3.91-1.86,3.91-4.96c0-3.53-2.17-6.54-4.77-6.54
			c-2.05,0-3.94,2.11-3.94,4.77C184.47,271.45,186.61,274.43,189.28,274.43z"/>
		<path class="st1" d="M37.52,293.95c0-0.59-0.22-0.74-1.21-0.87l-1.02-0.12v-0.53l4.31-1.27v18.2c0,1.05,0.65,1.27,1.52,1.02
			l0.74-0.22v0.65l-3.97,1.55h-0.37v-2.2c-2.02,1.46-3.63,2.2-4.81,2.2c-2.76,0-4.96-2.67-4.96-5.98c0-3.88,2.95-7.01,6.73-7.01
			c0.93,0,2.2,0.25,3.04,0.59V293.95z M37.52,302.54c-1.12-1.64-2.23-2.33-3.69-2.33c-2.42,0-4,2.2-4,5.12c0,3.1,1.8,5.71,4.03,5.71
			c0.96,0,2.29-0.59,3.66-1.55V302.54z"/>
		<path class="st1" d="M45.45,304.12c-0.06,0.47-0.12,0.9-0.12,1.3c0,3.22,2.26,5.4,4.71,5.4c1.55,0,2.76-0.62,3.94-2.02l0.34,0.37
			c-1.3,1.64-3.26,3.19-5.52,3.19c-3.04,0-5.4-2.76-5.4-6.36c0-3.29,2.2-6.64,5.98-6.64c4.19,0,4.09,3.01,5.12,4.03v0.71H45.45z
			 M51.9,303.32c-0.34-2.02-1.58-3.35-3.07-3.35c-1.02,0-2.57,0.47-3.29,3.35H51.9z"/>
		<path class="st1" d="M68.95,309.55c0,1.27,0.59,1.86,1.8,1.86h0.53V312H64.3v-0.59c1.98,0,2.57-0.59,2.57-2.08v-14.98
			c0-0.87-0.09-1.15-0.96-1.24l-1.4-0.16v-0.53l3.97-1.27h0.46V309.55z"/>
		<path class="st1" d="M72.95,303.41c-0.06-0.19-0.09-0.28-0.09-0.43c0-1.09,2.57-3.6,4.59-3.6c0.93,0,2.39,0.43,3.26,1.64
			c0.47,0.65,0.47,1.05,0.47,2.67v4.15c0,2.48,0,3.04,0.81,3.04c0.34,0,0.74-0.03,1.52-0.68l0.15,0.47
			c-1.67,1.36-2.54,1.71-3.07,1.71c-1.27,0-1.4-1.4-1.43-1.89c-2.14,1.77-2.76,1.89-3.6,1.89c-1.8,0-2.88-1.02-2.88-2.54
			c0-1.89,1.67-2.54,3.66-3.04c0.65-0.16,1.67-0.53,2.76-1.18v-2.45c0-0.87,0-1.36-0.53-1.98c-0.4-0.5-1.05-0.9-1.74-0.9
			c-1.02,0-1.92,0.87-1.92,1.52c0,0.19,0.03,0.31,0.16,0.59L72.95,303.41z M79.09,306.23c-0.59,0.34-1.08,0.56-1.83,0.87
			c-1.89,0.78-2.6,1.09-2.6,2.36c0,1.12,0.9,1.83,1.83,1.83c0.5,0,0.87-0.16,2.6-1.36V306.23z"/>
		<path class="st1" d="M98.62,309.09c0,1.86,0.74,2.33,2.48,2.33h0.71V312h-8.77v-0.59h0.53c1.83,0,2.48-0.5,2.48-2.57v-13.05
			c0-1.92-0.53-2.48-2.33-2.48h-0.68v-0.59c0.74,0,2.64-0.12,3.91-0.19c1.27-0.06,1.89-0.09,3.91-0.09c5.74,0,8.31,2.36,8.31,5.52
			c0,2.33-1.58,4.28-4.12,5.02c1.15,0.9,2.08,1.77,3.53,3.22l2.45,2.45c1.83,1.83,3.72,2.98,6.11,3.13v0.56
			c-5.43,0.25-6.82-0.93-9.58-3.69l-2.05-2.05c-1.36-1.36-2.45-2.26-3.19-2.76c-0.78,0.03-1.27,0.06-2.11,0.06
			c-0.68,0-1.08-0.03-1.58-0.06V309.09z M98.62,303.26c0.74,0.09,1.21,0.06,1.92,0.06c3.44,0,5.71-1.46,5.71-5.18
			c0-2.88-1.3-5.12-6.08-5.12c-0.59,0-0.99,0-1.55,0.06V303.26z"/>
		<path class="st1" d="M120.84,304.12c-0.06,0.47-0.12,0.9-0.12,1.3c0,3.22,2.26,5.4,4.71,5.4c1.55,0,2.76-0.62,3.94-2.02l0.34,0.37
			c-1.3,1.64-3.26,3.19-5.52,3.19c-3.04,0-5.4-2.76-5.4-6.36c0-3.29,2.2-6.64,5.98-6.64c4.19,0,4.09,3.01,5.12,4.03v0.71H120.84z
			 M127.29,303.32c-0.34-2.02-1.58-3.35-3.07-3.35c-1.02,0-2.57,0.47-3.29,3.35H127.29z"/>
		<path class="st1" d="M135.54,316.62c0,1.55,0.77,2.02,2.08,2.02h0.77v0.59h-7.32v-0.59h0.31c1.58,0,2.08-0.53,2.08-2.29v-13.67
			c0-0.59-0.12-0.84-0.87-1.02l-0.99-0.25v-0.59l3.32-2.05h0.62v2.98c1.92-1.46,3.57-2.26,4.81-2.26c2.42,0,4.59,2.73,4.59,5.77
			c0,3.75-3.04,6.98-6.57,6.98c-0.84,0-1.64-0.19-2.82-0.62V316.62z M135.54,309.58c1.12,0.99,2.51,1.67,3.66,1.67
			c2.11,0,3.66-2.08,3.66-4.62c0-4.09-2.42-5.64-4.06-5.64c-0.96,0-2.14,0.56-3.26,1.52V309.58z"/>
		<path class="st1" d="M161.8,311.1l-4.16,1.27v-2.48c-2.33,1.67-4.03,2.48-5.27,2.48c-1.55,0-3.29-1.05-3.29-3.16v-6.88
			c0-0.74-0.19-1.09-0.84-1.27l-1.08-0.31v-0.47l4-0.87v8.68c0,1.92,1.4,2.79,2.79,2.79c1.05,0,2.42-0.65,3.69-1.71v-6.67
			c0-1.21-0.15-1.46-1.15-1.64l-1.55-0.28v-0.43l4.77-0.74v10.45c0,0.87,0.31,1.02,1.43,0.81l0.65-0.12V311.1z M151.47,296.87
			l2.85-3.94c0.62-0.84,1.36-1.36,1.98-1.36c0.56,0,0.96,0.37,0.96,0.9c0,0.59-0.62,1.21-2.11,2.2l-3.29,2.2H151.47z"/>
		<path class="st1" d="M166.94,301.55c2.2-1.58,3.53-2.17,4.68-2.17c2.76,0,5.08,2.73,5.08,5.98c0,3.97-3.13,7.01-7.25,7.01
			c-1.4,0-2.6-0.22-4.59-0.59v-16.81c0-1.61-0.09-1.74-1.27-1.89l-0.87-0.12v-0.53l3.72-1.27h0.5V301.55z M166.94,308.22
			c0,1.55,1.02,3.26,3.38,3.26c2.54,0,4.31-2.14,4.31-5.24s-1.83-5.43-4.22-5.43c-0.96,0-2.08,0.47-3.47,1.46V308.22z"/>
		<path class="st1" d="M182.41,309.55c0,1.27,0.59,1.86,1.8,1.86h0.53V312h-6.98v-0.59c1.98,0,2.57-0.59,2.57-2.08v-14.98
			c0-0.87-0.09-1.15-0.96-1.24l-1.4-0.16v-0.53l3.97-1.27h0.47V309.55z"/>
		<path class="st1" d="M190.22,309.64c0,1.09,0.59,1.77,2.23,1.77V312h-6.88v-0.59c1.89,0,2.57-0.62,2.57-2.26v-6.23
			c0-1.21-0.16-1.36-0.96-1.52l-1.46-0.28v-0.5l4.03-1.4h0.46V309.64z M188.95,292.25c0.74,0,1.36,0.53,1.36,1.18
			s-0.62,1.18-1.36,1.18s-1.33-0.53-1.33-1.18S188.2,292.25,188.95,292.25z"/>
		<path class="st1" d="M205.19,309.15c-1.3,2.08-3.01,3.22-5.49,3.22c-3.72,0-5.21-3.53-5.21-5.98c0-3.88,3.19-7.01,7.13-7.01
			c1.95,0,3.47,0.78,3.47,1.77c0,0.53-0.4,0.93-0.9,0.93c-1.52,0-1.89-1.89-3.63-1.89c-2.14,0-4,2.54-4,5.52
			c0,3.1,1.86,5.4,4.37,5.4c1.49,0,2.67-0.68,3.78-2.23L205.19,309.15z"/>
		<path class="st1" d="M207.7,303.41c-0.06-0.19-0.09-0.28-0.09-0.43c0-1.09,2.57-3.6,4.59-3.6c0.93,0,2.39,0.43,3.26,1.64
			c0.46,0.65,0.46,1.05,0.46,2.67v4.15c0,2.48,0,3.04,0.81,3.04c0.34,0,0.74-0.03,1.52-0.68l0.16,0.47
			c-1.67,1.36-2.54,1.71-3.07,1.71c-1.27,0-1.4-1.4-1.43-1.89c-2.14,1.77-2.76,1.89-3.6,1.89c-1.8,0-2.88-1.02-2.88-2.54
			c0-1.89,1.67-2.54,3.66-3.04c0.65-0.16,1.67-0.53,2.76-1.18v-2.45c0-0.87,0-1.36-0.53-1.98c-0.4-0.5-1.05-0.9-1.74-0.9
			c-1.02,0-1.92,0.87-1.92,1.52c0,0.19,0.03,0.31,0.15,0.59L207.7,303.41z M213.84,306.23c-0.59,0.34-1.09,0.56-1.83,0.87
			c-1.89,0.78-2.6,1.09-2.6,2.36c0,1.12,0.9,1.83,1.83,1.83c0.5,0,0.87-0.16,2.6-1.36V306.23z"/>
	</g>
</g>
<g>
	<rect x="72.69" y="122.76" class="st2" width="100" height="4.05"/>
	<rect x="72.69" y="83.1" class="st2" width="100" height="4.05"/>
	<g>
		
			<rect x="84.45" y="102.85" transform="matrix(-1.836970e-16 1 -1 -1.836970e-16 210.0443 0.6649)" class="st2" width="40.47" height="5"/>
		
			<rect x="96.45" y="102.85" transform="matrix(-1.836970e-16 1 -1 -1.836970e-16 222.0443 -11.3351)" class="st2" width="40.47" height="5"/>
		
			<rect x="108.45" y="102.85" transform="matrix(-1.836970e-16 1 -1 -1.836970e-16 234.0443 -23.3351)" class="st2" width="40.47" height="5"/>
		
			<rect x="120.45" y="102.85" transform="matrix(-1.836970e-16 1 -1 -1.836970e-16 246.0443 -35.3351)" class="st2" width="40.47" height="5"/>
	</g>
	<rect x="72.69" y="87.14" class="st2" width="22.72" height="36.56"/>
	<rect x="149.97" y="87.14" class="st2" width="22.72" height="36.56"/>
	<rect x="67.79" y="129.47" class="st2" width="109.75" height="4.13"/>
	<rect x="61.56" y="136.16" class="st2" width="122.2" height="4.13"/>
	<rect x="67.79" y="75.97" class="st2" width="109.75" height="4.13"/>
	<rect x="100.79" y="87.14" class="st2" width="7.75" height="2.06"/>
	<rect x="100.79" y="120.69" class="st2" width="7.75" height="2.06"/>
	<rect x="112.81" y="87.14" class="st2" width="7.75" height="2.06"/>
	<rect x="112.81" y="120.69" class="st2" width="7.75" height="2.06"/>
	<rect x="124.84" y="87.14" class="st2" width="7.75" height="2.06"/>
	<rect x="124.84" y="120.69" class="st2" width="7.75" height="2.06"/>
	<rect x="136.87" y="87.14" class="st2" width="7.75" height="2.06"/>
	<rect x="136.87" y="120.69" class="st2" width="7.75" height="2.06"/>
</g>
</svg>
