<?xml version="1.0" encoding="utf-8"?>
<!-- Generator: Adobe Illustrator 23.0.0, SVG Export Plug-In . SVG Version: 6.00 Build 0)  -->
<svg version="1.1" id="Layer_11" xmlns="http://www.w3.org/2000/svg" xmlns:xlink="http://www.w3.org/1999/xlink" x="0px" y="0px"
	 viewBox="0 0 245 873" style="enable-background:new 0 0 245 873;" xml:space="preserve">
<style type="text/css">
	.st0{fill:#E2E2E4;}
	.st1{fill:none;stroke:#909295;stroke-miterlimit:10;}
	.st2{fill:none;stroke:#909295;stroke-miterlimit:10;stroke-dasharray:3.0107,3.0107;}
	.st3{fill:none;stroke:#909295;stroke-miterlimit:10;stroke-dasharray:3.0362,3.0362;}
	.st4{fill:#9FA2A4;}
	.st5{fill:#858789;}
	.st6{enable-background:new    ;}
	.st7{fill:#231F20;}
	.st8{fill:#59A3D9;}
	.st9{fill:none;stroke:#FFFFFF;stroke-miterlimit:10;}
	.st10{fill:none;stroke:#FFFFFF;stroke-miterlimit:10;stroke-dasharray:2.6374,2.6374;}
	.st11{fill:none;stroke:#FFFFFF;stroke-miterlimit:10;stroke-dasharray:3.0362,3.0362;}
</style>
<polygon class="st0" points="0,74.82 122.5,0 245,74.82 245,873 0,873 "/>
<g>
	<g>
		<line class="st1" x1="8.17" y1="873" x2="8.17" y2="871.5"/>
		<line class="st2" x1="8.17" y1="868.49" x2="8.17" y2="81.19"/>
		<polyline class="st1" points="8.17,79.69 8.17,78.19 9.46,77.41 		"/>
		<line class="st3" x1="12.07" y1="75.85" x2="120.15" y2="11.1"/>
		<polyline class="st1" points="121.46,10.32 122.74,9.54 124.03,10.32 		"/>
		<line class="st3" x1="126.64" y1="11.88" x2="234.72" y2="76.63"/>
		<polyline class="st1" points="236.03,77.41 237.31,78.19 237.31,79.69 		"/>
		<line class="st2" x1="237.31" y1="82.7" x2="237.31" y2="869.99"/>
		<line class="st1" x1="237.31" y1="871.5" x2="237.31" y2="873"/>
	</g>
</g>
<g>
	<path class="st4" d="M122.5,151.05c43.78-14.47,39.97-72.5,39.97-72.5c-20.74-0.48-32.15-13.34-32.15-13.34h-7.82h-7.82
		c0,0-11.41,12.86-32.15,13.34C82.53,78.55,78.72,136.58,122.5,151.05z"/>
	<path class="st5" d="M122.5,151.05c43.78-14.47,39.97-72.5,39.97-72.5c-20.74-0.48-32.15-13.34-32.15-13.34h-7.82
		C122.5,65.21,122.5,151.05,122.5,151.05z"/>
</g>
<g>
	<g class="st6">
		<path class="st7" d="M65.91,184.22c0-2.01-0.53-2.51-2.36-2.51h-0.62v-0.59c1.15-0.06,2.67-0.13,4.37-0.19s3.6-0.09,5.21-0.09
			c8.19,0,11.81,4.15,11.81,9.27c0,4.68-3.63,10.29-11.47,10.29h-9.92v-0.59h0.53c1.67,0,2.45-0.47,2.45-2.26V184.22z M68.48,198.11
			c0,1.27,0.09,1.71,2.54,1.71c4.15,0,5.89-0.59,7.81-2.51c1.15-1.12,2.57-3.5,2.57-6.7c0-2.29-0.65-4.84-2.48-6.67
			c-1.43-1.43-3.63-2.51-7.97-2.51c-1.27,0-2.11,0.09-2.48,0.12V198.11z"/>
		<path class="st7" d="M89.56,192.53c-0.06,0.46-0.12,0.9-0.12,1.3c0,3.22,2.26,5.4,4.71,5.4c1.55,0,2.76-0.62,3.94-2.02l0.34,0.37
			c-1.3,1.64-3.26,3.19-5.52,3.19c-3.04,0-5.4-2.76-5.4-6.36c0-3.29,2.2-6.63,5.98-6.63c4.19,0,4.09,3.01,5.12,4.03v0.71H89.56z
			 M96.01,191.72c-0.34-2.02-1.58-3.35-3.07-3.35c-1.02,0-2.57,0.46-3.29,3.35H96.01z"/>
		<path class="st7" d="M107.82,189.49h-3.35v8.5c0,1.43,0.56,1.83,2.29,1.83h1.18v0.59h-7.66v-0.59c1.8,0,2.11-0.4,2.11-2.14v-8.19
			h-2.29v-0.53c0.87-0.19,1.61-0.46,2.29-0.84c0-2.57,0.56-4.53,2.39-6.36c1.52-1.52,2.98-2.2,4.4-2.2c1.74,0,3.19,0.99,3.19,1.46
			c0,0.25-0.59,1.49-0.84,1.49c-0.43,0-1.58-1.52-3.63-1.52c-2.23,0-3.44,1.77-3.44,4.78v2.36h3.13L107.82,189.49z"/>
		<path class="st7" d="M111.54,192.53c-0.06,0.46-0.12,0.9-0.12,1.3c0,3.22,2.26,5.4,4.71,5.4c1.55,0,2.76-0.62,3.94-2.02l0.34,0.37
			c-1.3,1.64-3.26,3.19-5.52,3.19c-3.04,0-5.4-2.76-5.4-6.36c0-3.29,2.2-6.63,5.98-6.63c4.19,0,4.09,3.01,5.12,4.03v0.71H111.54z
			 M117.99,191.72c-0.34-2.02-1.58-3.35-3.07-3.35c-1.02,0-2.57,0.46-3.29,3.35H117.99z"/>
		<path class="st7" d="M126.55,197.7c0,1.71,0.4,2.11,2.08,2.11v0.59h-6.23v-0.59c1.36,0,2.08-0.74,2.08-1.95v-6.51
			c0-1.15-0.12-1.36-0.93-1.52l-1.05-0.22v-0.5l3.56-1.3h0.5v2.42c2.08-1.3,3.81-2.45,5.33-2.45c2.11,0,3.32,1.55,3.32,4.65
			c0,4.12-0.22,4.93-0.25,6.14c-0.03,0.84,0.47,1.24,1.74,1.24h0.68v0.59h-6.67v-0.59c0.9-0.03,1.43-0.25,1.77-0.59
			c0.59-0.59,0.65-2.85,0.65-6.98c0-2.48-1.21-3.26-2.45-3.26c-0.99,0-2.51,0.87-4.12,1.98V197.7z"/>
		<path class="st7" d="M139.22,197.27c0.37,1.86,1.55,2.92,2.95,2.92c1.24,0,2.2-0.93,2.2-2.05c0-0.65-0.16-1.05-0.99-1.89
			c-2.2-2.2-4.65-2.42-4.65-4.99c0-2.05,1.61-3.47,3.97-3.47c0.84,0,1.71,0.19,2.48,0.5l0.06,2.82h-0.53
			c-0.22-1.58-1.24-2.57-2.48-2.57c-1.02,0-1.89,0.71-1.89,1.74c0,2.73,5.77,3.19,5.77,6.98c0,2.01-1.67,3.53-3.84,3.53
			c-0.59,0-1.02-0.09-1.36-0.22c-0.34-0.09-0.59-0.19-0.84-0.19c-0.19,0-0.37,0.12-0.53,0.37h-0.46l-0.34-3.47H139.22z"/>
		<path class="st7" d="M148.49,191.81c-0.06-0.19-0.09-0.28-0.09-0.43c0-1.08,2.57-3.6,4.59-3.6c0.93,0,2.39,0.43,3.26,1.64
			c0.46,0.65,0.46,1.05,0.46,2.67v4.16c0,2.48,0,3.04,0.81,3.04c0.34,0,0.74-0.03,1.52-0.68l0.16,0.47
			c-1.67,1.36-2.54,1.71-3.07,1.71c-1.27,0-1.4-1.4-1.43-1.89c-2.14,1.77-2.76,1.89-3.6,1.89c-1.8,0-2.88-1.02-2.88-2.54
			c0-1.89,1.67-2.54,3.66-3.04c0.65-0.16,1.67-0.53,2.76-1.18v-2.45c0-0.87,0-1.36-0.53-1.98c-0.4-0.5-1.05-0.9-1.74-0.9
			c-1.02,0-1.92,0.87-1.92,1.52c0,0.19,0.03,0.31,0.15,0.59L148.49,191.81z M154.63,194.63c-0.59,0.34-1.08,0.56-1.83,0.87
			c-1.89,0.77-2.6,1.08-2.6,2.36c0,1.12,0.9,1.83,1.83,1.83c0.5,0,0.87-0.16,2.6-1.36V194.63z"/>
		<path class="st7" d="M178.72,191.56c0.93-2.36,0.34-2.82-1.49-2.88v-0.56h5.15v0.56c-1.27,0.16-1.98,1.02-2.57,2.48l-5.27,13.15
			c-0.93,2.29-1.64,3.32-2.73,3.32c-0.74,0-1.27-0.46-1.27-1.09c0-1.27,1.8-0.96,2.57-1.74c0.34-0.34,0.81-1.15,1.05-1.77l0.93-2.33
			l-4.81-10.2c-0.59-1.27-1.15-1.8-2.45-1.83v-0.56h6.23v0.56c-1.89,0.03-2.11,0.59-1.49,1.89l3.5,7.57L178.72,191.56z"/>
	</g>
	<g class="st6">
		<path class="st7" d="M33.75,235.09c0,1.61,0.43,1.92,2.17,1.92v0.59h-6.45v-0.59c1.8,0,2.2-0.81,2.2-2.39v-6.08
			c0-1.21-0.19-1.49-0.9-1.58l-1.21-0.16v-0.53l3.72-1.3h0.46v2.48c2.23-1.58,4.28-2.48,5.52-2.48c1.52,0,2.63,0.96,2.95,2.48
			c2.08-1.3,3.97-2.48,5.49-2.48c2.23,0,3.1,1.71,3.1,4.68c0,1.98,0,4.06-0.09,5.95c0,0.65,0.37,1.4,1.64,1.4h0.99v0.59h-6.98v-0.59
			h0.28c0.9,0,1.3-0.16,1.58-0.43c0.47-0.46,0.5-2.26,0.5-4.4v-2.42c0-2.39-0.81-3.53-2.33-3.53c-0.96,0-2.2,0.46-4.12,1.74v7.13
			c0,1.55,0.37,1.92,1.92,1.92v0.59h-6.36v-0.59c1.74,0,2.36-0.62,2.36-2.39v-5.74c0-1.95-1.21-2.67-2.29-2.67
			c-0.87,0-2.05,0.4-4.16,1.8V235.09z"/>
		<path class="st7" d="M54.77,229.01c-0.06-0.19-0.09-0.28-0.09-0.43c0-1.08,2.57-3.6,4.59-3.6c0.93,0,2.39,0.43,3.26,1.64
			c0.46,0.65,0.46,1.05,0.46,2.67v4.16c0,2.48,0,3.04,0.81,3.04c0.34,0,0.74-0.03,1.52-0.68l0.15,0.47
			c-1.67,1.36-2.54,1.71-3.07,1.71c-1.27,0-1.4-1.4-1.43-1.89c-2.14,1.77-2.76,1.89-3.6,1.89c-1.8,0-2.88-1.02-2.88-2.54
			c0-1.89,1.67-2.54,3.66-3.04c0.65-0.16,1.67-0.53,2.76-1.18v-2.45c0-0.87,0-1.36-0.53-1.98c-0.4-0.5-1.05-0.9-1.74-0.9
			c-1.02,0-1.92,0.87-1.92,1.52c0,0.19,0.03,0.31,0.16,0.59L54.77,229.01z M60.91,231.83c-0.59,0.34-1.08,0.56-1.83,0.87
			c-1.89,0.77-2.6,1.08-2.6,2.36c0,1.12,0.9,1.83,1.83,1.83c0.5,0,0.87-0.16,2.6-1.36V231.83z"/>
		<path class="st7" d="M70.61,234.9c0,1.71,0.4,2.11,2.08,2.11v0.59h-6.23v-0.59c1.36,0,2.08-0.74,2.08-1.95v-6.51
			c0-1.15-0.12-1.36-0.93-1.52l-1.05-0.22v-0.5l3.57-1.3h0.5v2.42c2.08-1.3,3.81-2.45,5.33-2.45c2.11,0,3.32,1.55,3.32,4.65
			c0,4.12-0.22,4.93-0.25,6.14c-0.03,0.84,0.46,1.24,1.74,1.24h0.68v0.59h-6.67v-0.59c0.9-0.03,1.43-0.25,1.77-0.59
			c0.59-0.59,0.65-2.85,0.65-6.98c0-2.48-1.21-3.26-2.45-3.26c-0.99,0-2.51,0.87-4.12,1.98V234.9z"/>
		<path class="st7" d="M90.63,225.32l-0.5,1.36H86.2v7.22c0,1.95,1.4,2.6,2.05,2.6c0.68,0,1.3-0.53,1.89-1.55l0.5,0.47
			c-0.74,1.61-1.95,2.54-3.38,2.54c-1.83,0-3.13-1.52-3.13-3.6v-7.69H82.7v-0.5c1.21-0.59,2.26-2.02,2.98-3.94h0.53v3.07H90.63z"/>
		<path class="st7" d="M94.38,229.73c-0.06,0.46-0.12,0.9-0.12,1.3c0,3.22,2.26,5.4,4.71,5.4c1.55,0,2.76-0.62,3.94-2.02l0.34,0.37
			c-1.3,1.64-3.26,3.19-5.52,3.19c-3.04,0-5.39-2.76-5.39-6.36c0-3.29,2.2-6.63,5.98-6.63c4.19,0,4.09,3.01,5.12,4.03v0.71H94.38z
			 M100.83,228.92c-0.34-2.02-1.58-3.35-3.07-3.35c-1.02,0-2.57,0.46-3.29,3.35H100.83z"/>
		<path class="st7" d="M109.39,234.9c0,1.71,0.4,2.11,2.08,2.11v0.59h-6.23v-0.59c1.36,0,2.08-0.74,2.08-1.95v-6.51
			c0-1.15-0.12-1.36-0.93-1.52l-1.05-0.22v-0.5l3.57-1.3h0.5v2.42c2.08-1.3,3.81-2.45,5.33-2.45c2.11,0,3.32,1.55,3.32,4.65
			c0,4.12-0.22,4.93-0.25,6.14c-0.03,0.84,0.46,1.24,1.74,1.24h0.68v0.59h-6.67v-0.59c0.9-0.03,1.43-0.25,1.77-0.59
			c0.59-0.59,0.65-2.85,0.65-6.98c0-2.48-1.21-3.26-2.45-3.26c-0.99,0-2.51,0.87-4.12,1.98V234.9z"/>
		<path class="st7" d="M125.79,235.24c0,1.08,0.59,1.77,2.23,1.77v0.59h-6.88v-0.59c1.89,0,2.57-0.62,2.57-2.26v-6.23
			c0-1.21-0.16-1.36-0.96-1.52l-1.46-0.28v-0.5l4.03-1.4h0.46V235.24z M124.52,217.85c0.74,0,1.36,0.53,1.36,1.18
			c0,0.65-0.62,1.18-1.36,1.18s-1.33-0.53-1.33-1.18C123.18,218.38,123.77,217.85,124.52,217.85z"/>
		<path class="st7" d="M133.57,235.09c0,1.61,0.43,1.92,2.17,1.92v0.59h-6.45v-0.59c1.8,0,2.2-0.81,2.2-2.39v-6.08
			c0-1.21-0.19-1.49-0.9-1.58l-1.21-0.16v-0.53l3.72-1.3h0.47v2.48c2.23-1.58,4.28-2.48,5.52-2.48c1.52,0,2.64,0.96,2.95,2.48
			c2.08-1.3,3.97-2.48,5.49-2.48c2.23,0,3.1,1.71,3.1,4.68c0,1.98,0,4.06-0.09,5.95c0,0.65,0.37,1.4,1.64,1.4h0.99v0.59h-6.98v-0.59
			h0.28c0.9,0,1.3-0.16,1.58-0.43c0.46-0.46,0.5-2.26,0.5-4.4v-2.42c0-2.39-0.81-3.53-2.33-3.53c-0.96,0-2.2,0.46-4.12,1.74v7.13
			c0,1.55,0.37,1.92,1.92,1.92v0.59h-6.36v-0.59c1.74,0,2.36-0.62,2.36-2.39v-5.74c0-1.95-1.21-2.67-2.29-2.67
			c-0.87,0-2.05,0.4-4.15,1.8V235.09z"/>
		<path class="st7" d="M158.4,235.24c0,1.08,0.59,1.77,2.23,1.77v0.59h-6.88v-0.59c1.89,0,2.57-0.62,2.57-2.26v-6.23
			c0-1.21-0.16-1.36-0.96-1.52l-1.46-0.28v-0.5l4.03-1.4h0.46V235.24z M157.13,217.85c0.74,0,1.36,0.53,1.36,1.18
			c0,0.65-0.62,1.18-1.36,1.18s-1.33-0.53-1.33-1.18C155.79,218.38,156.38,217.85,157.13,217.85z"/>
		<path class="st7" d="M164.78,229.73c-0.06,0.46-0.12,0.9-0.12,1.3c0,3.22,2.26,5.4,4.71,5.4c1.55,0,2.76-0.62,3.94-2.02l0.34,0.37
			c-1.3,1.64-3.25,3.19-5.52,3.19c-3.04,0-5.4-2.76-5.4-6.36c0-3.29,2.2-6.63,5.98-6.63c4.19,0,4.09,3.01,5.12,4.03v0.71H164.78z
			 M171.23,228.92c-0.34-2.02-1.58-3.35-3.07-3.35c-1.02,0-2.57,0.46-3.29,3.35H171.23z"/>
		<path class="st7" d="M179.79,234.9c0,1.71,0.4,2.11,2.08,2.11v0.59h-6.23v-0.59c1.36,0,2.08-0.74,2.08-1.95v-6.51
			c0-1.15-0.12-1.36-0.93-1.52l-1.05-0.22v-0.5l3.57-1.3h0.5v2.42c2.08-1.3,3.81-2.45,5.33-2.45c2.11,0,3.32,1.55,3.32,4.65
			c0,4.12-0.22,4.93-0.25,6.14c-0.03,0.84,0.46,1.24,1.74,1.24h0.68v0.59h-6.67v-0.59c0.9-0.03,1.43-0.25,1.77-0.59
			c0.59-0.59,0.65-2.85,0.65-6.98c0-2.48-1.21-3.26-2.45-3.26c-0.99,0-2.51,0.87-4.12,1.98V234.9z"/>
		<path class="st7" d="M199.81,225.32l-0.5,1.36h-3.94v7.22c0,1.95,1.4,2.6,2.05,2.6c0.68,0,1.3-0.53,1.89-1.55l0.5,0.47
			c-0.74,1.61-1.95,2.54-3.38,2.54c-1.83,0-3.13-1.52-3.13-3.6v-7.69h-1.43v-0.5c1.21-0.59,2.26-2.02,2.98-3.94h0.53v3.07H199.81z"
			/>
		<path class="st7" d="M208.12,224.98c3.78,0,6.67,2.82,6.67,6.51c0,3.66-2.88,6.48-6.57,6.48c-3.84,0-6.79-2.79-6.79-6.42
			C201.42,227.28,204.9,224.98,208.12,224.98z M208.56,237.23c1.83,0,3.91-1.86,3.91-4.96c0-3.53-2.17-6.54-4.77-6.54
			c-2.05,0-3.94,2.11-3.94,4.77C203.75,234.25,205.89,237.23,208.56,237.23z"/>
	</g>
	<g class="st6">
		<path class="st7" d="M75.18,256.76c0-0.59-0.22-0.74-1.21-0.87l-1.02-0.12v-0.53l4.31-1.27v18.2c0,1.05,0.65,1.27,1.52,1.02
			l0.74-0.22v0.65l-3.97,1.55h-0.37v-2.2c-2.02,1.46-3.63,2.2-4.81,2.2c-2.76,0-4.96-2.67-4.96-5.98c0-3.88,2.95-7.01,6.73-7.01
			c0.93,0,2.2,0.25,3.04,0.59V256.76z M75.18,265.34c-1.12-1.64-2.23-2.33-3.69-2.33c-2.42,0-4,2.2-4,5.12c0,3.1,1.8,5.71,4.03,5.71
			c0.96,0,2.29-0.59,3.66-1.55V265.34z"/>
		<path class="st7" d="M83.11,266.93c-0.06,0.46-0.12,0.9-0.12,1.3c0,3.22,2.26,5.4,4.71,5.4c1.55,0,2.76-0.62,3.94-2.02l0.34,0.37
			c-1.3,1.64-3.26,3.19-5.52,3.19c-3.04,0-5.4-2.76-5.4-6.36c0-3.29,2.2-6.63,5.98-6.63c4.19,0,4.09,3.01,5.12,4.03v0.71H83.11z
			 M89.56,266.12c-0.34-2.02-1.58-3.35-3.07-3.35c-1.02,0-2.57,0.46-3.29,3.35H89.56z"/>
		<path class="st7" d="M97.99,272.35c0,1.27,0.59,1.86,1.8,1.86h0.53v0.59h-6.98v-0.59c1.98,0,2.57-0.59,2.57-2.08v-14.98
			c0-0.87-0.09-1.15-0.96-1.24l-1.4-0.15v-0.53l3.97-1.27h0.47V272.35z"/>
		<path class="st7" d="M117.31,262.18c3.78,0,6.67,2.82,6.67,6.51c0,3.66-2.88,6.48-6.57,6.48c-3.84,0-6.79-2.79-6.79-6.42
			C110.61,264.48,114.08,262.18,117.31,262.18z M117.74,274.43c1.83,0,3.91-1.86,3.91-4.96c0-3.53-2.17-6.54-4.77-6.54
			c-2.05,0-3.94,2.11-3.94,4.77C112.94,271.45,115.07,274.43,117.74,274.43z"/>
		<path class="st7" d="M130.33,272.54c0,1.27,0.46,1.67,2.02,1.67h1.18v0.59h-7.35v-0.59c1.58-0.03,2.08-0.68,2.08-2.33v-7.16
			l-2.08-0.74v-0.53l3.53-1.24h0.62v3.29h0.06c1.55-2.54,1.92-3.13,2.95-3.13c0.37,0,0.46,0.03,1.05,0.28
			c0.31,0.12,0.87,0.25,1.61,0.46l-0.74,1.86c-0.46-0.06-1.05-0.22-1.64-0.5c-0.34-0.16-0.71-0.31-1.09-0.31
			c-0.56,0-0.9,0.37-1.21,0.81c-0.4,0.56-0.74,1.08-0.99,1.55V272.54z"/>
		<path class="st7" d="M146.17,256.76c0-0.59-0.22-0.74-1.21-0.87l-1.02-0.12v-0.53l4.31-1.27v18.2c0,1.05,0.65,1.27,1.52,1.02
			l0.74-0.22v0.65l-3.97,1.55h-0.37v-2.2c-2.01,1.46-3.63,2.2-4.81,2.2c-2.76,0-4.96-2.67-4.96-5.98c0-3.88,2.95-7.01,6.73-7.01
			c0.93,0,2.2,0.25,3.04,0.59V256.76z M146.17,265.34c-1.12-1.64-2.23-2.33-3.69-2.33c-2.42,0-4,2.2-4,5.12
			c0,3.1,1.8,5.71,4.03,5.71c0.96,0,2.29-0.59,3.66-1.55V265.34z"/>
		<path class="st7" d="M154.1,266.93c-0.06,0.46-0.13,0.9-0.13,1.3c0,3.22,2.26,5.4,4.71,5.4c1.55,0,2.76-0.62,3.94-2.02l0.34,0.37
			c-1.3,1.64-3.26,3.19-5.52,3.19c-3.04,0-5.39-2.76-5.39-6.36c0-3.29,2.2-6.63,5.98-6.63c4.19,0,4.09,3.01,5.12,4.03v0.71H154.1z
			 M160.55,266.12c-0.34-2.02-1.58-3.35-3.07-3.35c-1.02,0-2.57,0.46-3.29,3.35H160.55z"/>
		<path class="st7" d="M169.11,272.1c0,1.71,0.4,2.11,2.08,2.11v0.59h-6.23v-0.59c1.36,0,2.08-0.74,2.08-1.95v-6.51
			c0-1.15-0.12-1.36-0.93-1.52l-1.05-0.22v-0.5l3.57-1.3h0.5v2.42c2.08-1.3,3.81-2.45,5.33-2.45c2.11,0,3.32,1.55,3.32,4.65
			c0,4.12-0.22,4.93-0.25,6.14c-0.03,0.84,0.46,1.24,1.74,1.24h0.68v0.59h-6.67v-0.59c0.9-0.03,1.43-0.25,1.77-0.59
			c0.59-0.59,0.65-2.85,0.65-6.98c0-2.48-1.21-3.26-2.45-3.26c-0.99,0-2.51,0.87-4.12,1.98V272.1z"/>
	</g>
	<g class="st6">
		<path class="st7" d="M81.13,316.62c0,1.55,0.77,2.01,2.08,2.01h0.77v0.59h-7.32v-0.59h0.31c1.58,0,2.08-0.53,2.08-2.29v-13.67
			c0-0.59-0.12-0.84-0.87-1.02l-0.99-0.25v-0.59l3.32-2.05h0.62v2.98c1.92-1.46,3.57-2.26,4.81-2.26c2.42,0,4.59,2.73,4.59,5.77
			c0,3.75-3.04,6.98-6.57,6.98c-0.84,0-1.64-0.19-2.82-0.62V316.62z M81.13,309.58c1.12,0.99,2.51,1.67,3.66,1.67
			c2.11,0,3.66-2.08,3.66-4.62c0-4.09-2.42-5.64-4.06-5.64c-0.96,0-2.14,0.56-3.26,1.52V309.58z"/>
		<path class="st7" d="M107.39,311.1l-4.16,1.27v-2.48c-2.33,1.67-4.03,2.48-5.27,2.48c-1.55,0-3.29-1.05-3.29-3.16v-6.88
			c0-0.74-0.19-1.08-0.84-1.27l-1.08-0.31v-0.47l4-0.87v8.68c0,1.92,1.4,2.79,2.79,2.79c1.05,0,2.42-0.65,3.69-1.71v-6.67
			c0-1.21-0.15-1.46-1.15-1.64l-1.55-0.28v-0.43l4.77-0.74v10.45c0,0.87,0.31,1.02,1.43,0.81l0.65-0.12V311.1z M97.06,296.87
			l2.85-3.94c0.62-0.84,1.36-1.36,1.98-1.36c0.56,0,0.96,0.37,0.96,0.9c0,0.59-0.62,1.21-2.11,2.2l-3.29,2.2H97.06z"/>
		<path class="st7" d="M112.53,301.55c2.2-1.58,3.53-2.17,4.68-2.17c2.76,0,5.08,2.73,5.08,5.98c0,3.97-3.13,7.01-7.25,7.01
			c-1.4,0-2.6-0.22-4.59-0.59v-16.81c0-1.61-0.09-1.74-1.27-1.89l-0.87-0.12v-0.53l3.72-1.27h0.5V301.55z M112.53,308.22
			c0,1.55,1.02,3.26,3.38,3.26c2.54,0,4.31-2.14,4.31-5.24c0-3.1-1.83-5.43-4.22-5.43c-0.96,0-2.08,0.46-3.47,1.46V308.22z"/>
		<path class="st7" d="M128,309.55c0,1.27,0.59,1.86,1.8,1.86h0.53V312h-6.98v-0.59c1.98,0,2.57-0.59,2.57-2.08v-14.98
			c0-0.87-0.09-1.15-0.96-1.24l-1.4-0.15v-0.53l3.97-1.27H128V309.55z"/>
		<path class="st7" d="M135.81,309.64c0,1.08,0.59,1.77,2.23,1.77V312h-6.88v-0.59c1.89,0,2.57-0.62,2.57-2.26v-6.23
			c0-1.21-0.16-1.36-0.96-1.52l-1.46-0.28v-0.5l4.03-1.4h0.46V309.64z M134.54,292.25c0.74,0,1.36,0.53,1.36,1.18
			c0,0.65-0.62,1.18-1.36,1.18s-1.33-0.53-1.33-1.18C133.21,292.78,133.8,292.25,134.54,292.25z"/>
		<path class="st7" d="M150.79,309.15c-1.3,2.08-3.01,3.22-5.49,3.22c-3.72,0-5.21-3.53-5.21-5.98c0-3.88,3.19-7.01,7.13-7.01
			c1.95,0,3.47,0.78,3.47,1.77c0,0.53-0.4,0.93-0.9,0.93c-1.52,0-1.89-1.89-3.63-1.89c-2.14,0-4,2.54-4,5.52
			c0,3.1,1.86,5.39,4.37,5.39c1.49,0,2.67-0.68,3.78-2.23L150.79,309.15z"/>
		<path class="st7" d="M159.99,299.38c3.78,0,6.67,2.82,6.67,6.51c0,3.66-2.88,6.48-6.57,6.48c-3.84,0-6.79-2.79-6.79-6.42
			C153.3,301.68,156.77,299.38,159.99,299.38z M160.43,311.63c1.83,0,3.91-1.86,3.91-4.96c0-3.53-2.17-6.54-4.78-6.54
			c-2.05,0-3.94,2.11-3.94,4.77C155.62,308.65,157.76,311.63,160.43,311.63z"/>
	</g>
</g>
<g>
	<g>
		<polygon class="st8" points="0,852.02 122.5,778.63 245,852.02 245,873 0,873 		"/>
	</g>
</g>
<g>
	<g>
		<line class="st9" x1="7.93" y1="873" x2="7.93" y2="871.5"/>
		<line class="st10" x1="7.93" y1="868.86" x2="7.93" y2="859.63"/>
		<polyline class="st9" points="7.93,858.31 7.93,856.81 9.22,856.04 		"/>
		<line class="st11" x1="11.82" y1="854.48" x2="119.91" y2="789.72"/>
		<polyline class="st9" points="121.21,788.94 122.5,788.17 123.79,788.94 		"/>
		<line class="st11" x1="126.39" y1="790.5" x2="234.48" y2="855.26"/>
		<polyline class="st9" points="235.78,856.04 237.07,856.81 237.07,858.31 		"/>
		<line class="st10" x1="237.07" y1="860.95" x2="237.07" y2="870.18"/>
		<line class="st9" x1="237.07" y1="871.5" x2="237.07" y2="873"/>
	</g>
</g>
</svg>
