<?xml version="1.0" encoding="utf-8"?>
<!-- Generator: Adobe Illustrator 23.0.0, SVG Export Plug-In . SVG Version: 6.00 Build 0)  -->
<svg version="1.1" id="Layer_11" xmlns="http://www.w3.org/2000/svg" xmlns:xlink="http://www.w3.org/1999/xlink" x="0px" y="0px"
	 viewBox="0 0 245 240" style="enable-background:new 0 0 245 240;" xml:space="preserve">
<style type="text/css">
	.st0{fill:#59A3D9;}
	.st1{fill:none;stroke:#FFFFFF;stroke-miterlimit:10;}
	.st2{fill:none;stroke:#FFFFFF;stroke-miterlimit:10;stroke-dasharray:2.9965,2.9965;}
	.st3{fill:none;stroke:#FFFFFF;stroke-miterlimit:10;stroke-dasharray:3.0362,3.0362;}
	.st4{enable-background:new    ;}
	.st5{fill:#FFFFFF;}
	.st6{opacity:0.4;fill:#FFFFFF;enable-background:new    ;}
</style>
<g>
	<g>
		<polygon class="st0" points="0.16,73.39 122.66,0 245.16,73.39 245.16,240 0.16,240 		"/>
	</g>
</g>
<g>
	<g>
		<line class="st1" x1="8.34" y1="240" x2="8.34" y2="238.5"/>
		<line class="st2" x1="8.34" y1="235.5" x2="8.34" y2="81.18"/>
		<polyline class="st1" points="8.34,79.68 8.34,78.18 9.62,77.41 		"/>
		<line class="st3" x1="12.23" y1="75.85" x2="120.32" y2="11.1"/>
		<polyline class="st1" points="121.62,10.32 122.91,9.54 124.19,10.32 		"/>
		<line class="st3" x1="126.8" y1="11.88" x2="234.89" y2="76.63"/>
		<polyline class="st1" points="236.19,77.41 237.48,78.18 237.48,79.68 		"/>
		<line class="st2" x1="237.48" y1="82.68" x2="237.48" y2="237"/>
		<line class="st1" x1="237.48" y1="238.5" x2="237.48" y2="240"/>
	</g>
</g>
<g>
	<g class="st4">
		<path class="st5" d="M77.49,132.69c0-2.01-0.53-2.51-2.36-2.51h-0.62v-0.59c1.15-0.06,2.67-0.13,4.37-0.19s3.6-0.09,5.21-0.09
			c8.19,0,11.81,4.15,11.81,9.27c0,4.68-3.63,10.29-11.47,10.29h-9.92v-0.59h0.53c1.67,0,2.45-0.47,2.45-2.26V132.69z M80.06,146.58
			c0,1.27,0.09,1.71,2.54,1.71c4.15,0,5.89-0.59,7.81-2.51c1.15-1.12,2.57-3.5,2.57-6.7c0-2.29-0.65-4.84-2.48-6.67
			c-1.43-1.43-3.63-2.51-7.97-2.51c-1.27,0-2.11,0.09-2.48,0.12V146.58z"/>
		<path class="st5" d="M101.14,141c-0.06,0.46-0.12,0.9-0.12,1.3c0,3.22,2.26,5.4,4.71,5.4c1.55,0,2.76-0.62,3.94-2.02l0.34,0.37
			c-1.3,1.64-3.25,3.19-5.52,3.19c-3.04,0-5.4-2.76-5.4-6.36c0-3.29,2.2-6.63,5.98-6.63c4.19,0,4.09,3.01,5.12,4.03V141H101.14z
			 M107.59,140.19c-0.34-2.02-1.58-3.35-3.07-3.35c-1.02,0-2.57,0.46-3.29,3.35H107.59z"/>
		<path class="st5" d="M119.4,137.96h-3.35v8.5c0,1.43,0.56,1.83,2.29,1.83h1.18v0.59h-7.66v-0.59c1.8,0,2.11-0.4,2.11-2.14v-8.19
			h-2.29v-0.53c0.87-0.19,1.61-0.46,2.29-0.84c0-2.57,0.56-4.53,2.39-6.36c1.52-1.52,2.98-2.2,4.4-2.2c1.74,0,3.19,0.99,3.19,1.46
			c0,0.25-0.59,1.49-0.84,1.49c-0.43,0-1.58-1.52-3.63-1.52c-2.23,0-3.44,1.77-3.44,4.78v2.36h3.13L119.4,137.96z"/>
		<path class="st5" d="M123.12,141c-0.06,0.46-0.12,0.9-0.12,1.3c0,3.22,2.26,5.4,4.71,5.4c1.55,0,2.76-0.62,3.94-2.02l0.34,0.37
			c-1.3,1.64-3.25,3.19-5.52,3.19c-3.04,0-5.4-2.76-5.4-6.36c0-3.29,2.2-6.63,5.98-6.63c4.19,0,4.09,3.01,5.12,4.03V141H123.12z
			 M129.57,140.19c-0.34-2.02-1.58-3.35-3.07-3.35c-1.02,0-2.57,0.46-3.29,3.35H129.57z"/>
		<path class="st5" d="M138.13,146.17c0,1.71,0.4,2.11,2.08,2.11v0.59h-6.23v-0.59c1.36,0,2.08-0.74,2.08-1.95v-6.51
			c0-1.15-0.12-1.36-0.93-1.52l-1.05-0.22v-0.5l3.57-1.3h0.5v2.42c2.08-1.3,3.81-2.45,5.33-2.45c2.11,0,3.32,1.55,3.32,4.65
			c0,4.12-0.22,4.93-0.25,6.14c-0.03,0.84,0.46,1.24,1.74,1.24h0.68v0.59h-6.67v-0.59c0.9-0.03,1.43-0.25,1.77-0.59
			c0.59-0.59,0.65-2.85,0.65-6.98c0-2.48-1.21-3.26-2.45-3.26c-0.99,0-2.51,0.87-4.12,1.98V146.17z"/>
		<path class="st5" d="M150.8,145.74c0.37,1.86,1.55,2.92,2.95,2.92c1.24,0,2.2-0.93,2.2-2.05c0-0.65-0.16-1.05-0.99-1.89
			c-2.2-2.2-4.65-2.42-4.65-4.99c0-2.05,1.61-3.47,3.97-3.47c0.84,0,1.71,0.19,2.48,0.5l0.06,2.82h-0.53
			c-0.22-1.58-1.24-2.57-2.48-2.57c-1.02,0-1.89,0.71-1.89,1.74c0,2.73,5.77,3.19,5.77,6.98c0,2.01-1.67,3.53-3.84,3.53
			c-0.59,0-1.02-0.09-1.36-0.22c-0.34-0.09-0.59-0.19-0.84-0.19c-0.19,0-0.37,0.12-0.53,0.37h-0.46l-0.34-3.47H150.8z"/>
		<path class="st5" d="M160.07,140.28c-0.06-0.19-0.09-0.28-0.09-0.43c0-1.08,2.57-3.6,4.59-3.6c0.93,0,2.39,0.43,3.26,1.64
			c0.46,0.65,0.46,1.05,0.46,2.67v4.16c0,2.48,0,3.04,0.81,3.04c0.34,0,0.74-0.03,1.52-0.68l0.16,0.47
			c-1.67,1.36-2.54,1.71-3.07,1.71c-1.27,0-1.4-1.4-1.43-1.89c-2.14,1.77-2.76,1.89-3.6,1.89c-1.8,0-2.88-1.02-2.88-2.54
			c0-1.89,1.67-2.54,3.66-3.04c0.65-0.16,1.67-0.53,2.76-1.18v-2.45c0-0.87,0-1.36-0.53-1.98c-0.4-0.5-1.05-0.9-1.74-0.9
			c-1.02,0-1.92,0.87-1.92,1.52c0,0.19,0.03,0.31,0.16,0.59L160.07,140.28z M166.21,143.1c-0.59,0.34-1.09,0.56-1.83,0.87
			c-1.89,0.77-2.6,1.08-2.6,2.36c0,1.12,0.9,1.83,1.83,1.83c0.5,0,0.87-0.16,2.6-1.36V143.1z"/>
	</g>
</g>
<g>
	<path class="st6" d="M122.5,108.63c33.15-10.96,30.27-54.9,30.27-54.9c-15.7-0.37-24.34-10.1-24.34-10.1h-5.92h-5.92
		c0,0-8.64,9.74-24.34,10.1C92.23,53.73,89.35,97.67,122.5,108.63z"/>
	<path class="st5" d="M122.5,108.63c33.15-10.96,30.27-54.9,30.27-54.9c-15.7-0.37-24.34-10.1-24.34-10.1h-5.92v65H122.5z"/>
</g>
</svg>
