<?xml version="1.0" encoding="utf-8"?>
<!-- Generator: Adobe Illustrator 16.0.0, SVG Export Plug-In . SVG Version: 6.00 Build 0)  -->
<!DOCTYPE svg PUBLIC "-//W3C//DTD SVG 1.1//EN" "http://www.w3.org/Graphics/SVG/1.1/DTD/svg11.dtd">
<svg version="1.1" id="Layer_11" xmlns="http://www.w3.org/2000/svg" xmlns:xlink="http://www.w3.org/1999/xlink" x="0px" y="0px"
	 width="222.268px" height="792px" viewBox="194.866 0 222.268 792" enable-background="new 194.866 0 222.268 792"
	 xml:space="preserve">
<polygon fill="#E2E2E4" points="194.866,67.878 306,0 417.134,67.878 417.134,792 194.866,792 "/>
<g>
	<g>
		<line fill="none" stroke="#909295" stroke-miterlimit="10" x1="202.278" y1="792" x2="202.278" y2="790.639"/>
		
			<line fill="none" stroke="#909295" stroke-miterlimit="10" stroke-dasharray="3.0107,3.0107" x1="202.278" y1="787.908" x2="202.278" y2="73.657"/>
		<polyline fill="none" stroke="#909295" stroke-miterlimit="10" points="202.278,72.296 202.278,70.935 203.448,70.228 		"/>
		
			<line fill="none" stroke="#909295" stroke-miterlimit="10" stroke-dasharray="3.0362,3.0362" x1="205.816" y1="68.813" x2="303.868" y2="10.07"/>
		<polyline fill="none" stroke="#909295" stroke-miterlimit="10" points="305.057,9.362 306.218,8.655 307.388,9.362 		"/>
		
			<line fill="none" stroke="#909295" stroke-miterlimit="10" stroke-dasharray="3.0362,3.0362" x1="309.756" y1="10.778" x2="407.808" y2="69.52"/>
		<polyline fill="none" stroke="#909295" stroke-miterlimit="10" points="408.996,70.228 410.157,70.935 410.157,72.296 		"/>
		
			<line fill="none" stroke="#909295" stroke-miterlimit="10" stroke-dasharray="3.0107,3.0107" x1="410.157" y1="75.027" x2="410.157" y2="789.27"/>
		<line fill="none" stroke="#909295" stroke-miterlimit="10" x1="410.157" y1="790.639" x2="410.157" y2="792"/>
	</g>
</g>
<g>
	<path fill="#9FA2A4" d="M306,137.035c39.718-13.127,36.262-65.773,36.262-65.773c-18.816-0.436-29.167-12.102-29.167-12.102H306
		h-7.094c0,0-10.352,11.667-29.167,12.102C269.739,71.262,266.282,123.908,306,137.035z"/>
	<path fill="#858789" d="M306,137.035c39.718-13.127,36.262-65.773,36.262-65.773c-18.816-0.436-29.167-12.102-29.167-12.102H306
		V137.035z"/>
</g>
<g>
	<g enable-background="new    ">
		<path fill="#231F20" d="M254.661,167.127c0-1.824-0.481-2.277-2.141-2.277h-0.563v-0.536c1.043-0.054,2.422-0.118,3.965-0.172
			c1.542-0.054,3.266-0.082,4.727-0.082c7.43,0,10.714,3.765,10.714,8.41c0,4.246-3.293,9.335-10.406,9.335h-9v-0.535h0.481
			c1.515,0,2.223-0.426,2.223-2.05V167.127L254.661,167.127z M256.992,179.729c0,1.152,0.082,1.552,2.304,1.552
			c3.765,0,5.344-0.536,7.085-2.277c1.043-1.016,2.332-3.175,2.332-6.078c0-2.078-0.59-4.391-2.25-6.051
			c-1.297-1.297-3.293-2.277-7.23-2.277c-1.152,0-1.914,0.082-2.25,0.109v15.023H256.992z"/>
		<path fill="#231F20" d="M276.116,174.667c-0.054,0.417-0.109,0.816-0.109,1.179c0,2.921,2.05,4.899,4.273,4.899
			c1.406,0,2.504-0.563,3.575-1.833l0.308,0.336c-1.179,1.488-2.958,2.894-5.008,2.894c-2.758,0-4.899-2.504-4.899-5.77
			c0-2.985,1.996-6.015,5.425-6.015c3.801,0,3.71,2.731,4.645,3.656v0.644h-8.21V174.667z M281.968,173.932
			c-0.309-1.833-1.434-3.039-2.785-3.039c-0.925,0-2.332,0.417-2.985,3.039H281.968z"/>
		<path fill="#231F20" d="M292.682,171.908h-3.039v7.711c0,1.297,0.508,1.661,2.077,1.661h1.071v0.535h-6.949v-0.535
			c1.633,0,1.914-0.363,1.914-1.942v-7.43h-2.078v-0.48c0.79-0.172,1.461-0.417,2.078-0.762c0-2.332,0.508-4.11,2.168-5.77
			c1.379-1.379,2.703-1.996,3.992-1.996c1.579,0,2.894,0.898,2.894,1.325c0,0.227-0.536,1.352-0.762,1.352
			c-0.39,0-1.434-1.379-3.293-1.379c-2.023,0-3.121,1.605-3.121,4.336v2.141h2.84L292.682,171.908z"/>
		<path fill="#231F20" d="M296.057,174.667c-0.055,0.417-0.109,0.816-0.109,1.179c0,2.921,2.05,4.899,4.273,4.899
			c1.406,0,2.504-0.563,3.574-1.833l0.309,0.336c-1.18,1.488-2.958,2.894-5.008,2.894c-2.758,0-4.899-2.504-4.899-5.77
			c0-2.985,1.996-6.015,5.425-6.015c3.801,0,3.711,2.731,4.645,3.656v0.644h-8.21V174.667z M301.908,173.932
			c-0.308-1.833-1.433-3.039-2.785-3.039c-0.925,0-2.331,0.417-2.984,3.039H301.908z"/>
		<path fill="#231F20" d="M309.674,179.356c0,1.552,0.363,1.915,1.888,1.915v0.535h-5.652v-0.535c1.234,0,1.887-0.671,1.887-1.769
			v-5.906c0-1.043-0.108-1.233-0.844-1.379L306,172.018v-0.454l3.229-1.179h0.454v2.195c1.887-1.179,3.456-2.223,4.835-2.223
			c1.914,0,3.012,1.406,3.012,4.219c0,3.738-0.199,4.473-0.227,5.57c-0.027,0.762,0.427,1.125,1.579,1.125h0.616v0.535h-6.051
			v-0.535c0.816-0.027,1.297-0.227,1.605-0.535c0.535-0.536,0.59-2.586,0.59-6.333c0-2.25-1.098-2.958-2.223-2.958
			c-0.898,0-2.277,0.789-3.737,1.796v6.114H309.674z"/>
		<path fill="#231F20" d="M321.169,178.967c0.335,1.688,1.406,2.649,2.676,2.649c1.125,0,1.996-0.844,1.996-1.86
			c0-0.59-0.146-0.953-0.898-1.715c-1.995-1.996-4.218-2.195-4.218-4.527c0-1.86,1.46-3.148,3.602-3.148
			c0.762,0,1.551,0.172,2.25,0.454l0.054,2.558h-0.48c-0.2-1.433-1.125-2.332-2.25-2.332c-0.926,0-1.715,0.645-1.715,1.579
			c0,2.477,5.234,2.894,5.234,6.333c0,1.824-1.515,3.203-3.483,3.203c-0.535,0-0.925-0.082-1.233-0.2
			c-0.309-0.082-0.535-0.172-0.763-0.172c-0.172,0-0.335,0.109-0.48,0.335h-0.417l-0.309-3.148h0.436V178.967z"/>
		<path fill="#231F20" d="M329.578,174.013c-0.054-0.172-0.081-0.254-0.081-0.39c0-0.979,2.331-3.266,4.164-3.266
			c0.844,0,2.168,0.39,2.957,1.488c0.418,0.59,0.418,0.953,0.418,2.422v3.774c0,2.25,0,2.758,0.734,2.758
			c0.309,0,0.672-0.027,1.379-0.617l0.146,0.426c-1.515,1.234-2.305,1.552-2.785,1.552c-1.152,0-1.271-1.271-1.297-1.715
			c-1.942,1.606-2.505,1.715-3.267,1.715c-1.633,0-2.612-0.926-2.612-2.305c0-1.714,1.515-2.304,3.32-2.758
			c0.59-0.145,1.515-0.48,2.504-1.07v-2.223c0-0.79,0-1.234-0.481-1.796c-0.362-0.454-0.952-0.816-1.578-0.816
			c-0.926,0-1.742,0.789-1.742,1.379c0,0.172,0.027,0.281,0.137,0.535L329.578,174.013z M335.148,176.571
			c-0.535,0.309-0.979,0.508-1.66,0.79c-1.714,0.699-2.358,0.98-2.358,2.141c0,1.016,0.816,1.66,1.66,1.66
			c0.454,0,0.789-0.145,2.358-1.234V176.571z"/>
		<path fill="#231F20" d="M357.004,173.786c0.844-2.141,0.309-2.558-1.352-2.612v-0.508h4.672v0.508
			c-1.152,0.145-1.797,0.925-2.332,2.25l-4.78,11.93c-0.844,2.077-1.488,3.012-2.478,3.012c-0.671,0-1.151-0.417-1.151-0.989
			c0-1.152,1.633-0.871,2.331-1.579c0.309-0.309,0.735-1.043,0.953-1.605l0.844-2.114l-4.364-9.253
			c-0.535-1.152-1.043-1.633-2.223-1.66v-0.508h5.652v0.508c-1.715,0.027-1.914,0.535-1.353,1.714l3.176,6.868L357.004,173.786z"/>
	</g>
	<g enable-background="new    ">
		<path fill="#231F20" d="M225.484,213.277c0,1.461,0.39,1.742,1.969,1.742v0.535h-5.852v-0.535c1.633,0,1.996-0.735,1.996-2.168
			v-5.516c0-1.098-0.172-1.352-0.816-1.434l-1.098-0.145v-0.481l3.375-1.179h0.417v2.25c2.023-1.433,3.883-2.25,5.008-2.25
			c1.379,0,2.386,0.871,2.676,2.25c1.887-1.179,3.602-2.25,4.98-2.25c2.023,0,2.813,1.551,2.813,4.246c0,1.796,0,3.683-0.082,5.398
			c0,0.59,0.335,1.27,1.488,1.27h0.898v0.535h-6.333v-0.535h0.254c0.816,0,1.179-0.145,1.433-0.39
			c0.427-0.417,0.454-2.05,0.454-3.992v-2.195c0-2.168-0.735-3.203-2.114-3.203c-0.871,0-1.996,0.417-3.738,1.579v6.468
			c0,1.406,0.336,1.742,1.742,1.742v0.535h-5.77v-0.535c1.579,0,2.141-0.563,2.141-2.168v-5.208c0-1.769-1.098-2.422-2.078-2.422
			c-0.79,0-1.86,0.363-3.774,1.633v6.423H225.484z"/>
		<path fill="#231F20" d="M244.554,207.762c-0.054-0.172-0.082-0.254-0.082-0.39c0-0.98,2.332-3.266,4.164-3.266
			c0.844,0,2.168,0.39,2.958,1.488c0.417,0.59,0.417,0.953,0.417,2.422v3.774c0,2.25,0,2.758,0.735,2.758
			c0.308,0,0.671-0.027,1.379-0.617l0.136,0.426c-1.515,1.234-2.304,1.551-2.785,1.551c-1.152,0-1.27-1.27-1.297-1.714
			c-1.942,1.606-2.504,1.714-3.266,1.714c-1.633,0-2.613-0.925-2.613-2.304c0-1.714,1.515-2.304,3.32-2.758
			c0.59-0.145,1.515-0.481,2.504-1.07v-2.223c0-0.789,0-1.233-0.481-1.796c-0.363-0.454-0.953-0.816-1.579-0.816
			c-0.925,0-1.742,0.789-1.742,1.379c0,0.172,0.027,0.281,0.145,0.535L244.554,207.762z M250.125,210.32
			c-0.535,0.309-0.98,0.508-1.66,0.79c-1.715,0.698-2.359,0.979-2.359,2.141c0,1.016,0.816,1.66,1.66,1.66
			c0.454,0,0.79-0.145,2.359-1.234V210.32z"/>
		<path fill="#231F20" d="M258.924,213.105c0,1.551,0.363,1.915,1.887,1.915v0.535h-5.652v-0.535c1.234,0,1.887-0.671,1.887-1.769
			v-5.906c0-1.043-0.109-1.234-0.843-1.379l-0.953-0.2v-0.454l3.239-1.179h0.454v2.195c1.887-1.179,3.457-2.223,4.835-2.223
			c1.914,0,3.012,1.406,3.012,4.219c0,3.738-0.2,4.473-0.227,5.57c-0.027,0.762,0.417,1.125,1.578,1.125h0.617v0.535h-6.051v-0.535
			c0.816-0.027,1.297-0.227,1.606-0.535c0.535-0.536,0.59-2.586,0.59-6.333c0-2.25-1.098-2.958-2.223-2.958
			c-0.898,0-2.277,0.789-3.738,1.796v6.114H258.924z"/>
		<path fill="#231F20" d="M277.087,204.414l-0.454,1.234h-3.565v6.55c0,1.769,1.27,2.359,1.86,2.359c0.617,0,1.18-0.48,1.715-1.406
			l0.454,0.427c-0.671,1.46-1.769,2.304-3.066,2.304c-1.66,0-2.84-1.379-2.84-3.266v-6.977h-1.297v-0.454
			c1.098-0.535,2.05-1.833,2.704-3.574h0.481v2.785h4.01V204.414z"/>
		<path fill="#231F20" d="M280.489,208.415c-0.055,0.417-0.109,0.816-0.109,1.179c0,2.921,2.05,4.899,4.273,4.899
			c1.406,0,2.504-0.563,3.574-1.833l0.309,0.335c-1.18,1.488-2.958,2.894-5.008,2.894c-2.758,0-4.89-2.504-4.89-5.77
			c0-2.984,1.996-6.015,5.425-6.015c3.801,0,3.71,2.731,4.645,3.656v0.644h-8.219V208.415z M286.341,207.68
			c-0.309-1.833-1.434-3.04-2.785-3.04c-0.926,0-2.332,0.417-2.985,3.04H286.341z"/>
		<path fill="#231F20" d="M294.106,213.105c0,1.551,0.363,1.915,1.887,1.915v0.535h-5.652v-0.535c1.234,0,1.887-0.671,1.887-1.769
			v-5.906c0-1.043-0.109-1.234-0.844-1.379l-0.953-0.2v-0.454l3.239-1.179h0.454v2.195c1.887-1.179,3.457-2.223,4.835-2.223
			c1.914,0,3.012,1.406,3.012,4.219c0,3.738-0.2,4.473-0.227,5.57c-0.027,0.762,0.417,1.125,1.579,1.125h0.617v0.535h-6.051v-0.535
			c0.816-0.027,1.297-0.227,1.605-0.535c0.535-0.536,0.59-2.586,0.59-6.333c0-2.25-1.098-2.958-2.223-2.958
			c-0.898,0-2.277,0.789-3.738,1.796v6.114H294.106z"/>
		<path fill="#231F20" d="M308.984,213.414c0,0.98,0.535,1.606,2.023,1.606v0.535h-6.242v-0.535c1.714,0,2.332-0.563,2.332-2.05
			v-5.652c0-1.098-0.146-1.234-0.871-1.379l-1.324-0.254v-0.454l3.656-1.27h0.417v9.453H308.984z M307.833,197.637
			c0.671,0,1.233,0.481,1.233,1.07c0,0.59-0.563,1.071-1.233,1.071c-0.672,0-1.207-0.481-1.207-1.071
			C306.617,198.118,307.152,197.637,307.833,197.637z"/>
		<path fill="#231F20" d="M316.043,213.277c0,1.461,0.39,1.742,1.969,1.742v0.535h-5.852v-0.535c1.633,0,1.996-0.735,1.996-2.168
			v-5.516c0-1.098-0.173-1.352-0.816-1.434l-1.099-0.145v-0.481l3.375-1.179h0.427v2.25c2.023-1.433,3.883-2.25,5.008-2.25
			c1.379,0,2.395,0.871,2.676,2.25c1.888-1.179,3.603-2.25,4.981-2.25c2.022,0,2.812,1.551,2.812,4.246c0,1.796,0,3.683-0.081,5.398
			c0,0.59,0.336,1.27,1.487,1.27h0.898v0.535h-6.332v-0.535h0.254c0.816,0,1.18-0.145,1.434-0.39
			c0.417-0.417,0.453-2.05,0.453-3.992v-2.195c0-2.168-0.734-3.203-2.113-3.203c-0.871,0-1.996,0.417-3.738,1.579v6.468
			c0,1.406,0.336,1.742,1.742,1.742v0.535h-5.77v-0.535c1.578,0,2.141-0.563,2.141-2.168v-5.208c0-1.769-1.098-2.422-2.077-2.422
			c-0.79,0-1.86,0.363-3.766,1.633v6.423H316.043z"/>
		<path fill="#231F20" d="M338.569,213.414c0,0.98,0.535,1.606,2.022,1.606v0.535h-6.241v-0.535c1.715,0,2.331-0.563,2.331-2.05
			v-5.652c0-1.098-0.145-1.234-0.87-1.379l-1.325-0.254v-0.454l3.656-1.27h0.417v9.453H338.569z M337.417,197.637
			c0.671,0,1.233,0.481,1.233,1.07c0,0.59-0.563,1.071-1.233,1.071c-0.672,0-1.207-0.481-1.207-1.071
			C336.201,198.118,336.736,197.637,337.417,197.637z"/>
		<path fill="#231F20" d="M344.357,208.415c-0.055,0.417-0.109,0.816-0.109,1.179c0,2.921,2.051,4.899,4.273,4.899
			c1.406,0,2.504-0.563,3.574-1.833l0.309,0.335c-1.18,1.488-2.948,2.894-5.008,2.894c-2.758,0-4.899-2.504-4.899-5.77
			c0-2.984,1.996-6.015,5.426-6.015c3.801,0,3.71,2.731,4.645,3.656v0.644h-8.21V208.415z M350.209,207.68
			c-0.309-1.833-1.434-3.04-2.785-3.04c-0.926,0-2.332,0.417-2.985,3.04H350.209z"/>
		<path fill="#231F20" d="M357.975,213.105c0,1.551,0.362,1.915,1.887,1.915v0.535h-5.652v-0.535c1.234,0,1.888-0.671,1.888-1.769
			v-5.906c0-1.043-0.109-1.234-0.844-1.379l-0.953-0.2v-0.454l3.239-1.179h0.453v2.195c1.888-1.179,3.457-2.223,4.836-2.223
			c1.914,0,3.012,1.406,3.012,4.219c0,3.738-0.199,4.473-0.227,5.57c-0.027,0.762,0.417,1.125,1.578,1.125h0.617v0.535h-6.051
			v-0.535c0.816-0.027,1.297-0.227,1.605-0.535c0.535-0.536,0.59-2.586,0.59-6.333c0-2.25-1.098-2.958-2.223-2.958
			c-0.898,0-2.277,0.789-3.738,1.796v6.114H357.975z"/>
		<path fill="#231F20" d="M376.137,204.414l-0.453,1.234h-3.575v6.55c0,1.769,1.271,2.359,1.86,2.359c0.617,0,1.18-0.48,1.715-1.406
			l0.453,0.427c-0.671,1.46-1.769,2.304-3.066,2.304c-1.66,0-2.84-1.379-2.84-3.266v-6.977h-1.297v-0.454
			c1.098-0.535,2.051-1.833,2.703-3.574h0.481v2.785h4.019V204.414z"/>
		<path fill="#231F20" d="M383.676,204.105c3.43,0,6.051,2.559,6.051,5.906c0,3.32-2.612,5.878-5.96,5.878
			c-3.483,0-6.16-2.531-6.16-5.824C377.598,206.192,380.755,204.105,383.676,204.105z M384.075,215.219
			c1.66,0,3.547-1.687,3.547-4.5c0-3.203-1.969-5.933-4.327-5.933c-1.859,0-3.574,1.914-3.574,4.327
			C379.711,212.516,381.652,215.219,384.075,215.219z"/>
	</g>
	<g enable-background="new    ">
		<path fill="#231F20" d="M263.07,232.937c0-0.535-0.199-0.671-1.098-0.79l-0.925-0.109v-0.48l3.91-1.152v16.511
			c0,0.953,0.59,1.152,1.379,0.925l0.671-0.199v0.589l-3.602,1.406h-0.336v-1.996c-1.833,1.325-3.293,1.996-4.363,1.996
			c-2.504,0-4.5-2.422-4.5-5.425c0-3.52,2.676-6.359,6.105-6.359c0.844,0,1.996,0.227,2.758,0.535V232.937z M263.07,240.721
			c-1.016-1.488-2.023-2.114-3.348-2.114c-2.195,0-3.628,1.996-3.628,4.645c0,2.813,1.633,5.18,3.656,5.18
			c0.871,0,2.078-0.535,3.32-1.406V240.721z"/>
		<path fill="#231F20" d="M270.265,242.163c-0.054,0.417-0.109,0.817-0.109,1.18c0,2.921,2.05,4.899,4.273,4.899
			c1.406,0,2.504-0.563,3.575-1.833l0.308,0.335c-1.179,1.488-2.958,2.894-5.008,2.894c-2.758,0-4.899-2.504-4.899-5.77
			c0-2.985,1.996-6.015,5.425-6.015c3.801,0,3.71,2.731,4.645,3.656v0.644h-8.21V242.163z M276.116,241.429
			c-0.309-1.833-1.433-3.04-2.785-3.04c-0.925,0-2.332,0.417-2.985,3.04H276.116z"/>
		<path fill="#231F20" d="M283.764,247.081c0,1.152,0.535,1.687,1.633,1.687h0.481v0.536h-6.333v-0.536
			c1.796,0,2.332-0.535,2.332-1.887v-13.59c0-0.789-0.082-1.043-0.871-1.125l-1.27-0.136v-0.481l3.602-1.152h0.426V247.081z"/>
		<path fill="#231F20" d="M301.292,237.854c3.429,0,6.051,2.558,6.051,5.906c0,3.321-2.613,5.879-5.96,5.879
			c-3.484,0-6.16-2.531-6.16-5.824C295.213,239.94,298.361,237.854,301.292,237.854z M301.682,248.967c1.66,0,3.547-1.687,3.547-4.5
			c0-3.203-1.969-5.934-4.328-5.934c-1.86,0-3.574,1.915-3.574,4.328C297.327,246.264,299.259,248.967,301.682,248.967z"/>
		<path fill="#231F20" d="M313.104,247.253c0,1.152,0.417,1.515,1.833,1.515h1.07v0.536h-6.668v-0.536
			c1.433-0.027,1.887-0.617,1.887-2.113v-6.496l-1.887-0.671v-0.481l3.202-1.125h0.563v2.985h0.055
			c1.406-2.305,1.741-2.84,2.676-2.84c0.336,0,0.418,0.027,0.953,0.254c0.281,0.109,0.789,0.227,1.46,0.417l-0.671,1.688
			c-0.417-0.055-0.953-0.2-1.488-0.454c-0.309-0.145-0.644-0.281-0.988-0.281c-0.508,0-0.816,0.335-1.098,0.735
			c-0.363,0.508-0.672,0.98-0.898,1.406V247.253L313.104,247.253z"/>
		<path fill="#231F20" d="M327.474,232.937c0-0.535-0.199-0.671-1.098-0.79l-0.925-0.109v-0.48l3.909-1.152v16.511
			c0,0.953,0.59,1.152,1.38,0.925l0.671-0.199v0.589l-3.602,1.406h-0.336v-1.996c-1.823,1.325-3.293,1.996-4.363,1.996
			c-2.504,0-4.5-2.422-4.5-5.425c0-3.52,2.676-6.359,6.105-6.359c0.844,0,1.996,0.227,2.758,0.535V232.937z M327.474,240.721
			c-1.016-1.488-2.022-2.114-3.348-2.114c-2.195,0-3.629,1.996-3.629,4.645c0,2.813,1.633,5.18,3.656,5.18
			c0.871,0,2.077-0.535,3.32-1.406V240.721z"/>
		<path fill="#231F20" d="M334.668,242.163c-0.055,0.417-0.118,0.817-0.118,1.18c0,2.921,2.051,4.899,4.273,4.899
			c1.406,0,2.504-0.563,3.574-1.833l0.309,0.335c-1.18,1.488-2.958,2.894-5.008,2.894c-2.758,0-4.89-2.504-4.89-5.77
			c0-2.985,1.995-6.015,5.425-6.015c3.801,0,3.711,2.731,4.645,3.656v0.644h-8.21V242.163z M340.52,241.429
			c-0.309-1.833-1.434-3.04-2.785-3.04c-0.926,0-2.331,0.417-2.984,3.04H340.52z"/>
		<path fill="#231F20" d="M348.285,246.854c0,1.551,0.363,1.914,1.887,1.914v0.536h-5.651v-0.536c1.233,0,1.887-0.671,1.887-1.769
			v-5.906c0-1.043-0.108-1.234-0.844-1.379l-0.952-0.2v-0.454l3.238-1.179h0.454v2.195c1.887-1.179,3.456-2.223,4.835-2.223
			c1.914,0,3.013,1.406,3.013,4.219c0,3.738-0.2,4.472-0.228,5.57c-0.027,0.762,0.418,1.125,1.579,1.125h0.616v0.536h-6.051v-0.536
			c0.816-0.027,1.298-0.227,1.605-0.535c0.536-0.535,0.59-2.585,0.59-6.332c0-2.25-1.098-2.958-2.223-2.958
			c-0.897,0-2.277,0.79-3.737,1.796v6.115H348.285z"/>
	</g>
	<g enable-background="new    ">
		<path fill="#231F20" d="M268.468,287.243c0,1.406,0.699,1.824,1.887,1.824h0.699v0.535h-6.641v-0.535h0.281
			c1.434,0,1.887-0.481,1.887-2.078v-12.402c0-0.535-0.109-0.762-0.79-0.925l-0.898-0.227V272.9l3.012-1.86h0.563v2.704
			c1.742-1.325,3.239-2.05,4.364-2.05c2.196,0,4.164,2.477,4.164,5.234c0,3.402-2.758,6.333-5.96,6.333
			c-0.762,0-1.488-0.172-2.559-0.563v4.545H268.468z M268.468,280.856c1.016,0.898,2.277,1.515,3.321,1.515
			c1.914,0,3.32-1.887,3.32-4.191c0-3.71-2.195-5.117-3.684-5.117c-0.871,0-1.941,0.508-2.958,1.379V280.856z"/>
		<path fill="#231F20" d="M292.292,282.235l-3.774,1.152v-2.25c-2.114,1.515-3.656,2.25-4.781,2.25
			c-1.406,0-2.985-0.953-2.985-2.867v-6.242c0-0.671-0.172-0.98-0.762-1.152l-0.98-0.281v-0.426l3.629-0.789v7.875
			c0,1.742,1.27,2.531,2.531,2.531c0.953,0,2.195-0.59,3.348-1.551v-6.051c0-1.098-0.136-1.325-1.043-1.488l-1.406-0.254v-0.391
			l4.328-0.671v9.48c0,0.789,0.281,0.925,1.297,0.734l0.589-0.108v0.499H292.292z M282.92,269.325l2.585-3.574
			c0.563-0.762,1.234-1.234,1.796-1.234c0.508,0,0.871,0.335,0.871,0.816c0,0.536-0.563,1.098-1.915,1.996l-2.984,1.996H282.92
			L282.92,269.325z"/>
		<path fill="#231F20" d="M296.955,273.571c1.996-1.434,3.203-1.969,4.246-1.969c2.504,0,4.609,2.477,4.609,5.425
			c0,3.602-2.84,6.36-6.577,6.36c-1.271,0-2.359-0.2-4.165-0.535v-15.25c0-1.46-0.082-1.579-1.152-1.715l-0.79-0.108v-0.481
			l3.375-1.152h0.454V273.571z M296.955,279.622c0,1.406,0.925,2.958,3.066,2.958c2.304,0,3.91-1.941,3.91-4.753
			c0-2.813-1.66-4.926-3.829-4.926c-0.871,0-1.887,0.417-3.148,1.325V279.622z"/>
		<path fill="#231F20" d="M310.989,280.829c0,1.152,0.536,1.687,1.634,1.687h0.48v0.536h-6.332v-0.536
			c1.796,0,2.331-0.535,2.331-1.887v-13.59c0-0.789-0.081-1.043-0.871-1.125l-1.27-0.136v-0.481l3.602-1.152h0.426V280.829z"/>
		<path fill="#231F20" d="M318.075,280.911c0,0.979,0.535,1.605,2.022,1.605v0.536h-6.241v-0.536c1.715,0,2.332-0.563,2.332-2.05
			v-5.652c0-1.098-0.146-1.234-0.871-1.379l-1.325-0.254v-0.454l3.656-1.271h0.418v9.454H318.075z M316.923,265.134
			c0.671,0,1.233,0.481,1.233,1.071c0,0.589-0.563,1.07-1.233,1.07s-1.207-0.481-1.207-1.07
			C315.717,265.615,316.252,265.134,316.923,265.134z"/>
		<path fill="#231F20" d="M331.665,280.466c-1.18,1.887-2.73,2.921-4.98,2.921c-3.375,0-4.727-3.203-4.727-5.425
			c0-3.52,2.894-6.359,6.469-6.359c1.769,0,3.147,0.708,3.147,1.605c0,0.481-0.362,0.844-0.816,0.844
			c-1.379,0-1.715-1.714-3.293-1.714c-1.941,0-3.629,2.304-3.629,5.008c0,2.812,1.688,4.89,3.965,4.89
			c1.352,0,2.422-0.617,3.429-2.023L331.665,280.466z"/>
		<path fill="#231F20" d="M340.012,271.603c3.429,0,6.051,2.558,6.051,5.906c0,3.321-2.612,5.879-5.96,5.879
			c-3.484,0-6.16-2.531-6.16-5.824C333.942,273.689,337.09,271.603,340.012,271.603z M340.411,282.716c1.66,0,3.547-1.688,3.547-4.5
			c0-3.202-1.969-5.933-4.337-5.933c-1.859,0-3.574,1.915-3.574,4.328C336.047,280.012,337.988,282.716,340.411,282.716z"/>
	</g>
</g>
<g>
	<g>
		<polygon fill="#59A3D9" points="194.866,772.967 306,706.386 417.134,772.967 417.134,792 194.866,792 		"/>
	</g>
</g>
<g>
	<g>
		<line fill="none" stroke="#FFFFFF" stroke-miterlimit="10" x1="202.06" y1="792" x2="202.06" y2="790.639"/>
		
			<line fill="none" stroke="#FFFFFF" stroke-miterlimit="10" stroke-dasharray="2.6374,2.6374" x1="202.06" y1="788.244" x2="202.06" y2="779.87"/>
		<polyline fill="none" stroke="#FFFFFF" stroke-miterlimit="10" points="202.06,778.673 202.06,777.313 203.23,776.613 		"/>
		
			<line fill="none" stroke="#FFFFFF" stroke-miterlimit="10" stroke-dasharray="3.0362,3.0362" x1="205.589" y1="775.198" x2="303.65" y2="716.447"/>
		<polyline fill="none" stroke="#FFFFFF" stroke-miterlimit="10" points="304.83,715.739 306,715.041 307.17,715.739 		"/>
		
			<line fill="none" stroke="#FFFFFF" stroke-miterlimit="10" stroke-dasharray="3.0362,3.0362" x1="309.529" y1="717.154" x2="407.59" y2="775.906"/>
		<polyline fill="none" stroke="#FFFFFF" stroke-miterlimit="10" points="408.77,776.613 409.939,777.313 409.939,778.673 		"/>
		
			<line fill="none" stroke="#FFFFFF" stroke-miterlimit="10" stroke-dasharray="2.6374,2.6374" x1="409.939" y1="781.068" x2="409.939" y2="789.441"/>
		<line fill="none" stroke="#FFFFFF" stroke-miterlimit="10" x1="409.939" y1="790.639" x2="409.939" y2="792"/>
	</g>
</g>
</svg>
