<?xml version="1.0" encoding="utf-8"?>
<!-- Generator: Adobe Illustrator 23.0.0, SVG Export Plug-In . SVG Version: 6.00 Build 0)  -->
<svg version="1.1" id="Layer_11" xmlns="http://www.w3.org/2000/svg" xmlns:xlink="http://www.w3.org/1999/xlink" x="0px" y="0px"
	 viewBox="0 0 245 439" style="enable-background:new 0 0 245 439;" xml:space="preserve">
<style type="text/css">
	.st0{fill:#E2E2E4;}
	.st1{fill:none;stroke:#909295;stroke-miterlimit:10;}
	.st2{fill:none;stroke:#909295;stroke-miterlimit:10;stroke-dasharray:3.0068,3.0068;}
	.st3{fill:none;stroke:#909295;stroke-miterlimit:10;stroke-dasharray:3.0362,3.0362;}
	.st4{fill:#3BD9A3;}
	.st5{fill:none;stroke:#FFFFFF;stroke-miterlimit:10;}
	.st6{fill:none;stroke:#FFFFFF;stroke-miterlimit:10;stroke-dasharray:2.6374,2.6374;}
	.st7{fill:none;stroke:#FFFFFF;stroke-miterlimit:10;stroke-dasharray:3.0362,3.0362;}
	.st8{fill:#231F20;}
	.st9{fill:#858789;}
	.st10{fill:#9FA2A4;}
	.st11{fill:#CFD1D3;}
</style>
<g>
	<polygon class="st0" points="0,73.39 122.5,0 245,73.39 245,439 0,439 	"/>
	<g>
		<g>
			<line class="st1" x1="7.93" y1="439" x2="7.93" y2="437.5"/>
			<line class="st2" x1="7.93" y1="434.49" x2="7.93" y2="81.19"/>
			<polyline class="st1" points="7.93,79.68 7.93,78.18 9.22,77.41 			"/>
			<line class="st3" x1="11.82" y1="75.85" x2="119.91" y2="11.1"/>
			<polyline class="st1" points="121.21,10.32 122.5,9.54 123.79,10.32 			"/>
			<line class="st3" x1="126.39" y1="11.88" x2="234.48" y2="76.63"/>
			<polyline class="st1" points="235.78,77.41 237.07,78.18 237.07,79.68 			"/>
			<line class="st2" x1="237.07" y1="82.69" x2="237.07" y2="436"/>
			<line class="st1" x1="237.07" y1="437.5" x2="237.07" y2="439"/>
		</g>
	</g>
</g>
<g>
	<g>
		<polygon class="st4" points="0.16,418.02 122.66,344.63 245.16,418.02 245.16,439 0.16,439 		"/>
	</g>
</g>
<g>
	<g>
		<line class="st5" x1="8.34" y1="439" x2="8.34" y2="437.5"/>
		<line class="st6" x1="8.34" y1="434.86" x2="8.34" y2="425.63"/>
		<polyline class="st5" points="8.34,424.31 8.34,422.81 9.62,422.04 		"/>
		<line class="st7" x1="12.23" y1="420.48" x2="120.32" y2="355.72"/>
		<polyline class="st5" points="121.62,354.94 122.91,354.17 124.19,354.94 		"/>
		<line class="st7" x1="126.8" y1="356.5" x2="234.89" y2="421.26"/>
		<polyline class="st5" points="236.19,422.04 237.48,422.81 237.48,424.31 		"/>
		<line class="st6" x1="237.48" y1="426.95" x2="237.48" y2="436.18"/>
		<line class="st5" x1="237.48" y1="437.5" x2="237.48" y2="439"/>
	</g>
</g>
<g>
	<g>
		<path class="st8" d="M62.58,200.4h-7.53v-0.59c1.92-0.09,2.33-0.59,2.33-2.67v-13.21c0-1.67-0.59-2.14-2.33-2.23v-0.59h7.53v0.59
			c-1.95,0-2.64,0.43-2.64,2.51v13.15c0,1.83,0.5,2.45,2.64,2.45V200.4z"/>
		<path class="st8" d="M68.93,197.7c0,1.71,0.4,2.11,2.08,2.11v0.59h-6.23v-0.59c1.36,0,2.08-0.74,2.08-1.95v-6.51
			c0-1.15-0.12-1.36-0.93-1.52l-1.05-0.22v-0.5l3.57-1.3h0.5v2.42c2.08-1.3,3.81-2.45,5.33-2.45c2.11,0,3.32,1.55,3.32,4.65
			c0,4.12-0.22,4.93-0.25,6.14c-0.03,0.84,0.46,1.24,1.74,1.24h0.68v0.59H73.1v-0.59c0.9-0.03,1.43-0.25,1.77-0.59
			c0.59-0.59,0.65-2.85,0.65-6.98c0-2.48-1.21-3.26-2.45-3.26c-0.99,0-2.51,0.87-4.12,1.98v6.74H68.93z"/>
		<path class="st8" d="M81.61,197.27c0.37,1.86,1.55,2.91,2.95,2.91c1.24,0,2.2-0.93,2.2-2.05c0-0.65-0.15-1.05-0.99-1.89
			c-2.2-2.2-4.65-2.42-4.65-4.99c0-2.05,1.61-3.47,3.97-3.47c0.84,0,1.71,0.19,2.48,0.5l0.06,2.82H87.1
			c-0.22-1.58-1.24-2.57-2.48-2.57c-1.02,0-1.89,0.71-1.89,1.74c0,2.73,5.77,3.19,5.77,6.98c0,2.02-1.67,3.53-3.84,3.53
			c-0.59,0-1.02-0.09-1.36-0.22c-0.34-0.09-0.59-0.19-0.84-0.19c-0.19,0-0.37,0.12-0.53,0.37h-0.47l-0.34-3.47L81.61,197.27
			L81.61,197.27z"/>
		<path class="st8" d="M94.14,205.02c0,1.55,0.78,2.02,2.08,2.02H97v0.59h-7.32v-0.59h0.31c1.58,0,2.08-0.53,2.08-2.29v-13.67
			c0-0.59-0.12-0.84-0.87-1.02l-0.99-0.25v-0.59l3.32-2.05h0.62v2.98c1.92-1.46,3.57-2.26,4.81-2.26c2.42,0,4.59,2.73,4.59,5.77
			c0,3.75-3.04,6.98-6.57,6.98c-0.84,0-1.64-0.19-2.82-0.62v5H94.14z M94.14,197.98c1.12,0.99,2.51,1.67,3.66,1.67
			c2.11,0,3.66-2.08,3.66-4.62c0-4.09-2.42-5.64-4.06-5.64c-0.96,0-2.14,0.56-3.26,1.52C94.14,190.91,94.14,197.98,94.14,197.98z"/>
		<path class="st8" d="M108.52,192.52c-0.06,0.47-0.12,0.9-0.12,1.3c0,3.22,2.26,5.4,4.71,5.4c1.55,0,2.76-0.62,3.94-2.02l0.34,0.37
			c-1.3,1.64-3.26,3.19-5.52,3.19c-3.04,0-5.4-2.76-5.4-6.36c0-3.29,2.2-6.64,5.98-6.64c4.19,0,4.09,3.01,5.12,4.03v0.71h-9.05
			V192.52z M114.97,191.72c-0.34-2.02-1.58-3.35-3.07-3.35c-1.02,0-2.57,0.47-3.29,3.35H114.97z"/>
		<path class="st8" d="M130.69,197.55c-1.3,2.08-3.01,3.22-5.49,3.22c-3.72,0-5.21-3.53-5.21-5.98c0-3.88,3.19-7.01,7.13-7.01
			c1.95,0,3.47,0.78,3.47,1.77c0,0.53-0.4,0.93-0.9,0.93c-1.52,0-1.89-1.89-3.63-1.89c-2.14,0-4,2.54-4,5.52
			c0,3.1,1.86,5.4,4.37,5.4c1.49,0,2.67-0.68,3.78-2.23L130.69,197.55z"/>
		<path class="st8" d="M143.92,197.55c-1.3,2.08-3.01,3.22-5.49,3.22c-3.72,0-5.21-3.53-5.21-5.98c0-3.88,3.19-7.01,7.13-7.01
			c1.95,0,3.47,0.78,3.47,1.77c0,0.53-0.4,0.93-0.9,0.93c-1.52,0-1.89-1.89-3.63-1.89c-2.14,0-4,2.54-4,5.52
			c0,3.1,1.86,5.4,4.37,5.4c1.49,0,2.67-0.68,3.78-2.23L143.92,197.55z"/>
		<path class="st8" d="M150.25,198.04c0,1.09,0.59,1.77,2.23,1.77v0.59h-6.88v-0.59c1.89,0,2.57-0.62,2.57-2.26v-6.23
			c0-1.21-0.15-1.36-0.96-1.52l-1.46-0.28v-0.5l4.03-1.4h0.47L150.25,198.04L150.25,198.04z M148.97,180.65
			c0.74,0,1.36,0.53,1.36,1.18s-0.62,1.18-1.36,1.18s-1.33-0.53-1.33-1.18S148.23,180.65,148.97,180.65z"/>
		<path class="st8" d="M161.19,187.78c3.78,0,6.67,2.82,6.67,6.51c0,3.66-2.88,6.48-6.57,6.48c-3.84,0-6.79-2.79-6.79-6.42
			C154.49,190.08,157.96,187.78,161.19,187.78z M161.62,200.03c1.83,0,3.91-1.86,3.91-4.96c0-3.53-2.17-6.54-4.77-6.54
			c-2.05,0-3.94,2.11-3.94,4.77C156.82,197.05,158.96,200.03,161.62,200.03z M158.18,185.27l2.85-3.94
			c0.62-0.84,1.36-1.36,1.98-1.36c0.56,0,0.96,0.37,0.96,0.9c0,0.59-0.62,1.21-2.11,2.2l-3.29,2.2L158.18,185.27L158.18,185.27z"/>
		<path class="st8" d="M174.21,197.7c0,1.71,0.4,2.11,2.08,2.11v0.59h-6.23v-0.59c1.36,0,2.08-0.74,2.08-1.95v-6.51
			c0-1.15-0.12-1.36-0.93-1.52l-1.05-0.22v-0.5l3.57-1.3h0.5v2.42c2.08-1.3,3.81-2.45,5.33-2.45c2.11,0,3.32,1.55,3.32,4.65
			c0,4.12-0.22,4.93-0.25,6.14c-0.03,0.84,0.47,1.24,1.74,1.24h0.68v0.59h-6.67v-0.59c0.9-0.03,1.43-0.25,1.77-0.59
			c0.59-0.59,0.65-2.85,0.65-6.98c0-2.48-1.21-3.26-2.45-3.26c-0.99,0-2.51,0.87-4.12,1.98v6.74H174.21z"/>
		<path class="st8" d="M187.69,204.43c1.55-0.9,2.39-1.98,2.39-3.1c0-0.37-0.12-0.65-0.43-0.65c-0.12,0-0.25,0.03-0.34,0.03
			c-0.12,0.03-0.22,0.06-0.4,0.06c-0.81,0-1.4-0.59-1.4-1.4c0-0.84,0.74-1.52,1.67-1.52c1.24,0,2.17,1.09,2.17,2.57
			c0,1.92-1.4,3.78-3.44,4.56L187.69,204.43z"/>
		<path class="st8" d="M71.1,237.88l-4.5-10.29c-0.47-1.09-0.87-1.46-1.36-1.55l-0.96-0.16v-0.56h6.33v0.56
			c-1.89,0.06-2.48,0.31-1.74,1.77l3.29,7.72l3.16-7.16c0.56-1.27,0.28-2.17-1.98-2.33v-0.56h5.4v0.56
			c-1.18,0.22-1.86,0.9-2.45,2.26L72,237.88H71.1z"/>
		<path class="st8" d="M84.12,235.24c0,1.09,0.59,1.77,2.23,1.77v0.59h-6.88v-0.59c1.89,0,2.57-0.62,2.57-2.26v-6.23
			c0-1.21-0.16-1.36-0.96-1.52l-1.46-0.28v-0.5l4.03-1.4h0.46L84.12,235.24L84.12,235.24z M82.85,217.85c0.74,0,1.36,0.53,1.36,1.18
			s-0.62,1.18-1.36,1.18s-1.33-0.53-1.33-1.18S82.11,217.85,82.85,217.85z"/>
		<path class="st8" d="M101.61,227.86c-0.47-0.03-1.92-0.16-3.1-0.37c0.19,0.34,0.53,0.99,0.53,1.98c0,2.29-1.98,4.5-5.43,4.5
			c-0.59,0-0.87-0.06-1.43-0.25c-0.5,0.53-1.89,0.87-1.89,1.58c0,0.78,1.33,1.09,4.43,1.12c3.5,0.03,4.71,0.19,5.64,1.12
			c0.74,0.74,0.93,1.52,0.93,2.17c0,2.02-2.73,5.12-8.46,5.12c-3.22,0-4.77-1.43-4.77-2.95c0-1.8,1.89-2.08,3.32-3.81
			c-1.67-0.16-2.95-1.21-2.95-2.2c0-1.43,2.08-1.49,3.16-2.29c-1.89-0.74-2.98-2.08-2.98-3.84c0-2.67,2.39-4.74,5.46-4.74
			c1.43,0,2.64,0.43,3.47,1.24c1.4,0,2.7-0.16,4.06-0.31L101.61,227.86L101.61,227.86z M94.57,243.96c2.64,0,5.12-1.74,5.12-3.69
			c0-1.15-0.96-1.74-2.08-1.83c-0.81-0.09-4.71-0.12-5.61-0.25c-0.87,1.02-2.02,1.46-2.02,2.67
			C89.98,242.31,92.03,243.96,94.57,243.96z M93.7,225.57c-1.18,0-3.01,0.65-3.01,3.53c0,1.83,0.93,4.28,3.29,4.28
			c1.8,0,2.98-1.49,2.98-3.63C96.96,227.09,95.59,225.57,93.7,225.57z"/>
		<path class="st8" d="M107.65,235.24c0,1.09,0.59,1.77,2.23,1.77v0.59H103v-0.59c1.89,0,2.57-0.62,2.57-2.26v-6.23
			c0-1.21-0.15-1.36-0.96-1.52l-1.46-0.28v-0.5l4.03-1.4h0.47V235.24z M106.38,217.85c0.74,0,1.36,0.53,1.36,1.18
			s-0.62,1.18-1.36,1.18s-1.33-0.53-1.33-1.18S105.64,217.85,106.38,217.85z"/>
		<path class="st8" d="M115.34,235.15c0,1.27,0.59,1.86,1.8,1.86h0.53v0.59h-6.98v-0.59c1.98,0,2.57-0.59,2.57-2.08v-14.98
			c0-0.87-0.09-1.15-0.96-1.24l-1.4-0.16v-0.53l3.97-1.27h0.47V235.15z"/>
		<path class="st8" d="M119.34,229.01c-0.06-0.19-0.09-0.28-0.09-0.43c0-1.09,2.57-3.6,4.59-3.6c0.93,0,2.39,0.43,3.26,1.64
			c0.47,0.65,0.47,1.05,0.47,2.67v4.15c0,2.48,0,3.04,0.81,3.04c0.34,0,0.74-0.03,1.52-0.68l0.15,0.47
			c-1.67,1.36-2.54,1.71-3.07,1.71c-1.27,0-1.4-1.4-1.43-1.89c-2.14,1.77-2.76,1.89-3.6,1.89c-1.8,0-2.88-1.02-2.88-2.54
			c0-1.89,1.67-2.54,3.66-3.04c0.65-0.16,1.67-0.53,2.76-1.18v-2.45c0-0.87,0-1.36-0.53-1.98c-0.4-0.5-1.05-0.9-1.74-0.9
			c-1.02,0-1.92,0.87-1.92,1.52c0,0.19,0.03,0.31,0.16,0.59L119.34,229.01z M125.48,231.83c-0.59,0.34-1.08,0.56-1.83,0.87
			c-1.89,0.78-2.6,1.09-2.6,2.36c0,1.12,0.9,1.83,1.83,1.83c0.5,0,0.87-0.16,2.6-1.36V231.83z"/>
		<path class="st8" d="M135.18,234.9c0,1.71,0.4,2.11,2.08,2.11v0.59h-6.23v-0.59c1.36,0,2.08-0.74,2.08-1.95v-6.51
			c0-1.15-0.12-1.36-0.93-1.52l-1.05-0.22v-0.5l3.57-1.3h0.5v2.42c2.08-1.3,3.81-2.45,5.33-2.45c2.11,0,3.32,1.55,3.32,4.65
			c0,4.12-0.22,4.93-0.25,6.14c-0.03,0.84,0.46,1.24,1.74,1.24H146v0.59h-6.67v-0.59c0.9-0.03,1.43-0.25,1.77-0.59
			c0.59-0.59,0.65-2.85,0.65-6.98c0-2.48-1.21-3.26-2.45-3.26c-0.99,0-2.51,0.87-4.12,1.98L135.18,234.9L135.18,234.9z"/>
		<path class="st8" d="M158.49,234.75c-1.3,2.08-3.01,3.22-5.49,3.22c-3.72,0-5.21-3.53-5.21-5.98c0-3.88,3.19-7.01,7.13-7.01
			c1.95,0,3.47,0.78,3.47,1.77c0,0.53-0.4,0.93-0.9,0.93c-1.52,0-1.89-1.89-3.63-1.89c-2.14,0-4,2.54-4,5.52
			c0,3.1,1.86,5.4,4.37,5.4c1.49,0,2.67-0.68,3.78-2.23L158.49,234.75z"/>
		<path class="st8" d="M164.82,235.24c0,1.09,0.59,1.77,2.23,1.77v0.59h-6.88v-0.59c1.89,0,2.57-0.62,2.57-2.26v-6.23
			c0-1.21-0.16-1.36-0.96-1.52l-1.46-0.28v-0.5l4.03-1.4h0.46v10.42H164.82z M163.54,217.85c0.74,0,1.36,0.53,1.36,1.18
			s-0.62,1.18-1.36,1.18s-1.33-0.53-1.33-1.18S162.8,217.85,163.54,217.85z"/>
		<path class="st8" d="M169.06,229.01c-0.06-0.19-0.09-0.28-0.09-0.43c0-1.09,2.57-3.6,4.59-3.6c0.93,0,2.39,0.43,3.26,1.64
			c0.46,0.65,0.46,1.05,0.46,2.67v4.15c0,2.48,0,3.04,0.81,3.04c0.34,0,0.74-0.03,1.52-0.68l0.16,0.47
			c-1.67,1.36-2.54,1.71-3.07,1.71c-1.27,0-1.4-1.4-1.43-1.89c-2.14,1.77-2.76,1.89-3.6,1.89c-1.8,0-2.88-1.02-2.88-2.54
			c0-1.89,1.67-2.54,3.66-3.04c0.65-0.16,1.67-0.53,2.76-1.18v-2.45c0-0.87,0-1.36-0.53-1.98c-0.4-0.5-1.05-0.9-1.74-0.9
			c-1.02,0-1.92,0.87-1.92,1.52c0,0.19,0.03,0.31,0.15,0.59L169.06,229.01z M175.2,231.83c-0.59,0.34-1.09,0.56-1.83,0.87
			c-1.89,0.78-2.6,1.09-2.6,2.36c0,1.12,0.9,1.83,1.83,1.83c0.5,0,0.87-0.16,2.6-1.36V231.83z"/>
		<path class="st8" d="M77.37,265.96c0.93-2.36,0.34-2.82-1.49-2.88v-0.56h5.15v0.56c-1.27,0.16-1.98,1.02-2.57,2.48l-5.27,13.15
			c-0.93,2.29-1.64,3.32-2.73,3.32c-0.74,0-1.27-0.47-1.27-1.09c0-1.27,1.8-0.96,2.57-1.74c0.34-0.34,0.81-1.15,1.05-1.77l0.93-2.33
			l-4.81-10.2c-0.59-1.27-1.15-1.8-2.45-1.83v-0.56h6.23v0.56c-1.89,0.03-2.11,0.59-1.49,1.89l3.5,7.57L77.37,265.96z"/>
		<path class="st8" d="M101.92,271.95c-1.3,2.08-3.01,3.22-5.49,3.22c-3.72,0-5.21-3.53-5.21-5.98c0-3.88,3.19-7.01,7.13-7.01
			c1.95,0,3.47,0.78,3.47,1.77c0,0.53-0.4,0.93-0.9,0.93c-1.52,0-1.89-1.89-3.63-1.89c-2.14,0-4,2.54-4,5.52
			c0,3.1,1.86,5.4,4.37,5.4c1.49,0,2.67-0.68,3.78-2.23L101.92,271.95z"/>
		<path class="st8" d="M111.13,262.18c3.78,0,6.67,2.82,6.67,6.51c0,3.66-2.88,6.48-6.57,6.48c-3.84,0-6.79-2.79-6.79-6.42
			C104.43,264.48,107.9,262.18,111.13,262.18z M111.56,274.43c1.83,0,3.91-1.86,3.91-4.96c0-3.53-2.17-6.54-4.77-6.54
			c-2.05,0-3.94,2.11-3.94,4.77C106.75,271.45,108.89,274.43,111.56,274.43z"/>
		<path class="st8" d="M124.14,272.1c0,1.71,0.4,2.11,2.08,2.11v0.59h-6.23v-0.59c1.36,0,2.08-0.74,2.08-1.95v-6.51
			c0-1.15-0.12-1.36-0.93-1.52l-1.05-0.22v-0.5l3.57-1.3h0.5v2.42c2.08-1.3,3.81-2.45,5.33-2.45c2.11,0,3.32,1.55,3.32,4.65
			c0,4.12-0.22,4.93-0.25,6.14c-0.03,0.84,0.47,1.24,1.74,1.24h0.68v0.59h-6.67v-0.59c0.9-0.03,1.43-0.25,1.77-0.59
			c0.59-0.59,0.65-2.85,0.65-6.98c0-2.48-1.21-3.26-2.45-3.26c-0.99,0-2.51,0.87-4.12,1.98v6.74H124.14z"/>
		<path class="st8" d="M144.17,262.52l-0.5,1.36h-3.94v7.22c0,1.95,1.4,2.6,2.05,2.6c0.68,0,1.3-0.53,1.89-1.55l0.5,0.47
			c-0.74,1.61-1.95,2.54-3.38,2.54c-1.83,0-3.13-1.52-3.13-3.6v-7.69h-1.43v-0.5c1.21-0.59,2.26-2.02,2.98-3.94h0.53v3.07h4.43
			V262.52z"/>
		<path class="st8" d="M149.35,272.54c0,1.27,0.47,1.67,2.02,1.67h1.18v0.59h-7.35v-0.59c1.58-0.03,2.08-0.68,2.08-2.33v-7.16
			l-2.08-0.74v-0.53l3.53-1.24h0.62v3.29h0.06c1.55-2.54,1.92-3.13,2.95-3.13c0.37,0,0.47,0.03,1.05,0.28
			c0.31,0.12,0.87,0.25,1.61,0.47l-0.74,1.86c-0.47-0.06-1.05-0.22-1.64-0.5c-0.34-0.16-0.71-0.31-1.08-0.31
			c-0.56,0-0.9,0.37-1.21,0.81c-0.4,0.56-0.74,1.09-0.99,1.55L149.35,272.54L149.35,272.54z"/>
		<path class="st8" d="M161.87,262.18c3.78,0,6.67,2.82,6.67,6.51c0,3.66-2.88,6.48-6.57,6.48c-3.84,0-6.79-2.79-6.79-6.42
			C155.17,264.48,158.65,262.18,161.87,262.18z M162.31,274.43c1.83,0,3.91-1.86,3.91-4.96c0-3.53-2.17-6.54-4.77-6.54
			c-2.05,0-3.94,2.11-3.94,4.77C157.5,271.45,159.64,274.43,162.31,274.43z"/>
		<path class="st8" d="M174.77,272.35c0,1.27,0.59,1.86,1.8,1.86h0.53v0.59h-6.98v-0.59c1.98,0,2.57-0.59,2.57-2.08v-14.98
			c0-0.87-0.09-1.15-0.96-1.24l-1.4-0.16v-0.53l3.97-1.27h0.46L174.77,272.35L174.77,272.35z"/>
	</g>
</g>
<g>
	<g>
		<path class="st9" d="M115.47,79.5c0-3.48-2.82-6.3-6.3-6.3s-6.3,2.82-6.3,6.3c0,0.61,0.09,1.19,0.25,1.74l-1.38,3.67l13.72,3.07
			v-7.91l-0.03-0.01C115.46,79.88,115.47,79.69,115.47,79.5z"/>
		<path class="st10" d="M115.96,89.47c0.03-0.36,0.05-0.73,0.05-1.1c0-6.5-5.27-11.77-11.77-11.77c-3.64,0-6.9,1.66-9.06,4.26l0,0
			l0,0c-0.01,0.01-0.02,0.02-0.02,0.03l-22.23,25.82l42.97,15.98l0.12-33.2L115.96,89.47z"/>
		<path class="st9" d="M109.17,97.34c0,0,6.08,4.48,5.14,13.78l-1.51,4.46h2.34h7.78V97.34H109.17z"/>
		<rect x="116.02" y="94.2" class="st10" width="6.9" height="3.15"/>
		<circle class="st9" cx="92.48" cy="119.62" r="23.43"/>
		<circle class="st10" cx="92.48" cy="119.62" r="17.59"/>
		<circle class="st11" cx="96.3" cy="114.86" r="5.45"/>
	</g>
	<g>
		<path class="st9" d="M129.86,79.5c0-3.48,2.82-6.3,6.3-6.3s6.3,2.82,6.3,6.3c0,0.61-0.09,1.19-0.25,1.74l1.38,3.67l-13.72,3.07
			v-7.91l0.03-0.01C129.87,79.88,129.86,79.69,129.86,79.5z"/>
		<path class="st10" d="M129.36,89.47c-0.03-0.36-0.05-0.73-0.05-1.1c0-6.5,5.27-11.77,11.77-11.77c3.64,0,6.9,1.66,9.06,4.26l0,0
			l0,0c0.01,0.01,0.02,0.02,0.02,0.03l22.23,25.82l-42.97,15.98l-0.12-33.2L129.36,89.47z"/>
		<path class="st9" d="M136.15,97.34c0,0-6.08,4.48-5.14,13.78l1.51,4.46h-2.34h-7.78V97.34H136.15z"/>
		<rect x="122.4" y="94.2" class="st10" width="6.9" height="3.15"/>
		<circle class="st9" cx="152.85" cy="119.62" r="23.43"/>
		<circle class="st10" cx="152.85" cy="119.62" r="17.59"/>
		<circle class="st11" cx="149.03" cy="114.86" r="5.45"/>
	</g>
</g>
</svg>
