<?xml version="1.0" encoding="utf-8"?>
<!-- Generator: Adobe Illustrator 23.0.0, SVG Export Plug-In . SVG Version: 6.00 Build 0)  -->
<svg version="1.1" id="Layer_11" xmlns="http://www.w3.org/2000/svg" xmlns:xlink="http://www.w3.org/1999/xlink" x="0px" y="0px"
	 viewBox="0 0 245 240" style="enable-background:new 0 0 245 240;" xml:space="preserve">
<style type="text/css">
	.st0{fill:#6AE3E9;}
	.st1{fill:none;stroke:#FFFFFF;stroke-miterlimit:10;}
	.st2{fill:none;stroke:#FFFFFF;stroke-miterlimit:10;stroke-dasharray:2.9965,2.9965;}
	.st3{fill:none;stroke:#FFFFFF;stroke-miterlimit:10;stroke-dasharray:3.0362,3.0362;}
	.st4{enable-background:new    ;}
	.st5{fill:#FFFFFF;}
</style>
<g>
	<g>
		<polygon class="st0" points="0.16,73.39 122.66,0 245.16,73.39 245.16,240 0.16,240 		"/>
	</g>
</g>
<g>
	<g>
		<line class="st1" x1="8.34" y1="240" x2="8.34" y2="238.5"/>
		<line class="st2" x1="8.34" y1="235.5" x2="8.34" y2="81.18"/>
		<polyline class="st1" points="8.34,79.68 8.34,78.18 9.62,77.41 		"/>
		<line class="st3" x1="12.23" y1="75.85" x2="120.32" y2="11.1"/>
		<polyline class="st1" points="121.62,10.32 122.91,9.54 124.19,10.32 		"/>
		<line class="st3" x1="126.8" y1="11.88" x2="234.89" y2="76.63"/>
		<polyline class="st1" points="236.19,77.41 237.48,78.18 237.48,79.68 		"/>
		<line class="st2" x1="237.48" y1="82.68" x2="237.48" y2="237"/>
		<line class="st1" x1="237.48" y1="238.5" x2="237.48" y2="240"/>
	</g>
</g>
<g>
	<g class="st4">
		<path class="st5" d="M74.55,141.46h-0.53c-0.06-1.8-0.71-2.36-2.2-2.36h-5.74v6.79c0,1.74,0.37,2.39,2.7,2.39v0.59h-7.53v-0.59
			c1.92-0.12,2.26-0.53,2.26-3.04v-12.15c0-1.98-0.15-2.88-2.33-2.91v-0.59h13.89v3.66h-0.53c-0.03-1.8-0.65-2.54-2.57-2.54h-5.89
			v7.29h6.14c1.15,0,1.71-0.65,1.8-1.98h0.53V141.46z"/>
		<path class="st5" d="M91.72,147.97l-4.16,1.27v-2.48c-2.33,1.67-4.03,2.48-5.27,2.48c-1.55,0-3.29-1.05-3.29-3.16v-6.88
			c0-0.74-0.19-1.08-0.84-1.27l-1.08-0.31v-0.47l4-0.87v8.68c0,1.92,1.4,2.79,2.79,2.79c1.05,0,2.42-0.65,3.69-1.71v-6.67
			c0-1.21-0.15-1.46-1.15-1.64l-1.55-0.28v-0.43l4.77-0.74v10.45c0,0.87,0.31,1.02,1.43,0.81l0.65-0.12V147.97z"/>
		<path class="st5" d="M97.42,146.17c0,1.71,0.4,2.11,2.08,2.11v0.59h-6.23v-0.59c1.36,0,2.08-0.74,2.08-1.95v-6.51
			c0-1.15-0.12-1.36-0.93-1.52l-1.05-0.22v-0.5l3.57-1.3h0.5v2.42c2.08-1.3,3.81-2.45,5.33-2.45c2.11,0,3.32,1.55,3.32,4.65
			c0,4.12-0.22,4.93-0.25,6.14c-0.03,0.84,0.46,1.24,1.74,1.24h0.68v0.59h-6.67v-0.59c0.9-0.03,1.43-0.25,1.77-0.59
			c0.59-0.59,0.65-2.85,0.65-6.98c0-2.48-1.21-3.26-2.45-3.26c-0.99,0-2.51,0.87-4.12,1.98V146.17z"/>
		<path class="st5" d="M120.74,146.02c-1.3,2.08-3.01,3.22-5.49,3.22c-3.72,0-5.21-3.53-5.21-5.98c0-3.88,3.19-7.01,7.13-7.01
			c1.95,0,3.47,0.78,3.47,1.77c0,0.53-0.4,0.93-0.9,0.93c-1.52,0-1.89-1.89-3.63-1.89c-2.14,0-4,2.54-4,5.52
			c0,3.1,1.86,5.39,4.37,5.39c1.49,0,2.67-0.68,3.78-2.23L120.74,146.02z"/>
		<path class="st5" d="M127.06,146.51c0,1.08,0.59,1.77,2.23,1.77v0.59h-6.88v-0.59c1.89,0,2.57-0.62,2.57-2.26v-6.23
			c0-1.21-0.16-1.36-0.96-1.52l-1.46-0.28v-0.5l4.03-1.4h0.46V146.51z M125.79,129.12c0.74,0,1.36,0.53,1.36,1.18
			c0,0.65-0.62,1.18-1.36,1.18s-1.33-0.53-1.33-1.18C124.45,129.65,125.04,129.12,125.79,129.12z"/>
		<path class="st5" d="M138,136.25c3.78,0,6.67,2.82,6.67,6.51c0,3.66-2.88,6.48-6.57,6.48c-3.84,0-6.79-2.79-6.79-6.42
			C131.3,138.55,134.78,136.25,138,136.25z M138.44,148.5c1.83,0,3.91-1.86,3.91-4.96c0-3.53-2.17-6.54-4.77-6.54
			c-2.05,0-3.94,2.11-3.94,4.77C133.63,145.52,135.77,148.5,138.44,148.5z"/>
		<path class="st5" d="M151.02,146.17c0,1.71,0.4,2.11,2.08,2.11v0.59h-6.23v-0.59c1.36,0,2.08-0.74,2.08-1.95v-6.51
			c0-1.15-0.12-1.36-0.93-1.52l-1.05-0.22v-0.5l3.57-1.3h0.5v2.42c2.08-1.3,3.81-2.45,5.33-2.45c2.11,0,3.32,1.55,3.32,4.65
			c0,4.12-0.22,4.93-0.25,6.14c-0.03,0.84,0.47,1.24,1.74,1.24h0.68v0.59h-6.67v-0.59c0.9-0.03,1.43-0.25,1.77-0.59
			c0.59-0.59,0.65-2.85,0.65-6.98c0-2.48-1.21-3.26-2.45-3.26c-0.99,0-2.51,0.87-4.12,1.98V146.17z"/>
		<path class="st5" d="M165.75,141c-0.06,0.46-0.12,0.9-0.12,1.3c0,3.22,2.26,5.4,4.71,5.4c1.55,0,2.76-0.62,3.94-2.02l0.34,0.37
			c-1.3,1.64-3.26,3.19-5.52,3.19c-3.04,0-5.39-2.76-5.39-6.36c0-3.29,2.2-6.63,5.98-6.63c4.19,0,4.09,3.01,5.12,4.03V141H165.75z
			 M172.19,140.19c-0.34-2.02-1.58-3.35-3.07-3.35c-1.02,0-2.57,0.46-3.29,3.35H172.19z"/>
		<path class="st5" d="M177.28,145.74c0.37,1.86,1.55,2.92,2.95,2.92c1.24,0,2.2-0.93,2.2-2.05c0-0.65-0.16-1.05-0.99-1.89
			c-2.2-2.2-4.65-2.42-4.65-4.99c0-2.05,1.61-3.47,3.97-3.47c0.84,0,1.71,0.19,2.48,0.5l0.06,2.82h-0.53
			c-0.22-1.58-1.24-2.57-2.48-2.57c-1.02,0-1.89,0.71-1.89,1.74c0,2.73,5.77,3.19,5.77,6.98c0,2.01-1.67,3.53-3.84,3.53
			c-0.59,0-1.02-0.09-1.36-0.22c-0.34-0.09-0.59-0.19-0.84-0.19c-0.19,0-0.37,0.12-0.53,0.37h-0.47l-0.34-3.47H177.28z"/>
	</g>
</g>
<g>
	<rect x="84.66" y="94.21" class="st5" width="75.72" height="3.06"/>
	<rect x="84.66" y="64.18" class="st5" width="75.72" height="3.06"/>
	<g>
		<rect x="106.99" y="65.71" class="st5" width="3.79" height="30.64"/>
		<rect x="116.08" y="65.71" class="st5" width="3.79" height="30.64"/>
		<rect x="125.16" y="65.71" class="st5" width="3.79" height="30.64"/>
		<rect x="134.25" y="65.71" class="st5" width="3.79" height="30.64"/>
	</g>
	<rect x="84.66" y="67.24" class="st5" width="17.21" height="27.68"/>
	<rect x="143.18" y="67.24" class="st5" width="17.21" height="27.68"/>
	<rect x="80.95" y="99.29" class="st5" width="83.1" height="3.12"/>
	<rect x="76.24" y="104.36" class="st5" width="92.53" height="3.12"/>
	<rect x="80.95" y="58.78" class="st5" width="83.1" height="3.12"/>
	<rect x="105.94" y="67.24" class="st5" width="5.87" height="1.56"/>
	<rect x="105.94" y="92.65" class="st5" width="5.87" height="1.56"/>
	<rect x="115.04" y="67.24" class="st5" width="5.87" height="1.56"/>
	<rect x="115.04" y="92.65" class="st5" width="5.87" height="1.56"/>
	<rect x="124.15" y="67.24" class="st5" width="5.87" height="1.56"/>
	<rect x="124.15" y="92.65" class="st5" width="5.87" height="1.56"/>
	<rect x="133.26" y="67.24" class="st5" width="5.87" height="1.56"/>
	<rect x="133.26" y="92.65" class="st5" width="5.87" height="1.56"/>
</g>
</svg>
