<?xml version="1.0" encoding="utf-8"?>
<!-- Generator: Adobe Illustrator 23.0.0, SVG Export Plug-In . SVG Version: 6.00 Build 0)  -->
<svg version="1.1" id="Layer_11" xmlns="http://www.w3.org/2000/svg" xmlns:xlink="http://www.w3.org/1999/xlink" x="0px" y="0px"
	 viewBox="0 0 245 240" style="enable-background:new 0 0 245 240;" xml:space="preserve">
<style type="text/css">
	.st0{fill:#168C77;}
	.st1{fill:none;stroke:#FFFFFF;stroke-miterlimit:10;}
	.st2{fill:none;stroke:#FFFFFF;stroke-miterlimit:10;stroke-dasharray:2.9965,2.9965;}
	.st3{fill:none;stroke:#FFFFFF;stroke-miterlimit:10;stroke-dasharray:3.0362,3.0362;}
	.st4{enable-background:new    ;}
	.st5{fill:#FFFFFF;}
</style>
<g>
	<g>
		<polygon class="st0" points="0.16,73.39 122.66,0 245.16,73.39 245.16,240 0.16,240 		"/>
	</g>
</g>
<g>
	<g>
		<line class="st1" x1="8.34" y1="240" x2="8.34" y2="238.5"/>
		<line class="st2" x1="8.34" y1="235.5" x2="8.34" y2="81.18"/>
		<polyline class="st1" points="8.34,79.68 8.34,78.18 9.62,77.41 		"/>
		<line class="st3" x1="12.23" y1="75.85" x2="120.32" y2="11.1"/>
		<polyline class="st1" points="121.62,10.32 122.91,9.54 124.19,10.32 		"/>
		<line class="st3" x1="126.8" y1="11.88" x2="234.89" y2="76.63"/>
		<polyline class="st1" points="236.19,77.41 237.48,78.18 237.48,79.68 		"/>
		<line class="st2" x1="237.48" y1="82.68" x2="237.48" y2="237"/>
		<line class="st1" x1="237.48" y1="238.5" x2="237.48" y2="240"/>
	</g>
</g>
<g>
	<g class="st4">
		<path class="st5" d="M83.1,147.41c-3.07,1.58-7.01,1.95-8.31,1.95c-6.79,0-9.95-5.24-9.95-9.77c0-4.65,3.26-10.48,10.82-10.48
			c3.32,0,5.52,1.05,6.17,1.05c0.28,0,0.53-0.06,0.71-0.22h0.43v5.02h-0.62c-0.84-3.88-3.47-5.08-6.36-5.08
			c-5.46,0-8.25,4.53-8.25,9.52c0,6.36,4.46,9.18,8.03,9.18c1.43,0,3.01-0.31,4.74-1.18v-3.91c0-1.77-0.62-2.36-2.48-2.36H76.9
			v-0.56h8.37v0.56c-1.55,0.09-2.17,0.62-2.17,1.95V147.41z"/>
		<path class="st5" d="M94.11,136.25c3.78,0,6.67,2.82,6.67,6.51c0,3.66-2.88,6.48-6.57,6.48c-3.84,0-6.79-2.79-6.79-6.42
			C87.41,138.55,90.88,136.25,94.11,136.25z M94.54,148.5c1.83,0,3.91-1.86,3.91-4.96c0-3.53-2.17-6.54-4.78-6.54
			c-2.05,0-3.94,2.11-3.94,4.77C89.73,145.52,91.87,148.5,94.54,148.5z"/>
		<path class="st5" d="M106.57,138.42c2.2-1.58,3.53-2.17,4.68-2.17c2.76,0,5.08,2.73,5.08,5.98c0,3.97-3.13,7.01-7.26,7.01
			c-1.4,0-2.6-0.22-4.59-0.59v-16.81c0-1.61-0.09-1.74-1.27-1.89l-0.87-0.12v-0.53l3.72-1.27h0.5V138.42z M106.57,145.09
			c0,1.55,1.02,3.26,3.38,3.26c2.54,0,4.31-2.14,4.31-5.24c0-3.1-1.83-5.43-4.22-5.43c-0.96,0-2.08,0.46-3.47,1.46V145.09z"/>
		<path class="st5" d="M122.87,146.51c0,1.08,0.59,1.77,2.23,1.77v0.59h-6.88v-0.59c1.89,0,2.57-0.62,2.57-2.26v-6.23
			c0-1.21-0.16-1.36-0.96-1.52l-1.46-0.28v-0.5l4.03-1.4h0.46V146.51z M121.6,129.12c0.74,0,1.36,0.53,1.36,1.18
			c0,0.65-0.62,1.18-1.36,1.18s-1.33-0.53-1.33-1.18C120.27,129.65,120.86,129.12,121.6,129.12z"/>
		<path class="st5" d="M129.26,141c-0.06,0.46-0.12,0.9-0.12,1.3c0,3.22,2.26,5.4,4.71,5.4c1.55,0,2.76-0.62,3.94-2.02l0.34,0.37
			c-1.3,1.64-3.26,3.19-5.52,3.19c-3.04,0-5.4-2.76-5.4-6.36c0-3.29,2.2-6.63,5.98-6.63c4.19,0,4.09,3.01,5.12,4.03V141H129.26z
			 M135.71,140.19c-0.34-2.02-1.58-3.35-3.07-3.35c-1.02,0-2.57,0.46-3.29,3.35H135.71z"/>
		<path class="st5" d="M144.26,146.61c0,1.27,0.46,1.67,2.01,1.67h1.18v0.59h-7.35v-0.59c1.58-0.03,2.08-0.68,2.08-2.33v-7.16
			l-2.08-0.74v-0.53l3.54-1.24h0.62v3.29h0.06c1.55-2.54,1.92-3.13,2.95-3.13c0.37,0,0.47,0.03,1.05,0.28
			c0.31,0.12,0.87,0.25,1.61,0.46l-0.74,1.86c-0.46-0.06-1.05-0.22-1.64-0.5c-0.34-0.16-0.71-0.31-1.08-0.31
			c-0.56,0-0.9,0.37-1.21,0.81c-0.4,0.56-0.74,1.08-0.99,1.55V146.61z"/>
		<path class="st5" d="M155.83,146.17c0,1.71,0.4,2.11,2.08,2.11v0.59h-6.23v-0.59c1.36,0,2.08-0.74,2.08-1.95v-6.51
			c0-1.15-0.12-1.36-0.93-1.52l-1.05-0.22v-0.5l3.57-1.3h0.5v2.42c2.08-1.3,3.81-2.45,5.33-2.45c2.11,0,3.32,1.55,3.32,4.65
			c0,4.12-0.22,4.93-0.25,6.14c-0.03,0.84,0.46,1.24,1.74,1.24h0.68v0.59h-6.67v-0.59c0.9-0.03,1.43-0.25,1.77-0.59
			c0.59-0.59,0.65-2.85,0.65-6.98c0-2.48-1.21-3.26-2.45-3.26c-0.99,0-2.51,0.87-4.12,1.98V146.17z"/>
		<path class="st5" d="M175.11,136.25c3.78,0,6.67,2.82,6.67,6.51c0,3.66-2.88,6.48-6.57,6.48c-3.84,0-6.79-2.79-6.79-6.42
			C168.41,138.55,171.88,136.25,175.11,136.25z M175.54,148.5c1.83,0,3.91-1.86,3.91-4.96c0-3.53-2.17-6.54-4.78-6.54
			c-2.05,0-3.94,2.11-3.94,4.77C170.74,145.52,172.88,148.5,175.54,148.5z"/>
	</g>
</g>
<g>
	<rect x="80.24" y="70.34" class="st5" width="20.25" height="30.55"/>
	<rect x="78.12" y="67.23" class="st5" width="22.37" height="3.12"/>
	<rect x="145.66" y="67.23" class="st5" width="22.37" height="3.12"/>
	<rect x="145.66" y="70.34" class="st5" width="19.1" height="30.55"/>
	<rect x="77.28" y="102.94" class="st5" width="90.45" height="3.18"/>
	<rect x="72.15" y="108.09" class="st5" width="100.71" height="3.18"/>
	<g>
		<polygon class="st5" points="143.62,65.04 101.96,65.04 101.96,63.42 122.79,54.99 143.62,63.42 		"/>
		<g>
			<rect x="101.96" y="97.77" class="st5" width="41.66" height="3.12"/>
			<rect x="101.96" y="67.23" class="st5" width="41.66" height="3.12"/>
			<g>
				<g>
					<rect x="103.3" y="68.78" class="st5" width="2.62" height="31.17"/>
					<rect x="102.57" y="70.34" class="st5" width="4.05" height="1.59"/>
					<rect x="102.57" y="96.18" class="st5" width="4.05" height="1.59"/>
				</g>
				<g>
					<rect x="107.05" y="68.79" class="st5" width="2.62" height="31.17"/>
					<rect x="106.32" y="70.34" class="st5" width="4.05" height="1.59"/>
					<rect x="106.32" y="96.18" class="st5" width="4.05" height="1.59"/>
				</g>
				<g>
					<rect x="114.17" y="68.78" class="st5" width="2.62" height="31.17"/>
					<rect x="113.44" y="70.34" class="st5" width="4.05" height="1.59"/>
					<rect x="113.44" y="96.18" class="st5" width="4.05" height="1.59"/>
				</g>
				<g>
					<rect x="117.93" y="68.79" class="st5" width="2.62" height="31.17"/>
					<rect x="117.2" y="70.34" class="st5" width="4.05" height="1.59"/>
					<rect x="117.2" y="96.18" class="st5" width="4.05" height="1.59"/>
				</g>
				<g>
					<rect x="125.05" y="68.78" class="st5" width="2.62" height="31.17"/>
					<rect x="124.32" y="70.34" class="st5" width="4.05" height="1.59"/>
					<rect x="124.32" y="96.18" class="st5" width="4.05" height="1.59"/>
				</g>
				<g>
					<rect x="128.81" y="68.78" class="st5" width="2.62" height="31.17"/>
					<rect x="128.08" y="70.34" class="st5" width="4.05" height="1.59"/>
					<rect x="128.08" y="96.18" class="st5" width="4.05" height="1.59"/>
				</g>
				<g>
					<rect x="135.93" y="68.79" class="st5" width="2.62" height="31.17"/>
					<rect x="135.2" y="70.34" class="st5" width="4.05" height="1.59"/>
					<rect x="135.2" y="96.18" class="st5" width="4.05" height="1.59"/>
				</g>
				<g>
					<rect x="139.69" y="68.78" class="st5" width="2.62" height="31.17"/>
					<rect x="138.96" y="70.34" class="st5" width="4.05" height="1.59"/>
					<rect x="138.96" y="96.18" class="st5" width="4.05" height="1.59"/>
				</g>
			</g>
		</g>
	</g>
</g>
</svg>
