<?xml version="1.0" encoding="utf-8"?>
<!-- Generator: Adobe Illustrator 23.0.0, SVG Export Plug-In . SVG Version: 6.00 Build 0)  -->
<svg version="1.1" id="Layer_11" xmlns="http://www.w3.org/2000/svg" xmlns:xlink="http://www.w3.org/1999/xlink" x="0px" y="0px"
	 viewBox="0 0 245 240" style="enable-background:new 0 0 245 240;" xml:space="preserve">
<style type="text/css">
	.st0{fill:#61C7D9;}
	.st1{fill:none;stroke:#FFFFFF;stroke-miterlimit:10;}
	.st2{fill:none;stroke:#FFFFFF;stroke-miterlimit:10;stroke-dasharray:2.9965,2.9965;}
	.st3{fill:none;stroke:#FFFFFF;stroke-miterlimit:10;stroke-dasharray:3.0362,3.0362;}
	.st4{opacity:0.35;}
	.st5{fill:#FFFFFF;}
	.st6{enable-background:new    ;}
</style>
<g>
	<g>
		<polygon class="st0" points="0.16,73.39 122.66,0 245.16,73.39 245.16,240 0.16,240 		"/>
	</g>
</g>
<g>
	<g>
		<line class="st1" x1="8.34" y1="240" x2="8.34" y2="238.5"/>
		<line class="st2" x1="8.34" y1="235.5" x2="8.34" y2="81.18"/>
		<polyline class="st1" points="8.34,79.68 8.34,78.18 9.62,77.41 		"/>
		<line class="st3" x1="12.23" y1="75.85" x2="120.32" y2="11.1"/>
		<polyline class="st1" points="121.62,10.32 122.91,9.54 124.19,10.32 		"/>
		<line class="st3" x1="126.8" y1="11.88" x2="234.89" y2="76.63"/>
		<polyline class="st1" points="236.19,77.41 237.48,78.18 237.48,79.68 		"/>
		<line class="st2" x1="237.48" y1="82.68" x2="237.48" y2="237"/>
		<line class="st1" x1="237.48" y1="238.5" x2="237.48" y2="240"/>
	</g>
</g>
<g>
	<g>
		<g class="st4">
			<circle class="st5" cx="122.44" cy="76.25" r="25.31"/>
		</g>
		<g>
			<g>
				<path class="st5" d="M116.06,44.32l0.24,2.49l6.21-4.41l-6.92-3.17l0.24,2.54c-7.71,1.49-14.74,5.57-19.89,11.57
					c-5.43,6.33-8.43,14.42-8.43,22.78c0,0.7,0.57,1.27,1.27,1.27s1.27-0.57,1.27-1.27C90.05,60.54,100.91,47.35,116.06,44.32z"/>
				<path class="st5" d="M156.23,74.86c-0.7,0-1.27,0.57-1.27,1.27c0,15.59-10.87,28.78-26.01,31.81l-0.24-2.49l-6.21,4.41
					l6.92,3.17l-0.24-2.54c7.71-1.49,14.74-5.57,19.89-11.57c5.43-6.33,8.43-14.42,8.43-22.78
					C157.5,75.43,156.93,74.86,156.23,74.86z"/>
				<path class="st5" d="M149.69,76.53c0.23-15.4-12.27-27.6-26.84-27.79c-14.87-0.19-27.49,11.87-27.54,26.76
					c-0.05,15.48,11.87,27.6,27.06,27.61C137.3,103.11,149.47,91.09,149.69,76.53z M134.09,96.82c-8.32,4.59-16.77,4.31-24.7-0.9
					c-8.02-5.27-11.6-13.02-10.71-22.57c0.66-6.99,4.1-12.57,9.73-16.78c0.28-0.21,0.59-0.38,0.85-0.54
					c1.17,1.12,1.18,2.08,0.49,3.62c-0.71,1.58-1.49,2.99-2.55,4.35c-0.95,1.22-0.8,2.7-0.27,4.17c0.6,1.64,1.14,3.32,1.52,5.03
					c0.31,1.4,1.07,2.32,2.31,2.84c2.01,0.84,3.96,1.7,5.18,3.69c0.21,0.35,0.97,0.37,1.48,0.54c-0.04-0.48,0.05-1.04-0.16-1.42
					c-0.48-0.89-0.76-2.02-2.06-2.22c-0.2-0.03-0.46-0.54-0.47-0.83c-0.03-1.04-0.63-1.04-1.44-1.02c-0.56,0.02-1.46-0.07-1.61-0.39
					c-0.28-0.6-0.33-1.48-0.09-2.1c0.66-1.7,2.67-2.32,4.47-1.34c1.24,0.68,1.6,0.48,2.45-0.74c1.18-1.7,3.02-2.96,4.67-4.32
					c0.7-0.58,1.66-0.82,2.4-1.36c1.14-0.82,1.22-1.6,0.24-2.65c-0.59-0.64-1.34-1.13-2.04-1.67c-0.76-0.6-0.89-1.28-0.29-2.05
					c0.53-0.68,1.06-0.84,1.74-0.13c0.51,0.53,1.09,1.04,1.73,1.38c0.83,0.44,1.22,0,1.22-0.89c0-0.73,0.14-1.48,0.03-2.18
					c-0.08-0.53-0.38-1.09-0.74-1.51c-0.69-0.8-1.5-1.5-2.14-2.38c2.87,0.02,5.37,0.67,7.28,2.93c0.65,0.77,1.64,1.31,2.55,1.81
					c0.96,0.53,1.55,1.21,1.76,2.31c0.11,0.56,0.54,1.06,0.8,1.6c0.18,0.38,0.25,0.81,0.45,1.18c0.17,0.32,0.43,0.59,0.66,0.89
					c0.27-0.32,0.63-0.6,0.79-0.96c0.13-0.28,0.03-0.67,0.03-1.01c1.78-0.09,2.57,0.81,3.32,2.77c-0.54-0.1-1.48-0.43-1.56-0.28
					c-0.56,1.03-1.37,2.18-1.3,3.23c0.22,3.27,0.41,6.59,2.17,9.57c0.9,1.52,1.1,1.64,2.42,0.5c0.28-0.24,0.93-0.46,1.14-0.31
					c0.29,0.21,0.5,0.79,0.46,1.18C145.5,86.26,141.48,92.74,134.09,96.82z"/>
				<path class="st5" d="M134.43,84.01c-0.3-0.08-0.6-0.18-0.9-0.19c-1.94-0.05-3.54-0.79-4.98-2.11c-1.91-1.74-4.23-2.67-7.37-2.95
					c-0.47,0.32-1.5,0.72-2.11,1.47c-2.65,3.25-2.18,6.67,1.16,9.47c1.8,1.51,2,2.4,1.06,4.58c-0.4,0.93-0.91,1.83-1.16,2.79
					c-0.12,0.44,0.11,1.23,0.45,1.46c0.31,0.21,1.07,0.03,1.49-0.22c1.05-0.64,2-1.43,3.01-2.13c2.67-1.83,5.37-3.63,8.03-5.47
					c0.31-0.21,0.52-0.59,0.72-0.92c0.58-0.97,1.09-1.98,1.69-2.93C136.42,85.43,136.07,84.45,134.43,84.01z"/>
			</g>
		</g>
	</g>
</g>
<g>
	<g class="st6">
		<path class="st5" d="M82.84,145.89c0,1.74,0.53,2.39,2.48,2.39h1.02v0.59h-8.59v-0.59h0.43c1.61,0,2.08-0.34,2.08-1.8v-14.67
			c0-1.15-0.37-1.64-1.46-1.64h-1.55v-0.59c0.87-0.03,2.39-0.13,3.91-0.19s3.01-0.09,3.84-0.09c6.48,0,7.97,3.1,7.97,5.49
			c0,3.63-2.91,5.92-7.5,5.92c-0.93,0-1.71-0.06-2.64-0.25V145.89z M82.84,139.88c0.4,0.09,1.08,0.25,1.67,0.25
			c3.38,0,5.55-2.29,5.55-5.43c0-2.42-0.96-4.81-5.08-4.81c-0.71,0-1.4,0-2.14,0.12V139.88z"/>
		<path class="st5" d="M100.63,136.25c3.78,0,6.67,2.82,6.67,6.51c0,3.66-2.88,6.48-6.57,6.48c-3.84,0-6.79-2.79-6.79-6.42
			C93.93,138.55,97.41,136.25,100.63,136.25z M101.07,148.5c1.83,0,3.91-1.86,3.91-4.96c0-3.53-2.17-6.54-4.77-6.54
			c-2.05,0-3.94,2.11-3.94,4.77C96.26,145.52,98.4,148.5,101.07,148.5z"/>
		<path class="st5" d="M113.53,146.42c0,1.27,0.59,1.86,1.8,1.86h0.53v0.59h-6.98v-0.59c1.98,0,2.57-0.59,2.57-2.08v-14.98
			c0-0.87-0.09-1.15-0.96-1.24l-1.4-0.15v-0.53l3.97-1.27h0.46V146.42z"/>
		<path class="st5" d="M121.34,146.51c0,1.08,0.59,1.77,2.23,1.77v0.59h-6.88v-0.59c1.89,0,2.57-0.62,2.57-2.26v-6.23
			c0-1.21-0.15-1.36-0.96-1.52l-1.46-0.28v-0.5l4.03-1.4h0.47V146.51z M117.18,133.74l2.85-3.94c0.62-0.84,1.36-1.36,1.98-1.36
			c0.56,0,0.96,0.37,0.96,0.9c0,0.59-0.62,1.21-2.11,2.2l-3.29,2.2H117.18z"/>
		<path class="st5" d="M133.03,136.59l-0.5,1.36h-3.94v7.22c0,1.95,1.4,2.6,2.05,2.6c0.68,0,1.3-0.53,1.89-1.55l0.5,0.47
			c-0.74,1.61-1.95,2.54-3.38,2.54c-1.83,0-3.13-1.52-3.13-3.6v-7.69h-1.43v-0.5c1.21-0.59,2.26-2.02,2.98-3.94h0.53v3.07H133.03z"
			/>
		<path class="st5" d="M138.45,146.51c0,1.08,0.59,1.77,2.23,1.77v0.59h-6.88v-0.59c1.89,0,2.57-0.62,2.57-2.26v-6.23
			c0-1.21-0.15-1.36-0.96-1.52l-1.46-0.28v-0.5l4.03-1.4h0.47V146.51z M137.18,129.12c0.74,0,1.36,0.53,1.36,1.18
			c0,0.65-0.62,1.18-1.36,1.18s-1.33-0.53-1.33-1.18C135.85,129.65,136.43,129.12,137.18,129.12z"/>
		<path class="st5" d="M153.42,146.02c-1.3,2.08-3.01,3.22-5.49,3.22c-3.72,0-5.21-3.53-5.21-5.98c0-3.88,3.19-7.01,7.13-7.01
			c1.95,0,3.47,0.78,3.47,1.77c0,0.53-0.4,0.93-0.9,0.93c-1.52,0-1.89-1.89-3.63-1.89c-2.14,0-4,2.54-4,5.52
			c0,3.1,1.86,5.39,4.37,5.39c1.49,0,2.67-0.68,3.78-2.23L153.42,146.02z"/>
		<path class="st5" d="M155.93,140.28c-0.06-0.19-0.09-0.28-0.09-0.43c0-1.08,2.57-3.6,4.59-3.6c0.93,0,2.39,0.43,3.25,1.64
			c0.47,0.65,0.47,1.05,0.47,2.67v4.16c0,2.48,0,3.04,0.81,3.04c0.34,0,0.74-0.03,1.52-0.68l0.16,0.47
			c-1.67,1.36-2.54,1.71-3.07,1.71c-1.27,0-1.39-1.4-1.43-1.89c-2.14,1.77-2.76,1.89-3.6,1.89c-1.8,0-2.88-1.02-2.88-2.54
			c0-1.89,1.67-2.54,3.66-3.04c0.65-0.16,1.67-0.53,2.76-1.18v-2.45c0-0.87,0-1.36-0.53-1.98c-0.4-0.5-1.05-0.9-1.74-0.9
			c-1.02,0-1.92,0.87-1.92,1.52c0,0.19,0.03,0.31,0.16,0.59L155.93,140.28z M162.07,143.1c-0.59,0.34-1.08,0.56-1.83,0.87
			c-1.89,0.77-2.6,1.08-2.6,2.36c0,1.12,0.9,1.83,1.83,1.83c0.5,0,0.87-0.16,2.6-1.36V143.1z"/>
	</g>
</g>
</svg>
