<?xml version="1.0" encoding="utf-8"?>
<!-- Generator: Adobe Illustrator 23.0.0, SVG Export Plug-In . SVG Version: 6.00 Build 0)  -->
<svg version="1.1" id="Layer_11" xmlns="http://www.w3.org/2000/svg" xmlns:xlink="http://www.w3.org/1999/xlink" x="0px" y="0px"
	 viewBox="0 0 245 240" style="enable-background:new 0 0 245 240;" xml:space="preserve">
<style type="text/css">
	.st0{fill:#3BD9A3;}
	.st1{fill:none;stroke:#FFFFFF;stroke-miterlimit:10;}
	.st2{fill:none;stroke:#FFFFFF;stroke-miterlimit:10;stroke-dasharray:2.9965,2.9965;}
	.st3{fill:none;stroke:#FFFFFF;stroke-miterlimit:10;stroke-dasharray:3.0362,3.0362;}
	.st4{enable-background:new    ;}
	.st5{fill:#FFFFFF;}
	.st6{opacity:0.4;fill:#FFFFFF;enable-background:new    ;}
	.st7{opacity:0.4;}
</style>
<g>
	<g>
		<polygon class="st0" points="0.16,73.39 122.66,0 245.16,73.39 245.16,240 0.16,240 		"/>
	</g>
</g>
<g>
	<g>
		<line class="st1" x1="8.34" y1="240" x2="8.34" y2="238.5"/>
		<line class="st2" x1="8.34" y1="235.5" x2="8.34" y2="81.18"/>
		<polyline class="st1" points="8.34,79.68 8.34,78.18 9.62,77.41 		"/>
		<line class="st3" x1="12.23" y1="75.85" x2="120.32" y2="11.1"/>
		<polyline class="st1" points="121.62,10.32 122.91,9.54 124.19,10.32 		"/>
		<line class="st3" x1="126.8" y1="11.88" x2="234.89" y2="76.63"/>
		<polyline class="st1" points="236.19,77.41 237.48,78.18 237.48,79.68 		"/>
		<line class="st2" x1="237.48" y1="82.68" x2="237.48" y2="237"/>
		<line class="st1" x1="237.48" y1="238.5" x2="237.48" y2="240"/>
	</g>
</g>
<g>
	<g class="st4">
		<path class="st5" d="M65.56,148.87h-7.53v-0.59c1.92-0.09,2.33-0.59,2.33-2.67v-13.21c0-1.67-0.59-2.14-2.33-2.23v-0.59h7.53v0.59
			c-1.95,0-2.64,0.43-2.64,2.51v13.15c0,1.83,0.5,2.45,2.64,2.45V148.87z"/>
		<path class="st5" d="M71.91,146.17c0,1.71,0.4,2.11,2.08,2.11v0.59h-6.23v-0.59c1.36,0,2.08-0.74,2.08-1.95v-6.51
			c0-1.15-0.12-1.36-0.93-1.52l-1.05-0.22v-0.5l3.57-1.3h0.5v2.42c2.08-1.3,3.81-2.45,5.33-2.45c2.11,0,3.32,1.55,3.32,4.65
			c0,4.12-0.22,4.93-0.25,6.14c-0.03,0.84,0.46,1.24,1.74,1.24h0.68v0.59h-6.67v-0.59c0.9-0.03,1.43-0.25,1.77-0.59
			c0.59-0.59,0.65-2.85,0.65-6.98c0-2.48-1.21-3.26-2.45-3.26c-0.99,0-2.51,0.87-4.12,1.98V146.17z"/>
		<path class="st5" d="M84.59,145.74c0.37,1.86,1.55,2.92,2.95,2.92c1.24,0,2.2-0.93,2.2-2.05c0-0.65-0.15-1.05-0.99-1.89
			c-2.2-2.2-4.65-2.42-4.65-4.99c0-2.05,1.61-3.47,3.97-3.47c0.84,0,1.71,0.19,2.48,0.5l0.06,2.82h-0.53
			c-0.22-1.58-1.24-2.57-2.48-2.57c-1.02,0-1.89,0.71-1.89,1.74c0,2.73,5.77,3.19,5.77,6.98c0,2.01-1.67,3.53-3.84,3.53
			c-0.59,0-1.02-0.09-1.36-0.22c-0.34-0.09-0.59-0.19-0.84-0.19c-0.19,0-0.37,0.12-0.53,0.37h-0.46l-0.34-3.47H84.59z"/>
		<path class="st5" d="M97.11,153.49c0,1.55,0.78,2.01,2.08,2.01h0.78v0.59h-7.32v-0.59h0.31c1.58,0,2.08-0.53,2.08-2.29v-13.67
			c0-0.59-0.12-0.84-0.87-1.02l-0.99-0.25v-0.59l3.32-2.05h0.62v2.98c1.92-1.46,3.57-2.26,4.81-2.26c2.42,0,4.59,2.73,4.59,5.77
			c0,3.75-3.04,6.98-6.57,6.98c-0.84,0-1.64-0.19-2.82-0.62V153.49z M97.11,146.45c1.12,0.99,2.51,1.67,3.66,1.67
			c2.11,0,3.66-2.08,3.66-4.62c0-4.09-2.42-5.64-4.06-5.64c-0.96,0-2.14,0.56-3.26,1.52V146.45z"/>
		<path class="st5" d="M111.5,141c-0.06,0.46-0.12,0.9-0.12,1.3c0,3.22,2.26,5.4,4.71,5.4c1.55,0,2.76-0.62,3.94-2.02l0.34,0.37
			c-1.3,1.64-3.25,3.19-5.52,3.19c-3.04,0-5.4-2.76-5.4-6.36c0-3.29,2.2-6.63,5.98-6.63c4.19,0,4.09,3.01,5.12,4.03V141H111.5z
			 M117.95,140.19c-0.34-2.02-1.58-3.35-3.07-3.35c-1.02,0-2.57,0.46-3.29,3.35H117.95z"/>
		<path class="st5" d="M133.66,146.02c-1.3,2.08-3.01,3.22-5.49,3.22c-3.72,0-5.21-3.53-5.21-5.98c0-3.88,3.19-7.01,7.13-7.01
			c1.95,0,3.47,0.78,3.47,1.77c0,0.53-0.4,0.93-0.9,0.93c-1.52,0-1.89-1.89-3.63-1.89c-2.14,0-4,2.54-4,5.52
			c0,3.1,1.86,5.39,4.37,5.39c1.49,0,2.67-0.68,3.78-2.23L133.66,146.02z"/>
		<path class="st5" d="M146.9,146.02c-1.3,2.08-3.01,3.22-5.49,3.22c-3.72,0-5.21-3.53-5.21-5.98c0-3.88,3.19-7.01,7.13-7.01
			c1.95,0,3.47,0.78,3.47,1.77c0,0.53-0.4,0.93-0.9,0.93c-1.52,0-1.89-1.89-3.63-1.89c-2.14,0-4,2.54-4,5.52
			c0,3.1,1.86,5.39,4.37,5.39c1.49,0,2.67-0.68,3.78-2.23L146.9,146.02z"/>
		<path class="st5" d="M153.22,146.51c0,1.08,0.59,1.77,2.23,1.77v0.59h-6.88v-0.59c1.89,0,2.57-0.62,2.57-2.26v-6.23
			c0-1.21-0.16-1.36-0.96-1.52l-1.46-0.28v-0.5l4.03-1.4h0.46V146.51z M151.95,129.12c0.74,0,1.36,0.53,1.36,1.18
			c0,0.65-0.62,1.18-1.36,1.18s-1.33-0.53-1.33-1.18C150.62,129.65,151.21,129.12,151.95,129.12z"/>
		<path class="st5" d="M164.16,136.25c3.78,0,6.67,2.82,6.67,6.51c0,3.66-2.88,6.48-6.57,6.48c-3.84,0-6.79-2.79-6.79-6.42
			C157.47,138.55,160.94,136.25,164.16,136.25z M164.6,148.5c1.83,0,3.91-1.86,3.91-4.96c0-3.53-2.17-6.54-4.77-6.54
			c-2.05,0-3.94,2.11-3.94,4.77C159.79,145.52,161.93,148.5,164.6,148.5z M161.16,133.74l2.85-3.94c0.62-0.84,1.36-1.36,1.98-1.36
			c0.56,0,0.96,0.37,0.96,0.9c0,0.59-0.62,1.21-2.11,2.2l-3.29,2.2H161.16z"/>
		<path class="st5" d="M177.18,146.17c0,1.71,0.4,2.11,2.08,2.11v0.59h-6.23v-0.59c1.36,0,2.08-0.74,2.08-1.95v-6.51
			c0-1.15-0.12-1.36-0.93-1.52l-1.05-0.22v-0.5l3.57-1.3h0.5v2.42c2.08-1.3,3.81-2.45,5.33-2.45c2.11,0,3.32,1.55,3.32,4.65
			c0,4.12-0.22,4.93-0.25,6.14c-0.03,0.84,0.46,1.24,1.74,1.24H188v0.59h-6.67v-0.59c0.9-0.03,1.43-0.25,1.77-0.59
			c0.59-0.59,0.65-2.85,0.65-6.98c0-2.48-1.21-3.26-2.45-3.26c-0.99,0-2.51,0.87-4.12,1.98V146.17z"/>
	</g>
</g>
<g>
	<g>
		<rect x="122.5" y="71.77" class="st6" width="5.63" height="2.57"/>
		<g>
			<polygon class="st5" points="128.15,74.34 122.5,74.34 122.5,89.21 128.2,89.21 			"/>
		</g>
		<path class="st5" d="M147.33,73.4c-10.55,0-19.1,8.55-19.1,19.1s8.55,19.1,19.1,19.1s19.1-8.55,19.1-19.1
			C166.43,81.95,157.88,73.4,147.33,73.4z M147.33,106.84c-7.92,0-14.34-6.42-14.34-14.34s6.42-14.34,14.34-14.34
			s14.34,6.42,14.34,14.34S155.25,106.84,147.33,106.84z"/>
		<circle class="st6" cx="144.21" cy="88.62" r="4.44"/>
		<path class="st5" d="M128.58,64.13c1.23-3.89,4.86-6.7,9.15-6.7c0.18,0,0.35,0.02,0.53,0.03c-0.85-1.65-2.56-2.8-4.55-2.8
			c-2.84,0-5.13,2.3-5.13,5.13c0,0.15,0.01,0.3,0.02,0.46l-0.02,0.01L128.58,64.13L128.58,64.13z"/>
		<g class="st7">
			<path class="st5" d="M163.26,81.98L163.26,81.98l-0.02-0.03C163.25,81.95,163.25,81.97,163.26,81.98z"/>
			<path class="st5" d="M128.22,92.5c0-10.55,8.55-19.1,19.1-19.1c4.98,0,9.5,1.92,12.9,5.04l-15.09-17.52
				c-0.01-0.01-0.01-0.01-0.02-0.02l0,0c-1.76-2.12-4.42-3.47-7.39-3.47c-5.3,0-9.6,4.3-9.6,9.6c0,0.3,0.02,0.6,0.04,0.9l-0.05,0.02
				l0.1,27.07l0.17-0.06C128.3,94.14,128.22,93.33,128.22,92.5z"/>
		</g>
	</g>
	<g>
		<rect x="116.87" y="71.77" class="st6" width="5.63" height="2.57"/>
		<g>
			<polygon class="st5" points="116.85,74.34 122.5,74.34 122.5,89.21 116.8,89.21 			"/>
		</g>
		<path class="st5" d="M78.57,92.5c0,10.55,8.55,19.1,19.1,19.1s19.1-8.55,19.1-19.1s-8.55-19.1-19.1-19.1S78.57,81.95,78.57,92.5z
			 M83.33,92.5c0-7.92,6.42-14.34,14.34-14.34s14.34,6.42,14.34,14.34s-6.42,14.34-14.34,14.34S83.33,100.42,83.33,92.5z"/>
		<circle class="st6" cx="100.79" cy="88.62" r="4.44"/>
		<path class="st5" d="M116.42,64.13c-1.23-3.89-4.86-6.7-9.15-6.7c-0.18,0-0.35,0.02-0.53,0.03c0.85-1.65,2.56-2.8,4.55-2.8
			c2.84,0,5.13,2.3,5.13,5.13c0,0.15-0.01,0.3-0.02,0.46l0.02,0.01V64.13z"/>
		<g class="st7">
			<path class="st5" d="M81.74,81.98L81.74,81.98l0.02-0.03C81.75,81.95,81.75,81.97,81.74,81.98z"/>
			<path class="st5" d="M116.78,92.5c0-10.55-8.55-19.1-19.1-19.1c-4.98,0-9.5,1.92-12.9,5.04l15.09-17.52
				c0.01-0.01,0.01-0.01,0.02-0.02l0,0c1.76-2.12,4.42-3.47,7.39-3.47c5.3,0,9.6,4.3,9.6,9.6c0,0.3-0.02,0.6-0.04,0.9l0.05,0.02
				l-0.1,27.07l-0.17-0.06C116.7,94.14,116.78,93.33,116.78,92.5z"/>
		</g>
	</g>
	<circle class="st6" cx="147.33" cy="92.5" r="14.34"/>
	<circle class="st6" cx="97.67" cy="92.5" r="14.34"/>
</g>
</svg>
