<?xml version="1.0" encoding="utf-8"?>
<!-- Generator: Adobe Illustrator 23.0.0, SVG Export Plug-In . SVG Version: 6.00 Build 0)  -->
<svg version="1.1" id="Layer_11" xmlns="http://www.w3.org/2000/svg" xmlns:xlink="http://www.w3.org/1999/xlink" x="0px" y="0px"
	 viewBox="0 0 245 873" style="enable-background:new 0 0 245 873;" xml:space="preserve">
<style type="text/css">
	.st0{fill:#E2E2E4;}
	.st1{fill:none;stroke:#909295;stroke-miterlimit:10;}
	.st2{fill:none;stroke:#909295;stroke-miterlimit:10;stroke-dasharray:3.0107,3.0107;}
	.st3{fill:none;stroke:#909295;stroke-miterlimit:10;stroke-dasharray:3.0362,3.0362;}
	.st4{fill:#231F20;}
	.st5{fill:#858789;}
</style>
<polygon class="st0" points="0,74.8 122.5,0 245,74.8 245,873 0,873 "/>
<g>
	<g>
		<line class="st1" x1="8.2" y1="873" x2="8.2" y2="871.5"/>
		<line class="st2" x1="8.2" y1="868.5" x2="8.2" y2="81.2"/>
		<polyline class="st1" points="8.2,79.7 8.2,78.2 9.5,77.4 		"/>
		<line class="st3" x1="12.1" y1="75.8" x2="120.2" y2="11.1"/>
		<polyline class="st1" points="121.5,10.3 122.7,9.5 124,10.3 		"/>
		<line class="st3" x1="126.6" y1="11.9" x2="234.7" y2="76.6"/>
		<polyline class="st1" points="236,77.4 237.3,78.2 237.3,79.7 		"/>
		<line class="st2" x1="237.3" y1="82.7" x2="237.3" y2="870"/>
		<line class="st1" x1="237.3" y1="871.5" x2="237.3" y2="873"/>
	</g>
</g>
<g>
	<g>
		<path class="st4" d="M55.4,193h-0.5c-0.1-1.8-0.7-2.4-2.2-2.4h-5.7v6.8c0,1.7,0.4,2.4,2.7,2.4v0.6h-7.5v-0.6
			c1.9-0.1,2.3-0.5,2.3-3v-12.1c0-2-0.2-2.9-2.3-2.9v-0.6h13.9v3.7h-0.5c0-1.8-0.7-2.5-2.6-2.5h-5.9v7.3h6.1c1.2,0,1.7-0.6,1.8-2
			h0.5L55.4,193L55.4,193z"/>
		<path class="st4" d="M72.6,199.5l-4.2,1.3v-2.5c-2.3,1.7-4,2.5-5.3,2.5c-1.5,0-3.3-1.1-3.3-3.2v-6.9c0-0.7-0.2-1.1-0.8-1.3
			l-1.1-0.3v-0.5l4-0.9v8.7c0,1.9,1.4,2.8,2.8,2.8c1.1,0,2.4-0.6,3.7-1.7v-6.7c0-1.2-0.2-1.5-1.2-1.6l-1.6-0.3v-0.4l4.8-0.7v10.4
			c0,0.9,0.3,1,1.4,0.8l0.7-0.1L72.6,199.5L72.6,199.5z"/>
		<path class="st4" d="M78.3,197.7c0,1.7,0.4,2.1,2.1,2.1v0.6h-6.2v-0.6c1.4,0,2.1-0.7,2.1-1.9v-6.5c0-1.1-0.1-1.4-0.9-1.5l-1.1-0.2
			v-0.5l3.6-1.3h0.5v2.4c2.1-1.3,3.8-2.4,5.3-2.4c2.1,0,3.3,1.6,3.3,4.6c0,4.1-0.2,4.9-0.3,6.1c0,0.8,0.5,1.2,1.7,1.2h0.7v0.6h-6.7
			v-0.6c0.9,0,1.4-0.3,1.8-0.6c0.6-0.6,0.7-2.9,0.7-7c0-2.5-1.2-3.3-2.4-3.3c-1,0-2.5,0.9-4.1,2V197.7z"/>
		<path class="st4" d="M101.6,197.6c-1.3,2.1-3,3.2-5.5,3.2c-3.7,0-5.2-3.5-5.2-6c0-3.9,3.2-7,7.1-7c1.9,0,3.5,0.8,3.5,1.8
			c0,0.5-0.4,0.9-0.9,0.9c-1.5,0-1.9-1.9-3.6-1.9c-2.1,0-4,2.5-4,5.5c0,3.1,1.9,5.4,4.4,5.4c1.5,0,2.7-0.7,3.8-2.2L101.6,197.6z"/>
		<path class="st4" d="M107.9,198c0,1.1,0.6,1.8,2.2,1.8v0.6h-6.9v-0.6c1.9,0,2.6-0.6,2.6-2.3v-6.2c0-1.2-0.2-1.4-1-1.5l-1.5-0.3
			V189l4-1.4h0.5C107.9,187.6,107.9,198,107.9,198z M106.6,180.6c0.7,0,1.4,0.5,1.4,1.2s-0.6,1.2-1.4,1.2s-1.3-0.5-1.3-1.2
			S105.9,180.6,106.6,180.6z"/>
		<path class="st4" d="M118.8,187.8c3.8,0,6.7,2.8,6.7,6.5c0,3.7-2.9,6.5-6.6,6.5c-3.8,0-6.8-2.8-6.8-6.4
			C112.1,190.1,115.6,187.8,118.8,187.8z M119.3,200c1.8,0,3.9-1.9,3.9-5c0-3.5-2.2-6.5-4.8-6.5c-2.1,0-3.9,2.1-3.9,4.8
			C114.5,197.1,116.6,200,119.3,200z"/>
		<path class="st4" d="M131.9,197.7c0,1.7,0.4,2.1,2.1,2.1v0.6h-6.2v-0.6c1.4,0,2.1-0.7,2.1-1.9v-6.5c0-1.1-0.1-1.4-0.9-1.5
			l-1.1-0.2v-0.5l3.6-1.3h0.5v2.4c2.1-1.3,3.8-2.4,5.3-2.4c2.1,0,3.3,1.6,3.3,4.6c0,4.1-0.2,4.9-0.3,6.1c0,0.8,0.5,1.2,1.7,1.2h0.7
			v0.6H136v-0.6c0.9,0,1.4-0.3,1.8-0.6c0.6-0.6,0.6-2.9,0.6-7c0-2.5-1.2-3.3-2.4-3.3c-1,0-2.5,0.9-4.1,2V197.7z"/>
		<path class="st4" d="M146.6,192.5c-0.1,0.5-0.1,0.9-0.1,1.3c0,3.2,2.3,5.4,4.7,5.4c1.6,0,2.8-0.6,3.9-2l0.3,0.4
			c-1.3,1.6-3.3,3.2-5.5,3.2c-3,0-5.4-2.8-5.4-6.4c0-3.3,2.2-6.6,6-6.6c4.2,0,4.1,3,5.1,4v0.7L146.6,192.5L146.6,192.5z M153,191.7
			c-0.3-2-1.6-3.4-3.1-3.4c-1,0-2.6,0.5-3.3,3.4H153z"/>
		<path class="st4" d="M158.1,197.3c0.4,1.9,1.6,2.9,2.9,2.9c1.2,0,2.2-0.9,2.2-2.1c0-0.6-0.2-1.1-1-1.9c-2.2-2.2-4.6-2.4-4.6-5
			c0-2.1,1.6-3.5,4-3.5c0.8,0,1.7,0.2,2.5,0.5l0.1,2.8h-0.5c-0.2-1.6-1.2-2.6-2.5-2.6c-1,0-1.9,0.7-1.9,1.7c0,2.7,5.8,3.2,5.8,7
			c0,2-1.7,3.5-3.8,3.5c-0.6,0-1-0.1-1.4-0.2c-0.3-0.1-0.6-0.2-0.8-0.2c-0.2,0-0.4,0.1-0.5,0.4H158l-0.3-3.5L158.1,197.3
			L158.1,197.3z"/>
		<path class="st4" d="M178.1,192.5c-0.1,0.5-0.1,0.9-0.1,1.3c0,3.2,2.3,5.4,4.7,5.4c1.6,0,2.8-0.6,3.9-2l0.3,0.4
			c-1.3,1.6-3.3,3.2-5.5,3.2c-3,0-5.4-2.8-5.4-6.4c0-3.3,2.2-6.6,6-6.6c4.2,0,4.1,3,5.1,4v0.7L178.1,192.5L178.1,192.5z
			 M184.6,191.7c-0.3-2-1.6-3.4-3.1-3.4c-1,0-2.6,0.5-3.3,3.4H184.6z"/>
		<path class="st4" d="M193.1,197.7c0,1.7,0.4,2.1,2.1,2.1v0.6H189v-0.6c1.4,0,2.1-0.7,2.1-1.9v-6.5c0-1.1-0.1-1.4-0.9-1.5l-1.1-0.2
			v-0.5l3.6-1.3h0.5v2.4c2.1-1.3,3.8-2.4,5.3-2.4c2.1,0,3.3,1.6,3.3,4.6c0,4.1-0.2,4.9-0.3,6.1c0,0.8,0.5,1.2,1.7,1.2h0.7v0.6h-6.7
			v-0.6c0.9,0,1.4-0.3,1.8-0.6c0.6-0.6,0.6-2.9,0.6-7c0-2.5-1.2-3.3-2.4-3.3c-1,0-2.5,0.9-4.1,2L193.1,197.7L193.1,197.7z"/>
		<path class="st4" d="M25.2,229c-0.1-0.2-0.1-0.3-0.1-0.4c0-1.1,2.6-3.6,4.6-3.6c0.9,0,2.4,0.4,3.3,1.6c0.5,0.6,0.5,1.1,0.5,2.7
			v4.1c0,2.5,0,3,0.8,3c0.3,0,0.7,0,1.5-0.7l0.2,0.5c-1.7,1.4-2.5,1.7-3.1,1.7c-1.3,0-1.4-1.4-1.4-1.9c-2.1,1.8-2.8,1.9-3.6,1.9
			c-1.8,0-2.9-1-2.9-2.5c0-1.9,1.7-2.5,3.7-3c0.6-0.2,1.7-0.5,2.8-1.2v-2.4c0-0.9,0-1.4-0.5-2c-0.4-0.5-1-0.9-1.7-0.9
			c-1,0-1.9,0.9-1.9,1.5c0,0.2,0,0.3,0.2,0.6L25.2,229z M31.4,231.8c-0.6,0.3-1.1,0.6-1.8,0.9c-1.9,0.8-2.6,1.1-2.6,2.4
			c0,1.1,0.9,1.8,1.8,1.8c0.5,0,0.9-0.2,2.6-1.4V231.8z"/>
		<path class="st4" d="M41.1,235.3c0,1.3,0.5,1.7,2,1.7h1.2v0.6h-7.3V237c1.6,0,2.1-0.7,2.1-2.3v-7.2l-2.1-0.7v-0.5l3.5-1.2h0.6v3.3
			h0.1c1.5-2.5,1.9-3.1,3-3.1c0.4,0,0.5,0,1,0.3c0.3,0.1,0.9,0.3,1.6,0.5l-0.7,1.9c-0.5-0.1-1-0.2-1.6-0.5c-0.3-0.2-0.7-0.3-1.1-0.3
			c-0.6,0-0.9,0.4-1.2,0.8c-0.4,0.6-0.7,1.1-1,1.6L41.1,235.3L41.1,235.3z"/>
		<path class="st4" d="M56,225.3l-0.5,1.4h-3.9v7.2c0,1.9,1.4,2.6,2,2.6c0.7,0,1.3-0.5,1.9-1.6l0.5,0.5c-0.7,1.6-2,2.5-3.4,2.5
			c-1.8,0-3.1-1.5-3.1-3.6v-7.7h-1.4v-0.5c1.2-0.6,2.3-2,3-3.9h0.5v3.1L56,225.3L56,225.3z"/>
		<path class="st4" d="M61.5,235.2c0,1.1,0.6,1.8,2.2,1.8v0.6h-6.9V237c1.9,0,2.6-0.6,2.6-2.3v-6.2c0-1.2-0.2-1.4-1-1.5l-1.5-0.3
			v-0.5l4-1.4h0.5V235.2z M60.2,217.9c0.7,0,1.4,0.5,1.4,1.2s-0.6,1.2-1.4,1.2s-1.3-0.5-1.3-1.2S59.5,217.9,60.2,217.9z"/>
		<path class="st4" d="M76.4,234.8c-1.3,2.1-3,3.2-5.5,3.2c-3.7,0-5.2-3.5-5.2-6c0-3.9,3.2-7,7.1-7c1.9,0,3.5,0.8,3.5,1.8
			c0,0.5-0.4,0.9-0.9,0.9c-1.5,0-1.9-1.9-3.6-1.9c-2.1,0-4,2.5-4,5.5c0,3.1,1.9,5.4,4.4,5.4c1.5,0,2.7-0.7,3.8-2.2L76.4,234.8z"/>
		<path class="st4" d="M93,236.7l-4.2,1.3v-2.5c-2.3,1.7-4,2.5-5.3,2.5c-1.6,0-3.3-1.1-3.3-3.2v-6.9c0-0.7-0.2-1.1-0.8-1.3l-1.1-0.3
			v-0.5l4-0.9v8.7c0,1.9,1.4,2.8,2.8,2.8c1.1,0,2.4-0.6,3.7-1.7v-6.7c0-1.2-0.2-1.5-1.2-1.6l-1.6-0.3v-0.4l4.8-0.7v10.4
			c0,0.9,0.3,1,1.4,0.8l0.7-0.1L93,236.7L93,236.7z"/>
		<path class="st4" d="M98.5,235.1c0,1.3,0.6,1.9,1.8,1.9h0.5v0.6h-7V237c2,0,2.6-0.6,2.6-2.1v-15c0-0.9-0.1-1.1-1-1.2l-1.4-0.2V218
			l4-1.3h0.5V235.1z"/>
		<path class="st4" d="M102.5,229c-0.1-0.2-0.1-0.3-0.1-0.4c0-1.1,2.6-3.6,4.6-3.6c0.9,0,2.4,0.4,3.3,1.6c0.5,0.6,0.5,1.1,0.5,2.7
			v4.1c0,2.5,0,3,0.8,3c0.3,0,0.7,0,1.5-0.7l0.2,0.5c-1.7,1.4-2.5,1.7-3.1,1.7c-1.3,0-1.4-1.4-1.4-1.9c-2.1,1.8-2.8,1.9-3.6,1.9
			c-1.8,0-2.9-1-2.9-2.5c0-1.9,1.7-2.5,3.7-3c0.7-0.2,1.7-0.5,2.8-1.2v-2.4c0-0.9,0-1.4-0.5-2c-0.4-0.5-1.1-0.9-1.7-0.9
			c-1,0-1.9,0.9-1.9,1.5c0,0.2,0,0.3,0.2,0.6L102.5,229z M108.7,231.8c-0.6,0.3-1.1,0.6-1.8,0.9c-1.9,0.8-2.6,1.1-2.6,2.4
			c0,1.1,0.9,1.8,1.8,1.8c0.5,0,0.9-0.2,2.6-1.4V231.8z"/>
		<path class="st4" d="M125.5,234.8c-1.3,2.1-3,3.2-5.5,3.2c-3.7,0-5.2-3.5-5.2-6c0-3.9,3.2-7,7.1-7c1.9,0,3.5,0.8,3.5,1.8
			c0,0.5-0.4,0.9-0.9,0.9c-1.5,0-1.9-1.9-3.6-1.9c-2.1,0-4,2.5-4,5.5c0,3.1,1.9,5.4,4.4,5.4c1.5,0,2.7-0.7,3.8-2.2L125.5,234.8z"/>
		<path class="st4" d="M131.9,235.2c0,1.1,0.6,1.8,2.2,1.8v0.6h-6.9V237c1.9,0,2.6-0.6,2.6-2.3v-6.2c0-1.2-0.1-1.4-1-1.5l-1.5-0.3
			v-0.5l4-1.4h0.5V235.2z M130.6,217.9c0.7,0,1.4,0.5,1.4,1.2s-0.6,1.2-1.4,1.2s-1.3-0.5-1.3-1.2S129.9,217.9,130.6,217.9z"/>
		<path class="st4" d="M142.8,225c3.8,0,6.7,2.8,6.7,6.5c0,3.7-2.9,6.5-6.6,6.5c-3.8,0-6.8-2.8-6.8-6.4
			C136.1,227.3,139.6,225,142.8,225z M143.2,237.2c1.8,0,3.9-1.9,3.9-5c0-3.5-2.2-6.5-4.8-6.5c-2.1,0-3.9,2.1-3.9,4.8
			C138.4,234.3,140.6,237.2,143.2,237.2z M139.8,222.5l2.9-3.9c0.6-0.8,1.4-1.4,2-1.4c0.6,0,1,0.4,1,0.9c0,0.6-0.6,1.2-2.1,2.2
			l-3.3,2.2L139.8,222.5L139.8,222.5z"/>
		<path class="st4" d="M155.8,234.9c0,1.7,0.4,2.1,2.1,2.1v0.6h-6.2V237c1.4,0,2.1-0.7,2.1-1.9v-6.5c0-1.1-0.1-1.4-0.9-1.5l-1.1-0.2
			v-0.5l3.6-1.3h0.5v2.4c2.1-1.3,3.8-2.4,5.3-2.4c2.1,0,3.3,1.6,3.3,4.6c0,4.1-0.2,4.9-0.3,6.1c0,0.8,0.5,1.2,1.7,1.2h0.7v0.6H160
			V237c0.9,0,1.4-0.3,1.8-0.6c0.6-0.6,0.6-2.9,0.6-7c0-2.5-1.2-3.3-2.4-3.3c-1,0-2.5,0.9-4.1,2L155.8,234.9L155.8,234.9z"/>
		<path class="st4" d="M187.8,234.8c-1.3,2.1-3,3.2-5.5,3.2c-3.7,0-5.2-3.5-5.2-6c0-3.9,3.2-7,7.1-7c1.9,0,3.5,0.8,3.5,1.8
			c0,0.5-0.4,0.9-0.9,0.9c-1.5,0-1.9-1.9-3.6-1.9c-2.1,0-4,2.5-4,5.5c0,3.1,1.9,5.4,4.4,5.4c1.5,0,2.7-0.7,3.8-2.2L187.8,234.8z"/>
		<path class="st4" d="M197,225c3.8,0,6.7,2.8,6.7,6.5c0,3.7-2.9,6.5-6.6,6.5c-3.8,0-6.8-2.8-6.8-6.4C190.3,227.3,193.7,225,197,225
			z M197.4,237.2c1.8,0,3.9-1.9,3.9-5c0-3.5-2.2-6.5-4.8-6.5c-2.1,0-3.9,2.1-3.9,4.8C192.6,234.3,194.7,237.2,197.4,237.2z"/>
		<path class="st4" d="M210,234.9c0,1.7,0.4,2.1,2.1,2.1v0.6h-6.2V237c1.4,0,2.1-0.7,2.1-1.9v-6.5c0-1.1-0.1-1.4-0.9-1.5l-1.1-0.2
			v-0.5l3.6-1.3h0.5v2.4c2.1-1.3,3.8-2.4,5.3-2.4c2.1,0,3.3,1.6,3.3,4.6c0,4.1-0.2,4.9-0.3,6.1c0,0.8,0.5,1.2,1.7,1.2h0.7v0.6h-6.7
			V237c0.9,0,1.4-0.3,1.8-0.6c0.6-0.6,0.6-2.9,0.6-7c0-2.5-1.2-3.3-2.4-3.3c-1,0-2.5,0.9-4.1,2L210,234.9L210,234.9z"/>
		<path class="st4" d="M51.6,266.9c-0.1,0.5-0.1,0.9-0.1,1.3c0,3.2,2.3,5.4,4.7,5.4c1.5,0,2.8-0.6,3.9-2l0.3,0.4
			c-1.3,1.6-3.3,3.2-5.5,3.2c-3,0-5.4-2.8-5.4-6.4c0-3.3,2.2-6.6,6-6.6c4.2,0,4.1,3,5.1,4v0.7L51.6,266.9L51.6,266.9z M58.1,266.1
			c-0.3-2-1.6-3.4-3.1-3.4c-1,0-2.6,0.5-3.3,3.4H58.1z"/>
		<path class="st4" d="M66.5,272.4c0,1.3,0.6,1.9,1.8,1.9h0.5v0.6h-7v-0.6c2,0,2.6-0.6,2.6-2.1v-15c0-0.9-0.1-1.1-1-1.2l-1.4-0.2
			v-0.5l4-1.3h0.5C66.5,253.9,66.5,272.4,66.5,272.4z"/>
		<path class="st4" d="M97.7,260.6c-1-2.9-3.7-4.8-7.1-4.8c-5.2,0-8.4,3.8-8.4,9c0,5.6,4,9.7,8.7,9.7c2.4,0,5.5-0.8,7.6-4.6h0.6
			c-0.4,1.4-1.2,3.3-2,4.5c-2-0.3-3.3,0.8-7,0.8c-6.3,0-10.8-4.1-10.8-9.9c0-6,4.7-10.4,11.1-10.4c3.9,0,5.6,1.2,6.5,1.2
			c0.3,0,0.5-0.1,0.6-0.2h0.5l0.3,4.5L97.7,260.6L97.7,260.6z"/>
		<path class="st4" d="M108.4,262.2c3.8,0,6.7,2.8,6.7,6.5c0,3.7-2.9,6.5-6.6,6.5c-3.8,0-6.8-2.8-6.8-6.4
			C101.7,264.5,105.2,262.2,108.4,262.2z M108.9,274.4c1.8,0,3.9-1.9,3.9-5c0-3.5-2.2-6.5-4.8-6.5c-2.1,0-3.9,2.1-3.9,4.8
			C104.1,271.5,106.2,274.4,108.9,274.4z"/>
		<path class="st4" d="M121.4,272.1c0,1.7,0.4,2.1,2.1,2.1v0.6h-6.2v-0.6c1.4,0,2.1-0.7,2.1-2v-6.5c0-1.1-0.1-1.4-0.9-1.5l-1.1-0.2
			v-0.5l3.6-1.3h0.5v2.4c2.1-1.3,3.8-2.5,5.3-2.5c2.1,0,3.3,1.5,3.3,4.6c0,4.1-0.2,4.9-0.3,6.1c0,0.8,0.5,1.2,1.7,1.2h0.7v0.6h-6.7
			v-0.6c0.9,0,1.4-0.3,1.8-0.6c0.6-0.6,0.7-2.9,0.7-7c0-2.5-1.2-3.3-2.4-3.3c-1,0-2.5,0.9-4.1,2L121.4,272.1L121.4,272.1z"/>
		<path class="st4" d="M147.3,265.1c-0.5,0-1.9-0.2-3.1-0.4c0.2,0.3,0.5,1,0.5,2c0,2.3-2,4.5-5.4,4.5c-0.6,0-0.9-0.1-1.4-0.3
			c-0.5,0.5-1.9,0.9-1.9,1.6c0,0.8,1.3,1.1,4.4,1.1c3.5,0,4.7,0.2,5.6,1.1c0.7,0.7,0.9,1.5,0.9,2.2c0,2-2.7,5.1-8.5,5.1
			c-3.2,0-4.8-1.4-4.8-3c0-1.8,1.9-2.1,3.3-3.8c-1.7-0.2-2.9-1.2-2.9-2.2c0-1.4,2.1-1.5,3.2-2.3c-1.9-0.7-3-2.1-3-3.8
			c0-2.7,2.4-4.7,5.5-4.7c1.4,0,2.6,0.4,3.5,1.2c1.4,0,2.7-0.2,4.1-0.3L147.3,265.1L147.3,265.1z M140.2,281.2
			c2.6,0,5.1-1.7,5.1-3.7c0-1.1-1-1.7-2.1-1.8c-0.8-0.1-4.7-0.1-5.6-0.3c-0.9,1-2,1.5-2,2.7C135.6,279.5,137.7,281.2,140.2,281.2z
			 M139.4,262.8c-1.2,0-3,0.6-3,3.5c0,1.8,0.9,4.3,3.3,4.3c1.8,0,3-1.5,3-3.6C142.6,264.3,141.3,262.8,139.4,262.8z"/>
		<path class="st4" d="M153.1,272.5c0,1.3,0.5,1.7,2,1.7h1.2v0.6h-7.4v-0.6c1.6,0,2.1-0.7,2.1-2.3v-7.2l-2.1-0.7v-0.5l3.5-1.2h0.6
			v3.3h0.1c1.6-2.5,1.9-3.1,2.9-3.1c0.4,0,0.5,0,1.1,0.3c0.3,0.1,0.9,0.3,1.6,0.5L158,265c-0.5-0.1-1.1-0.2-1.6-0.5
			c-0.3-0.2-0.7-0.3-1.1-0.3c-0.6,0-0.9,0.4-1.2,0.8c-0.4,0.6-0.7,1.1-1,1.5L153.1,272.5L153.1,272.5z"/>
		<path class="st4" d="M161.3,266.9c-0.1,0.5-0.1,0.9-0.1,1.3c0,3.2,2.3,5.4,4.7,5.4c1.6,0,2.8-0.6,3.9-2l0.3,0.4
			c-1.3,1.6-3.3,3.2-5.5,3.2c-3,0-5.4-2.8-5.4-6.4c0-3.3,2.2-6.6,6-6.6c4.2,0,4.1,3,5.1,4v0.7L161.3,266.9L161.3,266.9z
			 M167.8,266.1c-0.3-2-1.6-3.4-3.1-3.4c-1,0-2.6,0.5-3.3,3.4H167.8z"/>
		<path class="st4" d="M172.9,271.7c0.4,1.9,1.6,2.9,2.9,2.9c1.2,0,2.2-0.9,2.2-2c0-0.6-0.1-1-1-1.9c-2.2-2.2-4.6-2.4-4.6-5
			c0-2,1.6-3.5,4-3.5c0.8,0,1.7,0.2,2.5,0.5l0.1,2.8h-0.5c-0.2-1.6-1.2-2.6-2.5-2.6c-1,0-1.9,0.7-1.9,1.7c0,2.7,5.8,3.2,5.8,7
			c0,2-1.7,3.5-3.8,3.5c-0.6,0-1-0.1-1.4-0.2c-0.3-0.1-0.6-0.2-0.8-0.2c-0.2,0-0.4,0.1-0.5,0.4h-0.5l-0.3-3.5H172.9z"/>
		<path class="st4" d="M188.8,262.2c3.8,0,6.7,2.8,6.7,6.5c0,3.7-2.9,6.5-6.6,6.5c-3.8,0-6.8-2.8-6.8-6.4
			C182.1,264.5,185.6,262.2,188.8,262.2z M189.3,274.4c1.8,0,3.9-1.9,3.9-5c0-3.5-2.2-6.5-4.8-6.5c-2.1,0-3.9,2.1-3.9,4.8
			C184.5,271.5,186.6,274.4,189.3,274.4z"/>
		<path class="st4" d="M37.5,294c0-0.6-0.2-0.7-1.2-0.9l-1-0.1v-0.5l4.3-1.3v18.2c0,1,0.7,1.3,1.5,1l0.7-0.2v0.6l-4,1.5h-0.4v-2.2
			c-2,1.5-3.6,2.2-4.8,2.2c-2.8,0-5-2.7-5-6c0-3.9,3-7,6.7-7c0.9,0,2.2,0.3,3,0.6C37.5,300,37.5,294,37.5,294z M37.5,302.5
			c-1.1-1.6-2.2-2.3-3.7-2.3c-2.4,0-4,2.2-4,5.1c0,3.1,1.8,5.7,4,5.7c1,0,2.3-0.6,3.7-1.5V302.5z"/>
		<path class="st4" d="M45.5,304.1c-0.1,0.5-0.1,0.9-0.1,1.3c0,3.2,2.3,5.4,4.7,5.4c1.5,0,2.8-0.6,3.9-2l0.3,0.4
			c-1.3,1.6-3.3,3.2-5.5,3.2c-3,0-5.4-2.8-5.4-6.4c0-3.3,2.2-6.6,6-6.6c4.2,0,4.1,3,5.1,4v0.7L45.5,304.1L45.5,304.1z M51.9,303.3
			c-0.3-2-1.6-3.4-3.1-3.4c-1,0-2.6,0.5-3.3,3.4H51.9z"/>
		<path class="st4" d="M68.9,309.5c0,1.3,0.6,1.9,1.8,1.9h0.5v0.6h-7v-0.6c2,0,2.6-0.6,2.6-2.1v-15c0-0.9-0.1-1.1-1-1.2l-1.4-0.2
			v-0.5l4-1.3h0.5L68.9,309.5L68.9,309.5z"/>
		<path class="st4" d="M72.9,303.4c-0.1-0.2-0.1-0.3-0.1-0.4c0-1.1,2.6-3.6,4.6-3.6c0.9,0,2.4,0.4,3.3,1.6c0.5,0.6,0.5,1,0.5,2.7
			v4.1c0,2.5,0,3,0.8,3c0.3,0,0.7,0,1.5-0.7l0.2,0.5c-1.7,1.4-2.5,1.7-3.1,1.7c-1.3,0-1.4-1.4-1.4-1.9c-2.1,1.8-2.8,1.9-3.6,1.9
			c-1.8,0-2.9-1-2.9-2.5c0-1.9,1.7-2.5,3.7-3c0.7-0.2,1.7-0.5,2.8-1.2v-2.5c0-0.9,0-1.4-0.5-2c-0.4-0.5-1.1-0.9-1.7-0.9
			c-1,0-1.9,0.9-1.9,1.5c0,0.2,0,0.3,0.2,0.6L72.9,303.4z M79.1,306.2c-0.6,0.3-1.1,0.6-1.8,0.9c-1.9,0.8-2.6,1.1-2.6,2.4
			c0,1.1,0.9,1.8,1.8,1.8c0.5,0,0.9-0.2,2.6-1.4V306.2z"/>
		<path class="st4" d="M98.6,309.1c0,1.9,0.7,2.3,2.5,2.3h0.7v0.6H93v-0.6h0.5c1.8,0,2.5-0.5,2.5-2.6v-13c0-1.9-0.5-2.5-2.3-2.5H93
			v-0.6c0.7,0,2.6-0.1,3.9-0.2c1.3-0.1,1.9-0.1,3.9-0.1c5.7,0,8.3,2.4,8.3,5.5c0,2.3-1.6,4.3-4.1,5c1.2,0.9,2.1,1.8,3.5,3.2l2.4,2.5
			c1.8,1.8,3.7,3,6.1,3.1v0.6c-5.4,0.3-6.8-0.9-9.6-3.7l-2.1-2c-1.4-1.4-2.4-2.3-3.2-2.8c-0.8,0-1.3,0.1-2.1,0.1
			c-0.7,0-1.1,0-1.6-0.1L98.6,309.1L98.6,309.1z M98.6,303.3c0.7,0.1,1.2,0.1,1.9,0.1c3.4,0,5.7-1.5,5.7-5.2c0-2.9-1.3-5.1-6.1-5.1
			c-0.6,0-1,0-1.6,0.1C98.6,293.1,98.6,303.3,98.6,303.3z"/>
		<path class="st4" d="M120.8,304.1c-0.1,0.5-0.1,0.9-0.1,1.3c0,3.2,2.3,5.4,4.7,5.4c1.6,0,2.8-0.6,3.9-2l0.3,0.4
			c-1.3,1.6-3.3,3.2-5.5,3.2c-3,0-5.4-2.8-5.4-6.4c0-3.3,2.2-6.6,6-6.6c4.2,0,4.1,3,5.1,4v0.7L120.8,304.1L120.8,304.1z
			 M127.3,303.3c-0.3-2-1.6-3.4-3.1-3.4c-1,0-2.6,0.5-3.3,3.4H127.3z"/>
		<path class="st4" d="M135.5,316.6c0,1.5,0.8,2,2.1,2h0.8v0.6h-7.3v-0.6h0.3c1.6,0,2.1-0.5,2.1-2.3v-13.7c0-0.6-0.1-0.8-0.9-1
			l-1-0.3v-0.6l3.3-2h0.6v3c1.9-1.5,3.6-2.3,4.8-2.3c2.4,0,4.6,2.7,4.6,5.8c0,3.8-3,7-6.6,7c-0.8,0-1.6-0.2-2.8-0.6L135.5,316.6
			L135.5,316.6z M135.5,309.6c1.1,1,2.5,1.7,3.7,1.7c2.1,0,3.7-2.1,3.7-4.6c0-4.1-2.4-5.6-4.1-5.6c-1,0-2.1,0.6-3.3,1.5L135.5,309.6
			L135.5,309.6z"/>
		<path class="st4" d="M161.8,311.1l-4.2,1.3v-2.5c-2.3,1.7-4,2.5-5.3,2.5c-1.6,0-3.3-1-3.3-3.2v-6.9c0-0.7-0.2-1.1-0.8-1.3
			l-1.1-0.3v-0.5l4-0.9v8.7c0,1.9,1.4,2.8,2.8,2.8c1.1,0,2.4-0.6,3.7-1.7v-6.7c0-1.2-0.1-1.5-1.1-1.6l-1.6-0.3v-0.4l4.8-0.7v10.5
			c0,0.9,0.3,1,1.4,0.8l0.6-0.1L161.8,311.1L161.8,311.1z M151.5,296.9l2.9-3.9c0.6-0.8,1.4-1.4,2-1.4c0.6,0,1,0.4,1,0.9
			c0,0.6-0.6,1.2-2.1,2.2l-3.3,2.2L151.5,296.9L151.5,296.9z"/>
		<path class="st4" d="M166.9,301.5c2.2-1.6,3.5-2.2,4.7-2.2c2.8,0,5.1,2.7,5.1,6c0,4-3.1,7-7.3,7c-1.4,0-2.6-0.2-4.6-0.6V295
			c0-1.6-0.1-1.7-1.3-1.9l-0.9-0.1v-0.5l3.7-1.3h0.5V301.5z M166.9,308.2c0,1.5,1,3.3,3.4,3.3c2.5,0,4.3-2.1,4.3-5.2
			s-1.8-5.4-4.2-5.4c-1,0-2.1,0.5-3.5,1.5V308.2z"/>
		<path class="st4" d="M182.4,309.5c0,1.3,0.6,1.9,1.8,1.9h0.5v0.6h-7v-0.6c2,0,2.6-0.6,2.6-2.1v-15c0-0.9-0.1-1.1-1-1.2L178,293
			v-0.5l4-1.3h0.5L182.4,309.5L182.4,309.5z"/>
		<path class="st4" d="M190.2,309.6c0,1.1,0.6,1.8,2.2,1.8v0.6h-6.9v-0.6c1.9,0,2.6-0.6,2.6-2.3v-6.2c0-1.2-0.2-1.4-1-1.5l-1.5-0.3
			v-0.5l4-1.4h0.5L190.2,309.6L190.2,309.6z M188.9,292.3c0.7,0,1.4,0.5,1.4,1.2s-0.6,1.2-1.4,1.2s-1.3-0.5-1.3-1.2
			S188.2,292.3,188.9,292.3z"/>
		<path class="st4" d="M205.2,309.1c-1.3,2.1-3,3.2-5.5,3.2c-3.7,0-5.2-3.5-5.2-6c0-3.9,3.2-7,7.1-7c1.9,0,3.5,0.8,3.5,1.8
			c0,0.5-0.4,0.9-0.9,0.9c-1.5,0-1.9-1.9-3.6-1.9c-2.1,0-4,2.5-4,5.5c0,3.1,1.9,5.4,4.4,5.4c1.5,0,2.7-0.7,3.8-2.2L205.2,309.1z"/>
		<path class="st4" d="M207.7,303.4c-0.1-0.2-0.1-0.3-0.1-0.4c0-1.1,2.6-3.6,4.6-3.6c0.9,0,2.4,0.4,3.3,1.6c0.5,0.6,0.5,1,0.5,2.7
			v4.1c0,2.5,0,3,0.8,3c0.3,0,0.7,0,1.5-0.7l0.2,0.5c-1.7,1.4-2.5,1.7-3.1,1.7c-1.3,0-1.4-1.4-1.4-1.9c-2.1,1.8-2.8,1.9-3.6,1.9
			c-1.8,0-2.9-1-2.9-2.5c0-1.9,1.7-2.5,3.7-3c0.6-0.2,1.7-0.5,2.8-1.2v-2.5c0-0.9,0-1.4-0.5-2c-0.4-0.5-1.1-0.9-1.7-0.9
			c-1,0-1.9,0.9-1.9,1.5c0,0.2,0,0.3,0.1,0.6L207.7,303.4z M213.8,306.2c-0.6,0.3-1.1,0.6-1.8,0.9c-1.9,0.8-2.6,1.1-2.6,2.4
			c0,1.1,0.9,1.8,1.8,1.8c0.5,0,0.9-0.2,2.6-1.4V306.2z"/>
	</g>
</g>
<g>
	<rect x="72.7" y="122.8" class="st5" width="100" height="4.1"/>
	<rect x="72.7" y="83.1" class="st5" width="100" height="4.1"/>
	<g>
		<rect x="102.2" y="85.1" class="st5" width="5" height="40.5"/>
		<rect x="114.2" y="85.1" class="st5" width="5" height="40.5"/>
		<rect x="126.2" y="85.1" class="st5" width="5" height="40.5"/>
		<rect x="138.2" y="85.1" class="st5" width="5" height="40.5"/>
	</g>
	<rect x="72.7" y="87.1" class="st5" width="22.7" height="36.6"/>
	<rect x="150" y="87.1" class="st5" width="22.7" height="36.6"/>
	<rect x="67.8" y="129.5" class="st5" width="109.8" height="4.1"/>
	<rect x="61.6" y="136.2" class="st5" width="122.2" height="4.1"/>
	<rect x="67.8" y="76" class="st5" width="109.8" height="4.1"/>
	<rect x="100.8" y="87.1" class="st5" width="7.8" height="2.1"/>
	<rect x="100.8" y="120.7" class="st5" width="7.8" height="2.1"/>
	<rect x="112.8" y="87.1" class="st5" width="7.8" height="2.1"/>
	<rect x="112.8" y="120.7" class="st5" width="7.8" height="2.1"/>
	<rect x="124.8" y="87.1" class="st5" width="7.8" height="2.1"/>
	<rect x="124.8" y="120.7" class="st5" width="7.8" height="2.1"/>
	<rect x="136.9" y="87.1" class="st5" width="7.8" height="2.1"/>
	<rect x="136.9" y="120.7" class="st5" width="7.8" height="2.1"/>
</g>
</svg>
