<?xml version="1.0" encoding="utf-8"?>
<!-- Generator: Adobe Illustrator 23.0.0, SVG Export Plug-In . SVG Version: 6.00 Build 0)  -->
<svg version="1.1" id="Layer_11" xmlns="http://www.w3.org/2000/svg" xmlns:xlink="http://www.w3.org/1999/xlink" x="0px" y="0px"
	 viewBox="0 0 245 873" style="enable-background:new 0 0 245 873;" xml:space="preserve">
<style type="text/css">
	.st0{fill:#E2E2E4;}
	.st1{fill:none;stroke:#909295;stroke-miterlimit:10;}
	.st2{fill:none;stroke:#909295;stroke-miterlimit:10;stroke-dasharray:3.0107,3.0107;}
	.st3{fill:none;stroke:#909295;stroke-miterlimit:10;stroke-dasharray:3.0362,3.0362;}
	.st4{fill:#231F20;}
	.st5{fill:#858789;}
	.st6{fill:#9FA2A4;}
	.st7{fill:#CFD1D3;}
</style>
<polygon class="st0" points="0,74.8 122.5,0 245,74.8 245,873 0,873 "/>
<g>
	<g>
		<line class="st1" x1="8.2" y1="873" x2="8.2" y2="871.5"/>
		<line class="st2" x1="8.2" y1="868.5" x2="8.2" y2="81.2"/>
		<polyline class="st1" points="8.2,79.7 8.2,78.2 9.5,77.4 		"/>
		<line class="st3" x1="12.1" y1="75.8" x2="120.2" y2="11.1"/>
		<polyline class="st1" points="121.5,10.3 122.7,9.5 124,10.3 		"/>
		<line class="st3" x1="126.6" y1="11.9" x2="234.7" y2="76.6"/>
		<polyline class="st1" points="236,77.4 237.3,78.2 237.3,79.7 		"/>
		<line class="st2" x1="237.3" y1="82.7" x2="237.3" y2="870"/>
		<line class="st1" x1="237.3" y1="871.5" x2="237.3" y2="873"/>
	</g>
</g>
<g>
	<g>
		<path class="st4" d="M62.6,200.4h-7.5v-0.6c1.9-0.1,2.3-0.6,2.3-2.7v-13.2c0-1.7-0.6-2.1-2.3-2.2v-0.6h7.5v0.6
			c-2,0-2.6,0.4-2.6,2.5v13.1c0,1.8,0.5,2.4,2.6,2.4V200.4z"/>
		<path class="st4" d="M68.9,197.7c0,1.7,0.4,2.1,2.1,2.1v0.6h-6.2v-0.6c1.4,0,2.1-0.7,2.1-1.9v-6.5c0-1.1-0.1-1.4-0.9-1.5l-1.1-0.2
			v-0.5l3.6-1.3h0.5v2.4c2.1-1.3,3.8-2.4,5.3-2.4c2.1,0,3.3,1.6,3.3,4.6c0,4.1-0.2,4.9-0.3,6.1c0,0.8,0.5,1.2,1.7,1.2h0.7v0.6h-6.7
			v-0.6c0.9,0,1.4-0.3,1.8-0.6c0.6-0.6,0.7-2.9,0.7-7c0-2.5-1.2-3.3-2.4-3.3c-1,0-2.5,0.9-4.1,2L68.9,197.7L68.9,197.7z"/>
		<path class="st4" d="M81.6,197.3c0.4,1.9,1.6,2.9,2.9,2.9c1.2,0,2.2-0.9,2.2-2.1c0-0.6-0.2-1.1-1-1.9c-2.2-2.2-4.7-2.4-4.7-5
			c0-2.1,1.6-3.5,4-3.5c0.8,0,1.7,0.2,2.5,0.5l0.1,2.8h-0.5c-0.2-1.6-1.2-2.6-2.5-2.6c-1,0-1.9,0.7-1.9,1.7c0,2.7,5.8,3.2,5.8,7
			c0,2-1.7,3.5-3.8,3.5c-0.6,0-1-0.1-1.4-0.2c-0.3-0.1-0.6-0.2-0.8-0.2c-0.2,0-0.4,0.1-0.5,0.4h-0.5l-0.3-3.5L81.6,197.3L81.6,197.3
			z"/>
		<path class="st4" d="M94.1,205c0,1.6,0.8,2,2.1,2H97v0.6h-7.3V207H90c1.6,0,2.1-0.5,2.1-2.3v-13.7c0-0.6-0.1-0.8-0.9-1l-1-0.3
			v-0.6l3.3-2.1h0.6v3c1.9-1.5,3.6-2.3,4.8-2.3c2.4,0,4.6,2.7,4.6,5.8c0,3.8-3,7-6.6,7c-0.8,0-1.6-0.2-2.8-0.6L94.1,205L94.1,205z
			 M94.1,198c1.1,1,2.5,1.7,3.7,1.7c2.1,0,3.7-2.1,3.7-4.6c0-4.1-2.4-5.6-4.1-5.6c-1,0-2.1,0.6-3.3,1.5
			C94.1,190.9,94.1,198,94.1,198z"/>
		<path class="st4" d="M108.5,192.5c-0.1,0.5-0.1,0.9-0.1,1.3c0,3.2,2.3,5.4,4.7,5.4c1.6,0,2.8-0.6,3.9-2l0.3,0.4
			c-1.3,1.6-3.3,3.2-5.5,3.2c-3,0-5.4-2.8-5.4-6.4c0-3.3,2.2-6.6,6-6.6c4.2,0,4.1,3,5.1,4v0.7L108.5,192.5L108.5,192.5z M115,191.7
			c-0.3-2-1.6-3.4-3.1-3.4c-1,0-2.6,0.5-3.3,3.4H115z"/>
		<path class="st4" d="M130.7,197.6c-1.3,2.1-3,3.2-5.5,3.2c-3.7,0-5.2-3.5-5.2-6c0-3.9,3.2-7,7.1-7c2,0,3.5,0.8,3.5,1.8
			c0,0.5-0.4,0.9-0.9,0.9c-1.5,0-1.9-1.9-3.6-1.9c-2.1,0-4,2.5-4,5.5c0,3.1,1.9,5.4,4.4,5.4c1.5,0,2.7-0.7,3.8-2.2L130.7,197.6z"/>
		<path class="st4" d="M143.9,197.6c-1.3,2.1-3,3.2-5.5,3.2c-3.7,0-5.2-3.5-5.2-6c0-3.9,3.2-7,7.1-7c1.9,0,3.5,0.8,3.5,1.8
			c0,0.5-0.4,0.9-0.9,0.9c-1.5,0-1.9-1.9-3.6-1.9c-2.1,0-4,2.5-4,5.5c0,3.1,1.9,5.4,4.4,5.4c1.5,0,2.7-0.7,3.8-2.2L143.9,197.6z"/>
		<path class="st4" d="M150.3,198c0,1.1,0.6,1.8,2.2,1.8v0.6h-6.9v-0.6c1.9,0,2.6-0.6,2.6-2.3v-6.2c0-1.2-0.2-1.4-1-1.5l-1.5-0.3
			V189l4-1.4h0.5L150.3,198L150.3,198z M149,180.6c0.7,0,1.4,0.5,1.4,1.2s-0.6,1.2-1.4,1.2s-1.3-0.5-1.3-1.2S148.2,180.6,149,180.6z
			"/>
		<path class="st4" d="M161.2,187.8c3.8,0,6.7,2.8,6.7,6.5c0,3.7-2.9,6.5-6.6,6.5c-3.8,0-6.8-2.8-6.8-6.4
			C154.5,190.1,158,187.8,161.2,187.8z M161.6,200c1.8,0,3.9-1.9,3.9-5c0-3.5-2.2-6.5-4.8-6.5c-2.1,0-3.9,2.1-3.9,4.8
			C156.8,197.1,159,200,161.6,200z M158.2,185.3l2.9-3.9c0.6-0.8,1.4-1.4,2-1.4c0.6,0,1,0.4,1,0.9c0,0.6-0.6,1.2-2.1,2.2l-3.3,2.2
			L158.2,185.3L158.2,185.3z"/>
		<path class="st4" d="M174.2,197.7c0,1.7,0.4,2.1,2.1,2.1v0.6h-6.2v-0.6c1.4,0,2.1-0.7,2.1-1.9v-6.5c0-1.1-0.1-1.4-0.9-1.5
			l-1.1-0.2v-0.5l3.6-1.3h0.5v2.4c2.1-1.3,3.8-2.4,5.3-2.4c2.1,0,3.3,1.6,3.3,4.6c0,4.1-0.2,4.9-0.3,6.1c0,0.8,0.5,1.2,1.7,1.2h0.7
			v0.6h-6.7v-0.6c0.9,0,1.4-0.3,1.8-0.6c0.6-0.6,0.6-2.9,0.6-7c0-2.5-1.2-3.3-2.4-3.3c-1,0-2.5,0.9-4.1,2L174.2,197.7L174.2,197.7z"
			/>
		<path class="st4" d="M187.7,204.4c1.6-0.9,2.4-2,2.4-3.1c0-0.4-0.1-0.6-0.4-0.6c-0.1,0-0.3,0-0.3,0c-0.1,0-0.2,0.1-0.4,0.1
			c-0.8,0-1.4-0.6-1.4-1.4c0-0.8,0.7-1.5,1.7-1.5c1.2,0,2.2,1.1,2.2,2.6c0,1.9-1.4,3.8-3.4,4.6L187.7,204.4z"/>
		<path class="st4" d="M71.1,237.9l-4.5-10.3c-0.5-1.1-0.9-1.5-1.4-1.6l-1-0.2v-0.6h6.3v0.6c-1.9,0.1-2.5,0.3-1.7,1.8l3.3,7.7
			l3.2-7.2c0.6-1.3,0.3-2.2-2-2.3v-0.6h5.4v0.6c-1.2,0.2-1.9,0.9-2.4,2.3l-4.3,9.7H71.1z"/>
		<path class="st4" d="M84.1,235.2c0,1.1,0.6,1.8,2.2,1.8v0.6h-6.9V237c1.9,0,2.6-0.6,2.6-2.3v-6.2c0-1.2-0.2-1.4-1-1.5l-1.5-0.3
			v-0.5l4-1.4h0.5L84.1,235.2L84.1,235.2z M82.8,217.9c0.7,0,1.4,0.5,1.4,1.2s-0.6,1.2-1.4,1.2s-1.3-0.5-1.3-1.2
			S82.1,217.9,82.8,217.9z"/>
		<path class="st4" d="M101.6,227.9c-0.5,0-1.9-0.2-3.1-0.4c0.2,0.3,0.5,1,0.5,2c0,2.3-2,4.5-5.4,4.5c-0.6,0-0.9-0.1-1.4-0.3
			c-0.5,0.5-1.9,0.9-1.9,1.6c0,0.8,1.3,1.1,4.4,1.1c3.5,0,4.7,0.2,5.6,1.1c0.7,0.7,0.9,1.5,0.9,2.2c0,2-2.7,5.1-8.5,5.1
			c-3.2,0-4.8-1.4-4.8-2.9c0-1.8,1.9-2.1,3.3-3.8c-1.7-0.2-2.9-1.2-2.9-2.2c0-1.4,2.1-1.5,3.2-2.3c-1.9-0.7-3-2.1-3-3.8
			c0-2.7,2.4-4.7,5.5-4.7c1.4,0,2.6,0.4,3.5,1.2c1.4,0,2.7-0.2,4.1-0.3L101.6,227.9L101.6,227.9z M94.6,244c2.6,0,5.1-1.7,5.1-3.7
			c0-1.1-1-1.7-2.1-1.8c-0.8-0.1-4.7-0.1-5.6-0.3c-0.9,1-2,1.5-2,2.7C90,242.3,92,244,94.6,244z M93.7,225.6c-1.2,0-3,0.6-3,3.5
			c0,1.8,0.9,4.3,3.3,4.3c1.8,0,3-1.5,3-3.6C97,227.1,95.6,225.6,93.7,225.6z"/>
		<path class="st4" d="M107.7,235.2c0,1.1,0.6,1.8,2.2,1.8v0.6H103V237c1.9,0,2.6-0.6,2.6-2.3v-6.2c0-1.2-0.2-1.4-1-1.5l-1.5-0.3
			v-0.5l4-1.4h0.5L107.7,235.2L107.7,235.2z M106.4,217.9c0.7,0,1.4,0.5,1.4,1.2s-0.6,1.2-1.4,1.2s-1.3-0.5-1.3-1.2
			S105.6,217.9,106.4,217.9z"/>
		<path class="st4" d="M115.3,235.1c0,1.3,0.6,1.9,1.8,1.9h0.5v0.6h-7V237c2,0,2.6-0.6,2.6-2.1v-15c0-0.9-0.1-1.1-1-1.2l-1.4-0.2
			V218l4-1.3h0.5L115.3,235.1L115.3,235.1z"/>
		<path class="st4" d="M119.3,229c-0.1-0.2-0.1-0.3-0.1-0.4c0-1.1,2.6-3.6,4.6-3.6c0.9,0,2.4,0.4,3.3,1.6c0.5,0.6,0.5,1.1,0.5,2.7
			v4.1c0,2.5,0,3,0.8,3c0.3,0,0.7,0,1.5-0.7l0.1,0.5c-1.7,1.4-2.5,1.7-3.1,1.7c-1.3,0-1.4-1.4-1.4-1.9c-2.1,1.8-2.8,1.9-3.6,1.9
			c-1.8,0-2.9-1-2.9-2.5c0-1.9,1.7-2.5,3.7-3c0.7-0.2,1.7-0.5,2.8-1.2v-2.4c0-0.9,0-1.4-0.5-2c-0.4-0.5-1.1-0.9-1.7-0.9
			c-1,0-1.9,0.9-1.9,1.5c0,0.2,0,0.3,0.2,0.6L119.3,229z M125.5,231.8c-0.6,0.3-1.1,0.6-1.8,0.9c-1.9,0.8-2.6,1.1-2.6,2.4
			c0,1.1,0.9,1.8,1.8,1.8c0.5,0,0.9-0.2,2.6-1.4V231.8z"/>
		<path class="st4" d="M135.2,234.9c0,1.7,0.4,2.1,2.1,2.1v0.6H131V237c1.4,0,2.1-0.7,2.1-1.9v-6.5c0-1.1-0.1-1.4-0.9-1.5l-1.1-0.2
			v-0.5l3.6-1.3h0.5v2.4c2.1-1.3,3.8-2.4,5.3-2.4c2.1,0,3.3,1.6,3.3,4.6c0,4.1-0.2,4.9-0.3,6.1c0,0.8,0.5,1.2,1.7,1.2h0.7v0.6h-6.7
			V237c0.9,0,1.4-0.3,1.8-0.6c0.6-0.6,0.6-2.9,0.6-7c0-2.5-1.2-3.3-2.4-3.3c-1,0-2.5,0.9-4.1,2L135.2,234.9L135.2,234.9z"/>
		<path class="st4" d="M158.5,234.8c-1.3,2.1-3,3.2-5.5,3.2c-3.7,0-5.2-3.5-5.2-6c0-3.9,3.2-7,7.1-7c1.9,0,3.5,0.8,3.5,1.8
			c0,0.5-0.4,0.9-0.9,0.9c-1.5,0-1.9-1.9-3.6-1.9c-2.1,0-4,2.5-4,5.5c0,3.1,1.9,5.4,4.4,5.4c1.5,0,2.7-0.7,3.8-2.2L158.5,234.8z"/>
		<path class="st4" d="M164.8,235.2c0,1.1,0.6,1.8,2.2,1.8v0.6h-6.9V237c1.9,0,2.6-0.6,2.6-2.3v-6.2c0-1.2-0.2-1.4-1-1.5l-1.5-0.3
			v-0.5l4-1.4h0.5L164.8,235.2L164.8,235.2z M163.5,217.9c0.7,0,1.4,0.5,1.4,1.2s-0.6,1.2-1.4,1.2s-1.3-0.5-1.3-1.2
			S162.8,217.9,163.5,217.9z"/>
		<path class="st4" d="M169.1,229c-0.1-0.2-0.1-0.3-0.1-0.4c0-1.1,2.6-3.6,4.6-3.6c0.9,0,2.4,0.4,3.3,1.6c0.5,0.6,0.5,1.1,0.5,2.7
			v4.1c0,2.5,0,3,0.8,3c0.3,0,0.7,0,1.5-0.7l0.2,0.5c-1.7,1.4-2.5,1.7-3.1,1.7c-1.3,0-1.4-1.4-1.4-1.9c-2.1,1.8-2.8,1.9-3.6,1.9
			c-1.8,0-2.9-1-2.9-2.5c0-1.9,1.7-2.5,3.7-3c0.6-0.2,1.7-0.5,2.8-1.2v-2.4c0-0.9,0-1.4-0.5-2c-0.4-0.5-1.1-0.9-1.7-0.9
			c-1,0-1.9,0.9-1.9,1.5c0,0.2,0,0.3,0.2,0.6L169.1,229z M175.2,231.8c-0.6,0.3-1.1,0.6-1.8,0.9c-1.9,0.8-2.6,1.1-2.6,2.4
			c0,1.1,0.9,1.8,1.8,1.8c0.5,0,0.9-0.2,2.6-1.4V231.8z"/>
		<path class="st4" d="M77.4,266c0.9-2.4,0.3-2.8-1.5-2.9v-0.6H81v0.6c-1.3,0.2-2,1-2.6,2.5l-5.3,13.1c-0.9,2.3-1.6,3.3-2.7,3.3
			c-0.7,0-1.3-0.5-1.3-1.1c0-1.3,1.8-1,2.6-1.7c0.3-0.3,0.8-1.1,1.1-1.8l0.9-2.3l-4.8-10.2c-0.6-1.3-1.2-1.8-2.4-1.8v-0.6h6.2v0.6
			c-1.9,0-2.1,0.6-1.5,1.9l3.5,7.6L77.4,266z"/>
		<path class="st4" d="M101.9,272c-1.3,2.1-3,3.2-5.5,3.2c-3.7,0-5.2-3.5-5.2-6c0-3.9,3.2-7,7.1-7c1.9,0,3.5,0.8,3.5,1.8
			c0,0.5-0.4,0.9-0.9,0.9c-1.5,0-1.9-1.9-3.6-1.9c-2.1,0-4,2.5-4,5.5c0,3.1,1.9,5.4,4.4,5.4c1.5,0,2.7-0.7,3.8-2.2L101.9,272z"/>
		<path class="st4" d="M111.1,262.2c3.8,0,6.7,2.8,6.7,6.5c0,3.7-2.9,6.5-6.6,6.5c-3.8,0-6.8-2.8-6.8-6.4
			C104.4,264.5,107.9,262.2,111.1,262.2z M111.6,274.4c1.8,0,3.9-1.9,3.9-5c0-3.5-2.2-6.5-4.8-6.5c-2.1,0-3.9,2.1-3.9,4.8
			C106.8,271.5,108.9,274.4,111.6,274.4z"/>
		<path class="st4" d="M124.1,272.1c0,1.7,0.4,2.1,2.1,2.1v0.6H120v-0.6c1.4,0,2.1-0.7,2.1-2v-6.5c0-1.1-0.1-1.4-0.9-1.5l-1.1-0.2
			v-0.5l3.6-1.3h0.5v2.4c2.1-1.3,3.8-2.5,5.3-2.5c2.1,0,3.3,1.5,3.3,4.6c0,4.1-0.2,4.9-0.3,6.1c0,0.8,0.5,1.2,1.7,1.2h0.7v0.6h-6.7
			v-0.6c0.9,0,1.4-0.3,1.8-0.6c0.6-0.6,0.6-2.9,0.6-7c0-2.5-1.2-3.3-2.4-3.3c-1,0-2.5,0.9-4.1,2L124.1,272.1L124.1,272.1z"/>
		<path class="st4" d="M144.2,262.5l-0.5,1.4h-3.9v7.2c0,2,1.4,2.6,2.1,2.6c0.7,0,1.3-0.5,1.9-1.5l0.5,0.5c-0.7,1.6-1.9,2.5-3.4,2.5
			c-1.8,0-3.1-1.5-3.1-3.6v-7.7h-1.4v-0.5c1.2-0.6,2.3-2,3-3.9h0.5v3.1L144.2,262.5L144.2,262.5z"/>
		<path class="st4" d="M149.4,272.5c0,1.3,0.5,1.7,2,1.7h1.2v0.6h-7.4v-0.6c1.6,0,2.1-0.7,2.1-2.3v-7.2l-2.1-0.7v-0.5l3.5-1.2h0.6
			v3.3h0.1c1.6-2.5,1.9-3.1,2.9-3.1c0.4,0,0.5,0,1.1,0.3c0.3,0.1,0.9,0.3,1.6,0.5l-0.7,1.9c-0.5-0.1-1.1-0.2-1.6-0.5
			c-0.3-0.2-0.7-0.3-1.1-0.3c-0.6,0-0.9,0.4-1.2,0.8c-0.4,0.6-0.7,1.1-1,1.5L149.4,272.5L149.4,272.5z"/>
		<path class="st4" d="M161.9,262.2c3.8,0,6.7,2.8,6.7,6.5c0,3.7-2.9,6.5-6.6,6.5c-3.8,0-6.8-2.8-6.8-6.4
			C155.2,264.5,158.6,262.2,161.9,262.2z M162.3,274.4c1.8,0,3.9-1.9,3.9-5c0-3.5-2.2-6.5-4.8-6.5c-2.1,0-3.9,2.1-3.9,4.8
			C157.5,271.5,159.6,274.4,162.3,274.4z"/>
		<path class="st4" d="M174.8,272.4c0,1.3,0.6,1.9,1.8,1.9h0.5v0.6h-7v-0.6c2,0,2.6-0.6,2.6-2.1v-15c0-0.9-0.1-1.1-1-1.2l-1.4-0.2
			v-0.5l4-1.3h0.5L174.8,272.4L174.8,272.4z"/>
	</g>
</g>
<g>
	<g>
		<path class="st5" d="M115.5,79.5c0-3.5-2.8-6.3-6.3-6.3s-6.3,2.8-6.3,6.3c0,0.6,0.1,1.2,0.3,1.7l-1.4,3.7l13.7,3.1v-7.9l0,0
			C115.5,79.9,115.5,79.7,115.5,79.5z"/>
		<path class="st6" d="M116,89.5c0-0.4,0.1-0.7,0.1-1.1c0-6.5-5.3-11.8-11.8-11.8c-3.6,0-6.9,1.7-9.1,4.3l0,0l0,0c0,0,0,0,0,0
			l-22.2,25.8l43,16L116,89.5L116,89.5z"/>
		<path class="st5" d="M109.2,97.3c0,0,6.1,4.5,5.1,13.8l-1.5,4.5h2.3h7.8V97.3H109.2z"/>
		<rect x="116" y="94.2" class="st6" width="6.9" height="3.2"/>
		<circle class="st5" cx="92.5" cy="119.6" r="23.4"/>
		<circle class="st6" cx="92.5" cy="119.6" r="17.6"/>
		<circle class="st7" cx="96.3" cy="114.9" r="5.4"/>
	</g>
	<g>
		<path class="st5" d="M129.9,79.5c0-3.5,2.8-6.3,6.3-6.3s6.3,2.8,6.3,6.3c0,0.6-0.1,1.2-0.3,1.7l1.4,3.7L129.9,88v-7.9l0,0
			C129.9,79.9,129.9,79.7,129.9,79.5z"/>
		<path class="st6" d="M129.4,89.5c0-0.4-0.1-0.7-0.1-1.1c0-6.5,5.3-11.8,11.8-11.8c3.6,0,6.9,1.7,9.1,4.3l0,0l0,0c0,0,0,0,0,0
			l22.2,25.8l-43,16L129.4,89.5L129.4,89.5z"/>
		<path class="st5" d="M136.1,97.3c0,0-6.1,4.5-5.1,13.8l1.5,4.5h-2.3h-7.8V97.3H136.1z"/>
		<rect x="122.4" y="94.2" class="st6" width="6.9" height="3.2"/>
		<circle class="st5" cx="152.9" cy="119.6" r="23.4"/>
		<circle class="st6" cx="152.9" cy="119.6" r="17.6"/>
		<circle class="st7" cx="149" cy="114.9" r="5.4"/>
	</g>
</g>
</svg>
