<?xml version="1.0" encoding="utf-8"?>
<!-- Generator: Adobe Illustrator 23.0.0, SVG Export Plug-In . SVG Version: 6.00 Build 0)  -->
<svg version="1.1" id="Layer_11" xmlns="http://www.w3.org/2000/svg" xmlns:xlink="http://www.w3.org/1999/xlink" x="0px" y="0px"
	 viewBox="0 0 245 873" style="enable-background:new 0 0 245 873;" xml:space="preserve">
<style type="text/css">
	.st0{fill:#E2E2E4;}
	.st1{fill:none;stroke:#909295;stroke-miterlimit:10;}
	.st2{fill:none;stroke:#909295;stroke-miterlimit:10;stroke-dasharray:3.0107,3.0107;}
	.st3{fill:none;stroke:#909295;stroke-miterlimit:10;stroke-dasharray:3.0362,3.0362;}
	.st4{fill:#9FA2A4;}
	.st5{fill:#858789;}
	.st6{fill:#231F20;}
</style>
<polygon class="st0" points="0,74.8 122.5,0 245,74.8 245,873 0,873 "/>
<g>
	<g>
		<line class="st1" x1="8.2" y1="873" x2="8.2" y2="871.5"/>
		<line class="st2" x1="8.2" y1="868.5" x2="8.2" y2="81.2"/>
		<polyline class="st1" points="8.2,79.7 8.2,78.2 9.5,77.4 		"/>
		<line class="st3" x1="12.1" y1="75.8" x2="120.2" y2="11.1"/>
		<polyline class="st1" points="121.5,10.3 122.7,9.5 124,10.3 		"/>
		<line class="st3" x1="126.6" y1="11.9" x2="234.7" y2="76.6"/>
		<polyline class="st1" points="236,77.4 237.3,78.2 237.3,79.7 		"/>
		<line class="st2" x1="237.3" y1="82.7" x2="237.3" y2="870"/>
		<line class="st1" x1="237.3" y1="871.5" x2="237.3" y2="873"/>
	</g>
</g>
<g>
	<g>
		<g>
			<circle class="st4" cx="128.4" cy="108.3" r="36"/>
		</g>
		<g>
			<g>
				<path class="st5" d="M119.3,62.9l0.3,3.5l8.8-6.3l-9.8-4.5l0.3,3.6c-11,2.1-21,7.9-28.3,16.5c-7.7,9-12,20.5-12,32.4
					c0,1,0.8,1.8,1.8,1.8s1.8-0.8,1.8-1.8C82.3,85.9,97.8,67.2,119.3,62.9z"/>
				<path class="st5" d="M176.5,106.3c-1,0-1.8,0.8-1.8,1.8c0,22.2-15.5,40.9-37,45.3l-0.3-3.6l-8.8,6.3l9.9,4.5L138,157
					c11-2.1,21-7.9,28.3-16.5c7.7-9,12-20.5,12-32.4C178.3,107.1,177.5,106.3,176.5,106.3z"/>
				<path class="st5" d="M167.2,108.7c0.3-21.9-17.4-39.3-38.2-39.5c-21.2-0.3-39.1,16.9-39.2,38.1c-0.1,22,16.9,39.3,38.5,39.3
					C149.6,146.5,166.9,129.4,167.2,108.7z M145,137.6c-11.8,6.5-23.9,6.1-35.1-1.3c-11.4-7.5-16.5-18.5-15.2-32.1
					c0.9-9.9,5.8-17.9,13.8-23.9c0.4-0.3,0.8-0.5,1.2-0.8c1.7,1.6,1.7,3,0.7,5.2c-1,2.3-2.1,4.3-3.6,6.2c-1.3,1.7-1.1,3.8-0.4,5.9
					c0.8,2.3,1.6,4.7,2.2,7.2c0.4,2,1.5,3.3,3.3,4c2.9,1.2,5.6,2.4,7.4,5.2c0.3,0.5,1.4,0.5,2.1,0.8c-0.1-0.7,0.1-1.5-0.2-2
					c-0.7-1.3-1.1-2.9-2.9-3.2c-0.3-0.1-0.7-0.8-0.7-1.2c-0.1-1.5-0.9-1.5-2-1.4c-0.8,0-2.1-0.1-2.3-0.6c-0.4-0.8-0.5-2.1-0.1-3
					c0.9-2.4,3.8-3.3,6.3-1.9c1.8,1,2.3,0.7,3.5-1.1c1.7-2.4,4.3-4.2,6.6-6.1c1-0.8,2.4-1.2,3.4-1.9c1.6-1.2,1.7-2.3,0.4-3.8
					c-0.8-0.9-1.9-1.6-2.9-2.4c-1.1-0.8-1.3-1.8-0.4-2.9c0.8-1,1.5-1.2,2.5-0.2c0.7,0.8,1.6,1.5,2.5,2c1.2,0.6,1.7,0,1.7-1.3
					c0-1,0.2-2.1,0-3.1c-0.1-0.8-0.5-1.6-1.1-2.1c-1-1.1-2.1-2.1-3-3.4c4.1,0,7.6,1,10.4,4.2c0.9,1.1,2.3,1.9,3.6,2.6
					c1.4,0.8,2.2,1.7,2.5,3.3c0.1,0.8,0.8,1.5,1.1,2.3c0.3,0.5,0.4,1.2,0.6,1.7c0.2,0.5,0.6,0.8,0.9,1.3c0.4-0.4,0.9-0.8,1.1-1.4
					c0.2-0.4,0-1,0-1.4c2.5-0.1,3.6,1.2,4.7,3.9c-0.8-0.2-2.1-0.6-2.2-0.4c-0.8,1.5-2,3.1-1.9,4.6c0.3,4.7,0.6,9.4,3.1,13.6
					c1.3,2.2,1.6,2.3,3.4,0.7c0.4-0.3,1.3-0.7,1.6-0.4c0.4,0.3,0.7,1.1,0.6,1.7C161.2,122.5,155.5,131.8,145,137.6z"/>
				<path class="st5" d="M145.5,119.3c-0.4-0.1-0.9-0.3-1.3-0.3c-2.8-0.1-5-1.1-7.1-3c-2.7-2.5-6-3.8-10.5-4.2c-0.7,0.4-2.1,1-3,2.1
					c-3.8,4.6-3.1,9.5,1.7,13.5c2.6,2.1,2.9,3.4,1.5,6.5c-0.6,1.3-1.3,2.6-1.7,4c-0.2,0.6,0.2,1.8,0.6,2.1c0.4,0.3,1.5,0,2.1-0.3
					c1.5-0.9,2.8-2,4.3-3c3.8-2.6,7.6-5.2,11.4-7.8c0.4-0.3,0.7-0.8,1-1.3c0.8-1.4,1.6-2.8,2.4-4.2
					C148.3,121.3,147.8,120,145.5,119.3z"/>
			</g>
		</g>
	</g>
</g>
<g>
	<g>
		<path class="st6" d="M83.6,197.4c0,1.7,0.5,2.4,2.5,2.4h1v0.6h-8.6v-0.6H79c1.6,0,2.1-0.3,2.1-1.8v-14.7c0-1.1-0.4-1.6-1.5-1.6H78
			v-0.6c0.9,0,2.4-0.1,3.9-0.2s3-0.1,3.8-0.1c6.5,0,8,3.1,8,5.5c0,3.6-2.9,5.9-7.5,5.9c-0.9,0-1.7-0.1-2.6-0.3L83.6,197.4
			L83.6,197.4z M83.6,191.4c0.4,0.1,1.1,0.3,1.7,0.3c3.4,0,5.6-2.3,5.6-5.4c0-2.4-1-4.8-5.1-4.8c-0.7,0-1.4,0-2.1,0.1V191.4z"/>
		<path class="st6" d="M101.4,187.8c3.8,0,6.7,2.8,6.7,6.5c0,3.7-2.9,6.5-6.6,6.5c-3.8,0-6.8-2.8-6.8-6.4
			C94.7,190.1,98.2,187.8,101.4,187.8z M101.8,200c1.8,0,3.9-1.9,3.9-5c0-3.5-2.2-6.5-4.8-6.5c-2.1,0-3.9,2.1-3.9,4.8
			C97,197.1,99.2,200,101.8,200z"/>
		<path class="st6" d="M114.3,197.9c0,1.3,0.6,1.9,1.8,1.9h0.5v0.6h-7v-0.6c2,0,2.6-0.6,2.6-2.1v-15c0-0.9-0.1-1.1-1-1.2l-1.4-0.2
			v-0.5l4-1.3h0.5V197.9z"/>
		<path class="st6" d="M122.1,198c0,1.1,0.6,1.8,2.2,1.8v0.6h-6.9v-0.6c1.9,0,2.6-0.6,2.6-2.3v-6.2c0-1.2-0.2-1.4-1-1.5l-1.5-0.3
			V189l4-1.4h0.5L122.1,198L122.1,198z M118,185.3l2.8-3.9c0.6-0.8,1.4-1.4,2-1.4c0.6,0,1,0.4,1,0.9c0,0.6-0.6,1.2-2.1,2.2l-3.3,2.2
			L118,185.3L118,185.3z"/>
		<path class="st6" d="M133.8,188.1l-0.5,1.4h-3.9v7.2c0,1.9,1.4,2.6,2.1,2.6c0.7,0,1.3-0.5,1.9-1.6l0.5,0.5
			c-0.7,1.6-1.9,2.5-3.4,2.5c-1.8,0-3.1-1.5-3.1-3.6v-7.7h-1.4V189c1.2-0.6,2.3-2,3-3.9h0.5v3.1L133.8,188.1L133.8,188.1z"/>
		<path class="st6" d="M139.2,198c0,1.1,0.6,1.8,2.2,1.8v0.6h-6.9v-0.6c1.9,0,2.6-0.6,2.6-2.3v-6.2c0-1.2-0.2-1.4-1-1.5l-1.5-0.3
			V189l4-1.4h0.5L139.2,198L139.2,198z M137.9,180.6c0.7,0,1.4,0.5,1.4,1.2s-0.6,1.2-1.4,1.2s-1.3-0.5-1.3-1.2
			S137.2,180.6,137.9,180.6z"/>
		<path class="st6" d="M154.2,197.6c-1.3,2.1-3,3.2-5.5,3.2c-3.7,0-5.2-3.5-5.2-6c0-3.9,3.2-7,7.1-7c1.9,0,3.5,0.8,3.5,1.8
			c0,0.5-0.4,0.9-0.9,0.9c-1.5,0-1.9-1.9-3.6-1.9c-2.1,0-4,2.5-4,5.5c0,3.1,1.9,5.4,4.4,5.4c1.5,0,2.7-0.7,3.8-2.2L154.2,197.6z"/>
		<path class="st6" d="M156.7,191.8c-0.1-0.2-0.1-0.3-0.1-0.4c0-1.1,2.6-3.6,4.6-3.6c0.9,0,2.4,0.4,3.3,1.6c0.5,0.6,0.5,1.1,0.5,2.7
			v4.1c0,2.5,0,3,0.8,3c0.3,0,0.7,0,1.5-0.7l0.2,0.5c-1.7,1.4-2.5,1.7-3.1,1.7c-1.3,0-1.4-1.4-1.4-1.9c-2.1,1.8-2.8,1.9-3.6,1.9
			c-1.8,0-2.9-1-2.9-2.5c0-1.9,1.7-2.5,3.7-3c0.6-0.2,1.7-0.5,2.8-1.2v-2.4c0-0.9,0-1.4-0.5-2c-0.4-0.5-1.1-0.9-1.7-0.9
			c-1,0-1.9,0.9-1.9,1.5c0,0.2,0,0.3,0.1,0.6L156.7,191.8z M162.9,194.6c-0.6,0.3-1.1,0.6-1.8,0.9c-1.9,0.8-2.6,1.1-2.6,2.4
			c0,1.1,0.9,1.8,1.8,1.8c0.5,0,0.9-0.2,2.6-1.4V194.6z"/>
		<path class="st6" d="M47.6,235.2c0,1.1,0.6,1.8,2.2,1.8v0.6H43V237c1.9,0,2.6-0.6,2.6-2.3v-6.2c0-1.2-0.2-1.4-1-1.5l-1.5-0.3v-0.5
			l4-1.4h0.5L47.6,235.2L47.6,235.2z M46.4,217.9c0.7,0,1.4,0.5,1.4,1.2s-0.6,1.2-1.4,1.2S45,219.7,45,219S45.6,217.9,46.4,217.9z"
			/>
		<path class="st6" d="M55.5,234.9c0,1.7,0.4,2.1,2.1,2.1v0.6h-6.2V237c1.4,0,2.1-0.7,2.1-1.9v-6.5c0-1.1-0.1-1.4-0.9-1.5l-1-0.2
			v-0.5L55,225h0.5v2.4c2.1-1.3,3.8-2.4,5.3-2.4c2.1,0,3.3,1.6,3.3,4.6c0,4.1-0.2,4.9-0.3,6.1c0,0.8,0.5,1.2,1.7,1.2h0.7v0.6h-6.7
			V237c0.9,0,1.4-0.3,1.8-0.6c0.6-0.6,0.7-2.9,0.7-7c0-2.5-1.2-3.3-2.5-3.3c-1,0-2.5,0.9-4.1,2V234.9z"/>
		<path class="st6" d="M75.5,225.3l-0.5,1.4H71v7.2c0,1.9,1.4,2.6,2.1,2.6c0.7,0,1.3-0.5,1.9-1.6l0.5,0.5c-0.7,1.6-1.9,2.5-3.4,2.5
			c-1.8,0-3.1-1.5-3.1-3.6v-7.7h-1.4v-0.5c1.2-0.6,2.3-2,3-3.9h0.5v3.1L75.5,225.3L75.5,225.3z"/>
		<path class="st6" d="M79.2,229.7c-0.1,0.5-0.1,0.9-0.1,1.3c0,3.2,2.3,5.4,4.7,5.4c1.6,0,2.8-0.6,3.9-2l0.3,0.4
			c-1.3,1.6-3.3,3.2-5.5,3.2c-3,0-5.4-2.8-5.4-6.4c0-3.3,2.2-6.6,6-6.6c4.2,0,4.1,3,5.1,4v0.7L79.2,229.7L79.2,229.7z M85.7,228.9
			c-0.3-2-1.6-3.4-3.1-3.4c-1,0-2.6,0.5-3.3,3.4H85.7z"/>
		<path class="st6" d="M94.2,235.3c0,1.3,0.5,1.7,2,1.7h1.2v0.6h-7.3V237c1.6,0,2.1-0.7,2.1-2.3v-7.2l-2.1-0.7v-0.5l3.5-1.2h0.6v3.3
			h0.1c1.6-2.5,1.9-3.1,2.9-3.1c0.4,0,0.5,0,1.1,0.3c0.3,0.1,0.9,0.3,1.6,0.5l-0.7,1.9c-0.5-0.1-1.1-0.2-1.6-0.5
			c-0.3-0.2-0.7-0.3-1.1-0.3c-0.6,0-0.9,0.4-1.2,0.8c-0.4,0.6-0.7,1.1-1,1.6L94.2,235.3L94.2,235.3z"/>
		<path class="st6" d="M105.8,234.9c0,1.7,0.4,2.1,2.1,2.1v0.6h-6.2V237c1.4,0,2.1-0.7,2.1-1.9v-6.5c0-1.1-0.1-1.4-0.9-1.5l-1.1-0.2
			v-0.5l3.6-1.3h0.5v2.4c2.1-1.3,3.8-2.4,5.3-2.4c2.1,0,3.3,1.6,3.3,4.6c0,4.1-0.2,4.9-0.3,6.1c0,0.8,0.5,1.2,1.7,1.2h0.7v0.6H110
			V237c0.9,0,1.4-0.3,1.8-0.6c0.6-0.6,0.7-2.9,0.7-7c0-2.5-1.2-3.3-2.4-3.3c-1,0-2.5,0.9-4.1,2L105.8,234.9L105.8,234.9z"/>
		<path class="st6" d="M118.4,229c-0.1-0.2-0.1-0.3-0.1-0.4c0-1.1,2.6-3.6,4.6-3.6c0.9,0,2.4,0.4,3.3,1.6c0.5,0.6,0.5,1.1,0.5,2.7
			v4.1c0,2.5,0,3,0.8,3c0.3,0,0.7,0,1.5-0.7l0.1,0.5c-1.7,1.4-2.5,1.7-3.1,1.7c-1.3,0-1.4-1.4-1.4-1.9c-2.1,1.8-2.8,1.9-3.6,1.9
			c-1.8,0-2.9-1-2.9-2.5c0-1.9,1.7-2.5,3.7-3c0.7-0.2,1.7-0.5,2.8-1.2v-2.4c0-0.9,0-1.4-0.5-2c-0.4-0.5-1.1-0.9-1.7-0.9
			c-1,0-1.9,0.9-1.9,1.5c0,0.2,0,0.3,0.2,0.6L118.4,229z M124.5,231.8c-0.6,0.3-1.1,0.6-1.8,0.9c-1.9,0.8-2.6,1.1-2.6,2.4
			c0,1.1,0.9,1.8,1.8,1.8c0.5,0,0.9-0.2,2.6-1.4V231.8z"/>
		<path class="st6" d="M141.4,234.8c-1.3,2.1-3,3.2-5.5,3.2c-3.7,0-5.2-3.5-5.2-6c0-3.9,3.2-7,7.1-7c1.9,0,3.5,0.8,3.5,1.8
			c0,0.5-0.4,0.9-0.9,0.9c-1.5,0-1.9-1.9-3.6-1.9c-2.1,0-4,2.5-4,5.5c0,3.1,1.9,5.4,4.4,5.4c1.5,0,2.7-0.7,3.8-2.2L141.4,234.8z"/>
		<path class="st6" d="M147.7,235.2c0,1.1,0.6,1.8,2.2,1.8v0.6H143V237c1.9,0,2.6-0.6,2.6-2.3v-6.2c0-1.2-0.1-1.4-1-1.5l-1.5-0.3
			v-0.5l4-1.4h0.5L147.7,235.2L147.7,235.2z M146.4,217.9c0.7,0,1.4,0.5,1.4,1.2s-0.6,1.2-1.4,1.2s-1.3-0.5-1.3-1.2
			S145.7,217.9,146.4,217.9z"/>
		<path class="st6" d="M158.6,225c3.8,0,6.7,2.8,6.7,6.5c0,3.7-2.9,6.5-6.6,6.5c-3.8,0-6.8-2.8-6.8-6.4
			C151.9,227.3,155.4,225,158.6,225z M159.1,237.2c1.8,0,3.9-1.9,3.9-5c0-3.5-2.2-6.5-4.8-6.5c-2.1,0-3.9,2.1-3.9,4.8
			C154.3,234.3,156.4,237.2,159.1,237.2z"/>
		<path class="st6" d="M171.7,234.9c0,1.7,0.4,2.1,2.1,2.1v0.6h-6.2V237c1.4,0,2.1-0.7,2.1-1.9v-6.5c0-1.1-0.1-1.4-0.9-1.5l-1.1-0.2
			v-0.5l3.6-1.3h0.5v2.4c2.1-1.3,3.8-2.4,5.3-2.4c2.1,0,3.3,1.6,3.3,4.6c0,4.1-0.2,4.9-0.3,6.1c0,0.8,0.5,1.2,1.7,1.2h0.7v0.6h-6.7
			V237c0.9,0,1.4-0.3,1.8-0.6c0.6-0.6,0.6-2.9,0.6-7c0-2.5-1.2-3.3-2.4-3.3c-1,0-2.5,0.9-4.1,2L171.7,234.9L171.7,234.9z"/>
		<path class="st6" d="M184.3,229c-0.1-0.2-0.1-0.3-0.1-0.4c0-1.1,2.6-3.6,4.6-3.6c0.9,0,2.4,0.4,3.3,1.6c0.5,0.6,0.5,1.1,0.5,2.7
			v4.1c0,2.5,0,3,0.8,3c0.3,0,0.7,0,1.5-0.7l0.1,0.5c-1.7,1.4-2.5,1.7-3.1,1.7c-1.3,0-1.4-1.4-1.4-1.9c-2.1,1.8-2.8,1.9-3.6,1.9
			c-1.8,0-2.9-1-2.9-2.5c0-1.9,1.7-2.5,3.7-3c0.6-0.2,1.7-0.5,2.8-1.2v-2.4c0-0.9,0-1.4-0.5-2c-0.4-0.5-1.1-0.9-1.7-0.9
			c-1,0-1.9,0.9-1.9,1.5c0,0.2,0,0.3,0.2,0.6L184.3,229z M190.4,231.8c-0.6,0.3-1.1,0.6-1.8,0.9c-1.9,0.8-2.6,1.1-2.6,2.4
			c0,1.1,0.9,1.8,1.8,1.8c0.5,0,0.9-0.2,2.6-1.4V231.8z"/>
		<path class="st6" d="M200,235.1c0,1.3,0.6,1.9,1.8,1.9h0.5v0.6h-7V237c2,0,2.6-0.6,2.6-2.1v-15c0-0.9-0.1-1.1-1-1.2l-1.4-0.2V218
			l4-1.3h0.5L200,235.1L200,235.1z"/>
	</g>
</g>
</svg>
