<?xml version="1.0" encoding="utf-8"?>
<!-- Generator: Adobe Illustrator 23.0.0, SVG Export Plug-In . SVG Version: 6.00 Build 0)  -->
<svg version="1.1" id="Layer_11" xmlns="http://www.w3.org/2000/svg" xmlns:xlink="http://www.w3.org/1999/xlink" x="0px" y="0px"
	 viewBox="0 0 245 873" style="enable-background:new 0 0 245 873;" xml:space="preserve">
<style type="text/css">
	.st0{fill:#E2E2E4;}
	.st1{fill:none;stroke:#909295;stroke-miterlimit:10;}
	.st2{fill:none;stroke:#909295;stroke-miterlimit:10;stroke-dasharray:3.0107,3.0107;}
	.st3{fill:none;stroke:#909295;stroke-miterlimit:10;stroke-dasharray:3.0362,3.0362;}
	.st4{fill:#9FA2A4;}
	.st5{fill:#858789;}
	.st6{enable-background:new    ;}
	.st7{fill:#231F20;}
</style>
<polygon class="st0" points="0,74.8 122.5,0 245,74.8 245,873 0,873 "/>
<g>
	<g>
		<line class="st1" x1="8.2" y1="873" x2="8.2" y2="871.5"/>
		<line class="st2" x1="8.2" y1="868.5" x2="8.2" y2="81.2"/>
		<polyline class="st1" points="8.2,79.7 8.2,78.2 9.5,77.4 		"/>
		<line class="st3" x1="12.1" y1="75.8" x2="120.2" y2="11.1"/>
		<polyline class="st1" points="121.5,10.3 122.7,9.5 124,10.3 		"/>
		<line class="st3" x1="126.6" y1="11.9" x2="234.7" y2="76.6"/>
		<polyline class="st1" points="236,77.4 237.3,78.2 237.3,79.7 		"/>
		<line class="st2" x1="237.3" y1="82.7" x2="237.3" y2="870"/>
		<line class="st1" x1="237.3" y1="871.5" x2="237.3" y2="873"/>
	</g>
</g>
<g>
	<path class="st4" d="M122.5,151.1c43.8-14.5,40-72.5,40-72.5c-20.7-0.5-32.1-13.3-32.1-13.3h-7.8h-7.8c0,0-11.4,12.9-32.2,13.3
		C82.5,78.6,78.7,136.6,122.5,151.1z"/>
	<path class="st5" d="M122.5,151.1c43.8-14.5,40-72.5,40-72.5c-20.7-0.5-32.1-13.3-32.1-13.3h-7.8
		C122.5,65.2,122.5,151.1,122.5,151.1z"/>
</g>
<g>
	<g class="st6">
		<path class="st7" d="M65.9,184.2c0-2-0.5-2.5-2.4-2.5h-0.6v-0.6c1.1-0.1,2.7-0.1,4.4-0.2s3.6-0.1,5.2-0.1c8.2,0,11.8,4.1,11.8,9.3
			c0,4.7-3.6,10.3-11.5,10.3h-9.9v-0.6h0.5c1.7,0,2.4-0.5,2.4-2.3C65.9,197.6,65.9,184.2,65.9,184.2z M68.5,198.1
			c0,1.3,0.1,1.7,2.5,1.7c4.2,0,5.9-0.6,7.8-2.5c1.2-1.1,2.6-3.5,2.6-6.7c0-2.3-0.7-4.8-2.5-6.7c-1.4-1.4-3.6-2.5-8-2.5
			c-1.3,0-2.1,0.1-2.5,0.1L68.5,198.1L68.5,198.1z"/>
		<path class="st7" d="M89.6,192.5c-0.1,0.5-0.1,0.9-0.1,1.3c0,3.2,2.3,5.4,4.7,5.4c1.6,0,2.8-0.6,3.9-2l0.3,0.4
			c-1.3,1.6-3.3,3.2-5.5,3.2c-3,0-5.4-2.8-5.4-6.4c0-3.3,2.2-6.6,6-6.6c4.2,0,4.1,3,5.1,4v0.7L89.6,192.5L89.6,192.5z M96,191.7
			c-0.3-2-1.6-3.4-3.1-3.4c-1,0-2.6,0.5-3.3,3.4H96z"/>
		<path class="st7" d="M107.8,189.5h-3.3v8.5c0,1.4,0.6,1.8,2.3,1.8h1.2v0.6h-7.7v-0.6c1.8,0,2.1-0.4,2.1-2.1v-8.2h-2.3V189
			c0.9-0.2,1.6-0.5,2.3-0.8c0-2.6,0.6-4.5,2.4-6.4c1.5-1.5,3-2.2,4.4-2.2c1.7,0,3.2,1,3.2,1.5c0,0.3-0.6,1.5-0.8,1.5
			c-0.4,0-1.6-1.5-3.6-1.5c-2.2,0-3.4,1.8-3.4,4.8v2.4h3.1L107.8,189.5z"/>
		<path class="st7" d="M111.5,192.5c-0.1,0.5-0.1,0.9-0.1,1.3c0,3.2,2.3,5.4,4.7,5.4c1.6,0,2.8-0.6,3.9-2l0.3,0.4
			c-1.3,1.6-3.3,3.2-5.5,3.2c-3,0-5.4-2.8-5.4-6.4c0-3.3,2.2-6.6,6-6.6c4.2,0,4.1,3,5.1,4v0.7L111.5,192.5L111.5,192.5z M118,191.7
			c-0.3-2-1.6-3.4-3.1-3.4c-1,0-2.6,0.5-3.3,3.4H118z"/>
		<path class="st7" d="M126.6,197.7c0,1.7,0.4,2.1,2.1,2.1v0.6h-6.2v-0.6c1.4,0,2.1-0.7,2.1-1.9v-6.5c0-1.1-0.1-1.4-0.9-1.5
			l-1.1-0.2v-0.5l3.6-1.3h0.5v2.4c2.1-1.3,3.8-2.4,5.3-2.4c2.1,0,3.3,1.6,3.3,4.6c0,4.1-0.2,4.9-0.3,6.1c0,0.8,0.5,1.2,1.7,1.2h0.7
			v0.6h-6.7v-0.6c0.9,0,1.4-0.3,1.8-0.6c0.6-0.6,0.6-2.9,0.6-7c0-2.5-1.2-3.3-2.4-3.3c-1,0-2.5,0.9-4.1,2L126.6,197.7L126.6,197.7z"
			/>
		<path class="st7" d="M139.2,197.3c0.4,1.9,1.6,2.9,2.9,2.9c1.2,0,2.2-0.9,2.2-2.1c0-0.6-0.2-1.1-1-1.9c-2.2-2.2-4.6-2.4-4.6-5
			c0-2.1,1.6-3.5,4-3.5c0.8,0,1.7,0.2,2.5,0.5l0.1,2.8h-0.5c-0.2-1.6-1.2-2.6-2.5-2.6c-1,0-1.9,0.7-1.9,1.7c0,2.7,5.8,3.2,5.8,7
			c0,2-1.7,3.5-3.8,3.5c-0.6,0-1-0.1-1.4-0.2c-0.3-0.1-0.6-0.2-0.8-0.2c-0.2,0-0.4,0.1-0.5,0.4h-0.5l-0.3-3.5L139.2,197.3
			L139.2,197.3z"/>
		<path class="st7" d="M148.5,191.8c-0.1-0.2-0.1-0.3-0.1-0.4c0-1.1,2.6-3.6,4.6-3.6c0.9,0,2.4,0.4,3.3,1.6c0.5,0.6,0.5,1.1,0.5,2.7
			v4.2c0,2.5,0,3,0.8,3c0.3,0,0.7,0,1.5-0.7l0.2,0.5c-1.7,1.4-2.5,1.7-3.1,1.7c-1.3,0-1.4-1.4-1.4-1.9c-2.1,1.8-2.8,1.9-3.6,1.9
			c-1.8,0-2.9-1-2.9-2.5c0-1.9,1.7-2.5,3.7-3c0.6-0.2,1.7-0.5,2.8-1.2v-2.4c0-0.9,0-1.4-0.5-2c-0.4-0.5-1.1-0.9-1.7-0.9
			c-1,0-1.9,0.9-1.9,1.5c0,0.2,0,0.3,0.1,0.6L148.5,191.8z M154.6,194.6c-0.6,0.3-1.1,0.6-1.8,0.9c-1.9,0.8-2.6,1.1-2.6,2.4
			c0,1.1,0.9,1.8,1.8,1.8c0.5,0,0.9-0.2,2.6-1.4V194.6z"/>
		<path class="st7" d="M178.7,191.6c0.9-2.4,0.3-2.8-1.5-2.9v-0.6h5.1v0.6c-1.3,0.2-2,1-2.6,2.5l-5.3,13.1c-0.9,2.3-1.6,3.3-2.7,3.3
			c-0.7,0-1.3-0.5-1.3-1.1c0-1.3,1.8-1,2.6-1.7c0.3-0.3,0.8-1.1,1.1-1.8l0.9-2.3l-4.8-10.2c-0.6-1.3-1.1-1.8-2.4-1.8v-0.6h6.2v0.6
			c-1.9,0-2.1,0.6-1.5,1.9l3.5,7.6L178.7,191.6z"/>
	</g>
	<g class="st6">
		<path class="st7" d="M33.8,235.1c0,1.6,0.4,1.9,2.2,1.9v0.6h-6.5V237c1.8,0,2.2-0.8,2.2-2.4v-6.1c0-1.2-0.2-1.5-0.9-1.6l-1.2-0.2
			v-0.5l3.7-1.3h0.5v2.5c2.2-1.6,4.3-2.5,5.5-2.5c1.5,0,2.6,1,3,2.5c2.1-1.3,4-2.5,5.5-2.5c2.2,0,3.1,1.7,3.1,4.7c0,2,0,4.1-0.1,5.9
			c0,0.6,0.4,1.4,1.6,1.4h1v0.6h-7V237h0.3c0.9,0,1.3-0.2,1.6-0.4c0.5-0.5,0.5-2.3,0.5-4.4v-2.4c0-2.4-0.8-3.5-2.3-3.5
			c-1,0-2.2,0.5-4.1,1.7v7.1c0,1.6,0.4,1.9,1.9,1.9v0.6h-6.4V237c1.7,0,2.4-0.6,2.4-2.4v-5.7c0-1.9-1.2-2.7-2.3-2.7
			c-0.9,0-2,0.4-4.2,1.8L33.8,235.1L33.8,235.1z"/>
		<path class="st7" d="M54.8,229c-0.1-0.2-0.1-0.3-0.1-0.4c0-1.1,2.6-3.6,4.6-3.6c0.9,0,2.4,0.4,3.3,1.6c0.5,0.6,0.5,1.1,0.5,2.7
			v4.2c0,2.5,0,3,0.8,3c0.3,0,0.7,0,1.5-0.7l0.2,0.5c-1.7,1.4-2.5,1.7-3.1,1.7c-1.3,0-1.4-1.4-1.4-1.9c-2.1,1.8-2.8,1.9-3.6,1.9
			c-1.8,0-2.9-1-2.9-2.5c0-1.9,1.7-2.5,3.7-3c0.7-0.2,1.7-0.5,2.8-1.2v-2.4c0-0.9,0-1.4-0.5-2c-0.4-0.5-1-0.9-1.7-0.9
			c-1,0-1.9,0.9-1.9,1.5c0,0.2,0,0.3,0.2,0.6L54.8,229z M60.9,231.8c-0.6,0.3-1.1,0.6-1.8,0.9c-1.9,0.8-2.6,1.1-2.6,2.4
			c0,1.1,0.9,1.8,1.8,1.8c0.5,0,0.9-0.2,2.6-1.4V231.8z"/>
		<path class="st7" d="M70.6,234.9c0,1.7,0.4,2.1,2.1,2.1v0.6h-6.2V237c1.4,0,2.1-0.7,2.1-1.9v-6.5c0-1.1-0.1-1.4-0.9-1.5l-1.1-0.2
			v-0.5l3.6-1.3h0.5v2.4c2.1-1.3,3.8-2.4,5.3-2.4c2.1,0,3.3,1.6,3.3,4.6c0,4.1-0.2,4.9-0.3,6.1c0,0.8,0.5,1.2,1.7,1.2h0.7v0.6h-6.7
			V237c0.9,0,1.4-0.3,1.8-0.6c0.6-0.6,0.7-2.9,0.7-7c0-2.5-1.2-3.3-2.4-3.3c-1,0-2.5,0.9-4.1,2L70.6,234.9L70.6,234.9z"/>
		<path class="st7" d="M90.6,225.3l-0.5,1.4h-3.9v7.2c0,1.9,1.4,2.6,2.1,2.6c0.7,0,1.3-0.5,1.9-1.6l0.5,0.5
			c-0.7,1.6-1.9,2.5-3.4,2.5c-1.8,0-3.1-1.5-3.1-3.6v-7.7h-1.4v-0.5c1.2-0.6,2.3-2,3-3.9h0.5v3.1L90.6,225.3L90.6,225.3z"/>
		<path class="st7" d="M94.4,229.7c-0.1,0.5-0.1,0.9-0.1,1.3c0,3.2,2.3,5.4,4.7,5.4c1.6,0,2.8-0.6,3.9-2l0.3,0.4
			c-1.3,1.6-3.3,3.2-5.5,3.2c-3,0-5.4-2.8-5.4-6.4c0-3.3,2.2-6.6,6-6.6c4.2,0,4.1,3,5.1,4v0.7L94.4,229.7L94.4,229.7z M100.8,228.9
			c-0.3-2-1.6-3.4-3.1-3.4c-1,0-2.6,0.5-3.3,3.4H100.8z"/>
		<path class="st7" d="M109.4,234.9c0,1.7,0.4,2.1,2.1,2.1v0.6h-6.2V237c1.4,0,2.1-0.7,2.1-1.9v-6.5c0-1.1-0.1-1.4-0.9-1.5l-1.1-0.2
			v-0.5l3.6-1.3h0.5v2.4c2.1-1.3,3.8-2.4,5.3-2.4c2.1,0,3.3,1.6,3.3,4.6c0,4.1-0.2,4.9-0.3,6.1c0,0.8,0.5,1.2,1.7,1.2h0.7v0.6h-6.7
			V237c0.9,0,1.4-0.3,1.8-0.6c0.6-0.6,0.7-2.9,0.7-7c0-2.5-1.2-3.3-2.4-3.3c-1,0-2.5,0.9-4.1,2L109.4,234.9L109.4,234.9z"/>
		<path class="st7" d="M125.8,235.2c0,1.1,0.6,1.8,2.2,1.8v0.6h-6.9V237c1.9,0,2.6-0.6,2.6-2.3v-6.2c0-1.2-0.2-1.4-1-1.5l-1.5-0.3
			v-0.5l4-1.4h0.5L125.8,235.2L125.8,235.2z M124.5,217.9c0.7,0,1.4,0.5,1.4,1.2s-0.6,1.2-1.4,1.2s-1.3-0.5-1.3-1.2
			C123.2,218.4,123.8,217.9,124.5,217.9z"/>
		<path class="st7" d="M133.6,235.1c0,1.6,0.4,1.9,2.2,1.9v0.6h-6.4V237c1.8,0,2.2-0.8,2.2-2.4v-6.1c0-1.2-0.2-1.5-0.9-1.6l-1.2-0.2
			v-0.5l3.7-1.3h0.5v2.5c2.2-1.6,4.3-2.5,5.5-2.5c1.5,0,2.6,1,2.9,2.5c2.1-1.3,4-2.5,5.5-2.5c2.2,0,3.1,1.7,3.1,4.7
			c0,2,0,4.1-0.1,5.9c0,0.6,0.4,1.4,1.6,1.4h1v0.6h-7V237h0.3c0.9,0,1.3-0.2,1.6-0.4c0.5-0.5,0.5-2.3,0.5-4.4v-2.4
			c0-2.4-0.8-3.5-2.3-3.5c-1,0-2.2,0.5-4.1,1.7v7.1c0,1.6,0.4,1.9,1.9,1.9v0.6h-6.4V237c1.7,0,2.4-0.6,2.4-2.4v-5.7
			c0-1.9-1.2-2.7-2.3-2.7c-0.9,0-2.1,0.4-4.1,1.8L133.6,235.1L133.6,235.1z"/>
		<path class="st7" d="M158.4,235.2c0,1.1,0.6,1.8,2.2,1.8v0.6h-6.9V237c1.9,0,2.6-0.6,2.6-2.3v-6.2c0-1.2-0.2-1.4-1-1.5l-1.5-0.3
			v-0.5l4-1.4h0.5L158.4,235.2L158.4,235.2z M157.1,217.9c0.7,0,1.4,0.5,1.4,1.2s-0.6,1.2-1.4,1.2s-1.3-0.5-1.3-1.2
			C155.8,218.4,156.4,217.9,157.1,217.9z"/>
		<path class="st7" d="M164.8,229.7c-0.1,0.5-0.1,0.9-0.1,1.3c0,3.2,2.3,5.4,4.7,5.4c1.6,0,2.8-0.6,3.9-2l0.3,0.4
			c-1.3,1.6-3.3,3.2-5.5,3.2c-3,0-5.4-2.8-5.4-6.4c0-3.3,2.2-6.6,6-6.6c4.2,0,4.1,3,5.1,4v0.7L164.8,229.7L164.8,229.7z
			 M171.2,228.9c-0.3-2-1.6-3.4-3.1-3.4c-1,0-2.6,0.5-3.3,3.4H171.2z"/>
		<path class="st7" d="M179.8,234.9c0,1.7,0.4,2.1,2.1,2.1v0.6h-6.2V237c1.4,0,2.1-0.7,2.1-1.9v-6.5c0-1.1-0.1-1.4-0.9-1.5l-1.1-0.2
			v-0.5l3.6-1.3h0.5v2.4c2.1-1.3,3.8-2.4,5.3-2.4c2.1,0,3.3,1.6,3.3,4.6c0,4.1-0.2,4.9-0.3,6.1c0,0.8,0.5,1.2,1.7,1.2h0.7v0.6H184
			V237c0.9,0,1.4-0.3,1.8-0.6c0.6-0.6,0.6-2.9,0.6-7c0-2.5-1.2-3.3-2.4-3.3c-1,0-2.5,0.9-4.1,2L179.8,234.9L179.8,234.9z"/>
		<path class="st7" d="M199.8,225.3l-0.5,1.4h-3.9v7.2c0,1.9,1.4,2.6,2.1,2.6c0.7,0,1.3-0.5,1.9-1.6l0.5,0.5
			c-0.7,1.6-1.9,2.5-3.4,2.5c-1.8,0-3.1-1.5-3.1-3.6v-7.7h-1.4v-0.5c1.2-0.6,2.3-2,3-3.9h0.5v3.1L199.8,225.3L199.8,225.3z"/>
		<path class="st7" d="M208.1,225c3.8,0,6.7,2.8,6.7,6.5c0,3.7-2.9,6.5-6.6,6.5c-3.8,0-6.8-2.8-6.8-6.4
			C201.4,227.3,204.9,225,208.1,225z M208.6,237.2c1.8,0,3.9-1.9,3.9-5c0-3.5-2.2-6.5-4.8-6.5c-2.1,0-3.9,2.1-3.9,4.8
			C203.8,234.3,205.9,237.2,208.6,237.2z"/>
	</g>
	<g class="st6">
		<path class="st7" d="M75.2,256.8c0-0.6-0.2-0.7-1.2-0.9l-1-0.1v-0.5l4.3-1.3v18.2c0,1,0.7,1.3,1.5,1l0.7-0.2v0.6l-4,1.5h-0.4V273
			c-2,1.5-3.6,2.2-4.8,2.2c-2.8,0-5-2.7-5-6c0-3.9,2.9-7,6.7-7c0.9,0,2.2,0.3,3,0.6V256.8z M75.2,265.3c-1.1-1.6-2.2-2.3-3.7-2.3
			c-2.4,0-4,2.2-4,5.1c0,3.1,1.8,5.7,4,5.7c1,0,2.3-0.6,3.7-1.5V265.3z"/>
		<path class="st7" d="M83.1,266.9c-0.1,0.5-0.1,0.9-0.1,1.3c0,3.2,2.3,5.4,4.7,5.4c1.6,0,2.8-0.6,3.9-2L92,272
			c-1.3,1.6-3.3,3.2-5.5,3.2c-3,0-5.4-2.8-5.4-6.4c0-3.3,2.2-6.6,6-6.6c4.2,0,4.1,3,5.1,4v0.7L83.1,266.9L83.1,266.9z M89.6,266.1
			c-0.3-2-1.6-3.4-3.1-3.4c-1,0-2.6,0.5-3.3,3.4H89.6z"/>
		<path class="st7" d="M98,272.4c0,1.3,0.6,1.9,1.8,1.9h0.5v0.6h-7v-0.6c2,0,2.6-0.6,2.6-2.1v-15c0-0.9-0.1-1.1-1-1.2l-1.4-0.1v-0.5
			l4-1.3H98V272.4z"/>
		<path class="st7" d="M117.3,262.2c3.8,0,6.7,2.8,6.7,6.5c0,3.7-2.9,6.5-6.6,6.5c-3.8,0-6.8-2.8-6.8-6.4
			C110.6,264.5,114.1,262.2,117.3,262.2z M117.7,274.4c1.8,0,3.9-1.9,3.9-5c0-3.5-2.2-6.5-4.8-6.5c-2.1,0-3.9,2.1-3.9,4.8
			C112.9,271.5,115.1,274.4,117.7,274.4z"/>
		<path class="st7" d="M130.3,272.5c0,1.3,0.5,1.7,2,1.7h1.2v0.6h-7.3v-0.6c1.6,0,2.1-0.7,2.1-2.3v-7.2l-2.1-0.7v-0.5l3.5-1.2h0.6
			v3.3h0.1c1.6-2.5,1.9-3.1,2.9-3.1c0.4,0,0.5,0,1.1,0.3c0.3,0.1,0.9,0.3,1.6,0.5l-0.7,1.9c-0.5-0.1-1.1-0.2-1.6-0.5
			c-0.3-0.2-0.7-0.3-1.1-0.3c-0.6,0-0.9,0.4-1.2,0.8c-0.4,0.6-0.7,1.1-1,1.5L130.3,272.5L130.3,272.5z"/>
		<path class="st7" d="M146.2,256.8c0-0.6-0.2-0.7-1.2-0.9l-1-0.1v-0.5l4.3-1.3v18.2c0,1,0.6,1.3,1.5,1l0.7-0.2v0.6l-4,1.5h-0.4V273
			c-2,1.5-3.6,2.2-4.8,2.2c-2.8,0-5-2.7-5-6c0-3.9,2.9-7,6.7-7c0.9,0,2.2,0.3,3,0.6L146.2,256.8L146.2,256.8z M146.2,265.3
			c-1.1-1.6-2.2-2.3-3.7-2.3c-2.4,0-4,2.2-4,5.1c0,3.1,1.8,5.7,4,5.7c1,0,2.3-0.6,3.7-1.5V265.3z"/>
		<path class="st7" d="M154.1,266.9c-0.1,0.5-0.1,0.9-0.1,1.3c0,3.2,2.3,5.4,4.7,5.4c1.6,0,2.8-0.6,3.9-2l0.3,0.4
			c-1.3,1.6-3.3,3.2-5.5,3.2c-3,0-5.4-2.8-5.4-6.4c0-3.3,2.2-6.6,6-6.6c4.2,0,4.1,3,5.1,4v0.7L154.1,266.9L154.1,266.9z
			 M160.6,266.1c-0.3-2-1.6-3.4-3.1-3.4c-1,0-2.6,0.5-3.3,3.4H160.6z"/>
		<path class="st7" d="M169.1,272.1c0,1.7,0.4,2.1,2.1,2.1v0.6H165v-0.6c1.4,0,2.1-0.7,2.1-2v-6.5c0-1.1-0.1-1.4-0.9-1.5l-1.1-0.2
			v-0.5l3.6-1.3h0.5v2.4c2.1-1.3,3.8-2.5,5.3-2.5c2.1,0,3.3,1.5,3.3,4.6c0,4.1-0.2,4.9-0.3,6.1c0,0.8,0.5,1.2,1.7,1.2h0.7v0.6h-6.7
			v-0.6c0.9,0,1.4-0.3,1.8-0.6c0.6-0.6,0.6-2.9,0.6-7c0-2.5-1.2-3.3-2.4-3.3c-1,0-2.5,0.9-4.1,2L169.1,272.1L169.1,272.1z"/>
	</g>
	<g class="st6">
		<path class="st7" d="M81.1,316.6c0,1.5,0.8,2,2.1,2H84v0.6h-7.3v-0.6H77c1.6,0,2.1-0.5,2.1-2.3v-13.7c0-0.6-0.1-0.8-0.9-1l-1-0.3
			v-0.6l3.3-2h0.6v3c1.9-1.5,3.6-2.3,4.8-2.3c2.4,0,4.6,2.7,4.6,5.8c0,3.8-3,7-6.6,7c-0.8,0-1.6-0.2-2.8-0.6L81.1,316.6L81.1,316.6z
			 M81.1,309.6c1.1,1,2.5,1.7,3.7,1.7c2.1,0,3.7-2.1,3.7-4.6c0-4.1-2.4-5.6-4.1-5.6c-1,0-2.1,0.6-3.3,1.5
			C81.1,302.5,81.1,309.6,81.1,309.6z"/>
		<path class="st7" d="M107.4,311.1l-4.2,1.3v-2.5c-2.3,1.7-4,2.5-5.3,2.5c-1.6,0-3.3-1-3.3-3.2v-6.9c0-0.7-0.2-1.1-0.8-1.3
			l-1.1-0.3v-0.5l4-0.9v8.7c0,1.9,1.4,2.8,2.8,2.8c1.1,0,2.4-0.6,3.7-1.7v-6.7c0-1.2-0.2-1.5-1.2-1.6l-1.6-0.3v-0.4l4.8-0.7v10.5
			c0,0.9,0.3,1,1.4,0.8l0.7-0.1L107.4,311.1L107.4,311.1z M97.1,296.9l2.8-3.9c0.6-0.8,1.4-1.4,2-1.4c0.6,0,1,0.4,1,0.9
			c0,0.6-0.6,1.2-2.1,2.2l-3.3,2.2L97.1,296.9L97.1,296.9z"/>
		<path class="st7" d="M112.5,301.5c2.2-1.6,3.5-2.2,4.7-2.2c2.8,0,5.1,2.7,5.1,6c0,4-3.1,7-7.3,7c-1.4,0-2.6-0.2-4.6-0.6V295
			c0-1.6-0.1-1.7-1.3-1.9l-0.9-0.1v-0.5l3.7-1.3h0.5V301.5z M112.5,308.2c0,1.5,1,3.3,3.4,3.3c2.5,0,4.3-2.1,4.3-5.2
			c0-3.1-1.8-5.4-4.2-5.4c-1,0-2.1,0.5-3.5,1.5C112.5,302.3,112.5,308.2,112.5,308.2z"/>
		<path class="st7" d="M128,309.5c0,1.3,0.6,1.9,1.8,1.9h0.5v0.6h-7v-0.6c2,0,2.6-0.6,2.6-2.1v-15c0-0.9-0.1-1.1-1-1.2l-1.4-0.1
			v-0.5l4-1.3h0.5V309.5z"/>
		<path class="st7" d="M135.8,309.6c0,1.1,0.6,1.8,2.2,1.8v0.6h-6.9v-0.6c1.9,0,2.6-0.6,2.6-2.3v-6.2c0-1.2-0.2-1.4-1-1.5l-1.5-0.3
			v-0.5l4-1.4h0.5L135.8,309.6L135.8,309.6z M134.5,292.3c0.7,0,1.4,0.5,1.4,1.2s-0.6,1.2-1.4,1.2s-1.3-0.5-1.3-1.2
			C133.2,292.8,133.8,292.3,134.5,292.3z"/>
		<path class="st7" d="M150.8,309.1c-1.3,2.1-3,3.2-5.5,3.2c-3.7,0-5.2-3.5-5.2-6c0-3.9,3.2-7,7.1-7c1.9,0,3.5,0.8,3.5,1.8
			c0,0.5-0.4,0.9-0.9,0.9c-1.5,0-1.9-1.9-3.6-1.9c-2.1,0-4,2.5-4,5.5c0,3.1,1.9,5.4,4.4,5.4c1.5,0,2.7-0.7,3.8-2.2L150.8,309.1z"/>
		<path class="st7" d="M160,299.4c3.8,0,6.7,2.8,6.7,6.5c0,3.7-2.9,6.5-6.6,6.5c-3.8,0-6.8-2.8-6.8-6.4
			C153.3,301.7,156.8,299.4,160,299.4z M160.4,311.6c1.8,0,3.9-1.9,3.9-5c0-3.5-2.2-6.5-4.8-6.5c-2.1,0-3.9,2.1-3.9,4.8
			C155.6,308.6,157.8,311.6,160.4,311.6z"/>
	</g>
</g>
</svg>
