<?xml version="1.0" encoding="utf-8"?>
<!-- Generator: Adobe Illustrator 23.0.0, SVG Export Plug-In . SVG Version: 6.00 Build 0)  -->
<svg version="1.1" id="Layer_11" xmlns="http://www.w3.org/2000/svg" xmlns:xlink="http://www.w3.org/1999/xlink" x="0px" y="0px"
	 viewBox="0 0 245 873" style="enable-background:new 0 0 245 873;" xml:space="preserve">
<style type="text/css">
	.st0{fill:#E2E2E4;}
	.st1{fill:#231F20;}
	.st2{fill:#858789;}
	.st3{fill:none;stroke:#909295;stroke-miterlimit:10;}
	.st4{fill:none;stroke:#909295;stroke-miterlimit:10;stroke-dasharray:3.0107,3.0107;}
	.st5{fill:none;stroke:#909295;stroke-miterlimit:10;stroke-dasharray:3.0362,3.0362;}
</style>
<polygon class="st0" points="0,74.8 122.5,0 245,74.8 245,873 0,873 "/>
<g>
	<g>
		<path class="st1" d="M82.5,198.9c-3.1,1.6-7,1.9-8.3,1.9c-6.8,0-9.9-5.2-9.9-9.8c0-4.6,3.3-10.5,10.8-10.5c3.3,0,5.5,1.1,6.2,1.1
			c0.3,0,0.5-0.1,0.7-0.2h0.4v5h-0.6c-0.8-3.9-3.5-5.1-6.4-5.1c-5.5,0-8.3,4.5-8.3,9.5c0,6.4,4.5,9.2,8,9.2c1.4,0,3-0.3,4.7-1.2V195
			c0-1.8-0.6-2.4-2.5-2.4h-1.2v-0.6h8.4v0.6c-1.6,0.1-2.2,0.6-2.2,1.9L82.5,198.9L82.5,198.9z"/>
		<path class="st1" d="M93.5,187.8c3.8,0,6.7,2.8,6.7,6.5c0,3.7-2.9,6.5-6.6,6.5c-3.8,0-6.8-2.8-6.8-6.4
			C86.8,190.1,90.3,187.8,93.5,187.8z M93.9,200c1.8,0,3.9-1.9,3.9-5c0-3.5-2.2-6.5-4.8-6.5c-2.1,0-3.9,2.1-3.9,4.8
			C89.1,197.1,91.3,200,93.9,200z"/>
		<path class="st1" d="M105.9,189.9c2.2-1.6,3.5-2.2,4.7-2.2c2.8,0,5.1,2.7,5.1,6c0,4-3.1,7-7.3,7c-1.4,0-2.6-0.2-4.6-0.6v-16.8
			c0-1.6-0.1-1.7-1.3-1.9l-0.9-0.1v-0.5l3.7-1.3h0.5L105.9,189.9L105.9,189.9z M105.9,196.6c0,1.6,1,3.3,3.4,3.3
			c2.5,0,4.3-2.1,4.3-5.2s-1.8-5.4-4.2-5.4c-1,0-2.1,0.5-3.5,1.5C105.9,190.7,105.9,196.6,105.9,196.6z"/>
		<path class="st1" d="M122.3,198c0,1.1,0.6,1.8,2.2,1.8v0.6h-6.9v-0.6c1.9,0,2.6-0.6,2.6-2.3v-6.2c0-1.2-0.2-1.4-1-1.5l-1.5-0.3
			V189l4-1.4h0.5L122.3,198L122.3,198z M121,180.6c0.7,0,1.4,0.5,1.4,1.2s-0.6,1.2-1.4,1.2s-1.3-0.5-1.3-1.2S120.2,180.6,121,180.6z
			"/>
		<path class="st1" d="M128.6,192.5c-0.1,0.5-0.1,0.9-0.1,1.3c0,3.2,2.3,5.4,4.7,5.4c1.6,0,2.8-0.6,3.9-2l0.3,0.4
			c-1.3,1.6-3.3,3.2-5.5,3.2c-3,0-5.4-2.8-5.4-6.4c0-3.3,2.2-6.6,6-6.6c4.2,0,4.1,3,5.1,4v0.7L128.6,192.5L128.6,192.5z
			 M135.1,191.7c-0.3-2-1.6-3.4-3.1-3.4c-1,0-2.6,0.5-3.3,3.4H135.1z"/>
		<path class="st1" d="M143.6,198.1c0,1.3,0.5,1.7,2,1.7h1.2v0.6h-7.4v-0.6c1.6,0,2.1-0.7,2.1-2.3v-7.2l-2.1-0.7V189l3.5-1.2h0.6
			v3.3h0.1c1.6-2.5,1.9-3.1,2.9-3.1c0.4,0,0.5,0,1.1,0.3c0.3,0.1,0.9,0.3,1.6,0.5l-0.7,1.9c-0.5-0.1-1.1-0.2-1.6-0.5
			c-0.3-0.2-0.7-0.3-1.1-0.3c-0.6,0-0.9,0.4-1.2,0.8c-0.4,0.6-0.7,1.1-1,1.6L143.6,198.1L143.6,198.1z"/>
		<path class="st1" d="M155.2,197.7c0,1.7,0.4,2.1,2.1,2.1v0.6h-6.2v-0.6c1.4,0,2.1-0.7,2.1-1.9v-6.5c0-1.1-0.1-1.4-0.9-1.5
			l-1.1-0.2v-0.5l3.6-1.3h0.5v2.4c2.1-1.3,3.8-2.4,5.3-2.4c2.1,0,3.3,1.6,3.3,4.6c0,4.1-0.2,4.9-0.3,6.1c0,0.8,0.5,1.2,1.7,1.2h0.7
			v0.6h-6.7v-0.6c0.9,0,1.4-0.3,1.8-0.6c0.6-0.6,0.6-2.9,0.6-7c0-2.5-1.2-3.3-2.4-3.3c-1,0-2.5,0.9-4.1,2L155.2,197.7L155.2,197.7z"
			/>
		<path class="st1" d="M174.5,187.8c3.8,0,6.7,2.8,6.7,6.5c0,3.7-2.9,6.5-6.6,6.5c-3.9,0-6.8-2.8-6.8-6.4
			C167.8,190.1,171.3,187.8,174.5,187.8z M174.9,200c1.8,0,3.9-1.9,3.9-5c0-3.5-2.2-6.5-4.8-6.5c-2.1,0-3.9,2.1-3.9,4.8
			C170.1,197.1,172.3,200,174.9,200z"/>
	</g>
</g>
<g>
	<rect x="66.8" y="91.2" class="st2" width="26.8" height="40.3"/>
	<rect x="64.1" y="87.1" class="st2" width="29.5" height="4.1"/>
	<rect x="153.3" y="87.1" class="st2" width="29.5" height="4.1"/>
	<rect x="153.3" y="91.2" class="st2" width="25.2" height="40.3"/>
	<rect x="62.9" y="134.3" class="st2" width="119.4" height="4.2"/>
	<rect x="56.2" y="141.1" class="st2" width="133" height="4.2"/>
	<g>
		<polygon class="st2" points="150.6,84.2 95.5,84.2 95.5,82.1 123,71 150.6,82.1 		"/>
		<g>
			<rect x="95.5" y="127.5" class="st2" width="55" height="4.1"/>
			<rect x="95.5" y="87.1" class="st2" width="55" height="4.1"/>
			<g>
				<g>
					<rect x="97.3" y="89.2" class="st2" width="3.4" height="41.2"/>
					<rect x="96.3" y="91.2" class="st2" width="5.3" height="2.1"/>
					<rect x="96.3" y="125.4" class="st2" width="5.3" height="2.1"/>
				</g>
				<g>
					<rect x="102.3" y="89.2" class="st2" width="3.4" height="41.2"/>
					<rect x="101.3" y="91.2" class="st2" width="5.3" height="2.1"/>
					<rect x="101.3" y="125.4" class="st2" width="5.3" height="2.1"/>
				</g>
				<g>
					<rect x="111.7" y="89.2" class="st2" width="3.4" height="41.2"/>
					<rect x="110.7" y="91.2" class="st2" width="5.3" height="2.1"/>
					<rect x="110.7" y="125.4" class="st2" width="5.3" height="2.1"/>
				</g>
				<g>
					<rect x="116.6" y="89.2" class="st2" width="3.4" height="41.2"/>
					<rect x="115.7" y="91.2" class="st2" width="5.3" height="2.1"/>
					<rect x="115.7" y="125.4" class="st2" width="5.3" height="2.1"/>
				</g>
				<g>
					<rect x="126" y="89.2" class="st2" width="3.4" height="41.2"/>
					<rect x="125.1" y="91.2" class="st2" width="5.3" height="2.1"/>
					<rect x="125.1" y="125.4" class="st2" width="5.3" height="2.1"/>
				</g>
				<g>
					<rect x="131" y="89.2" class="st2" width="3.4" height="41.2"/>
					<rect x="130" y="91.2" class="st2" width="5.4" height="2.1"/>
					<rect x="130" y="125.4" class="st2" width="5.4" height="2.1"/>
				</g>
				<g>
					<rect x="140.4" y="89.2" class="st2" width="3.4" height="41.2"/>
					<rect x="139.4" y="91.2" class="st2" width="5.4" height="2.1"/>
					<rect x="139.4" y="125.4" class="st2" width="5.4" height="2.1"/>
				</g>
				<g>
					<rect x="145.4" y="89.2" class="st2" width="3.4" height="41.2"/>
					<rect x="144.4" y="91.2" class="st2" width="5.4" height="2.1"/>
					<rect x="144.4" y="125.4" class="st2" width="5.4" height="2.1"/>
				</g>
			</g>
		</g>
	</g>
</g>
<g>
	<g>
		<line class="st3" x1="8.2" y1="873" x2="8.2" y2="871.5"/>
		<line class="st4" x1="8.2" y1="868.5" x2="8.2" y2="81.2"/>
		<polyline class="st3" points="8.2,79.7 8.2,78.2 9.5,77.4 		"/>
		<line class="st5" x1="12.1" y1="75.8" x2="120.2" y2="11.1"/>
		<polyline class="st3" points="121.5,10.3 122.7,9.5 124,10.3 		"/>
		<line class="st5" x1="126.6" y1="11.9" x2="234.7" y2="76.6"/>
		<polyline class="st3" points="236,77.4 237.3,78.2 237.3,79.7 		"/>
		<line class="st4" x1="237.3" y1="82.7" x2="237.3" y2="870"/>
		<line class="st3" x1="237.3" y1="871.5" x2="237.3" y2="873"/>
	</g>
</g>
</svg>
