<svg id="Layer_11" data-name="Layer 11" xmlns="http://www.w3.org/2000/svg" xmlns:xlink="http://www.w3.org/1999/xlink" viewBox="0 0 40 40"><defs><style>.cls-1{fill:url(#linear-gradient);}.cls-2,.cls-3,.cls-4,.cls-5,.cls-6,.cls-7,.cls-8{fill:#1a1a1a;}.cls-2{opacity:0;}.cls-3{opacity:0.04;}.cls-4{opacity:0.08;}.cls-5{opacity:0.13;}.cls-6{opacity:0.17;}.cls-7{opacity:0.21;}.cls-8{opacity:0.25;}.cls-9{fill:url(#linear-gradient-2);}.cls-10{fill:url(#linear-gradient-3);}.cls-11{fill:#fff;}</style><linearGradient id="linear-gradient" x1="5.86" y1="34.14" x2="34.14" y2="5.86" gradientUnits="userSpaceOnUse"><stop offset="0.09" stop-color="#fff"/><stop offset="1" stop-color="#d9d9d9"/></linearGradient><linearGradient id="linear-gradient-2" x1="8.87" y1="8.87" x2="31.12" y2="31.12" gradientUnits="userSpaceOnUse"><stop offset="0" stop-color="#fff"/><stop offset="1" stop-color="#ababab"/></linearGradient><linearGradient id="linear-gradient-3" x1="9.25" y1="9.25" x2="30.75" y2="30.75" gradientUnits="userSpaceOnUse"><stop offset="0.09" stop-color="#dedfe0"/><stop offset="1" stop-color="#a7a9ac"/></linearGradient></defs><title>40 px cc</title><path class="cls-1" d="M40,20A20,20,0,1,1,20,0,20,20,0,0,1,40,20Z"/><circle class="cls-2" cx="22.67" cy="22.67" r="15.47" transform="translate(-8.62 15.67) rotate(-32.39)"/><circle class="cls-3" cx="22.22" cy="22.22" r="15.51" transform="translate(-8.46 29.01) rotate(-57.48)"/><circle class="cls-4" cx="21.78" cy="21.78" r="15.56" transform="translate(-8.97 23.53) rotate(-48.26)"/><path class="cls-5" d="M36.93,21.33a15.6,15.6,0,1,1-15.6-15.6A15.59,15.59,0,0,1,36.93,21.33Z"/><path class="cls-6" d="M36.53,20.89A15.65,15.65,0,1,1,20.89,5.24,15.64,15.64,0,0,1,36.53,20.89Z"/><path class="cls-7" d="M36.13,20.44A15.69,15.69,0,1,1,20.44,4.76,15.68,15.68,0,0,1,36.13,20.44Z"/><path class="cls-8" d="M35.73,20A15.73,15.73,0,1,1,20,4.27,15.73,15.73,0,0,1,35.73,20Z"/><path class="cls-9" d="M35.73,20A15.73,15.73,0,1,1,20,4.27,15.73,15.73,0,0,1,35.73,20Z"/><path class="cls-10" d="M35.2,20A15.2,15.2,0,1,1,20,4.8,15.21,15.21,0,0,1,35.2,20Z"/><path class="cls-11" d="M12.56,24.75a5.06,5.06,0,0,1-1.89-1.95A5.53,5.53,0,0,1,10,20.05a6,6,0,0,1,.64-2.76,4.88,4.88,0,0,1,1.78-1.93A4.7,4.7,0,0,1,15,14.65a5.31,5.31,0,0,1,2.27.48A5.09,5.09,0,0,1,19,16.57a.61.61,0,0,1,.13.33.46.46,0,0,1-.27.42.45.45,0,0,1-.31.12.53.53,0,0,1-.44-.23A3.94,3.94,0,0,0,15,15.73a3.67,3.67,0,0,0-2,.56,3.61,3.61,0,0,0-1.34,1.54,5,5,0,0,0-.48,2.22,4.63,4.63,0,0,0,.53,2.21,3.87,3.87,0,0,0,1.45,1.55,4.08,4.08,0,0,0,2.13.56A3.82,3.82,0,0,0,18,23.42a.58.58,0,0,1,.41-.17.48.48,0,0,1,.35.13.56.56,0,0,1,.19.43.45.45,0,0,1-.15.35,5.12,5.12,0,0,1-1.59,1,5.69,5.69,0,0,1-1.94.34A5.22,5.22,0,0,1,12.56,24.75Z"/><path class="cls-11" d="M23.56,24.75a5.06,5.06,0,0,1-1.89-1.95A5.53,5.53,0,0,1,21,20.05a6,6,0,0,1,.64-2.76,4.88,4.88,0,0,1,1.78-1.93A4.73,4.73,0,0,1,26,14.65a5.31,5.31,0,0,1,2.27.48A5.09,5.09,0,0,1,30,16.57a.61.61,0,0,1,.13.33.46.46,0,0,1-.27.42.45.45,0,0,1-.31.12.53.53,0,0,1-.44-.23A3.94,3.94,0,0,0,26,15.73a3.62,3.62,0,0,0-2,.56,3.56,3.56,0,0,0-1.35,1.54,5,5,0,0,0-.47,2.22,4.62,4.62,0,0,0,.52,2.21,3.87,3.87,0,0,0,1.45,1.55,4.08,4.08,0,0,0,2.13.56A3.82,3.82,0,0,0,29,23.42a.58.58,0,0,1,.41-.17.48.48,0,0,1,.35.13.56.56,0,0,1,.19.43.45.45,0,0,1-.15.35,5.12,5.12,0,0,1-1.59,1,5.65,5.65,0,0,1-1.94.34A5.22,5.22,0,0,1,23.56,24.75Z"/></svg>