<svg id="Layer_11" data-name="Layer 11" xmlns="http://www.w3.org/2000/svg" xmlns:xlink="http://www.w3.org/1999/xlink" viewBox="0 0 40 40"><defs><style>.cls-1{fill:url(#linear-gradient);}.cls-2,.cls-3,.cls-4,.cls-5,.cls-6,.cls-7,.cls-8{fill:#1a1a1a;}.cls-2{opacity:0;}.cls-3{opacity:0.04;}.cls-4{opacity:0.08;}.cls-5{opacity:0.13;}.cls-6{opacity:0.17;}.cls-7{opacity:0.21;}.cls-8{opacity:0.25;}.cls-9{fill:url(#linear-gradient-2);}.cls-10{fill:url(#linear-gradient-3);}.cls-11{fill:#fff;}.cls-12{fill:#231f20;}</style><linearGradient id="linear-gradient" x1="5.86" y1="34.14" x2="34.14" y2="5.86" gradientUnits="userSpaceOnUse"><stop offset="0.09" stop-color="#fff"/><stop offset="1" stop-color="#d9d9d9"/></linearGradient><linearGradient id="linear-gradient-2" x1="8.87" y1="8.87" x2="31.12" y2="31.12" gradientUnits="userSpaceOnUse"><stop offset="0" stop-color="#fff"/><stop offset="1" stop-color="#ababab"/></linearGradient><linearGradient id="linear-gradient-3" x1="9.25" y1="9.25" x2="30.75" y2="30.75" gradientUnits="userSpaceOnUse"><stop offset="0.09" stop-color="#69ebe4" stop-opacity="0.6"/><stop offset="1" stop-color="#69ebe4"/></linearGradient></defs><title>40 px logo</title><path class="cls-1" d="M40,20A20,20,0,1,1,20,0,20,20,0,0,1,40,20Z"/><circle class="cls-2" cx="22.67" cy="22.67" r="15.47" transform="translate(-8.62 15.67) rotate(-32.39)"/><circle class="cls-3" cx="22.22" cy="22.22" r="15.51" transform="translate(-8.46 29.01) rotate(-57.48)"/><circle class="cls-4" cx="21.78" cy="21.78" r="15.56" transform="translate(-8.97 23.53) rotate(-48.26)"/><path class="cls-5" d="M36.93,21.33a15.6,15.6,0,1,1-15.6-15.6A15.59,15.59,0,0,1,36.93,21.33Z"/><path class="cls-6" d="M36.53,20.89A15.65,15.65,0,1,1,20.89,5.24,15.64,15.64,0,0,1,36.53,20.89Z"/><path class="cls-7" d="M36.13,20.44A15.69,15.69,0,1,1,20.44,4.76,15.68,15.68,0,0,1,36.13,20.44Z"/><path class="cls-8" d="M35.73,20A15.73,15.73,0,1,1,20,4.27,15.73,15.73,0,0,1,35.73,20Z"/><path class="cls-9" d="M35.73,20A15.73,15.73,0,1,1,20,4.27,15.73,15.73,0,0,1,35.73,20Z"/><path class="cls-10" d="M35.2,20A15.2,15.2,0,1,1,20,4.8,15.21,15.21,0,0,1,35.2,20Z"/><polygon class="cls-11" points="17.77 29.53 18.69 28.61 18.69 27.64 17.77 28.56 17.77 29.53"/><polygon class="cls-12" points="19.41 26.55 24.98 26.55 25.84 25.64 19.41 25.64 19.41 26.55"/><path class="cls-12" d="M25.89,12.68l0,.06-.05-.06h-2.4l-1.15-1.14,0,0H13.58L9.27,15.92v4.52l1.67,1.66h2.38l1.09,1.09H16V25h1.77v2.59l.92-.93V25h5.46l-.93-.92H18.69V22.93h3.39L21.17,22H18.69V19.57l-.92-.91v5.41h-.85V17.8L16,16.89v5.38H14.79l-2.85-2.83V17.05h0l2.84-2.86h2l8.37,8.35h2.71L29,21.4V18.25h0L24.33,13.6h1.18l4.3,4.29h0v3.76l-2.42,2.42H25.5l-9.17-9.16h-.92L12.7,17.63h0v1.48l.92.92V18h0l2.26-2.28v0L25.13,25h2.61v0l3-3V17.51Zm2.17,6V21l-.6.61H25.51l-8.37-8.36H14.39L11,16.66v3.15l1.37,1.37H11.32l-1.13-1.12V16.3h0L14,12.49h3.55l8.4,8.38h1.3L24.74,18.4V16.15l-.92-.92v2.25l-5-5h3.09l3.75,3.74v2.15l.92.92V17.15l1.49,1.49Z"/><polygon class="cls-12" points="15.25 21.64 15.25 17.57 14.33 18.49 14.33 20.75 15.25 21.64"/><polygon class="cls-12" points="20.41 13.14 23.12 15.84 23.12 14.54 21.72 13.14 20.41 13.14"/></svg>