<svg id="Layer_11" data-name="Layer 11" xmlns="http://www.w3.org/2000/svg" xmlns:xlink="http://www.w3.org/1999/xlink" viewBox="0 0 48 48"><defs><style>.cls-1{fill:url(#linear-gradient);}.cls-2,.cls-3,.cls-4,.cls-5,.cls-6,.cls-7,.cls-8{fill:#1a1a1a;}.cls-2{opacity:0;}.cls-3{opacity:0.04;}.cls-4{opacity:0.08;}.cls-5{opacity:0.13;}.cls-6{opacity:0.17;}.cls-7{opacity:0.21;}.cls-8{opacity:0.25;}.cls-9{fill:url(#linear-gradient-2);}.cls-10{fill:url(#linear-gradient-3);}.cls-11{fill:#fff;}.cls-12{fill:#231f20;}</style><linearGradient id="linear-gradient" x1="7.03" y1="40.97" x2="40.97" y2="7.03" gradientUnits="userSpaceOnUse"><stop offset="0.09" stop-color="#fff"/><stop offset="1" stop-color="#d9d9d9"/></linearGradient><linearGradient id="linear-gradient-2" x1="10.65" y1="10.65" x2="37.35" y2="37.35" gradientUnits="userSpaceOnUse"><stop offset="0" stop-color="#fff"/><stop offset="1" stop-color="#ababab"/></linearGradient><linearGradient id="linear-gradient-3" x1="11.1" y1="11.1" x2="36.9" y2="36.9" gradientUnits="userSpaceOnUse"><stop offset="0.09" stop-color="#69ebe4" stop-opacity="0.6"/><stop offset="1" stop-color="#69ebe4"/></linearGradient></defs><title>48 px logo </title><path class="cls-1" d="M48,24A24,24,0,1,1,24,0,24,24,0,0,1,48,24Z"/><circle class="cls-2" cx="27.2" cy="27.2" r="18.56" transform="translate(-10.34 18.8) rotate(-32.39)"/><circle class="cls-3" cx="26.67" cy="26.67" r="18.61" transform="translate(-10.15 34.82) rotate(-57.48)"/><circle class="cls-4" cx="26.13" cy="26.13" r="18.67" transform="translate(-10.77 28.24) rotate(-48.26)"/><path class="cls-5" d="M44.32,25.6A18.72,18.72,0,1,1,25.6,6.88,18.72,18.72,0,0,1,44.32,25.6Z"/><path class="cls-6" d="M43.84,25.07A18.78,18.78,0,1,1,25.07,6.29,18.78,18.78,0,0,1,43.84,25.07Z"/><path class="cls-7" d="M43.36,24.53A18.83,18.83,0,1,1,24.53,5.71,18.83,18.83,0,0,1,43.36,24.53Z"/><path class="cls-8" d="M42.88,24A18.88,18.88,0,1,1,24,5.12,18.88,18.88,0,0,1,42.88,24Z"/><path class="cls-9" d="M42.88,24A18.88,18.88,0,1,1,24,5.12,18.88,18.88,0,0,1,42.88,24Z"/><path class="cls-10" d="M42.24,24A18.24,18.24,0,1,1,24,5.76,18.24,18.24,0,0,1,42.24,24Z"/><polygon class="cls-11" points="21.33 35.44 22.43 34.33 22.43 33.16 21.33 34.28 21.33 35.44"/><polygon class="cls-12" points="23.29 31.87 29.97 31.87 31 30.76 23.29 30.76 23.29 31.87"/><path class="cls-12" d="M31.07,15.22l0,.06L31,15.22H28.09l-1.38-1.38,0,0H16.3L11.13,19.1v5.43l2,2H16l1.32,1.31h1.9V30h2.13v3.1L22.43,32V30H29l-1.11-1.11H22.43V27.52h4.06l-1.08-1.11h-3V23.49l-1.1-1.1v6.49h-1V21.36l-1.1-1.09v6.46H17.74l-3.42-3.4V20.46h0L17.73,17h2.38l10.05,10H33.4l1.38-1.37V21.9h0l-5.59-5.57h1.42l5.16,5.14h0V26l-2.91,2.9H30.6l-11-11h-1.1l-3.24,3.27h0v1.77L16.35,24V21.63h0l2.72-2.73v0L30.16,30h3.12v0l3.58-3.57V21Zm2.61,7.15v2.86L33,26H30.62l-10-10h-3.3l-4,4.07v3.78l1.65,1.65H13.58l-1.35-1.34V19.56h0L16.75,15H21L31.1,25h1.55l-3-3v-2.7l-1.1-1.11V21l-6-6h3.71l4.5,4.5v2.58l1.1,1.1V20.58l1.79,1.79Z"/><polygon class="cls-12" points="18.3 25.97 18.3 21.08 17.2 22.19 17.2 24.9 18.3 25.97"/><polygon class="cls-12" points="24.5 15.77 27.74 19.01 27.74 17.45 26.06 15.77 24.5 15.77"/></svg>