<svg id="Layer_11" data-name="Layer 11" xmlns="http://www.w3.org/2000/svg" xmlns:xlink="http://www.w3.org/1999/xlink" viewBox="0 0 64 64"><defs><style>.cls-1{fill:url(#linear-gradient);}.cls-2,.cls-3,.cls-4,.cls-5,.cls-6,.cls-7,.cls-8{fill:#1a1a1a;}.cls-2{opacity:0;}.cls-3{opacity:0.04;}.cls-4{opacity:0.08;}.cls-5{opacity:0.13;}.cls-6{opacity:0.17;}.cls-7{opacity:0.21;}.cls-8{opacity:0.25;}.cls-9{fill:url(#linear-gradient-2);}.cls-10{fill:url(#linear-gradient-3);}.cls-11{fill:#fff;}</style><linearGradient id="linear-gradient" x1="9.37" y1="54.63" x2="54.63" y2="9.37" gradientUnits="userSpaceOnUse"><stop offset="0.09" stop-color="#fff"/><stop offset="1" stop-color="#d9d9d9"/></linearGradient><linearGradient id="linear-gradient-2" x1="14.2" y1="14.2" x2="49.8" y2="49.8" gradientUnits="userSpaceOnUse"><stop offset="0" stop-color="#fff"/><stop offset="1" stop-color="#ababab"/></linearGradient><linearGradient id="linear-gradient-3" x1="14.8" y1="14.8" x2="49.2" y2="49.2" gradientUnits="userSpaceOnUse"><stop offset="0.09" stop-color="#dedfe0"/><stop offset="1" stop-color="#a7a9ac"/></linearGradient></defs><title>64 px cc </title><path class="cls-1" d="M64,32A32,32,0,1,1,32,0,32,32,0,0,1,64,32Z"/><circle class="cls-2" cx="36.27" cy="36.27" r="24.75" transform="translate(-13.79 25.07) rotate(-32.39)"/><circle class="cls-3" cx="35.55" cy="35.56" r="24.82" transform="translate(-13.54 46.42) rotate(-57.48)"/><circle class="cls-4" cx="34.84" cy="34.84" r="24.89" transform="translate(-14.35 37.65) rotate(-48.26)"/><path class="cls-5" d="M59.09,34.13a25,25,0,1,1-25-25A25,25,0,0,1,59.09,34.13Z"/><path class="cls-6" d="M58.45,33.42a25,25,0,1,1-25-25A25,25,0,0,1,58.45,33.42Z"/><path class="cls-7" d="M57.81,32.71a25.1,25.1,0,1,1-25.1-25.1A25.1,25.1,0,0,1,57.81,32.71Z"/><path class="cls-8" d="M57.17,32A25.17,25.17,0,1,1,32,6.83,25.17,25.17,0,0,1,57.17,32Z"/><path class="cls-9" d="M57.17,32A25.17,25.17,0,1,1,32,6.83,25.17,25.17,0,0,1,57.17,32Z"/><path class="cls-10" d="M56.32,32A24.32,24.32,0,1,1,32,7.68,24.32,24.32,0,0,1,56.32,32Z"/><path class="cls-11" d="M20.09,39.6a8.09,8.09,0,0,1-3-3.12,8.92,8.92,0,0,1-1.1-4.4,9.43,9.43,0,0,1,1-4.41,7.85,7.85,0,0,1,2.86-3.1,7.62,7.62,0,0,1,4.09-1.13,8.45,8.45,0,0,1,3.62.77,7.85,7.85,0,0,1,2.85,2.3.93.93,0,0,1,.22.52.76.76,0,0,1-.43.68.73.73,0,0,1-.5.19.83.83,0,0,1-.71-.37,6.33,6.33,0,0,0-5-2.36,5.75,5.75,0,0,0-5.35,3.35,8.05,8.05,0,0,0-.76,3.56,7.43,7.43,0,0,0,.84,3.54A6.3,6.3,0,0,0,21,38.1,6.45,6.45,0,0,0,24.4,39a6.19,6.19,0,0,0,4.37-1.51.88.88,0,0,1,.65-.28.78.78,0,0,1,.56.21.93.93,0,0,1,.31.69.68.68,0,0,1-.25.55,7.69,7.69,0,0,1-2.54,1.54,8.82,8.82,0,0,1-3.1.54A8.38,8.38,0,0,1,20.09,39.6Z"/><path class="cls-11" d="M37.69,39.6a8.16,8.16,0,0,1-3-3.12,8.92,8.92,0,0,1-1.1-4.4,9.31,9.31,0,0,1,1-4.41,7.76,7.76,0,0,1,2.85-3.1,7.65,7.65,0,0,1,4.09-1.13,8.45,8.45,0,0,1,3.62.77A7.85,7.85,0,0,1,48,26.51a.93.93,0,0,1,.22.52.74.74,0,0,1-.43.68.73.73,0,0,1-.5.19.83.83,0,0,1-.71-.37,6.32,6.32,0,0,0-5.05-2.36,5.8,5.8,0,0,0-3.19.89,5.88,5.88,0,0,0-2.16,2.46,8.05,8.05,0,0,0-.76,3.56,7.43,7.43,0,0,0,.84,3.54,6.3,6.3,0,0,0,2.32,2.48A6.45,6.45,0,0,0,42,39a6.18,6.18,0,0,0,4.37-1.51A.88.88,0,0,1,47,37.2a.78.78,0,0,1,.56.21.89.89,0,0,1,.31.69.68.68,0,0,1-.25.55,7.69,7.69,0,0,1-2.54,1.54,8.82,8.82,0,0,1-3.1.54A8.38,8.38,0,0,1,37.69,39.6Z"/></svg>