<svg id="Layer_11" data-name="Layer 11" xmlns="http://www.w3.org/2000/svg" xmlns:xlink="http://www.w3.org/1999/xlink" viewBox="0 0 64 64"><defs><style>.cls-1{fill:url(#linear-gradient);}.cls-2,.cls-3,.cls-4,.cls-5,.cls-6,.cls-7,.cls-8{fill:#1a1a1a;}.cls-2{opacity:0;}.cls-3{opacity:0.04;}.cls-4{opacity:0.08;}.cls-5{opacity:0.13;}.cls-6{opacity:0.17;}.cls-7{opacity:0.21;}.cls-8{opacity:0.25;}.cls-9{fill:url(#linear-gradient-2);}.cls-10{fill:url(#linear-gradient-3);}</style><linearGradient id="linear-gradient" x1="9.37" y1="54.63" x2="54.63" y2="9.37" gradientUnits="userSpaceOnUse"><stop offset="0.09" stop-color="#fff"/><stop offset="1" stop-color="#d9d9d9"/></linearGradient><linearGradient id="linear-gradient-2" x1="14.2" y1="14.2" x2="49.8" y2="49.8" gradientUnits="userSpaceOnUse"><stop offset="0" stop-color="#fff"/><stop offset="1" stop-color="#ababab"/></linearGradient><linearGradient id="linear-gradient-3" x1="14.8" y1="14.8" x2="49.2" y2="49.2" gradientUnits="userSpaceOnUse"><stop offset="0.09" stop-color="#dedfe0"/><stop offset="1" stop-color="#a7a9ac"/></linearGradient></defs><title>64 px blanco</title><path class="cls-1" d="M64,32A32,32,0,1,1,32,0,32,32,0,0,1,64,32Z"/><circle class="cls-2" cx="36.27" cy="36.27" r="24.75" transform="translate(-13.79 25.07) rotate(-32.39)"/><circle class="cls-3" cx="35.55" cy="35.56" r="24.82" transform="translate(-13.54 46.42) rotate(-57.48)"/><circle class="cls-4" cx="34.84" cy="34.84" r="24.89" transform="translate(-14.35 37.65) rotate(-48.26)"/><path class="cls-5" d="M59.09,34.13a25,25,0,1,1-25-25A25,25,0,0,1,59.09,34.13Z"/><path class="cls-6" d="M58.45,33.42a25,25,0,1,1-25-25A25,25,0,0,1,58.45,33.42Z"/><path class="cls-7" d="M57.81,32.71a25.1,25.1,0,1,1-25.1-25.1A25.1,25.1,0,0,1,57.81,32.71Z"/><path class="cls-8" d="M57.17,32A25.17,25.17,0,1,1,32,6.83,25.17,25.17,0,0,1,57.17,32Z"/><path class="cls-9" d="M57.17,32A25.17,25.17,0,1,1,32,6.83,25.17,25.17,0,0,1,57.17,32Z"/><path class="cls-10" d="M56.32,32A24.32,24.32,0,1,1,32,7.68,24.32,24.32,0,0,1,56.32,32Z"/></svg>